<?xml version="1.0" standalone="no"?>
<!DOCTYPE svg PUBLIC "-//W3C//DTD SVG 1.1//EN" "http://www.w3.org/Graphics/SVG/1.1/DTD/svg11.dtd" >
<svg xmlns="http://www.w3.org/2000/svg" xmlns:xlink="http://www.w3.org/1999/xlink" version="1.1">
<metadata></metadata>
<defs>
<font id="latosemibold" horiz-adv-x="684" >
<font-face units-per-em="2048" ascent="1649" descent="-399" />
<missing-glyph horiz-adv-x="509" />
<glyph unicode="&#xfb00;" horiz-adv-x="1381" d="M45 940v90h160v71q0 90 26 160.5t74.5 120t118.5 75t157 25.5q36 0 68 -5.5t63 -14.5l-4 -111q-2 -27 -27.5 -32.5t-63.5 -5.5q-46 0 -82.5 -11t-63 -36.5t-40 -67.5t-13.5 -103v-65h442v102q0 90 26 160.5t75 119.5t118.5 74.5t155.5 25.5q36 0 68.5 -5t63.5 -14 l-5 -112q-2 -27 -27 -32.5t-63 -5.5q-46 0 -83 -10.5t-63 -36t-40 -67.5t-14 -104v-95h286v-159h-279v-871h-219v871h-435v-871h-220v869l-103 15q-26 5 -41.5 18t-15.5 38z" />
<glyph unicode="&#xfb01;" horiz-adv-x="1203" d="M46 940v90h160v44q0 96 30.5 177t93 140.5t156.5 93t220 33.5q41 0 84.5 -5.5t73.5 -15.5l-7 -115q-2 -22 -25.5 -24t-62.5 -2q-95 0 -161.5 -18t-108.5 -54.5t-61 -90t-19 -125.5v-38h640v-1030h-220v871h-413v-871h-220v869l-103 15q-26 5 -41.5 18t-15.5 38z" />
<glyph unicode="&#xfb02;" horiz-adv-x="1231" d="M46 940v90h160v49q0 85 26.5 162t80.5 135.5t135 93t192 34.5q83 0 157.5 -6t148.5 -7h147v-1491h-219v1337q-55 2 -108 5.5t-92 3.5q-123 0 -189 -70t-66 -197v-49h259v-159h-252v-871h-220v869l-103 15q-26 5 -41.5 18t-15.5 38z" />
<glyph unicode="&#xfb03;" horiz-adv-x="1857" d="M46 940v90h160v71q0 90 26 160.5t74.5 120t118.5 75t157 25.5q36 0 68 -5.5t63 -14.5l-4 -111q-2 -27 -27.5 -32.5t-63.5 -5.5q-46 0 -82.5 -11t-63 -36.5t-40 -67.5t-13.5 -103v-65h442v44q0 96 31 177t93 140.5t156 93t220 33.5q40 0 83.5 -5.5t74.5 -15.5l-8 -115 q-2 -22 -25.5 -24t-62.5 -2q-95 0 -161.5 -18t-108.5 -54.5t-61 -90t-19 -125.5v-38h640v-1030h-219v871h-414v-871h-219v871h-435v-871h-220v869l-103 15q-26 5 -41.5 18t-15.5 38z" />
<glyph unicode="&#xfb04;" horiz-adv-x="1885" d="M45 940v90h160v71q0 90 26 160.5t74.5 120t118.5 75t157 25.5q36 0 68 -5.5t63 -14.5l-4 -111q-2 -27 -27.5 -32.5t-63.5 -5.5q-46 0 -82.5 -11t-63 -36.5t-40 -67.5t-13.5 -103v-65h442v49q0 85 26 162t80 135.5t135.5 93t191.5 34.5q83 0 158.5 -6t149.5 -7h145v-1491 h-218v1337q-55 2 -108.5 5.5t-92.5 3.5q-123 0 -189 -70t-66 -197v-49h286v-159h-279v-871h-219v871h-435v-871h-220v869l-103 15q-26 5 -41.5 18t-15.5 38z" />
<glyph unicode="fb" horiz-adv-x="1892" d="M45 940v90h160v77q0 93 28 172.5t89 137.5t157 90t233 32q48 0 90.5 -3.5t87 -8t93 -8t109.5 -3.5v-610q65 71 144.5 113t181.5 42q91 0 164.5 -35.5t124.5 -102t79 -161t28 -213.5q0 -127 -31.5 -231t-90 -178t-141.5 -114.5t-185 -40.5q-50 0 -91 9.5t-76 27.5t-64 44 t-56 59l-9 -81q-5 -24 -18.5 -34t-36.5 -10h-144v1365q-42 13 -86.5 21t-86.5 8q-72 0 -124.5 -21.5t-87 -60t-51.5 -91.5t-17 -114v-77h285v-159h-278v-871h-220v869l-103 15q-26 5 -41.5 18t-15.5 38zM1092 262q46 -59 100.5 -83t119.5 -24q130 0 202.5 94t72.5 292 q0 180 -62.5 263t-179.5 83q-81 0 -141 -36.5t-112 -104.5v-484z" />
<glyph unicode="ffb" horiz-adv-x="2547" d="M45 940v90h160v71q0 90 26 160.5t74.5 120t118.5 75t157 25.5q36 0 68 -5.5t63 -14.5l-4 -111q-2 -27 -27.5 -32.5t-63.5 -5.5q-46 0 -82.5 -11t-63 -36.5t-40 -67.5t-13.5 -103v-65h442v77q0 93 28 172.5t88.5 137.5t157 90t232.5 32q45 0 86 -3.5t82.5 -7.5t87 -7.5 t100.5 -4.5h24v-610q65 71 144.5 113t182.5 42q91 0 164 -35.5t124.5 -102t79 -161t27.5 -213.5q0 -127 -31.5 -231t-89.5 -178t-141 -114.5t-186 -40.5q-50 0 -91 9.5t-75.5 27.5t-64 44t-55.5 59l-10 -81q-5 -24 -18 -34t-37 -10h-143v1365q-41 13 -86 21t-87 8 q-72 0 -124.5 -21.5t-87.5 -60t-52 -91.5t-17 -114v-77h286v-159h-279v-871h-219v871h-435v-871h-220v869l-103 15q-26 5 -41.5 18t-15.5 38zM1746 262q46 -59 101 -83t119 -24q130 0 203 94t73 292q0 180 -63 263t-180 83q-81 0 -141 -36.5t-112 -104.5v-484z" />
<glyph unicode="fh" horiz-adv-x="1886" d="M45 940v90h160v77q0 93 28 172.5t89 137.5t157 90t233 32q45 0 86 -3.5t82.5 -7.5t87 -7.5t100.5 -4.5h24v-595q65 63 141.5 101.5t178.5 38.5q86 0 151 -28.5t109.5 -81t67 -125.5t22.5 -161v-665h-219v665q0 105 -48.5 163.5t-147.5 58.5q-74 0 -137 -34t-118 -92v-761 h-221v1365q-42 13 -86.5 21t-86.5 8q-72 0 -124.5 -21.5t-87 -60t-51.5 -91.5t-17 -114v-77h285v-159h-278v-871h-220v869l-103 15q-26 5 -41.5 18t-15.5 38z" />
<glyph unicode="ffh" horiz-adv-x="2541" d="M45 940v90h160v71q0 90 26 160.5t74.5 120t118.5 75t157 25.5q36 0 68 -5.5t63 -14.5l-4 -111q-2 -27 -27.5 -32.5t-63.5 -5.5q-46 0 -82.5 -11t-63 -36.5t-40 -67.5t-13.5 -103v-65h442v77q0 93 28 172.5t88.5 137.5t157 90t232.5 32q45 0 86 -3.5t82.5 -7.5t87 -7.5 t100.5 -4.5h24v-595q65 63 141.5 101.5t178.5 38.5q86 0 151 -28.5t110 -81t67.5 -125.5t22.5 -161v-665h-219v665q0 105 -49 163.5t-148 58.5q-74 0 -137 -34t-118 -92v-761h-220v1365q-41 13 -86 21t-87 8q-72 0 -124.5 -21.5t-87.5 -60t-52 -91.5t-17 -114v-77h286v-159 h-279v-871h-219v871h-435v-871h-220v869l-103 15q-26 5 -41.5 18t-15.5 38z" />
<glyph unicode="f&#xec;" horiz-adv-x="1203" d="M46 940v90h160v44q0 96 29 177t93.5 140.5t166 93t245.5 33.5q65 0 104 -21t57 -56l150 -248h-125q-26 0 -42 7t-32 26l-121 130q-83 -2 -142.5 -21.5t-97 -55.5t-55 -88.5t-17.5 -122.5v-38h640v-1030h-220v871h-413v-871h-220v869l-103 15q-26 5 -41.5 18t-15.5 38z " />
<glyph unicode="f&#xee;" horiz-adv-x="1202" d="M46 940v90h160v128q0 169 81 259t227 90q27 0 47.5 -2.5t40.5 -8.5v-122q0 -17 -16 -22.5t-41 -5.5q-66 0 -96 -44t-30 -144v-128h640v-1030h-220v871h-413v-871h-220v869l-103 15q-26 5 -41.5 18t-15.5 38zM621 1197l232 278h205l232 -278h-147q-13 0 -26 4t-26 19 l-113 118q-5 5 -9.5 10.5t-10.5 11.5q-9 -12 -18 -22l-115 -118q-11 -11 -24.5 -17t-27.5 -6h-152z" />
<glyph unicode="f&#xef;" horiz-adv-x="1202" d="M46 940v90h160v128q0 169 81 259t227 90q27 0 47.5 -2.5t40.5 -8.5v-122q0 -17 -16 -22.5t-41 -5.5q-66 0 -96 -44t-30 -144v-128h640v-1030h-220v871h-413v-871h-220v869l-103 15q-26 5 -41.5 18t-15.5 38zM645 1322q0 27 10.5 51t27.5 42t40 28t49 10q27 0 51 -10 t42 -28t28 -42t10 -51t-10 -50t-28 -40t-42 -27t-51 -10q-26 0 -49 10t-40 27t-27.5 40t-10.5 50zM993 1322q0 27 10.5 51t28 42t41 28t49.5 10q27 0 50.5 -10t41 -28t27.5 -42t10 -51t-10 -50t-27.5 -40t-41 -27t-50.5 -10t-50 10t-40.5 27t-28 40t-10.5 50z" />
<glyph unicode="f&#x131;" horiz-adv-x="1203" d="M46 940v90h160v128q0 169 81 259t227 90q27 0 47.5 -2.5t40.5 -8.5v-122q0 -17 -16 -22.5t-41 -5.5q-66 0 -96 -44t-30 -144v-128h640v-1030h-220v871h-413v-871h-220v869l-103 15q-26 5 -41.5 18t-15.5 38z" />
<glyph unicode="ff&#xec;" horiz-adv-x="1856" d="M45 940v90h161v71q0 90 26 160.5t74.5 120t118.5 75t157 25.5q36 0 68 -5.5t63 -14.5l-4 -111q-2 -27 -27.5 -32.5t-63.5 -5.5q-46 0 -82.5 -11t-63 -36.5t-40 -67.5t-13.5 -103v-65h441v102q0 90 29.5 160.5t90 119.5t153.5 74.5t219 25.5q85 0 131.5 -12t60.5 -37 l161 -270h-124q-26 0 -41.5 7t-32.5 26l-126 135q-8 1 -15 1h-15q-145 0 -212 -55t-67 -182v-95h640v-1030h-220v871h-413v-871h-219v871h-434v-871h-220v869l-104 15q-26 5 -41.5 18t-15.5 38z" />
<glyph unicode="ff&#xee;" horiz-adv-x="1856" d="M46 0zM46 940v90h160v71q0 90 26 160.5t74.5 120t118.5 75t157 25.5q36 0 68 -5.5t63 -14.5l-4 -111q-2 -27 -27.5 -32.5t-63.5 -5.5q-46 0 -82.5 -11t-63 -36.5t-40 -67.5t-13.5 -103v-65h442v128q0 169 80.5 259t226.5 90q27 0 48 -2.5t40 -8.5v-122q0 -17 -15 -22.5 t-41 -5.5q-67 0 -97 -44t-30 -144v-128h640v-1030h-219v871h-414v-871h-219v871h-435v-871h-220v869l-103 15q-26 5 -41.5 18t-15.5 38zM1273 1197l232 278h205l232 -278h-147q-13 0 -26 4t-26 19l-113 118q-5 5 -9.5 10.5t-9.5 11.5q-9 -12 -19 -22l-114 -118 q-11 -11 -24.5 -17t-28.5 -6h-152z" />
<glyph unicode="ff&#xef;" horiz-adv-x="1856" d="M46 940v90h160v71q0 90 26 160.5t74.5 120t118.5 75t157 25.5q36 0 68 -5.5t63 -14.5l-4 -111q-2 -27 -27.5 -32.5t-63.5 -5.5q-46 0 -82.5 -11t-63 -36.5t-40 -67.5t-13.5 -103v-65h442v128q0 169 80.5 259t226.5 90q27 0 48 -2.5t40 -8.5v-122q0 -17 -15 -22.5 t-41 -5.5q-67 0 -97 -44t-30 -144v-128h640v-1030h-219v871h-414v-871h-219v871h-435v-871h-220v869l-103 15q-26 5 -41.5 18t-15.5 38zM1297 1322q0 27 10.5 51t28 42t40.5 28t48 10q27 0 50.5 -10t41.5 -28t28 -42t10 -51t-10 -50t-28 -40t-41.5 -27t-50.5 -10 q-26 0 -48.5 10t-40 27t-28 40t-10.5 50zM1646 1322q0 27 10 51t27.5 42t40.5 28t50 10t50 -10t40.5 -28t28 -42t10.5 -51t-10.5 -50t-28 -40t-41 -27t-49.5 -10q-27 0 -50 10t-40.5 27t-27.5 40t-10 50z" />
<glyph unicode="ff&#x131;" horiz-adv-x="1857" d="M46 940v90h160v71q0 90 26 160.5t74.5 120t118.5 75t157 25.5q36 0 68 -5.5t63 -14.5l-4 -111q-2 -27 -27.5 -32.5t-63.5 -5.5q-46 0 -82.5 -11t-63 -36.5t-40 -67.5t-13.5 -103v-65h442v128q0 169 80.5 259t226.5 90q27 0 48 -2.5t40 -8.5v-122q0 -17 -15 -22.5 t-41 -5.5q-67 0 -97 -44t-30 -144v-128h640v-1030h-219v871h-414v-871h-219v871h-435v-871h-220v869l-103 15q-26 5 -41.5 18t-15.5 38z" />
<glyph unicode="fj" horiz-adv-x="1203" d="M46 940v90h160v44q0 96 30.5 177t93 140.5t156.5 93t220 33.5q41 0 84.5 -5.5t73.5 -15.5l-7 -115q-2 -22 -25.5 -24t-62.5 -2q-95 0 -161.5 -18t-108.5 -54.5t-61 -90t-19 -125.5v-38h640v-1084q0 -66 -17.5 -124t-55.5 -101t-98 -67.5t-145 -24.5q-35 0 -64 5.5 t-58 14.5l8 120q2 10 6 15t11.5 7.5t20 3t31.5 0.5q78 0 109.5 34.5t31.5 116.5v925h-413v-871h-220v869l-103 15q-26 5 -41.5 18t-15.5 38z" />
<glyph unicode="ffj" horiz-adv-x="1857" d="M46 940v90h160v71q0 90 26 160.5t74.5 120t118.5 75t157 25.5q36 0 68 -5.5t63 -14.5l-4 -111q-2 -27 -27.5 -32.5t-63.5 -5.5q-46 0 -82.5 -11t-63 -36.5t-40 -67.5t-13.5 -103v-65h442v44q0 96 31 177t93 140.5t156 93t220 33.5q40 0 83.5 -5.5t74.5 -15.5l-8 -115 q-2 -22 -25.5 -24t-62.5 -2q-95 0 -161.5 -18t-108.5 -54.5t-61 -90t-19 -125.5v-38h640v-1084q0 -66 -17.5 -124t-54.5 -101t-97 -67.5t-146 -24.5q-35 0 -64 5.5t-59 14.5l8 120q2 10 6 15t12 7.5t20 3t32 0.5q39 0 66 8.5t44 26t24 46.5t7 70v925h-414v-871h-219v871 h-435v-871h-220v869l-103 15q-26 5 -41.5 18t-15.5 38z" />
<glyph unicode="fk" horiz-adv-x="1805" d="M45 940v90h160v77q0 93 28 172.5t89 137.5t157 90t233 32q45 0 86 -3.5t82.5 -7.5t87 -7.5t100.5 -4.5h24v-879h47q23 0 37 6t29 26l293 335q15 20 33.5 30t47.5 10h200l-353 -397q-31 -40 -67 -63q20 -14 35.5 -32t29.5 -41l376 -511h-196q-27 0 -46 8.5t-33 32.5 l-302 410q-15 24 -30.5 30t-46.5 6h-54v-487h-221v1365q-42 13 -86.5 21t-86.5 8q-72 0 -124.5 -21.5t-87 -60t-51.5 -91.5t-17 -114v-77h285v-159h-278v-871h-220v869l-103 15q-26 5 -41.5 18t-15.5 38z" />
<glyph unicode="ffk" horiz-adv-x="2461" d="M46 940v90h160v71q0 90 26 160.5t74.5 120t118.5 75t157 25.5q36 0 68 -5.5t63 -14.5l-4 -111q-2 -27 -27.5 -32.5t-63.5 -5.5q-46 0 -82.5 -11t-63 -36.5t-40 -67.5t-13.5 -103v-65h442v77q0 93 28.5 172.5t88.5 137.5t156.5 90t232.5 32q45 0 86 -3.5t82.5 -7.5 t87 -7.5t100.5 -4.5h24v-879h47q23 0 37 6t30 26l292 335q15 20 34 30t47 10h200l-352 -397q-31 -40 -68 -63q20 -14 35.5 -32t30.5 -41l376 -511h-197q-27 0 -46 8.5t-33 32.5l-302 410q-15 24 -30.5 30t-46.5 6h-54v-487h-220v1365q-41 13 -86 21t-87 8 q-72 0 -124.5 -21.5t-87.5 -60t-52 -91.5t-17 -114v-77h286v-159h-279v-871h-219v871h-435v-871h-220v869l-103 15q-26 5 -41.5 18t-15.5 38z" />
<glyph unicode="ft" horiz-adv-x="1426" d="M45 940v90h160v88q0 89 26 160t74.5 120t118.5 75t157 26q36 0 68 -5t63 -15l-4 -111q-2 -28 -27.5 -33t-63.5 -5q-46 0 -82.5 -10.5t-63 -36.5t-40 -67.5t-13.5 -104.5v-81h467l49 304q5 17 17.5 28t32.5 11h113v-343h289v-159h-289v-592q0 -56 27.5 -86t73.5 -30 q26 0 44.5 6.5t31.5 14t23 14.5t19 7q18 0 30 -21l65 -107q-51 -45 -120.5 -69t-143.5 -24q-130 0 -200 73t-70 206v608h-452v-871h-220v869l-103 15q-26 5 -41.5 18t-15.5 38z" />
<glyph unicode="fft" horiz-adv-x="2081" d="M46 940v90h160v71q0 90 26 160.5t74.5 120t118.5 75t157 25.5q36 0 68 -5.5t63 -14.5l-4 -111q-2 -27 -27.5 -32.5t-63.5 -5.5q-46 0 -82.5 -11t-63 -36.5t-40 -67.5t-13.5 -103v-65h442v88q0 89 26 160t75 120t118.5 75t155.5 26q69 0 132 -20l-5 -111q-2 -28 -27 -33 t-63 -5q-46 0 -83 -10.5t-63 -36.5t-40 -67.5t-14 -104.5v-81h468l49 304q4 17 16.5 28t32.5 11h113v-343h290v-159h-290v-592q0 -56 27.5 -86t73.5 -30q26 0 45 6.5t32.5 14t23 14.5t17.5 7q11 0 17.5 -4.5t13.5 -16.5l64 -107q-51 -45 -120 -69t-143 -24q-131 0 -200.5 73 t-69.5 206v608h-453v-871h-219v871h-435v-871h-220v869l-103 15q-26 5 -41.5 18t-15.5 38z" />
<glyph unicode="tf" horiz-adv-x="1424" d="M39 919v89l169 24l48 302q5 17 17.5 28t32.5 11h113v-343h483v88q0 89 26 160t75 120t118.5 75t155.5 26q69 0 132 -20l-5 -111q-2 -28 -27 -33t-63 -5q-46 0 -83 -10.5t-63 -36.5t-40 -67.5t-14 -104.5v-81h286v-159h-279v-871h-219v871h-483v-592q0 -56 27.5 -86 t73.5 -30q26 0 44.5 6.5t31.5 14t23 14.5t19 7q18 0 30 -21l65 -107q-51 -45 -120.5 -69t-143.5 -24q-130 0 -200 73t-70 206v608h-115q-18 0 -31.5 12t-13.5 36z" />
<glyph unicode="t&#x131;" horiz-adv-x="1292" d="M39 919v89l169 24l48 302q5 17 17.5 28t32.5 11h113v-343h729v-1030h-220v871h-509v-592q0 -56 27.5 -86t73.5 -30q26 0 44.5 6.5t31.5 14t23 14.5t19 7q18 0 30 -21l65 -107q-51 -45 -120.5 -69t-143.5 -24q-130 0 -200 73t-70 206v608h-115q-18 0 -31.5 12t-13.5 36z " />
<glyph unicode="tt" horiz-adv-x="1420" d="M39 919v89l169 24l48 302q5 17 17.5 28t32.5 11h113v-343h461l49 304q4 17 16 28t33 11h113v-343h289v-159h-289v-592q0 -56 27.5 -86t73.5 -30q26 0 44.5 6.5t32 14t23.5 14.5t18 7q11 0 17 -4.5t13 -16.5l66 -107q-52 -45 -121.5 -69t-142.5 -24q-131 0 -201 73 t-70 206v608h-452v-592q0 -56 27.5 -86t73.5 -30q26 0 44.5 6.5t31.5 14t23 14.5t19 7q18 0 30 -21l65 -107q-51 -45 -120.5 -69t-143.5 -24q-130 0 -200 73t-70 206v608h-115q-18 0 -31.5 12t-13.5 36z" />
<glyph unicode="ttf" horiz-adv-x="2096" d="M39 919v89l169 24l48 302q5 17 17.5 28t32.5 11h113v-343h461l49 304q4 17 16 28t33 11h113v-343h483v88q0 89 26 160t74.5 120t118.5 75t156 26q69 0 132 -20l-5 -111q-2 -28 -27 -33t-63 -5q-46 0 -82.5 -10.5t-62.5 -36.5t-40 -67.5t-14 -104.5v-81h285v-159h-279 v-871h-219v871h-483v-592q0 -56 27.5 -86t73.5 -30q26 0 44.5 6.5t32 14t23.5 14.5t18 7q11 0 17 -4.5t13 -16.5l66 -107q-52 -45 -121.5 -69t-142.5 -24q-131 0 -201 73t-70 206v608h-452v-592q0 -56 27.5 -86t73.5 -30q26 0 44.5 6.5t31.5 14t23 14.5t19 7q18 0 30 -21 l65 -107q-51 -45 -120.5 -69t-143.5 -24q-130 0 -200 73t-70 206v608h-115q-18 0 -31.5 12t-13.5 36z" />
<glyph unicode="tt&#x131;" horiz-adv-x="1943" d="M39 919v89l169 24l48 302q5 17 17.5 28t32.5 11h113v-343h461l49 304q4 17 16 28t33 11h113v-343h708v-1030h-219v871h-489v-592q0 -56 27.5 -86t73.5 -30q26 0 44.5 6.5t32 14t23.5 14.5t18 7q11 0 17 -4.5t13 -16.5l66 -107q-52 -45 -121.5 -69t-142.5 -24 q-131 0 -201 73t-70 206v608h-452v-592q0 -56 27.5 -86t73.5 -30q26 0 44.5 6.5t31.5 14t23 14.5t19 7q18 0 30 -21l65 -107q-51 -45 -120.5 -69t-143.5 -24q-130 0 -200 73t-70 206v608h-115q-18 0 -31.5 12t-13.5 36z" />
<glyph unicode="f&#x237;" horiz-adv-x="1203" d="M46 940v90h160v128q0 169 81 259t227 90q27 0 47.5 -2.5t40.5 -8.5v-122q0 -17 -16 -22.5t-41 -5.5q-66 0 -96 -44t-30 -144v-128h640v-1084q0 -66 -17.5 -124t-55.5 -101t-98 -67.5t-145 -24.5q-35 0 -64 5.5t-58 14.5l8 120q2 10 6 15t11.5 7.5t20 3t31.5 0.5 q78 0 109.5 34.5t31.5 116.5v925h-413v-871h-220v869l-103 15q-26 5 -41.5 18t-15.5 38z" />
<glyph unicode="ff&#x237;" horiz-adv-x="1857" d="M46 940v90h160v71q0 90 26 160.5t74.5 120t118.5 75t157 25.5q36 0 68 -5.5t63 -14.5l-4 -111q-2 -27 -27.5 -32.5t-63.5 -5.5q-46 0 -82.5 -11t-63 -36.5t-40 -67.5t-13.5 -103v-65h442v128q0 169 80.5 259t226.5 90q27 0 48 -2.5t40 -8.5v-122q0 -17 -15 -22.5 t-41 -5.5q-67 0 -97 -44t-30 -144v-128h640v-1084q0 -66 -17.5 -124t-54.5 -101t-97 -67.5t-146 -24.5q-35 0 -64 5.5t-59 14.5l8 120q2 10 6 15t12 7.5t20 3t32 0.5q39 0 66 8.5t44 26t24 46.5t7 70v925h-414v-871h-219v871h-435v-871h-220v869l-103 15q-26 5 -41.5 18 t-15.5 38z" />
<glyph unicode="f&#xed;" horiz-adv-x="1202" d="M46 0zM46 940v90h160v128q0 169 81 259t227 90q27 0 47.5 -2.5t40.5 -8.5v-122q0 -17 -16 -22.5t-41 -5.5q-66 0 -96 -44t-30 -144v-128h640v-1030h-220v871h-413v-871h-220v869l-103 15q-26 5 -41.5 18t-15.5 38zM825 1193l148 248q14 26 33 38t56 12h214l-247 -265 q-16 -18 -32 -25.5t-41 -7.5h-131z" />
<glyph unicode="ff&#xed;" horiz-adv-x="1856" d="M46 0zM46 940v90h160v71q0 90 26 160.5t74.5 120t118.5 75t157 25.5q36 0 68 -5.5t63 -14.5l-4 -111q-2 -27 -27.5 -32.5t-63.5 -5.5q-46 0 -82.5 -11t-63 -36.5t-40 -67.5t-13.5 -103v-65h442v128q0 169 80.5 259t226.5 90q27 0 48 -2.5t40 -8.5v-122q0 -17 -15 -22.5 t-41 -5.5q-67 0 -97 -44t-30 -144v-128h640v-1030h-219v871h-414v-871h-219v871h-435v-871h-220v869l-103 15q-26 5 -41.5 18t-15.5 38zM1482 1193l148 248q14 26 33 38t56 12h214l-247 -265q-16 -18 -32 -25.5t-41 -7.5h-131z" />
<glyph unicode="ti" horiz-adv-x="1291" d="M39 0zM39 919v89l169 24l48 302q5 17 17.5 28t32.5 11h113v-343h729v-1030h-220v871h-509v-592q0 -56 27.5 -86t73.5 -30q26 0 44.5 6.5t31.5 14t23 14.5t19 7q18 0 30 -21l65 -107q-51 -45 -120.5 -69t-143.5 -24q-130 0 -200 73t-70 206v608h-115q-18 0 -31.5 12 t-13.5 36zM899 1365q0 31 12 58t32 47t46 31.5t56 11.5t57 -11.5t47.5 -31.5t32 -47t11.5 -58q0 -30 -11.5 -56t-32 -46t-48 -31.5t-56.5 -11.5q-30 0 -56 11.5t-46 31.5t-32 46t-12 56z" />
<glyph unicode="t&#xec;" horiz-adv-x="1291" d="M39 0zM39 919v89l169 24l48 302q5 17 17.5 28t32.5 11h113v-343h729v-1030h-220v871h-509v-592q0 -56 27.5 -86t73.5 -30q26 0 44.5 6.5t31.5 14t23 14.5t19 7q18 0 30 -21l65 -107q-51 -45 -120.5 -69t-143.5 -24q-130 0 -200 73t-70 206v608h-115q-18 0 -31.5 12 t-13.5 36zM742 1491h207q38 0 56.5 -12.5t32.5 -37.5l150 -248h-125q-26 0 -41.5 7t-32.5 26z" />
<glyph unicode="t&#xed;" horiz-adv-x="1290" d="M38 0zM38 919v89l169 24l48 302q5 17 17.5 28t32.5 11h113v-343h729v-1030h-220v871h-509v-592q0 -56 27.5 -86t73.5 -30q26 0 44.5 6.5t31.5 14t23 14.5t19 7q18 0 30 -21l65 -107q-51 -45 -120.5 -69t-143.5 -24q-130 0 -200 73t-70 206v608h-115q-18 0 -31.5 12 t-13.5 36zM920 1193l148 248q14 26 33 38t56 12h214l-247 -265q-16 -18 -32 -25.5t-41 -7.5h-131z" />
<glyph unicode="t&#xee;" horiz-adv-x="1291" d="M39 0zM39 919v89l169 24l48 302q5 17 17.5 28t32.5 11h113v-343h729v-1030h-220v871h-509v-592q0 -56 27.5 -86t73.5 -30q26 0 44.5 6.5t31.5 14t23 14.5t19 7q18 0 30 -21l65 -107q-51 -45 -120.5 -69t-143.5 -24q-130 0 -200 73t-70 206v608h-115q-18 0 -31.5 12 t-13.5 36zM711 1197l232 278h205l232 -278h-147q-13 0 -26 4t-26 19l-113 118q-5 5 -9.5 10.5t-9.5 11.5q-9 -12 -19 -22l-114 -118q-11 -11 -24.5 -17t-28.5 -6h-152z" />
<glyph unicode="t&#xef;" horiz-adv-x="1291" d="M39 0zM39 919v89l169 24l48 302q5 17 17.5 28t32.5 11h113v-343h729v-1030h-220v871h-509v-592q0 -56 27.5 -86t73.5 -30q26 0 44.5 6.5t31.5 14t23 14.5t19 7q18 0 30 -21l65 -107q-51 -45 -120.5 -69t-143.5 -24q-130 0 -200 73t-70 206v608h-115q-18 0 -31.5 12 t-13.5 36zM750 1322q0 27 10 51t27.5 42t40.5 28t49 10q27 0 50 -10t41 -28t29 -42t11 -51t-11 -50t-29 -40t-41.5 -27t-49.5 -10t-49 10t-40.5 27t-27.5 40t-10 50zM1083 1322q0 27 10.5 51t28 42t41 28t50.5 10t50 -10t40.5 -28t28 -42t10.5 -51t-10.5 -50t-28 -40 t-41 -27t-49.5 -10q-27 0 -50.5 10t-41 27t-28 40t-10.5 50z" />
<glyph unicode="tti" horiz-adv-x="1942" d="M39 0zM39 919v89l169 24l48 302q5 17 17.5 28t32.5 11h113v-343h461l49 304q4 17 16 28t33 11h113v-343h708v-1030h-219v871h-489v-592q0 -56 27.5 -86t73.5 -30q26 0 44.5 6.5t32 14t23.5 14.5t18 7q11 0 17 -4.5t13 -16.5l66 -107q-52 -45 -121.5 -69t-142.5 -24 q-131 0 -201 73t-70 206v608h-452v-592q0 -56 27.5 -86t73.5 -30q26 0 44.5 6.5t31.5 14t23 14.5t19 7q18 0 30 -21l65 -107q-51 -45 -120.5 -69t-143.5 -24q-130 0 -200 73t-70 206v608h-115q-18 0 -31.5 12t-13.5 36zM1546 1365q0 31 12 58t32 47t46 31.5t56 11.5 t57 -11.5t47.5 -31.5t32 -47t11.5 -58q0 -30 -11.5 -56t-32 -46t-48 -31.5t-56.5 -11.5q-30 0 -56 11.5t-46 31.5t-32 46t-12 56z" />
<glyph unicode="tt&#xec;" horiz-adv-x="1942" d="M39 0zM39 919v89l169 24l48 302q5 17 17.5 28t32.5 11h113v-343h461l49 304q4 17 16 28t33 11h113v-343h708v-1030h-219v871h-489v-592q0 -56 27.5 -86t73.5 -30q26 0 44.5 6.5t32 14t23.5 14.5t18 7q11 0 17 -4.5t13 -16.5l66 -107q-52 -45 -121.5 -69t-142.5 -24 q-131 0 -201 73t-70 206v608h-452v-592q0 -56 27.5 -86t73.5 -30q26 0 44.5 6.5t31.5 14t23 14.5t19 7q18 0 30 -21l65 -107q-51 -45 -120.5 -69t-143.5 -24q-130 0 -200 73t-70 206v608h-115q-18 0 -31.5 12t-13.5 36zM1389 1491h207q38 0 56.5 -12.5t32.5 -37.5l150 -248 h-125q-26 0 -41.5 7t-32.5 26z" />
<glyph unicode="tt&#xed;" horiz-adv-x="1941" d="M38 0zM38 919v89l169 24l48 302q5 17 17.5 28t32.5 11h113v-343h461l49 304q4 17 16 28t33 11h113v-343h708v-1030h-219v871h-489v-592q0 -56 27.5 -86t73.5 -30q26 0 44.5 6.5t32 14t23.5 14.5t18 7q11 0 17 -4.5t13 -16.5l66 -107q-52 -45 -121.5 -69t-142.5 -24 q-131 0 -201 73t-70 206v608h-452v-592q0 -56 27.5 -86t73.5 -30q26 0 44.5 6.5t31.5 14t23 14.5t19 7q18 0 30 -21l65 -107q-51 -45 -120.5 -69t-143.5 -24q-130 0 -200 73t-70 206v608h-115q-18 0 -31.5 12t-13.5 36zM1568 1193l148 248q14 26 33 38t56 12h214l-247 -265 q-16 -18 -32 -25.5t-41 -7.5h-131z" />
<glyph unicode="tt&#xee;" horiz-adv-x="1942" d="M39 0zM39 919v89l169 24l48 302q5 17 17.5 28t32.5 11h113v-343h461l49 304q4 17 16 28t33 11h113v-343h708v-1030h-219v871h-489v-592q0 -56 27.5 -86t73.5 -30q26 0 44.5 6.5t32 14t23.5 14.5t18 7q11 0 17 -4.5t13 -16.5l66 -107q-52 -45 -121.5 -69t-142.5 -24 q-131 0 -201 73t-70 206v608h-452v-592q0 -56 27.5 -86t73.5 -30q26 0 44.5 6.5t31.5 14t23 14.5t19 7q18 0 30 -21l65 -107q-51 -45 -120.5 -69t-143.5 -24q-130 0 -200 73t-70 206v608h-115q-18 0 -31.5 12t-13.5 36zM1358 1197l232 278h205l232 -278h-147q-13 0 -26 4 t-26 19l-113 118q-5 5 -9.5 10.5t-9.5 11.5q-9 -12 -19 -22l-114 -118q-11 -11 -24.5 -17t-28.5 -6h-152z" />
<glyph unicode="tt&#xef;" horiz-adv-x="1942" d="M39 0zM39 919v89l169 24l48 302q5 17 17.5 28t32.5 11h113v-343h461l49 304q4 17 16 28t33 11h113v-343h708v-1030h-219v871h-489v-592q0 -56 27.5 -86t73.5 -30q26 0 44.5 6.5t32 14t23.5 14.5t18 7q11 0 17 -4.5t13 -16.5l66 -107q-52 -45 -121.5 -69t-142.5 -24 q-131 0 -201 73t-70 206v608h-452v-592q0 -56 27.5 -86t73.5 -30q26 0 44.5 6.5t31.5 14t23 14.5t19 7q18 0 30 -21l65 -107q-51 -45 -120.5 -69t-143.5 -24q-130 0 -200 73t-70 206v608h-115q-18 0 -31.5 12t-13.5 36zM1397 1322q0 27 10 51t27.5 42t40.5 28t49 10 q27 0 50 -10t41 -28t29 -42t11 -51t-11 -50t-29 -40t-41.5 -27t-49.5 -10t-49 10t-40.5 27t-27.5 40t-10 50zM1730 1322q0 27 10.5 51t28 42t41 28t50.5 10t50 -10t40.5 -28t28 -42t10.5 -51t-10.5 -50t-28 -40t-41 -27t-49.5 -10q-27 0 -50.5 10t-41 27t-28 40t-10.5 50z " />
<glyph horiz-adv-x="0" />
<glyph horiz-adv-x="0" />
<glyph unicode="&#xd;" horiz-adv-x="0" />
<glyph unicode=" "  horiz-adv-x="509" />
<glyph unicode="&#x09;" horiz-adv-x="509" />
<glyph unicode="&#xa0;" horiz-adv-x="509" />
<glyph unicode="!" horiz-adv-x="564" d="M137 127q0 30 11 56t30.5 45.5t45 30.5t56.5 11q30 0 55.5 -11t44.5 -30.5t30.5 -45.5t11.5 -56q0 -31 -11.5 -56.5t-30.5 -45t-45 -30t-55 -10.5q-31 0 -56.5 10.5t-45 30t-30.5 45t-11 56.5zM179 889v586h208v-586q0 -92 -8 -180.5t-22 -191.5h-148q-14 102 -22 191 t-8 181z" />
<glyph unicode="&#x22;" horiz-adv-x="785" d="M118 937zM118 1180v295h190v-295l-19 -160q-6 -39 -22.5 -61t-54.5 -22q-33 0 -50.5 22t-24.5 61zM477 1180v295h190v-295l-19 -160q-6 -39 -22.5 -61t-54.5 -22q-33 0 -50.5 22t-24.5 61z" />
<glyph unicode="#" horiz-adv-x="1187" d="M49 515l11 71h202l59 305h-228l17 92q6 36 28 52.5t69 16.5h136l69 346q7 36 33 56.5t62 20.5h99l-82 -423h231l82 423h97q36 0 56 -22.5t14 -56.5l-69 -344h212l-17 -93q-6 -36 -28 -52t-69 -16h-121l-58 -305h163q34 0 49 -20.5t7 -70.5l-10 -71h-233l-81 -424h-101 q-15 0 -29 7t-23 20t-12.5 30t0.5 36l65 331h-230l-65 -342q-8 -44 -36 -63t-64 -19h-97l82 424h-133q-34 0 -49 21t-8 70zM442 586h231l59 305h-230z" />
<glyph unicode="$" horiz-adv-x="1187" d="M84 177l67 102q9 13 23.5 21.5t32.5 8.5q20 0 45.5 -17.5t59.5 -40.5t80 -45t109 -32l38 497q-73 22 -143 48.5t-125.5 72t-90 113t-34.5 169.5q0 77 30.5 149t88.5 129.5t142.5 94t193.5 41.5l11 137q1 23 17.5 40t42.5 17h82l-16 -200q108 -16 187 -60t137 -100 l-53 -82q-23 -36 -56 -36q-15 0 -36 11.5t-49 26t-64 30t-80 23.5l-36 -455q74 -23 146 -50t129.5 -69.5t93.5 -106t36 -158.5q0 -93 -31.5 -175.5t-92 -145.5t-148 -102.5t-198.5 -46.5l-13 -164q-1 -22 -17 -40t-42 -18h-82l17 225q-121 14 -224.5 63.5t-177.5 124.5z M353 1096q0 -43 15.5 -76t42.5 -58.5t64 -44.5t80 -34l32 416q-61 -6 -105.5 -25t-73 -46t-42 -60.5t-13.5 -71.5zM637 172q122 14 185 79.5t63 169.5q0 44 -16.5 76.5t-44.5 57.5t-67 42.5t-84 33.5z" />
<glyph unicode="%" horiz-adv-x="1660" d="M84 1118q0 87 25.5 156t70 117t105.5 73.5t133 25.5t132.5 -25.5t105 -73.5t70.5 -117t26 -156q0 -85 -27.5 -152.5t-73.5 -115t-106.5 -72.5t-126.5 -25q-72 0 -133 25t-105.5 72.5t-70 115t-25.5 152.5zM170 0l1087 1439q11 14 27 25t45 11h159l-1087 -1441 q-11 -14 -27.5 -24t-39.5 -10h-164zM256 1118q0 -61 12.5 -103t34 -68t51 -37.5t64.5 -11.5q34 0 64 11.5t52 37.5t35 68t13 103q0 62 -13 106t-35 71t-52 39t-64 12q-35 0 -64.5 -12t-51 -39t-34 -70.5t-12.5 -106.5zM909 347q0 87 25 156t70 117.5t105.5 73.5t132.5 25 t133.5 -25t106 -73.5t70 -117.5t25.5 -156q0 -85 -27.5 -152.5t-73.5 -114.5t-106.5 -72t-127.5 -25q-72 0 -132.5 25t-105.5 72t-70 114.5t-25 152.5zM1080 347q0 -61 12.5 -103t34.5 -68t51.5 -37.5t63.5 -11.5t64 11.5t52.5 37.5t35.5 68t13 103q0 62 -13 106t-35.5 71 t-52.5 38.5t-64 11.5t-63.5 -11.5t-51.5 -38.5t-34.5 -70.5t-12.5 -106.5z" />
<glyph unicode="&#x26;" horiz-adv-x="1470" d="M82 400q0 70 23 133t64.5 116.5t98 97t123.5 73.5q-58 77 -84.5 151.5t-26.5 149.5q0 76 27.5 143.5t80 118t128 79.5t170.5 29q86 0 155 -26.5t119 -71.5t78 -103.5t33 -121.5l-139 -28q-18 -4 -34 5t-25 31q-8 27 -23 52.5t-37.5 46t-54 33.5t-72.5 13 q-47 0 -84.5 -15.5t-63.5 -42.5t-40 -63t-14 -77q0 -33 7.5 -63.5t23.5 -61t41.5 -63t60.5 -69.5l407 -419q36 67 58 141t29 148q2 22 14.5 34.5t32.5 12.5h136q-1 -128 -38 -246t-106 -220l309 -317h-214q-17 0 -31 2t-25.5 6.5t-22.5 13t-23 21.5l-123 125 q-97 -86 -220.5 -135t-268.5 -49q-84 0 -164 28.5t-143.5 82t-102.5 131t-39 174.5zM306 418q0 -60 22 -108t58.5 -80.5t84 -50t98.5 -17.5q101 0 184.5 34t147.5 93l-411 418q-94 -55 -139 -129t-45 -160z" />
<glyph unicode="'" horiz-adv-x="425" d="M118 1180v295h190v-295l-19 -160q-6 -39 -22.5 -61t-54.5 -22q-33 0 -50.5 22t-24.5 61z" />
<glyph unicode="(" horiz-adv-x="555" d="M83 643q0 126 15.5 247.5t49 239.5t87 235t130.5 234l97 -60q9 -6 16.5 -13t12 -18t2 -25.5t-11.5 -32.5q-101 -182 -154.5 -387t-53.5 -420t53.5 -420.5t154.5 -386.5q9 -18 11.5 -32.5t-2 -25t-12 -18t-16.5 -13.5l-97 -60q-77 118 -130.5 234t-87 234t-49 239.5 t-15.5 248.5z" />
<glyph unicode=")" horiz-adv-x="555" d="M62.5 -196.5q2.5 14.5 11.5 32.5q100 181 153.5 386.5t53.5 420.5t-53.5 420t-153.5 387q-9 18 -11.5 32.5t1.5 25.5t11.5 18t16.5 13l98 60q76 -118 129.5 -234.5t87 -234.5t49 -239.5t15.5 -247.5q0 -127 -15.5 -248.5t-49 -239.5t-87 -234.5t-129.5 -233.5l-98 60 q-9 6 -16.5 13.5t-11.5 18t-1.5 25z" />
<glyph unicode="*" horiz-adv-x="870" d="M115 1334l52 91l170 -98q17 -11 32 -23t26 -26q-8 17 -10.5 35.5t-2.5 39.5v194h106v-193q0 -41 -12 -75q11 14 25.5 25.5t32.5 22.5l168 97l53 -91l-168 -97q-17 -11 -34.5 -18.5t-35.5 -10.5q33 -4 70 -26l169 -99l-53 -91l-169 99q-17 10 -32.5 21.5t-26.5 26.5 q13 -33 13 -74v-196h-106v194q0 20 2.5 38.5t9.5 36.5q-22 -26 -57 -47l-169 -98l-52 91l168 98q37 23 71 26q-18 2 -36 10t-35 19z" />
<glyph unicode="+" horiz-adv-x="1187" d="M99 604v166h405v428h179v-428h407v-166h-407v-429h-179v429h-405z" />
<glyph unicode="," horiz-adv-x="472" d="M98 142q0 27 10 50.5t28 41t43 27t54 9.5q35 0 62 -12.5t44.5 -34.5t26.5 -51.5t9 -61.5q0 -47 -14 -99.5t-41 -104t-66.5 -101t-89.5 -90.5l-38 35q-8 8 -11.5 15.5t-3.5 18.5q0 17 17 33q10 12 26 30t32.5 42t30.5 52t21 60h-6q-30 0 -54 11t-42 29.5t-28 44t-10 56.5z " />
<glyph unicode="." horiz-adv-x="484" d="M100 127q0 30 11 56t30 45.5t45 30.5t56 11t56 -11t45 -30.5t30.5 -45.5t11.5 -56q0 -31 -11.5 -56.5t-30.5 -45t-45.5 -30t-55.5 -10.5q-30 0 -56 10.5t-45 30t-30 45t-11 56.5z" />
<glyph unicode="/" horiz-adv-x="941" d="M63 -95l607 1532q14 38 44 58.5t69 20.5h94l-603 -1527q-15 -42 -49 -63t-68 -21h-94z" />
<glyph unicode="0" horiz-adv-x="1187" d="M56 737q0 194 41 335.5t113.5 234.5t170.5 138.5t212 45.5t212 -45.5t171 -138.5t114.5 -234.5t41.5 -335.5t-41.5 -335t-114.5 -234t-171 -138t-212 -45t-212 45t-170.5 138t-113.5 234.5t-41 334.5zM283 737q0 -164 25.5 -273t68.5 -174.5t98.5 -93t117.5 -27.5 q60 0 116.5 27.5t99.5 93t69 174.5t26 273t-26 273t-69 174.5t-99.5 93.5t-116.5 28q-61 0 -117 -28t-99 -93.5t-68.5 -174.5t-25.5 -273z" />
<glyph unicode="1" horiz-adv-x="1187" d="M151 1096l444 382h179v-1311h278v-167h-804v167h307v924q0 48 3 100l-236 -200q-15 -12 -31.5 -15.5t-30 -0.5t-24.5 9.5t-17 14.5z" />
<glyph unicode="2" horiz-adv-x="1187" d="M87 0v75q0 23 9 47t30 45l459 460q58 58 103.5 111.5t78 106.5t49.5 108t17 115q0 58 -18 102.5t-49.5 74t-75 44.5t-95.5 15q-50 0 -92.5 -14.5t-76 -40t-55.5 -61t-32 -77.5q-15 -42 -39.5 -56.5t-70.5 -5.5l-115 20q15 104 57.5 183t107 132t148 80t180.5 27 q98 0 180.5 -29t142.5 -83t94 -131t34 -173q0 -82 -24 -151.5t-65 -133t-96 -123.5t-115 -121l-357 -365q44 11 89 19t84 8h434q36 0 56 -21t20 -54v-133h-997z" />
<glyph unicode="3" horiz-adv-x="1187" d="M78 372l95 40q38 16 72.5 9t49.5 -38q16 -33 36.5 -70.5t53 -68.5t80 -52t117.5 -21q71 0 123.5 23t87.5 59.5t52.5 81.5t17.5 89q0 55 -13 101.5t-51.5 79.5t-108.5 52t-184 19v159q93 1 157 18.5t102.5 49t55.5 75.5t17 96q0 56 -17.5 99.5t-49 72.5t-74.5 43.5 t-95 14.5q-50 0 -92.5 -14.5t-76 -40t-56 -61t-32.5 -77.5q-14 -42 -38 -56.5t-70 -5.5l-116 20q15 104 57.5 183t107 132t148 80t180.5 27q98 0 178.5 -28t138.5 -78.5t89.5 -120t31.5 -152.5q0 -140 -65 -219.5t-179 -115.5q275 -81 275 -346q0 -106 -39.5 -189 t-108 -140.5t-159 -87.5t-191.5 -30q-114 0 -197 27t-143 77.5t-100 122.5t-67 161z" />
<glyph unicode="4" horiz-adv-x="1187" d="M15 534l708 942h207v-931h204v-127q0 -18 -12 -31.5t-36 -13.5h-156v-373h-192v373h-638q-24 0 -40.5 13.5t-21.5 34.5zM252 545h486v538q0 31 2 67t8 75z" />
<glyph unicode="5" horiz-adv-x="1187" d="M101 150l68 94q22 31 57 30q23 0 49.5 -16t62 -35t83.5 -35.5t115 -16.5q73 0 130 23.5t96.5 66t60 102t20.5 130.5q0 65 -19 115.5t-56.5 86.5t-94 55t-129.5 19q-54 0 -111 -9t-116 -29l-137 39l121 705h714v-96q0 -47 -30 -76.5t-99 -29.5h-432l-60 -343 q105 22 196 21q116 0 204.5 -34t148 -94.5t90 -142t30.5 -176.5q0 -118 -41 -214t-113.5 -164.5t-171.5 -105t-214 -36.5q-68 0 -128.5 13t-114 36t-98.5 53.5t-81 63.5z" />
<glyph unicode="6" horiz-adv-x="1187" d="M97 496q0 100 43 209.5t133 230.5l363 486q16 22 47.5 37.5t70.5 15.5h194l-437 -543q-16 -20 -31 -39.5t-29 -37.5q47 28 102.5 43t121.5 15q86 0 165 -28t138.5 -84t95.5 -138t36 -190q0 -102 -37.5 -191t-105 -155.5t-162 -104.5t-209.5 -38t-207 36.5t-157 103.5 t-100 161.5t-35 210.5zM309 460q0 -66 18.5 -120t54.5 -92.5t88.5 -60t121.5 -21.5q67 0 122 22t94.5 61t61 92t21.5 116q0 68 -21 121.5t-59.5 90.5t-92 56.5t-118.5 19.5q-67 0 -120.5 -22.5t-91.5 -61t-58.5 -91t-20.5 -110.5z" />
<glyph unicode="7" horiz-adv-x="1187" d="M102 1325v150h1011v-98q0 -43 -9 -69.5t-19 -44.5l-582 -1186q-15 -33 -43.5 -55t-74.5 -22h-159l594 1166q16 32 32.5 57.5t37.5 49.5h-736q-20 0 -36 16t-16 36z" />
<glyph unicode="8" horiz-adv-x="1187" d="M89 410q0 135 68 226t204 133q-111 44 -166.5 128t-55.5 202q0 83 33 154.5t93 124.5t144 83t185 30t184.5 -30t143.5 -83t93.5 -124.5t33.5 -154.5q0 -118 -56 -202t-167 -128q135 -42 204 -133t69 -226q0 -97 -37 -176t-103.5 -134.5t-159 -85.5t-205.5 -30t-205.5 30 t-159 85.5t-103.5 134t-37 176.5zM315 414q0 -55 18.5 -102.5t54 -81.5t87.5 -53t119 -19t119 19t87.5 53t53.5 81t18 103q0 68 -21 117t-58 81t-88.5 48t-110.5 16t-110.5 -16t-89 -48t-58.5 -81.5t-21 -116.5zM353 1095q0 -46 13 -90t41 -78.5t74 -55t113 -20.5t113 20.5 t74 55t41 78.5t13 90t-15 87.5t-45.5 72t-75.5 49t-105 18.5t-106 -18.5t-75.5 -49t-44.5 -72t-15 -87.5z" />
<glyph unicode="9" horiz-adv-x="1187" d="M95 1020q0 97 36.5 183t102 150t156.5 101t202 37q110 0 199 -35.5t151.5 -99.5t96 -152.5t33.5 -194.5q0 -67 -11.5 -126.5t-33.5 -115t-53.5 -109.5t-70.5 -109l-347 -498q-15 -23 -45.5 -37t-68.5 -14h-201l452 579q20 26 38 48.5t34 46.5q-54 -39 -119.5 -58.5 t-139.5 -19.5q-80 0 -153.5 27t-131 81t-92 133t-34.5 183zM315 1036q0 -131 70.5 -201t196.5 -70q68 0 119.5 21.5t87 58t54 85t18.5 103.5q0 65 -20 115.5t-56 86.5t-86.5 55t-109.5 19q-62 0 -112.5 -20.5t-86.5 -57t-55.5 -86t-19.5 -109.5z" />
<glyph unicode=":" horiz-adv-x="520" d="M117 127q0 30 11 56t30 45.5t45 30.5t56 11t56 -11t45 -30.5t30.5 -45.5t11.5 -56q0 -31 -11.5 -56.5t-30.5 -45t-45.5 -30t-55.5 -10.5q-30 0 -56 10.5t-45 30t-30 45t-11 56.5zM117 873q0 30 11 56t30 45.5t45 30.5t56 11t56 -11t45 -30.5t30.5 -45.5t11.5 -56 q0 -31 -11.5 -56.5t-30.5 -45t-45.5 -30t-55.5 -10.5q-30 0 -56 10.5t-45 30t-30 45t-11 56.5zM118 0z" />
<glyph unicode=";" horiz-adv-x="545" d="M129 0zM129 873q0 30 11 56t30 45.5t45 30.5t56 11t56 -11t45 -30.5t30.5 -45.5t11.5 -56q0 -31 -11.5 -56.5t-30.5 -45t-45.5 -30t-55.5 -10.5q-30 0 -56 10.5t-45 30t-30 45t-11 56.5zM135 142q0 27 10 50.5t28 41t43 27t54 9.5q35 0 62 -12.5t44.5 -34.5t26.5 -51.5 t9 -61.5q0 -47 -14 -99.5t-41 -104t-66.5 -101t-89.5 -90.5l-38 35q-8 8 -11.5 15.5t-3.5 18.5q0 17 17 33q10 12 26 30t32.5 42t30.5 52t21 60h-6q-30 0 -54 11t-42 29.5t-28 44t-10 56.5z" />
<glyph unicode="&#x3c;" horiz-adv-x="1187" d="M160 644v91l803 418v-159q0 -18 -9.5 -33.5t-31.5 -26.5l-414 -210q-23 -11 -47.5 -19.5t-50.5 -15.5q27 -6 51 -14.5t47 -20.5l414 -209q23 -11 32 -26.5t9 -34.5v-158z" />
<glyph unicode="=" horiz-adv-x="1187" d="M146 429v167h895v-167h-895zM146 782v166h895v-166h-895z" />
<glyph unicode="&#x3e;" horiz-adv-x="1187" d="M225 226v158q0 19 9.5 34.5t31.5 26.5l414 209q22 11 46.5 20t51.5 15q-28 7 -52.5 15.5t-45.5 19.5l-414 210q-23 11 -32 26.5t-9 33.5v159l803 -418v-91z" />
<glyph unicode="?" horiz-adv-x="929" d="M78 1342q34 31 73.5 57.5t86.5 47t101.5 32.5t118.5 12q85 0 156 -24t122.5 -68.5t80.5 -107.5t29 -141t-22.5 -135t-57.5 -99t-76 -73t-77 -58t-62.5 -54.5t-31.5 -59.5l-21 -154h-150l-15 169q-5 48 15.5 83t54.5 65.5t75.5 59t77.5 63t60.5 77.5t24.5 104 q0 40 -15.5 72t-43 54.5t-64.5 35t-80 12.5q-60 0 -102 -14.5t-72 -31.5t-49 -30.5t-33 -13.5q-32 0 -47 27zM274 127q0 30 11 56t30 45.5t45 30.5t56 11t56 -11t45.5 -30.5t30.5 -45.5t11 -56q0 -31 -11 -56.5t-30.5 -45t-46 -30t-55.5 -10.5q-30 0 -56 10.5t-45 30t-30 45 t-11 56.5z" />
<glyph unicode="@" horiz-adv-x="1720" d="M99 590q0 111 28.5 213.5t80 193t124 166t162 129.5t193 83.5t215.5 29.5q95 0 187 -21t173 -62t150 -101.5t118.5 -137.5t77 -171.5t27.5 -203.5q0 -110 -31.5 -204.5t-88 -164.5t-133 -110t-165.5 -40q-75 0 -128 35t-70 112q-60 -77 -128.5 -111t-148.5 -34 q-62 0 -108.5 22.5t-77.5 60.5t-46 91t-15 114q0 58 14.5 117.5t44 115t74 104t103.5 84.5t132.5 57t161.5 21q74 0 128 -11.5t103 -32.5l-96 -376q-18 -71 -18 -116t13.5 -70t38.5 -34.5t54 -9.5q46 0 88 27.5t73.5 77.5t50 120.5t18.5 154.5q0 137 -43.5 240.5t-120.5 173 t-182.5 104.5t-229.5 35q-135 0 -252.5 -51.5t-204 -141.5t-136 -213t-49.5 -265q0 -171 53.5 -300t146 -216t218.5 -131t270 -44q158 0 274.5 32.5t196.5 79.5q24 14 42.5 8.5t26.5 -26.5l31 -81q-109 -72 -250 -115t-321 -43q-181 0 -336.5 57.5t-269.5 165t-178.5 262.5 t-64.5 351zM665 484q0 -70 31 -109.5t90 -39.5q29 0 58.5 9t57 32t50.5 62t38 98l76 294q-35 7 -77 8q-70 0 -129 -30t-102.5 -79t-68 -113t-24.5 -132z" />
<glyph unicode="A" horiz-adv-x="1405" d="M-3 0l585 1475h242l585 -1475h-185q-32 0 -51.5 16t-29.5 39l-123 326h-635l-123 -326q-8 -20 -28.5 -37.5t-51.5 -17.5h-185zM450 553h505l-202 539q-12 30 -25 70.5t-26 87.5q-12 -48 -24.5 -88.5t-24.5 -70.5z" />
<glyph unicode="B" horiz-adv-x="1337" d="M175 0v1475h491q141 0 241.5 -27.5t165 -77.5t94.5 -122t30 -163q0 -52 -16 -101t-49 -91t-83.5 -76.5t-118.5 -56.5q157 -33 235 -116t78 -216q0 -94 -35.5 -172.5t-102.5 -135.5t-165 -88.5t-224 -31.5h-541zM415 189h297q81 0 136.5 19t91 52t51.5 77.5t16 95.5 q0 104 -71.5 164t-224.5 60h-296v-468zM415 826h239q154 0 229.5 59.5t75.5 171.5q0 122 -71 176t-222 54h-251v-461z" />
<glyph unicode="C" horiz-adv-x="1360" d="M87 737q0 166 53 305t148.5 238.5t229 155t294.5 55.5q160 0 282.5 -51.5t212.5 -137.5l-79 -112q-8 -11 -19.5 -19.5t-30.5 -8.5q-20 0 -46.5 19t-67 42t-101.5 42t-152 19q-105 0 -193.5 -37t-152 -107.5t-98.5 -172t-35 -230.5q0 -130 37 -232t101.5 -172t151.5 -107 t187 -37q61 0 110 7t90 21.5t77 37.5t72 55q21 19 41 19q19 0 34 -16l95 -103q-90 -109 -221 -167.5t-313 -58.5q-162 0 -292.5 55.5t-223 155.5t-142 238t-49.5 304z" />
<glyph unicode="D" horiz-adv-x="1557" d="M175 0v1475h557q166 0 301.5 -54t232.5 -151.5t150 -233t53 -299.5t-53 -299.5t-150 -232.5t-232.5 -151t-301.5 -54h-557zM416 194h316q114 0 205 36.5t155 107t98.5 171t34.5 228.5q0 127 -34.5 228.5t-98.5 171t-155 107t-205 37.5h-316v-1087z" />
<glyph unicode="E" horiz-adv-x="1179" d="M175 0v1475h920v-194h-679v-444h542v-188h-542v-455h680l-1 -194h-920z" />
<glyph unicode="F" horiz-adv-x="1158" d="M175 0v1475h920v-194h-679v-472h576v-194h-576v-615h-241z" />
<glyph unicode="G" horiz-adv-x="1490" d="M86 737q0 167 53.5 306t152.5 238.5t239.5 154.5t315.5 55q89 0 165.5 -14t142 -38.5t120.5 -59t101 -77.5l-68 -110q-16 -26 -42 -32t-56 12q-30 17 -63 37t-76 37t-99.5 27.5t-132.5 10.5q-117 0 -210.5 -38.5t-160.5 -109.5t-102.5 -172.5t-35.5 -226.5 q0 -132 38 -236t107.5 -176t168 -110t220.5 -38q91 0 162.5 19.5t139.5 54.5v293h-205q-24 0 -37.5 12.5t-13.5 33.5v136h472v-584q-219 -158 -508 -158h-4q-179 0 -324 55.5t-247 155.5t-157.5 238t-55.5 304z" />
<glyph unicode="H" horiz-adv-x="1571" d="M175 0v1475h241v-646h740v646h240v-1475h-240v656h-740v-656h-241z" />
<glyph unicode="I" horiz-adv-x="590" d="M175 0v1475h241v-1475h-241z" />
<glyph unicode="J" horiz-adv-x="872" d="M24 11l12 144q3 20 16 32.5t37 12.5q18 0 47.5 -8t76.5 -8q62 0 111 18.5t82 58t50 101.5t17 150v963h239v-957q0 -124 -30.5 -222.5t-90.5 -168t-148.5 -106.5t-204.5 -37q-53 0 -105.5 6.5t-108.5 20.5z" />
<glyph unicode="K" horiz-adv-x="1381" d="M175 0v1475h240v-631h68q39 0 63.5 10.5t44.5 34.5l446 532q24 30 49 42t63 12h205l-528 -623q-22 -27 -41.5 -44.5t-43.5 -29.5q31 -11 55.5 -31t48.5 -53l547 -694h-209q-23 0 -39 3t-27.5 9t-20.5 15.5t-16 20.5l-460 563q-10 13 -20.5 22.5t-24.5 15.5t-31.5 8.5 t-40.5 2.5h-88v-660h-240z" />
<glyph unicode="L" horiz-adv-x="1057" d="M175 0v1475h240v-1274h612v-201h-852z" />
<glyph unicode="M" horiz-adv-x="1918" d="M175 0v1475h179q32 0 49.5 -6t31.5 -34l473 -857q14 -30 28.5 -61.5t26.5 -63.5q12 33 25.5 65t29.5 62l466 855q14 29 31.5 34.5t49.5 5.5h179v-1475h-211v1011q0 25 1.5 53.5t3.5 57.5l-473 -874q-28 -54 -85 -54h-34q-58 0 -85 54l-482 877q3 -31 5 -60t2 -54v-1011 h-211z" />
<glyph unicode="N" horiz-adv-x="1571" d="M175 0v1475h125q15 0 26 -2t20 -6t17.5 -12t17.5 -20l811 -1042q-3 32 -4.5 62.5t-1.5 57.5v962h210v-1475h-122q-28 0 -47.5 9.5t-36.5 32.5l-810 1040q3 -30 4.5 -59t1.5 -53v-970h-211z" />
<glyph unicode="O" horiz-adv-x="1647" d="M86 737q0 164 53.5 302.5t150.5 238.5t232.5 156.5t300.5 56.5q166 0 302 -56.5t232.5 -156.5t150 -238.5t53.5 -302.5t-53.5 -302t-150 -238t-232.5 -156t-302 -56q-165 0 -300.5 56t-232.5 156t-150.5 238t-53.5 302zM330 737q0 -128 34.5 -229t99 -171.5t156 -108 t203.5 -37.5q114 0 205 37.5t155 108t98.5 171.5t34.5 229q0 127 -34.5 228.5t-98.5 172t-155 108.5t-205 38q-113 0 -204 -38t-155.5 -108.5t-99 -172t-34.5 -228.5z" />
<glyph unicode="P" horiz-adv-x="1250" d="M175 0v1475h459q144 0 250 -34t175 -95t103 -146.5t34 -188.5q0 -105 -36 -193t-106.5 -151t-175.5 -98t-244 -35h-219v-534h-240zM415 723h219q80 0 141 20.5t101 58t60.5 90.5t20.5 119q0 65 -19.5 116t-59.5 86.5t-101 54.5t-143 19h-219v-564z" />
<glyph unicode="Q" horiz-adv-x="1647" d="M87 737q0 164 53.5 302.5t150.5 238.5t232.5 156.5t300.5 56.5q166 0 302 -56.5t232.5 -156.5t150 -238.5t53.5 -302.5q0 -101 -20.5 -192.5t-59.5 -171.5t-95.5 -145.5t-128.5 -114.5l376 -408h-196q-44 0 -78 12t-63 42l-236 259q-55 -16 -114 -24.5t-123 -8.5 q-165 0 -300.5 56t-232.5 156t-150.5 238t-53.5 302zM331 737q0 -128 34.5 -229t99 -171.5t156 -108t203.5 -37.5q114 0 205 37.5t155 108t98.5 171.5t34.5 229q0 127 -34.5 228.5t-98.5 172t-155 108.5t-205 38q-113 0 -204 -38t-155.5 -108.5t-99 -172t-34.5 -228.5z" />
<glyph unicode="R" horiz-adv-x="1300" d="M175 0v1475h434q145 0 250.5 -30t173 -84.5t99.5 -131.5t32 -171q0 -77 -23 -143.5t-66.5 -121t-107.5 -94.5t-145 -62q45 -27 77 -75l398 -562h-214q-63 0 -92 49l-344 497q-17 26 -37.5 37t-61.5 11h-133v-594h-240zM415 768h188q82 0 143.5 20t102.5 56t61.5 85.5 t20.5 109.5q0 121 -80 184.5t-242 63.5h-194v-519z" />
<glyph unicode="S" horiz-adv-x="1117" d="M56 177l70 115q9 14 23.5 22.5t31.5 8.5q24 0 52.5 -22t69 -48.5t98 -48.5t137.5 -22q130 0 201 63.5t71 175.5q0 62 -29.5 101.5t-78.5 66t-111.5 45t-127 39.5t-127 49.5t-111 74t-78 112.5t-29.5 167q0 80 31 155t91 132.5t148 92.5t201 35q127 0 233 -40t183 -114 l-59 -114q-11 -18 -23.5 -27t-30.5 -9q-19 0 -43.5 16.5t-59.5 36.5t-83.5 36.5t-114.5 16.5q-61 0 -108 -15t-78.5 -43t-47.5 -65t-16 -81q0 -56 29.5 -94t78.5 -64.5t111.5 -46.5t127.5 -42.5t127.5 -51t111 -72.5t78 -107.5t29.5 -154.5q0 -98 -33.5 -184.5t-97.5 -150.5 t-158 -100.5t-214 -36.5q-71 0 -137.5 13.5t-127.5 38.5t-114.5 61t-95.5 80z" />
<glyph unicode="T" horiz-adv-x="1219" d="M31 1275v200h1159v-200h-460v-1275h-238v1275h-461z" />
<glyph unicode="U" horiz-adv-x="1514" d="M157 586v889h239v-888q0 -88 24.5 -160.5t71 -124t113.5 -80t152 -28.5t152 28.5t113.5 79.5t71 123.5t24.5 160.5v889h239v-889q0 -130 -41.5 -241t-119.5 -191t-189 -125.5t-250 -45.5t-250.5 45.5t-189 125.5t-119 191t-41.5 241z" />
<glyph unicode="V" horiz-adv-x="1405" d="M-3 1475h191q32 0 51.5 -16t29.5 -40l380 -961q14 -40 29 -87t28 -100q11 52 23.5 99.5t28.5 87.5l379 961q8 20 28.5 38t51.5 18h192l-598 -1475h-216z" />
<glyph unicode="W" horiz-adv-x="2137" d="M24 1475h200q31 0 52 -15t28 -41l277 -945q8 -31 14.5 -66t13.5 -74q8 39 17 74.5t19 65.5l317 945q7 20 28.5 38t50.5 18h70q32 0 51.5 -16t29.5 -40l315 -945q10 -30 18.5 -64t16.5 -73q7 38 14 72.5t15 64.5l275 945q6 23 28 39.5t52 16.5h188l-459 -1475h-216 l-346 1059q-6 17 -12 37.5t-11 44.5q-5 -24 -11 -44.5t-11 -37.5l-350 -1059h-216z" />
<glyph unicode="X" horiz-adv-x="1351" d="M11 0l498 757l-477 718h237q26 0 37.5 -8t21.5 -23l358 -564q4 13 9.5 25.5t14.5 25.5l333 509q10 17 22.5 26t30.5 9h228l-481 -707l496 -768h-238q-25 0 -40 13.5t-25 29.5l-366 591q-4 -12 -9 -23.5t-11 -21.5l-354 -546q-11 -16 -25 -29.5t-37 -13.5h-223z" />
<glyph unicode="Y" horiz-adv-x="1303" d="M-6 1475h210q32 0 50 -15.5t31 -39.5l302 -528q20 -40 37 -76t29 -71q12 36 28.5 71.5t37.5 75.5l300 528q10 20 29.5 37.5t50.5 17.5h211l-539 -897v-578h-239v578z" />
<glyph unicode="Z" horiz-adv-x="1236" d="M47 0v94q0 19 6 36t17 33l793 1118h-772v194h1086v-90q0 -20 -7 -39.5t-18 -36.5l-792 -1115h801v-194h-1114z" />
<glyph unicode="[" horiz-adv-x="634" d="M177 -307v1885h400v-87q0 -24 -16.5 -40.5t-43.5 -16.5h-156v-1596h156q27 0 43.5 -17.5t16.5 -40.5v-87h-400z" />
<glyph unicode="\" horiz-adv-x="941" d="M63 1516h95q39 0 68.5 -20.5t43.5 -58.5l607 -1532h-93q-36 0 -69.5 21t-48.5 63z" />
<glyph unicode="]" horiz-adv-x="634" d="M58 -220q0 24 16.5 41t43.5 17h155v1596h-155q-27 0 -43.5 16.5t-16.5 40.5v87h400v-1885h-400v87z" />
<glyph unicode="^" horiz-adv-x="1187" d="M118 705l401 770h143l408 -770h-160q-20 0 -34.5 10.5t-22.5 27.5l-215 420q-14 30 -25.5 58t-19.5 55q-8 -27 -18.5 -55t-23.5 -58l-205 -420q-7 -17 -22 -27.5t-38 -10.5h-168z" />
<glyph unicode="_" horiz-adv-x="948" d="M71 -152h807v-145h-807v145z" />
<glyph unicode="`" horiz-adv-x="819" d="M106 1491h207q38 0 56.5 -12.5t32.5 -37.5l150 -248h-125q-26 0 -41.5 7t-32.5 26z" />
<glyph unicode="a" horiz-adv-x="1029" d="M58 264q0 60 32.5 117.5t106.5 103t195.5 75.5t299.5 34v70q0 113 -48 168t-141 55q-63 0 -106.5 -16t-75 -34.5t-56 -34.5t-52.5 -16q-23 0 -38.5 12t-26.5 29l-39 72q177 165 421 165q90 0 160.5 -29t118 -82.5t72.5 -126.5t25 -162v-664h-98q-32 0 -48.5 9.5 t-27.5 39.5l-21 85q-40 -37 -79 -64.5t-80.5 -47t-89 -29t-105.5 -9.5q-63 0 -118 17t-95 52.5t-63 88t-23 122.5zM268 275q0 -37 12 -63t33 -42.5t49 -24.5t62 -8q86 0 148 32.5t120 92.5v195q-118 -5 -198.5 -19.5t-131 -38t-72.5 -55t-22 -69.5z" />
<glyph unicode="b" horiz-adv-x="1155" d="M134 0v1516h220v-610q65 71 145 113t182 42q91 0 164.5 -35.5t124.5 -102t78.5 -161t27.5 -213.5q0 -127 -31 -231t-89.5 -178t-141.5 -114.5t-185 -40.5q-50 0 -91 9.5t-76 27.5t-64 44t-56 59l-9 -81q-5 -24 -18.5 -34t-36.5 -10h-144zM354 262q46 -59 101 -83t119 -24 q130 0 203 94t73 292q0 180 -63 263t-180 83q-81 0 -140.5 -36.5t-112.5 -104.5v-484z" />
<glyph unicode="c" horiz-adv-x="983" d="M77 523q0 116 32.5 215t95.5 170.5t156.5 112t215.5 40.5q114 0 200 -37t154 -104l-59 -80q-10 -13 -19 -20.5t-27 -7.5q-17 0 -36 12.5t-45 27t-63 27t-92 12.5q-72 0 -125.5 -25.5t-90 -73.5t-54.5 -116t-18 -153q0 -88 19.5 -156.5t56 -115.5t88 -71.5t116.5 -24.5 q63 0 103 15t66.5 33.5t45.5 34t41 15.5q27 0 41 -21l62 -80q-38 -46 -84 -78t-97 -52t-106.5 -28.5t-111.5 -8.5q-97 0 -182 36t-147.5 105.5t-99 169t-36.5 227.5z" />
<glyph unicode="d" horiz-adv-x="1155" d="M79 519q0 117 31 216.5t89.5 172.5t142 114.5t186.5 41.5q92 0 157 -29t116 -82v563h220v-1516h-133q-44 0 -57 42l-19 113q-33 -38 -69.5 -69.5t-79 -54t-91 -34.5t-103.5 -12q-88 0 -159.5 35t-123 102.5t-79.5 167.5t-28 229zM305 519q0 -96 16.5 -164t47 -111 t75 -62.5t99.5 -19.5q84 0 144.5 35.5t113.5 103.5v486q-47 58 -102 82.5t-119 24.5q-129 0 -202 -94.5t-73 -280.5z" />
<glyph unicode="e" horiz-adv-x="1087" d="M76 544q0 109 34 203t98 163.5t155.5 110t207.5 40.5q96 0 178 -31.5t141.5 -91.5t93 -148t33.5 -199q0 -51 -11.5 -68.5t-40.5 -17.5h-671q4 -89 27.5 -154t63 -108t94.5 -64t122 -21q65 0 112 14.5t81.5 32.5t59.5 33t45 15q27 0 41 -21l62 -80q-39 -46 -88 -78 t-104 -52t-113.5 -28.5t-113.5 -8.5q-109 0 -201.5 36t-160.5 107t-106.5 175.5t-38.5 240.5zM300 640h519q0 55 -16 103t-46.5 83t-76.5 55t-105 20q-120 0 -188.5 -68.5t-86.5 -192.5z" />
<glyph unicode="f" horiz-adv-x="726" d="M45 940v90h160v88q0 89 26 160t74.5 120t118.5 75t157 26q36 0 68 -5t63 -15l-4 -111q-2 -28 -27.5 -33t-63.5 -5q-46 0 -82.5 -10.5t-63 -36.5t-40 -67.5t-13.5 -104.5v-81h285v-159h-278v-871h-220v869l-103 15q-26 5 -41.5 18t-15.5 38z" />
<glyph unicode="g" horiz-adv-x="1074" d="M56 -95q0 74 47 126t126 82q-43 20 -69 56t-26 94q0 23 8.5 47.5t25 48.5t41.5 45.5t59 38.5q-78 43 -122.5 115t-44.5 167q0 78 30.5 140.5t84.5 106.5t128.5 67.5t162.5 23.5q68 0 126.5 -15t107.5 -41h293v-82q0 -41 -49 -51l-104 -17q26 -59 26 -127v-5 q0 -77 -30 -139.5t-83.5 -106.5t-127 -67.5t-159.5 -23.5q-33 0 -64 3.5t-61 9.5q-30 -17 -44 -36.5t-14 -39.5q0 -34 29.5 -50.5t78 -23.5t111 -9t127 -7.5t127 -17t111 -38.5t78.5 -73.5t30 -119.5q0 -68 -34 -132.5t-98 -114.5t-156 -80.5t-210 -30.5q-117 0 -203.5 22.5 t-144 61t-86 88.5t-28.5 105zM248 -67q0 -31 16 -57.5t49 -45.5t85 -30.5t124 -11.5q145 0 218 45t73 116q0 34 -20 55t-53.5 33t-79.5 17t-96 8.5t-103 6t-103 9.5q-49 -26 -79.5 -61.5t-30.5 -83.5zM302 720q0 -41 13.5 -76t39 -60t64 -39t88.5 -14q102 0 153.5 52.5 t51.5 136.5q0 86 -51.5 136t-153.5 50q-101 0 -153 -50t-52 -136z" />
<glyph unicode="h" horiz-adv-x="1148" d="M134 0v1516h220v-595q65 63 141.5 101.5t179.5 38.5q86 0 151 -28.5t109.5 -81t67 -125.5t22.5 -161v-665h-219v665q0 105 -48.5 163.5t-148.5 58.5q-74 0 -136.5 -34t-118.5 -92v-761h-220z" />
<glyph unicode="i" horiz-adv-x="506" d="M106 1360q0 31 12 57.5t31.5 46.5t45.5 31.5t56 11.5q31 0 58 -11.5t47.5 -31.5t32 -46.5t11.5 -57.5q0 -30 -11.5 -56.5t-32 -46.5t-47.5 -32t-58 -12q-30 0 -56 12t-45.5 32t-31.5 46.5t-12 56.5zM143 0v1044h221v-1044h-221z" />
<glyph unicode="j" horiz-adv-x="506" d="M-75 -351l8 120q3 20 17 23t53 3q78 0 109 34.5t31 116.5v1098h221v-1098q0 -66 -17.5 -124t-55.5 -101t-98 -67.5t-145 -24.5q-36 0 -64.5 5.5t-58.5 14.5zM106 1360q0 31 11.5 57.5t31.5 46.5t46 31.5t56 11.5q31 0 57.5 -11.5t47 -31.5t32 -46.5t11.5 -57.5 q0 -30 -11.5 -56.5t-32 -46.5t-47 -32t-57.5 -12q-30 0 -56 12t-46 32t-31.5 46.5t-11.5 56.5z" />
<glyph unicode="k" horiz-adv-x="1069" d="M134 0v1516h220v-879h47q23 0 37.5 6t29.5 26l293 335q15 20 33.5 30t47.5 10h199l-352 -397q-31 -40 -67 -63q20 -14 35.5 -32t29.5 -41l376 -511h-197q-27 0 -45.5 8.5t-33.5 32.5l-302 410q-15 24 -30.5 30t-45.5 6h-55v-487h-220z" />
<glyph unicode="l" horiz-adv-x="496" d="M138 0v1516h220v-1516h-220z" />
<glyph unicode="m" horiz-adv-x="1700" d="M134 0v1044h133q45 0 58 -42l14 -91q29 33 59.5 60t66 47t76 31.5t87.5 11.5q50 0 92 -14.5t74 -41t55.5 -64.5t39.5 -85q24 54 59.5 93t79.5 63.5t93.5 36.5t101.5 12q84 0 150 -26.5t111.5 -77.5t69 -124.5t23.5 -167.5v-665h-220v665q0 111 -47.5 166.5t-141.5 55.5 q-42 0 -78.5 -14.5t-64.5 -42t-43.5 -69t-15.5 -96.5v-665h-221v665q0 115 -46 168.5t-135 53.5q-61 0 -113.5 -31.5t-96.5 -85.5v-770h-220z" />
<glyph unicode="n" horiz-adv-x="1148" d="M134 0v1044h133q45 0 58 -42l15 -97q33 35 69 63.5t77 49t88 32t101 11.5q86 0 151 -28.5t109.5 -81t67 -125.5t22.5 -161v-665h-219v665q0 105 -48.5 163.5t-148.5 58.5q-74 0 -136.5 -34t-118.5 -92v-761h-220z" />
<glyph unicode="o" horiz-adv-x="1169" d="M77 523q0 124 35.5 223.5t102.5 169t160.5 107.5t210.5 38q116 0 209.5 -38t159.5 -107.5t102 -169t36 -223.5t-36 -223t-102 -169.5t-160 -108t-209 -37.5q-117 0 -210.5 37.5t-160.5 108t-102.5 169.5t-35.5 223zM303 522q0 -176 70 -270.5t213 -94.5q141 0 210 94.5 t69 270.5t-69 272t-210 96q-143 0 -213 -96t-70 -272z" />
<glyph unicode="p" horiz-adv-x="1156" d="M134 -347v1391h133q45 0 58 -42l17 -109q33 38 70 69.5t79.5 54t91 35t103.5 12.5q88 0 160 -35.5t123 -103t79 -167.5t28 -229q0 -116 -31 -215.5t-89.5 -172.5t-141.5 -114.5t-187 -41.5q-92 0 -156.5 29t-116.5 81v-442h-220zM354 262q46 -59 101 -83t122 -24 q129 0 201 94t72 280q0 96 -16.5 164.5t-47 111.5t-75 62.5t-99.5 19.5q-85 0 -145 -36.5t-113 -104.5v-484z" />
<glyph unicode="q" horiz-adv-x="1155" d="M79 519q0 117 31 216.5t89.5 172.5t142 114.5t186.5 41.5q50 0 92 -8.5t76.5 -25.5t65 -41t56.5 -55l13 68q12 42 57 42h133v-1391h-220v489q-65 -72 -145.5 -114.5t-186.5 -42.5q-88 0 -159.5 35t-123 102.5t-79.5 167.5t-28 229zM305 519q0 -96 16.5 -164t47 -111 t75 -62.5t99.5 -19.5q84 0 144.5 35.5t113.5 103.5v486q-46 58 -101.5 82.5t-119.5 24.5q-129 0 -202 -94.5t-73 -280.5z" />
<glyph unicode="r" horiz-adv-x="755" d="M134 0v1044h128q35 0 48.5 -12.5t18.5 -44.5l12 -136q50 99 119.5 156t167.5 57q34 0 63.5 -7.5t52.5 -23.5l-15 -166q-4 -17 -12.5 -23.5t-23.5 -6.5t-43.5 5.5t-60.5 5.5q-46 0 -82 -13.5t-63.5 -39t-49 -62.5t-40.5 -84v-649h-220z" />
<glyph unicode="s" horiz-adv-x="893" d="M58 112l52 84q9 15 22.5 23.5t34.5 8.5q22 0 42.5 -13.5t49 -30t68.5 -30.5t99 -14q49 0 85 12t59.5 32.5t34.5 46.5t11 56q0 40 -22.5 65.5t-59.5 44t-85 32.5t-97 30.5t-96.5 38t-85 55t-60 81t-22.5 116.5q0 62 25 118.5t74 99.5t120 68t164 25q105 0 191.5 -34 t144.5 -92l-49 -80q-8 -14 -18.5 -20.5t-25.5 -6.5q-17 0 -38 11t-48.5 24.5t-65 24t-87.5 10.5q-41 0 -74 -9.5t-56 -27.5t-35.5 -42t-12.5 -52q0 -37 22.5 -61.5t59.5 -42.5t84 -32.5t96 -30.5t96 -37.5t84 -53t59.5 -76t22.5 -107.5q0 -74 -26.5 -136.5t-77.5 -108.5 t-127.5 -71.5t-174.5 -25.5q-54 0 -105 9.5t-96.5 26.5t-85 40.5t-70.5 51.5z" />
<glyph unicode="t" horiz-adv-x="748" d="M39 919v89l169 24l48 302q5 17 17.5 28t32.5 11h113v-343h290v-159h-290v-592q0 -56 27.5 -86t73.5 -30q26 0 44.5 6.5t31.5 14t23 14.5t19 7q18 0 30 -21l65 -107q-51 -45 -120.5 -69t-143.5 -24q-130 0 -200 73t-70 206v608h-115q-18 0 -31.5 12t-13.5 36z" />
<glyph unicode="u" horiz-adv-x="1148" d="M124 380v664h220v-664q0 -105 48.5 -163.5t148.5 -58.5q73 0 135.5 33t118.5 92v761h220v-1044h-133q-44 0 -57 42l-16 97q-67 -70 -147 -112.5t-187 -42.5q-86 0 -151.5 28.5t-110 80.5t-67 125.5t-22.5 161.5z" />
<glyph unicode="v" horiz-adv-x="1070" d="M15 1044h182q26 0 42.5 -12.5t21.5 -30.5l232 -608q14 -44 25 -85.5t20 -84.5q8 42 19 84t27 86l235 608q6 18 22.5 30.5t40.5 12.5h172l-420 -1044h-199z" />
<glyph unicode="w" horiz-adv-x="1627" d="M26 1044h174q26 0 42.5 -12.5t21.5 -30.5l174 -608q10 -42 18 -81.5t14 -78.5q10 39 21 78.5t24 81.5l196 612q5 18 21 30t38 12h96q24 0 40.5 -12t21.5 -30l190 -612q11 -42 22.5 -82t20.5 -79q12 78 35 161l177 608q6 18 22.5 30.5t40.5 12.5h166l-335 -1044h-175 q-31 0 -43 40l-208 650q-8 28 -15 55t-12 55q-11 -55 -28 -111l-211 -649q-11 -40 -48 -40h-167z" />
<glyph unicode="x" horiz-adv-x="1045" d="M14 0l362 538l-347 506h211q26 0 37.5 -7.5t20.5 -22.5l236 -370q8 30 29 66l200 300q19 34 50 34h2h202l-347 -496l361 -548h-211q-26 0 -40.5 13.5t-23.5 29.5l-241 385q-9 -36 -25 -59l-218 -326q-11 -16 -25 -29.5t-36 -13.5h-197z" />
<glyph unicode="y" horiz-adv-x="1069" d="M13 1044h192q28 0 42.5 -12.5t21.5 -30.5l249 -592q18 -51 31 -103q8 27 16.5 52.5t19.5 51.5l238 591q7 18 24 30.5t38 12.5h176l-576 -1341q-11 -24 -27 -37t-48 -13h-163l192 418z" />
<glyph unicode="z" horiz-adv-x="933" d="M56 0v92q0 15 7.5 37t21.5 41l532 703h-530v171h783v-92q0 -24 -7.5 -46t-21.5 -38l-530 -697h542v-171h-797z" />
<glyph unicode="{" horiz-adv-x="621" d="M63 570v130q67 0 99.5 40t32.5 105q0 49 -8 98t-16.5 98.5t-16.5 99t-8 100.5q0 75 22 137t67 106.5t112 69t158 24.5h54v-99q0 -24 -17 -34.5t-31 -10.5h-14q-76 0 -117 -48.5t-41 -131.5q0 -57 6.5 -108.5t14.5 -102t14.5 -99t6.5 -97.5q0 -77 -43 -134.5t-116 -77.5 q73 -19 116 -76.5t43 -134.5q0 -49 -6.5 -97.5t-14.5 -99t-14.5 -102.5t-6.5 -109q0 -83 41 -130.5t117 -47.5h14q14 0 31 -11t17 -35v-99h-54q-91 0 -158 24.5t-112 69t-67 106.5t-22 137q0 51 8 100.5t16.5 99t16.5 98.5t8 98q0 65 -32.5 104.5t-99.5 39.5z" />
<glyph unicode="|" horiz-adv-x="524" d="M177 -354v1932h170v-1932h-170z" />
<glyph unicode="}" horiz-adv-x="621" d="M62 -208q0 24 17.5 35t31.5 11h15q75 0 116.5 47.5t41.5 130.5q0 56 -7 108.5t-15 103t-14.5 99t-6.5 97.5q0 38 11 72t31.5 62t49.5 48t65 29q-72 20 -114.5 77.5t-42.5 134.5q0 49 6.5 97.5t14.5 99t15 102t7 108.5q0 83 -41.5 131.5t-116.5 48.5h-15q-13 0 -31 10.5 t-18 34.5v99h56q90 0 157 -24.5t111.5 -69t66.5 -106.5t22 -137q0 -51 -7.5 -100.5t-16.5 -99t-16.5 -98.5t-7.5 -98q0 -65 32.5 -105t98.5 -40v-130q-67 0 -99 -39.5t-32 -104.5q0 -49 7.5 -98t16.5 -98.5t16.5 -99t7.5 -100.5q0 -75 -22 -137t-66.5 -106.5t-111.5 -69 t-157 -24.5h-56v99z" />
<glyph unicode="~" horiz-adv-x="1187" d="M113 415q0 75 20 135.5t57.5 104t92.5 67t125 23.5q53 0 104 -15t97 -33t87.5 -33.5t76.5 -15.5q61 0 95.5 39.5t35.5 109.5h177q0 -75 -20 -136t-57.5 -104.5t-92.5 -67.5t-125 -24q-54 0 -104.5 15.5t-96.5 33.5t-87.5 33.5t-76.5 15.5q-61 0 -95.5 -40t-35.5 -108 h-177z" />
<glyph unicode="&#xa1;" horiz-adv-x="535" d="M124 919q0 31 10.5 56t29.5 44.5t45.5 30.5t55.5 11q30 0 56 -11t45.5 -30.5t31 -45t11.5 -55.5t-11.5 -56t-31 -45.5t-45.5 -31t-56 -11.5t-56 11.5t-45 31t-29.5 45.5t-10.5 56zM165 203q0 46 2 90.5t6 90t9.5 92.5t12.5 98h148q7 -51 12 -98t9.5 -92.5t6.5 -90 t2 -90.5v-550h-208v550z" />
<glyph unicode="&#xa2;" horiz-adv-x="1187" d="M131 522q0 113 34 209t99 167.5t160.5 114t219.5 46.5l13 171q2 22 18.5 39.5t42.5 17.5h81l-19 -235q83 -14 149 -47.5t122 -84.5l-57 -78q-8 -12 -17.5 -19t-27.5 -7q-13 0 -29 7.5t-37.5 18.5t-49.5 23t-66 19l-56 -730q59 5 98.5 20t67 31.5t47.5 29.5t39 13 q28 0 41 -20l60 -77q-68 -80 -163 -118t-204 -46l-12 -163q-2 -22 -18 -39.5t-42 -17.5h-81l17 223q-93 12 -172 53t-136 109t-89.5 161.5t-32.5 208.5zM348 522q0 -150 59.5 -241.5t166.5 -117.5l57 726q-142 -14 -212.5 -109.5t-70.5 -257.5z" />
<glyph unicode="&#xa3;" horiz-adv-x="1187" d="M43 621v71q0 31 19 53.5t56 22.5h123v253q0 96 28 181.5t85.5 149.5t143.5 101.5t201 37.5q81 0 144.5 -20.5t113 -56t85.5 -83t63 -102.5l-88 -58q-31 -15 -59 -13t-52 30q-19 25 -39 45.5t-43.5 36t-54 24.5t-70.5 9q-117 0 -175 -75.5t-58 -205.5v-254h434v-89 q0 -22 -18 -40t-45 -18h-371v-222q0 -71 -27 -125t-74 -99q69 14 135 14h644v-93q0 -17 -7 -34t-19.5 -31t-30 -22.5t-38.5 -8.5h-984v140q35 9 66.5 25.5t56 40.5t39 57.5t14.5 77.5v280h-198z" />
<glyph unicode="&#xa4;" horiz-adv-x="1187" d="M124 1044l110 111l155 -155q44 30 96 46t109 16q55 0 106 -15.5t95 -42.5l155 155l110 -111l-155 -155q30 -44 46 -95.5t16 -108.5q0 -55 -15.5 -106t-43.5 -94l156 -155l-111 -112l-155 155q-44 -29 -96 -45t-108 -16q-55 0 -106 15.5t-94 42.5l-156 -156l-110 112 l154 154q-29 44 -44.5 96t-15.5 109q0 55 15 105.5t43 94.5zM384 689q0 -43 16.5 -81t45 -66t67 -45t81.5 -17q44 0 83 17t67.5 45t45 66t16.5 81q0 44 -16.5 82.5t-45 67t-67.5 45t-83 16.5q-43 0 -81.5 -16.5t-67 -45t-45 -67t-16.5 -82.5z" />
<glyph unicode="&#xa5;" horiz-adv-x="1187" d="M32 1475h182q32 0 51.5 -15t30.5 -40l252 -535q16 -41 28 -76t20 -69q7 34 18.5 69.5t27.5 75.5l250 535q9 20 29.5 37.5t50.5 17.5h184l-413 -831h298v-124h-338v-102h338v-125h-338v-293h-219v293h-338v125h338v102h-338v124h298z" />
<glyph unicode="&#xa6;" horiz-adv-x="530" d="M180 -347v822h170v-822h-170zM180 757v821h170v-821h-170z" />
<glyph unicode="&#xa7;" horiz-adv-x="1022" d="M96 707q0 81 43.5 145t133.5 101q-49 39 -79.5 93.5t-30.5 132.5q0 62 25 118.5t73.5 99.5t120 68t164.5 25q105 0 190.5 -34t145.5 -92l-49 -80q-8 -14 -18.5 -20.5t-26.5 -6.5q-17 0 -37.5 11t-48 24t-65 23.5t-87.5 10.5q-46 0 -82 -10.5t-60.5 -29.5t-37.5 -44 t-13 -54q0 -35 25 -62t64.5 -50t91.5 -44t105 -44t105 -51t92 -64t64.5 -83.5t24.5 -109.5q0 -82 -39 -148.5t-124 -106.5q49 -38 78.5 -88t29.5 -120q0 -74 -26.5 -137t-78 -109t-128 -71.5t-174.5 -25.5q-54 0 -105 10t-96 26.5t-84.5 40t-69.5 51.5l51 84q18 33 57 33 q22 0 42.5 -14t49.5 -30.5t70.5 -30t103.5 -13.5q93 0 144.5 41t51.5 108q0 44 -25 75.5t-66.5 55.5t-94 44.5t-107.5 42.5t-107.5 48t-94 62t-66.5 84t-25 115zM291 742q0 -47 32.5 -80t84 -60.5t115 -52t124.5 -53.5q48 24 69 58t21 76q0 49 -31 84t-80 62t-110 51 t-121 53q-56 -28 -80 -61.5t-24 -76.5z" />
<glyph unicode="&#xa8;" horiz-adv-x="819" d="M79 1322q0 27 10 51t27.5 42t40.5 28t49 10q27 0 51 -10t41.5 -28t28 -42t10.5 -51t-10.5 -50t-28 -40t-42 -27t-50.5 -10t-49 10t-40.5 27t-27.5 40t-10 50zM482 1322q0 27 10.5 51t28 42t40.5 28t49 10q27 0 50.5 -10t41.5 -28t28 -42t10 -51t-10 -50t-28 -40 t-41.5 -27t-50.5 -10t-49.5 10t-40 27t-28 40t-10.5 50z" />
<glyph unicode="&#xa9;" horiz-adv-x="1694" d="M95 737q0 103 26.5 199.5t76 180.5t118 152.5t152 118t179.5 76.5t200 27q103 0 199.5 -27t180.5 -76.5t152.5 -118t117.5 -152.5t75.5 -180t26.5 -200q0 -103 -27 -199.5t-75.5 -180t-117 -152t-152.5 -117.5t-180.5 -75.5t-199.5 -26.5t-199.5 26.5t-180 75.5 t-152 117.5t-118 152t-76 180t-26.5 199.5zM217 737q0 -135 48.5 -252t133.5 -203.5t200.5 -137t247.5 -50.5q88 0 170 22.5t152 64t128 100t99 130t63.5 154t22.5 172.5t-22.5 173.5t-63.5 155.5t-99 130.5t-128 100.5t-152 65t-170 23q-132 0 -247.5 -50.5t-200.5 -138 t-133.5 -206t-48.5 -253.5zM401 740q0 103 36 190.5t99 150t148.5 97t185.5 34.5q113 0 192.5 -36.5t136.5 -95.5l-57 -81q-5 -7 -15 -14t-24 -7q-15 0 -31 10.5t-39.5 24t-59.5 24.5t-92 11q-67 0 -119 -21.5t-89 -61.5t-56.5 -97t-19.5 -128q0 -74 20 -131t55.5 -96.5 t83.5 -59.5t105 -20q52 0 86 8.5t58.5 20t44.5 24t44 21.5q9 1 17 -3.5t13 -10.5l74 -79q-57 -71 -143 -109t-205 -38q-101 0 -184 36t-141.5 99t-91 150t-32.5 188z" />
<glyph unicode="&#xaa;" horiz-adv-x="752" d="M92 1022q0 35 18.5 69t62.5 63t117.5 47.5t182.5 20.5v30q0 60 -26 86.5t-78 26.5q-37 0 -61 -8t-42.5 -17.5t-34 -17.5t-33.5 -8q-16 0 -27 9t-19 20l-28 52q55 52 120.5 75.5t142.5 23.5q56 0 101.5 -18t76.5 -50t47.5 -76.5t16.5 -97.5v-391h-74q-23 0 -33.5 6 t-20.5 27l-14 43q-25 -22 -47 -37.5t-46.5 -26.5t-53 -16t-61.5 -5q-41 0 -75.5 10.5t-59 32t-38.5 53.5t-14 74zM244 1029q0 -36 23 -51t61 -15q46 0 78.5 16t66.5 48v95q-66 -2 -110 -9.5t-70.5 -20t-37.5 -28.5t-11 -35z" />
<glyph unicode="&#xab;" horiz-adv-x="907" d="M97 130zM97 532v29l259 403l72 -35q28 -13 33 -37t-10 -52l-152 -252q-15 -28 -32 -41q8 -7 16 -17.5t16 -22.5l152 -253q15 -28 10 -52t-33 -37l-72 -35zM418 532v29l259 403l72 -35q28 -13 33 -37t-10 -52l-152 -252q-15 -28 -32 -41q8 -7 16 -17.5t16 -22.5l152 -253 q15 -28 10 -52t-33 -37l-72 -35z" />
<glyph unicode="&#xac;" horiz-adv-x="1187" d="M143 604v166h895v-458h-186v292h-709z" />
<glyph unicode="&#xad;" horiz-adv-x="762" d="M122 523v187h519v-187h-519z" />
<glyph unicode="&#xae;" horiz-adv-x="1694" d="M95 737q0 103 26.5 199.5t76 180.5t118 152.5t152 118t179.5 76.5t200 27q103 0 199.5 -27t180.5 -76.5t152.5 -118t117.5 -152.5t75.5 -180t26.5 -200q0 -103 -27 -199.5t-75.5 -180t-117 -152t-152.5 -117.5t-180.5 -75.5t-199.5 -26.5t-199.5 26.5t-180 75.5 t-152 117.5t-118 152t-76 180t-26.5 199.5zM217 737q0 -135 48.5 -252t133.5 -203.5t200.5 -137t247.5 -50.5q88 0 170 22.5t152 64t128 100t99 130t63.5 154t22.5 172.5t-22.5 173.5t-63.5 155.5t-99 130.5t-128 100.5t-152 65t-170 23q-132 0 -247.5 -50.5t-200.5 -138 t-133.5 -206t-48.5 -253.5zM526 282v915h313q184 0 271 -65.5t87 -193.5q0 -93 -50 -161t-154 -97q20 -12 34 -30t27 -42l209 -326h-184q-40 0 -57 29l-175 287q-10 14 -22.5 22t-39.5 8h-68v-346h-191zM717 766h104q54 0 90.5 9.5t58 28t30.5 46.5t9 63t-8 60.5t-27.5 42.5 t-52 26t-82.5 9h-122v-285z" />
<glyph unicode="&#xaf;" horiz-adv-x="819" d="M110 1251v143h600v-143h-600z" />
<glyph unicode="&#xb0;" horiz-adv-x="849" d="M80 1152q0 71 26.5 133.5t72.5 108.5t109 72.5t136 26.5t136.5 -26.5t110 -72.5t73 -108.5t26.5 -133.5q0 -70 -26.5 -131.5t-73 -107.5t-110 -73t-136.5 -27t-136 27t-109 73t-72.5 107.5t-26.5 131.5zM234 1151q0 -40 14.5 -75t39.5 -60.5t60 -40t76 -14.5t76 14.5 t60.5 40t39.5 60.5t14 75q0 41 -14 76.5t-39.5 61.5t-60.5 41t-76 15t-76 -15t-60 -41t-39.5 -61.5t-14.5 -76.5z" />
<glyph unicode="&#xb1;" horiz-adv-x="1187" d="M98 82v166h992v-166h-992zM98 715v166h406v372h178v-372h408v-166h-408v-362h-178v362h-406z" />
<glyph unicode="&#xb2;" d="M68 922v52q0 15 6 32.5t20 32.5l220 217q25 24 46 49.5t36.5 51.5t24.5 52t9 51q0 44 -25.5 69.5t-65.5 25.5t-64.5 -20.5t-38.5 -57.5q-12 -20 -27.5 -28.5t-46.5 -3.5l-88 15q16 113 89.5 168t183.5 55q56 0 102 -16.5t77 -45t48 -68.5t17 -87q0 -42 -13 -77t-34.5 -67 t-49 -62t-57.5 -60l-146 -149q27 8 52 12t47 4h164q26 0 39.5 -13.5t13.5 -37.5v-94h-539zM68 922z" />
<glyph unicode="&#xb3;" d="M64 1116l69 29q27 11 50 5.5t32 -24.5q5 -11 13 -25t21.5 -26.5t33.5 -20.5t48 -8t48 8t34.5 22t21.5 32t7 37q0 29 -8 49t-26.5 32.5t-49 18.5t-75.5 6v105q43 1 72 8.5t47 20.5t25 32t7 43q0 44 -24.5 68t-68.5 24q-43 0 -67.5 -20t-35.5 -54q-11 -24 -25 -31t-46 -2 l-82 15q8 56 31 98t58 69.5t79.5 41.5t95.5 14q55 0 99 -16t75 -42.5t47.5 -62t16.5 -74.5q0 -129 -116 -178q65 -19 98 -57.5t33 -101.5q0 -60 -22.5 -104.5t-59.5 -73.5t-84.5 -44t-96.5 -15q-56 0 -99.5 11t-77 35.5t-57 63t-41.5 92.5zM65 913z" />
<glyph unicode="&#xb4;" horiz-adv-x="819" d="M286 1193l148 248q14 26 33 38t56 12h214l-247 -265q-16 -18 -32 -25.5t-41 -7.5h-131z" />
<glyph unicode="&#xb5;" horiz-adv-x="1341" d="M176 -254v1298h220v-623q0 -104 49.5 -166t147.5 -62q87 0 150.5 47t104.5 132v672h220v-747q0 -74 37 -108.5t98 -34.5h68v-88q0 -30 -37.5 -53t-105.5 -23q-43 0 -82.5 12t-72.5 38t-57 64.5t-36 93.5q-58 -89 -132.5 -138t-168.5 -49q-135 0 -211 78q8 -43 11 -88 t3 -84v-264h-109q-46 0 -71.5 24t-25.5 69z" />
<glyph unicode="&#xb6;" horiz-adv-x="1473" d="M69 1067q0 91 32.5 166t93 128.5t146.5 83.5t193 30h867v-188h-222v-1497h-193v1497h-261v-1497h-191v869q-106 0 -192.5 32.5t-147 88t-93 129.5t-32.5 158z" />
<glyph unicode="&#xb7;" horiz-adv-x="547" d="M100 608q0 37 14 69.5t37 56t54.5 37t66.5 13.5q37 0 69.5 -13.5t56 -37t37.5 -56t14 -69.5q0 -36 -14 -67t-37.5 -54.5t-56 -37.5t-69.5 -14q-36 0 -67 14t-54 37.5t-37 54.5t-14 67z" />
<glyph unicode="&#xb8;" horiz-adv-x="819" d="M241 -338l20 69q7 21 27 21q7 0 14.5 -3t18.5 -6.5t24.5 -6.5t32.5 -3q39 0 58 14.5t19 36.5q0 35 -40 48.5t-117 25.5l57 174h124l-28 -101q96 -20 136.5 -57.5t40.5 -92.5q0 -34 -17.5 -61t-49 -46t-75 -29.5t-95.5 -10.5q-42 0 -79.5 7.5t-70.5 20.5z" />
<glyph unicode="&#xb9;" d="M94 922zM94 1479l234 198h132v-652h125v-103h-429v103h145v406l5 48l-93 -75q-11 -8 -22 -10t-20 0t-17 7t-12 10z" />
<glyph unicode="&#xba;" horiz-adv-x="822" d="M85 1172q0 74 23.5 133.5t66.5 101t103.5 64t134.5 22.5q73 0 132.5 -22.5t102 -64t66 -101t23.5 -133.5q0 -76 -23.5 -135.5t-66 -101t-102.5 -64t-132 -22.5q-74 0 -134.5 22.5t-103.5 64t-66.5 101.5t-23.5 135zM257 1170q0 -96 38 -143.5t118 -47.5q153 0 152 191 q0 191 -152 192q-80 0 -118 -47.5t-38 -144.5z" />
<glyph unicode="&#xbb;" horiz-adv-x="907" d="M121 130zM126 202q-5 24 10 52l152 253l15 22.5t15 17.5q-16 14 -30 41l-152 252q-15 29 -10 52t33 37l71 35l259 -403v-29l-259 -402l-71 35q-28 13 -33 37zM447 202q-5 24 10 52l152 253l15 22.5t15 17.5q-16 14 -30 41l-152 252q-15 29 -10 52t33 37l71 35l259 -403 v-29l-259 -402l-71 35q-28 13 -33 37z" />
<glyph unicode="&#xbc;" horiz-adv-x="1512" d="M82 0zM82 1279l234 198h132v-652h125v-103h-429v103h145v406l5 48l-93 -75q-11 -8 -22 -10t-20 0t-17 7t-12 10zM242 0l847 1401q22 35 49.5 54.5t66.5 19.5h94l-852 -1410q-24 -38 -50 -51.5t-62 -13.5h-93zM832 274l347 479h152v-470h103v-81q0 -11 -8.5 -20.5 t-22.5 -9.5h-72v-172h-133v172h-304q-22 0 -34 9.5t-15 24.5zM979 283h219v204q0 23 1.5 49t5.5 55z" />
<glyph unicode="&#xbd;" horiz-adv-x="1496" d="M84 0zM84 1279l234 198h132v-652h125v-103h-429v103h145v406l5 48l-93 -75q-11 -8 -22 -10t-20 0t-17 7t-12 10zM201 0l847 1401q22 35 49.5 54.5t66.5 19.5h94l-852 -1410q-24 -38 -50 -51.5t-62 -13.5h-93zM868 0v52q0 15 6 32.5t20 32.5l220 217q25 24 46 49.5 t36.5 51.5t24.5 52t9 51q0 44 -25.5 69.5t-65.5 25.5t-64.5 -20.5t-38.5 -57.5q-12 -20 -27.5 -28.5t-46.5 -3.5l-88 15q16 113 89.5 168t183.5 55q56 0 102 -16.5t77 -45t48 -68.5t17 -87q0 -42 -13 -77t-34.5 -67t-49 -62t-57.5 -60l-146 -149q27 8 52 12t47 4h164 q26 0 39.5 -13.5t13.5 -37.5v-94h-539z" />
<glyph unicode="&#xbe;" horiz-adv-x="1527" d="M84 0zM84 916l69 29q27 11 50 5.5t32 -24.5q5 -11 13 -25t21.5 -26.5t33.5 -20.5t48 -8t48 8t34.5 22t21.5 32t7 37q0 29 -8 49t-26.5 32.5t-49 18.5t-75.5 6v105q43 1 72 8.5t47 20.5t25 32t7 43q0 44 -24.5 68t-68.5 24q-43 0 -67.5 -20t-35.5 -54q-11 -24 -25 -31 t-46 -2l-82 15q8 56 31 98t58 69.5t79.5 41.5t95.5 14q55 0 99 -16t75 -42.5t47.5 -62t16.5 -74.5q0 -129 -116 -178q65 -19 98 -57.5t33 -101.5q0 -60 -22.5 -104.5t-59.5 -73.5t-84.5 -44t-96.5 -15q-56 0 -99.5 11t-77 35.5t-57 63t-41.5 92.5zM262 0l847 1401 q22 35 49.5 54.5t66.5 19.5h94l-852 -1410q-24 -38 -50 -51.5t-62 -13.5h-93zM848 274l347 479h152v-470h103v-81q0 -11 -8.5 -20.5t-22.5 -9.5h-72v-172h-133v172h-304q-22 0 -34 9.5t-15 24.5zM995 283h219v204q0 23 1.5 49t5.5 55z" />
<glyph unicode="&#xbf;" horiz-adv-x="917" d="M81 -27q0 78 22.5 132.5t57.5 93.5t76 66t77 50.5t62 47.5t32 58l20 153h151l15 -168q5 -50 -16 -84.5t-55.5 -61t-75 -50t-77 -52.5t-60.5 -68t-24 -97q0 -40 15 -72.5t42.5 -55t64 -34.5t79.5 -12q59 0 102 13.5t72.5 30.5t49 31.5t33.5 14.5q31 0 47 -28l58 -93 q-34 -31 -74 -58t-86.5 -47.5t-101.5 -32t-118 -11.5q-85 0 -156.5 23t-123 66.5t-80 105.5t-28.5 139zM366 918q0 30 10.5 55.5t29.5 45t45 31t56 11.5t56 -11.5t45.5 -31t30.5 -45.5t11 -55q0 -31 -11 -56.5t-30.5 -45t-45.5 -30.5t-56 -11t-56 11t-45 30.5t-29.5 45 t-10.5 56.5z" />
<glyph unicode="&#xc0;" horiz-adv-x="1405" d="M-3 0l585 1475h242l585 -1475h-185q-32 0 -51.5 16t-29.5 39l-123 326h-635l-123 -326q-8 -20 -28.5 -37.5t-51.5 -17.5h-185zM0 0zM296 1902h233q18 0 32 -1t24.5 -5.5t20 -12t19.5 -19.5l227 -280h-158q-27 0 -42 3t-32 20zM450 553h505l-202 539q-12 30 -25 70.5 t-26 87.5q-12 -48 -24.5 -88.5t-24.5 -70.5z" />
<glyph unicode="&#xc1;" horiz-adv-x="1405" d="M-3 0l585 1475h242l585 -1475h-185q-32 0 -51.5 16t-29.5 39l-123 326h-635l-123 -326q-8 -20 -28.5 -37.5t-51.5 -17.5h-185zM0 0zM450 553h505l-202 539q-12 30 -25 70.5t-26 87.5q-12 -48 -24.5 -88.5t-24.5 -70.5zM545 1584l226 280q9 13 18 20t20.5 11.5t25 5.5 t32.5 1h246l-333 -293q-18 -16 -34.5 -20.5t-41.5 -4.5h-159z" />
<glyph unicode="&#xc2;" horiz-adv-x="1405" d="M-3 0l585 1475h242l585 -1475h-185q-32 0 -51.5 16t-29.5 39l-123 326h-635l-123 -326q-8 -20 -28.5 -37.5t-51.5 -17.5h-185zM0 0zM362 1584l245 281h198l246 -281h-160q-14 0 -33.5 5t-40.5 31l-101 124q-4 5 -7 9.5t-6 9.5q-3 -5 -6.5 -9.5t-7.5 -9.5l-101 -124 q-20 -26 -39.5 -31t-34.5 -5h-152zM450 553h505l-202 539q-12 30 -25 70.5t-26 87.5q-12 -48 -24.5 -88.5t-24.5 -70.5z" />
<glyph unicode="&#xc3;" horiz-adv-x="1405" d="M-3 0l585 1475h242l585 -1475h-185q-32 0 -51.5 16t-29.5 39l-123 326h-635l-123 -326q-8 -20 -28.5 -37.5t-51.5 -17.5h-185zM0 0zM362 1583q0 47 13 91.5t38.5 79t63 55t85.5 20.5q49 0 87 -16.5t69.5 -36.5t58 -36.5t54.5 -16.5q24 0 41 9.5t28 23.5t17 31.5t6 35.5 h134q0 -48 -13.5 -92t-38.5 -78t-62.5 -54.5t-85.5 -20.5q-49 0 -87 16.5t-69 36.5t-58 36t-55 16q-24 0 -40.5 -9t-28 -23.5t-17 -32t-5.5 -35.5h-135zM450 553h505l-202 539q-12 30 -25 70.5t-26 87.5q-12 -48 -24.5 -88.5t-24.5 -70.5z" />
<glyph unicode="&#xc4;" horiz-adv-x="1405" d="M-3 0l585 1475h242l585 -1475h-185q-32 0 -51.5 16t-29.5 39l-123 326h-635l-123 -326q-8 -20 -28.5 -37.5t-51.5 -17.5h-185zM0 0zM358 1707q0 26 9.5 49t26.5 40.5t39.5 27.5t46.5 10q26 0 49.5 -10t41 -27.5t27.5 -40.5t10 -49t-10 -48.5t-27.5 -39t-41 -26.5 t-49.5 -10q-25 0 -47 10t-39 26.5t-26.5 39t-9.5 48.5zM450 553h505l-202 539q-12 30 -25 70.5t-26 87.5q-12 -48 -24.5 -88.5t-24.5 -70.5zM797 1707q0 26 9.5 49t27 40.5t40 27.5t49.5 10q26 0 48 -10t39 -27.5t27.5 -40.5t10.5 -49t-10.5 -48.5t-27.5 -39t-39.5 -26.5 t-47.5 -10q-27 0 -49.5 10t-40 26.5t-27 39t-9.5 48.5z" />
<glyph unicode="&#xc5;" horiz-adv-x="1405" d="M-3 0l585 1475h242l585 -1475h-185q-32 0 -51.5 16t-29.5 39l-123 326h-635l-123 -326q-8 -20 -28.5 -37.5t-51.5 -17.5h-185zM0 0zM450 553h505l-202 539q-12 30 -25 70.5t-26 87.5q-12 -48 -24.5 -88.5t-24.5 -70.5zM500 1743q0 42 16.5 77t44 60.5t64.5 39t77 13.5 q42 0 79 -13.5t65.5 -39t44.5 -60.5t16 -77q0 -41 -16 -75.5t-44.5 -59t-65.5 -37.5t-79 -13q-40 0 -77 13t-64.5 37.5t-44 59t-16.5 75.5zM606 1743q0 -42 26.5 -69t72.5 -27q43 0 69.5 27t26.5 69q0 44 -26.5 70.5t-69.5 26.5q-46 0 -72.5 -26.5t-26.5 -70.5z" />
<glyph unicode="&#xc6;" horiz-adv-x="1907" d="M-14 0l764 1475h1073v-194h-738l56 -444h546v-188h-524l57 -455h604l-1 -194h-804l-47 381h-551l-163 -326q-11 -26 -34 -40.5t-56 -14.5h-182zM507 553h443l-92 741q-14 -48 -30.5 -89.5t-32.5 -77.5z" />
<glyph unicode="&#xc7;" horiz-adv-x="1360" d="M87 737q0 166 53 305t148.5 238.5t229 155t294.5 55.5q160 0 282.5 -51.5t212.5 -137.5l-79 -112q-8 -11 -19.5 -19.5t-30.5 -8.5q-20 0 -46.5 19t-67 42t-101.5 42t-152 19q-105 0 -193.5 -37t-152 -107.5t-98.5 -172t-35 -230.5q0 -130 37 -232t101.5 -172t151.5 -107 t187 -37q61 0 110 7t90 21.5t77 37.5t72 55q20 18 41 19q19 0 34 -16l95 -103q-83 -99 -198.5 -156.5t-275.5 -67.5l-15 -55q96 -20 136.5 -57.5t40.5 -92.5q0 -34 -17.5 -61t-48.5 -46t-75 -29.5t-96 -10.5q-42 0 -79 7.5t-71 20.5l20 69q7 21 27 21q7 0 14.5 -3t18.5 -6.5 t25 -6.5t32 -3q39 0 58 14.5t19 36.5q0 35 -40 48.5t-117 25.5l42 129q-147 10 -265.5 70t-202 158.5t-128.5 232t-45 289.5z" />
<glyph unicode="&#xc8;" horiz-adv-x="1179" d="M175 0v1475h920v-194h-679v-444h542v-188h-542v-455h680l-1 -194h-920zM175 0zM243 1902h233q18 0 32 -1t24.5 -5.5t20 -12t19.5 -19.5l227 -280h-158q-27 0 -42 3t-32 20z" />
<glyph unicode="&#xc9;" horiz-adv-x="1179" d="M175 0v1475h920v-194h-679v-444h542v-188h-542v-455h680l-1 -194h-920zM175 0zM492 1584l226 280q9 13 18 20t20.5 11.5t25 5.5t32.5 1h246l-333 -293q-18 -16 -34.5 -20.5t-41.5 -4.5h-159z" />
<glyph unicode="&#xca;" horiz-adv-x="1179" d="M175 0v1475h920v-194h-679v-444h542v-188h-542v-455h680l-1 -194h-920zM175 0zM309 1584l245 281h198l246 -281h-160q-14 0 -33.5 5t-40.5 31l-101 124q-4 5 -7 9.5t-6 9.5q-3 -5 -6.5 -9.5t-7.5 -9.5l-101 -124q-20 -26 -39.5 -31t-34.5 -5h-152z" />
<glyph unicode="&#xcb;" horiz-adv-x="1179" d="M175 0v1475h920v-194h-679v-444h542v-188h-542v-455h680l-1 -194h-920zM175 0zM305 1707q0 26 9.5 49t26.5 40.5t39.5 27.5t46.5 10q26 0 49.5 -10t41 -27.5t27.5 -40.5t10 -49t-10 -48.5t-27.5 -39t-41 -26.5t-49.5 -10q-25 0 -47 10t-39 26.5t-26.5 39t-9.5 48.5z M744 1707q0 26 9.5 49t27 40.5t40 27.5t49.5 10q26 0 48 -10t39 -27.5t27.5 -40.5t10.5 -49t-10.5 -48.5t-27.5 -39t-39.5 -26.5t-47.5 -10q-27 0 -49.5 10t-40 26.5t-27 39t-9.5 48.5z" />
<glyph unicode="&#xcc;" horiz-adv-x="590" d="M-107 1902h233q18 0 32 -1t24.5 -5.5t20 -12t19.5 -19.5l227 -280h-158q-27 0 -42 3t-32 20zM0 0zM175 0v1475h241v-1475h-241z" />
<glyph unicode="&#xcd;" horiz-adv-x="590" d="M142 0zM142 1584l226 280q9 13 18 20t20.5 11.5t25 5.5t32.5 1h246l-333 -293q-18 -16 -34.5 -20.5t-41.5 -4.5h-159zM175 0v1475h241v-1475h-241z" />
<glyph unicode="&#xce;" horiz-adv-x="590" d="M-42 1584l245 281h198l246 -281h-160q-14 0 -33.5 5t-40.5 31l-101 124q-4 5 -7 9.5t-6 9.5q-3 -5 -6.5 -9.5t-7.5 -9.5l-101 -124q-20 -26 -39.5 -31t-34.5 -5h-152zM0 0zM175 0v1475h241v-1475h-241z" />
<glyph unicode="&#xcf;" horiz-adv-x="590" d="M-46 1707q0 26 9.5 49t26.5 40.5t39.5 27.5t46.5 10q26 0 49.5 -10t41 -27.5t27.5 -40.5t10 -49t-10 -48.5t-27.5 -39t-41 -26.5t-49.5 -10q-25 0 -47 10t-39 26.5t-26.5 39t-9.5 48.5zM0 0zM175 0v1475h241v-1475h-241zM393 1707q0 26 9.5 49t27 40.5t40 27.5t49.5 10 q26 0 48 -10t39 -27.5t27.5 -40.5t10.5 -49t-10.5 -48.5t-27.5 -39t-39.5 -26.5t-47.5 -10q-27 0 -49.5 10t-40 26.5t-27 39t-9.5 48.5z" />
<glyph unicode="&#xd0;" horiz-adv-x="1575" d="M1 674v138h193v663h557q166 0 301.5 -54t232 -151.5t150 -233t53.5 -299.5t-53.5 -299.5t-150 -232.5t-232.5 -151t-301 -54h-557v674h-193zM434 194h317q114 0 205 36.5t155 107t98 171t34 228.5q0 127 -34 228.5t-98 171t-155.5 107t-204.5 37.5h-317v-469h284v-138 h-284v-480z" />
<glyph unicode="&#xd1;" horiz-adv-x="1571" d="M175 0v1475h125q15 0 26 -2t20 -6t17.5 -12t17.5 -20l811 -1042q-3 32 -4.5 62.5t-1.5 57.5v962h210v-1475h-122q-28 0 -47.5 9.5t-36.5 32.5l-810 1040q3 -30 4.5 -59t1.5 -53v-970h-211zM456 1582q0 47 13 91.5t39 79t63 55t85 20.5q49 0 87 -16.5t69.5 -36.5t58 -36.5 t54.5 -16.5q24 0 41 9.5t28.5 23.5t17 31.5t5.5 35.5h134q0 -48 -13.5 -92t-38.5 -78t-62.5 -54.5t-85.5 -20.5q-49 0 -87 16.5t-69 36.5t-58 36t-55 16q-24 0 -40.5 -9t-28 -23.5t-17 -32.5t-5.5 -35h-135z" />
<glyph unicode="&#xd2;" horiz-adv-x="1647" d="M86 0zM86 737q0 164 53.5 302.5t150.5 238.5t232.5 156.5t300.5 56.5q166 0 302 -56.5t232.5 -156.5t150 -238.5t53.5 -302.5t-53.5 -302t-150 -238t-232.5 -156t-302 -56q-165 0 -300.5 56t-232.5 156t-150.5 238t-53.5 302zM330 737q0 -128 34.5 -229t99 -171.5 t156 -108t203.5 -37.5q114 0 205 37.5t155 108t98.5 171.5t34.5 229q0 127 -34.5 228.5t-98.5 172t-155 108.5t-205 38q-113 0 -204 -38t-155.5 -108.5t-99 -172t-34.5 -228.5zM419 1902h233q18 0 32 -1t24.5 -5.5t20 -12t19.5 -19.5l227 -280h-158q-27 0 -42 3t-32 20z" />
<glyph unicode="&#xd3;" horiz-adv-x="1647" d="M86 0zM86 737q0 164 53.5 302.5t150.5 238.5t232.5 156.5t300.5 56.5q166 0 302 -56.5t232.5 -156.5t150 -238.5t53.5 -302.5t-53.5 -302t-150 -238t-232.5 -156t-302 -56q-165 0 -300.5 56t-232.5 156t-150.5 238t-53.5 302zM330 737q0 -128 34.5 -229t99 -171.5 t156 -108t203.5 -37.5q114 0 205 37.5t155 108t98.5 171.5t34.5 229q0 127 -34.5 228.5t-98.5 172t-155 108.5t-205 38q-113 0 -204 -38t-155.5 -108.5t-99 -172t-34.5 -228.5zM668 1584l226 280q9 13 18 20t20.5 11.5t25 5.5t32.5 1h246l-333 -293q-18 -16 -34.5 -20.5 t-41.5 -4.5h-159z" />
<glyph unicode="&#xd4;" horiz-adv-x="1647" d="M86 0zM86 737q0 164 53.5 302.5t150.5 238.5t232.5 156.5t300.5 56.5q166 0 302 -56.5t232.5 -156.5t150 -238.5t53.5 -302.5t-53.5 -302t-150 -238t-232.5 -156t-302 -56q-165 0 -300.5 56t-232.5 156t-150.5 238t-53.5 302zM330 737q0 -128 34.5 -229t99 -171.5 t156 -108t203.5 -37.5q114 0 205 37.5t155 108t98.5 171.5t34.5 229q0 127 -34.5 228.5t-98.5 172t-155 108.5t-205 38q-113 0 -204 -38t-155.5 -108.5t-99 -172t-34.5 -228.5zM485 1584l245 281h198l246 -281h-160q-14 0 -33.5 5t-40.5 31l-101 124q-4 5 -7 9.5t-6 9.5 q-3 -5 -6.5 -9.5t-7.5 -9.5l-101 -124q-20 -26 -39.5 -31t-34.5 -5h-152z" />
<glyph unicode="&#xd5;" horiz-adv-x="1647" d="M86 0zM86 737q0 164 53.5 302.5t150.5 238.5t232.5 156.5t300.5 56.5q166 0 302 -56.5t232.5 -156.5t150 -238.5t53.5 -302.5t-53.5 -302t-150 -238t-232.5 -156t-302 -56q-165 0 -300.5 56t-232.5 156t-150.5 238t-53.5 302zM330 737q0 -128 34.5 -229t99 -171.5 t156 -108t203.5 -37.5q114 0 205 37.5t155 108t98.5 171.5t34.5 229q0 127 -34.5 228.5t-98.5 172t-155 108.5t-205 38q-113 0 -204 -38t-155.5 -108.5t-99 -172t-34.5 -228.5zM485 1583q0 47 13 91.5t38.5 79t63 55t85.5 20.5q49 0 87 -16.5t69.5 -36.5t58 -36.5 t54.5 -16.5q24 0 41 9.5t28 23.5t17 31.5t6 35.5h134q0 -48 -13.5 -92t-38.5 -78t-62.5 -54.5t-85.5 -20.5q-49 0 -87 16.5t-69 36.5t-58 36t-55 16q-24 0 -40.5 -9t-28 -23.5t-17 -32t-5.5 -35.5h-135z" />
<glyph unicode="&#xd6;" horiz-adv-x="1647" d="M86 0zM86 737q0 164 53.5 302.5t150.5 238.5t232.5 156.5t300.5 56.5q166 0 302 -56.5t232.5 -156.5t150 -238.5t53.5 -302.5t-53.5 -302t-150 -238t-232.5 -156t-302 -56q-165 0 -300.5 56t-232.5 156t-150.5 238t-53.5 302zM330 737q0 -128 34.5 -229t99 -171.5 t156 -108t203.5 -37.5q114 0 205 37.5t155 108t98.5 171.5t34.5 229q0 127 -34.5 228.5t-98.5 172t-155 108.5t-205 38q-113 0 -204 -38t-155.5 -108.5t-99 -172t-34.5 -228.5zM481 1707q0 26 9.5 49t26.5 40.5t39.5 27.5t46.5 10q26 0 49.5 -10t41 -27.5t27.5 -40.5t10 -49 t-10 -48.5t-27.5 -39t-41 -26.5t-49.5 -10q-25 0 -47 10t-39 26.5t-26.5 39t-9.5 48.5zM920 1707q0 26 9.5 49t27 40.5t40 27.5t49.5 10q26 0 48 -10t39 -27.5t27.5 -40.5t10.5 -49t-10.5 -48.5t-27.5 -39t-39.5 -26.5t-47.5 -10q-27 0 -49.5 10t-40 26.5t-27 39t-9.5 48.5z " />
<glyph unicode="&#xd7;" horiz-adv-x="1187" d="M122 331l356 356l-343 343l117 118l343 -344l341 342l118 -118l-341 -341l354 -354l-117 -118l-355 354l-356 -356z" />
<glyph unicode="&#xd8;" horiz-adv-x="1647" d="M86 737q0 164 53.5 302.5t150.5 238.5t232.5 156.5t300.5 56.5q116 0 217 -27.5t185 -80.5l71 99q12 16 22 27.5t21 18.5t24.5 10.5t33.5 3.5h123l-181 -247q105 -102 163.5 -244t58.5 -314q0 -164 -53.5 -302t-150 -238t-232.5 -156t-302 -56q-106 0 -200 23t-173 67 l-90 -122q-27 -36 -62.5 -51t-70.5 -15h-95l198 272q-116 101 -180 249t-64 329zM330 737q0 -128 33.5 -227.5t98.5 -170.5l636 871q-56 36 -125.5 55t-149.5 19q-113 0 -204 -38t-155.5 -108.5t-99 -172t-34.5 -228.5zM575 249q106 -57 248 -58q114 0 205 37.5t155 108 t98.5 171.5t34.5 229q0 117 -29 210t-82 164z" />
<glyph unicode="&#xd9;" horiz-adv-x="1514" d="M157 0zM157 586v889h239v-888q0 -88 24.5 -160.5t71 -124t113.5 -80t152 -28.5t152 28.5t113.5 79.5t71 123.5t24.5 160.5v889h239v-889q0 -130 -41.5 -241t-119.5 -191t-189 -125.5t-250 -45.5t-250.5 45.5t-189 125.5t-119 191t-41.5 241zM351 1902h233q18 0 32 -1 t24.5 -5.5t20 -12t19.5 -19.5l227 -280h-158q-27 0 -42 3t-32 20z" />
<glyph unicode="&#xda;" horiz-adv-x="1514" d="M157 0zM157 586v889h239v-888q0 -88 24.5 -160.5t71 -124t113.5 -80t152 -28.5t152 28.5t113.5 79.5t71 123.5t24.5 160.5v889h239v-889q0 -130 -41.5 -241t-119.5 -191t-189 -125.5t-250 -45.5t-250.5 45.5t-189 125.5t-119 191t-41.5 241zM600 1584l226 280q9 13 18 20 t20.5 11.5t25 5.5t32.5 1h246l-333 -293q-18 -16 -34.5 -20.5t-41.5 -4.5h-159z" />
<glyph unicode="&#xdb;" horiz-adv-x="1514" d="M157 0zM157 586v889h239v-888q0 -88 24.5 -160.5t71 -124t113.5 -80t152 -28.5t152 28.5t113.5 79.5t71 123.5t24.5 160.5v889h239v-889q0 -130 -41.5 -241t-119.5 -191t-189 -125.5t-250 -45.5t-250.5 45.5t-189 125.5t-119 191t-41.5 241zM416 1584l245 281h198 l246 -281h-160q-14 0 -33.5 5t-40.5 31l-101 124q-4 5 -7 9.5t-6 9.5q-3 -5 -6.5 -9.5t-7.5 -9.5l-101 -124q-20 -26 -39.5 -31t-34.5 -5h-152z" />
<glyph unicode="&#xdc;" horiz-adv-x="1514" d="M157 0zM157 586v889h239v-888q0 -88 24.5 -160.5t71 -124t113.5 -80t152 -28.5t152 28.5t113.5 79.5t71 123.5t24.5 160.5v889h239v-889q0 -130 -41.5 -241t-119.5 -191t-189 -125.5t-250 -45.5t-250.5 45.5t-189 125.5t-119 191t-41.5 241zM412 1707q0 26 9.5 49 t26.5 40.5t39.5 27.5t46.5 10q26 0 49.5 -10t41 -27.5t27.5 -40.5t10 -49t-10 -48.5t-27.5 -39t-41 -26.5t-49.5 -10q-25 0 -47 10t-39 26.5t-26.5 39t-9.5 48.5zM851 1707q0 26 9.5 49t27 40.5t40 27.5t49.5 10q26 0 48 -10t39 -27.5t27.5 -40.5t10.5 -49t-10.5 -48.5 t-27.5 -39t-39.5 -26.5t-47.5 -10q-27 0 -49.5 10t-40 26.5t-27 39t-9.5 48.5z" />
<glyph unicode="&#xdd;" horiz-adv-x="1303" d="M-6 1475h210q32 0 50 -15.5t31 -39.5l302 -528q20 -40 37 -76t29 -71q12 36 28.5 71.5t37.5 75.5l300 528q10 20 29.5 37.5t50.5 17.5h211l-539 -897v-578h-239v578zM0 0zM496 1584l226 280q9 13 18 20t20.5 11.5t25 5.5t32.5 1h246l-333 -293q-18 -16 -34.5 -20.5 t-41.5 -4.5h-159z" />
<glyph unicode="&#xde;" horiz-adv-x="1244" d="M175 0v1475h240v-262h219q144 0 250 -33.5t175 -95t103 -147t34 -188.5q0 -104 -36 -192t-106.5 -151t-175.5 -98.5t-244 -35.5h-219v-272h-240zM415 462h219q80 0 141 20.5t101 58t60.5 90.5t20.5 118q0 129 -79.5 203t-243.5 74h-219v-564z" />
<glyph unicode="&#xdf;" horiz-adv-x="1212" d="M134 0v1011q0 108 36.5 197t104 154t163 101t214.5 36q114 0 195 -33t132.5 -83t76 -109t24.5 -111q0 -60 -21 -103t-52 -75.5t-68 -57.5t-68 -47.5t-52 -47t-21 -55.5q0 -37 26 -62.5t66 -48.5t85.5 -48.5t85.5 -63t66 -90.5t26 -132q0 -84 -30.5 -148.5t-84 -109 t-125 -67.5t-152.5 -23q-96 0 -180.5 36t-146.5 92l51 84q9 15 23 23.5t35 8.5q22 0 42 -13.5t47 -30t62.5 -30.5t85.5 -14q38 0 69 12t53 33t33.5 49t11.5 62q0 52 -28 86t-70 59.5t-91 48.5t-91 54t-70.5 76t-28.5 113q0 56 22 97.5t55.5 74t72.5 59.5t72 56t55 62.5 t22 79.5q0 34 -12 65t-39.5 56t-70 39.5t-102.5 14.5q-136 0 -213 -84.5t-77 -247.5v-1005h-219z" />
<glyph unicode="&#xe0;" horiz-adv-x="1029" d="M58 0zM58 264q0 60 32.5 117.5t106.5 103t195.5 75.5t299.5 34v70q0 113 -48 168t-141 55q-63 0 -106.5 -16t-75 -34.5t-56 -34.5t-52.5 -16q-23 0 -38.5 12t-26.5 29l-39 72q177 165 421 165q90 0 160.5 -29t118 -82.5t72.5 -126.5t25 -162v-664h-98q-32 0 -48.5 9.5 t-27.5 39.5l-21 85q-40 -37 -79 -64.5t-80.5 -47t-89 -29t-105.5 -9.5q-63 0 -118 17t-95 52.5t-63 88t-23 122.5zM203 1491h207q38 0 56.5 -12.5t32.5 -37.5l150 -248h-125q-26 0 -41.5 7t-32.5 26zM268 275q0 -37 12 -63t33 -42.5t49 -24.5t62 -8q86 0 148 32.5t120 92.5 v195q-118 -5 -198.5 -19.5t-131 -38t-72.5 -55t-22 -69.5z" />
<glyph unicode="&#xe1;" horiz-adv-x="1029" d="M58 0zM58 264q0 60 32.5 117.5t106.5 103t195.5 75.5t299.5 34v70q0 113 -48 168t-141 55q-63 0 -106.5 -16t-75 -34.5t-56 -34.5t-52.5 -16q-23 0 -38.5 12t-26.5 29l-39 72q177 165 421 165q90 0 160.5 -29t118 -82.5t72.5 -126.5t25 -162v-664h-98q-32 0 -48.5 9.5 t-27.5 39.5l-21 85q-40 -37 -79 -64.5t-80.5 -47t-89 -29t-105.5 -9.5q-63 0 -118 17t-95 52.5t-63 88t-23 122.5zM268 275q0 -37 12 -63t33 -42.5t49 -24.5t62 -8q86 0 148 32.5t120 92.5v195q-118 -5 -198.5 -19.5t-131 -38t-72.5 -55t-22 -69.5zM383 1193l148 248 q14 26 33 38t56 12h214l-247 -265q-16 -18 -32 -25.5t-41 -7.5h-131z" />
<glyph unicode="&#xe2;" horiz-adv-x="1029" d="M58 0zM58 264q0 60 32.5 117.5t106.5 103t195.5 75.5t299.5 34v70q0 113 -48 168t-141 55q-63 0 -106.5 -16t-75 -34.5t-56 -34.5t-52.5 -16q-23 0 -38.5 12t-26.5 29l-39 72q177 165 421 165q90 0 160.5 -29t118 -82.5t72.5 -126.5t25 -162v-664h-98q-32 0 -48.5 9.5 t-27.5 39.5l-21 85q-40 -37 -79 -64.5t-80.5 -47t-89 -29t-105.5 -9.5q-63 0 -118 17t-95 52.5t-63 88t-23 122.5zM172 1197l232 278h205l232 -278h-147q-13 0 -26 4t-26 19l-113 118q-5 5 -9.5 10.5t-9.5 11.5q-9 -12 -19 -22l-114 -118q-11 -11 -24.5 -17t-28.5 -6h-152z M268 275q0 -37 12 -63t33 -42.5t49 -24.5t62 -8q86 0 148 32.5t120 92.5v195q-118 -5 -198.5 -19.5t-131 -38t-72.5 -55t-22 -69.5z" />
<glyph unicode="&#xe3;" horiz-adv-x="1029" d="M58 0zM58 264q0 60 32.5 117.5t106.5 103t195.5 75.5t299.5 34v70q0 113 -48 168t-141 55q-63 0 -106.5 -16t-75 -34.5t-56 -34.5t-52.5 -16q-23 0 -38.5 12t-26.5 29l-39 72q177 165 421 165q90 0 160.5 -29t118 -82.5t72.5 -126.5t25 -162v-664h-98q-32 0 -48.5 9.5 t-27.5 39.5l-21 85q-40 -37 -79 -64.5t-80.5 -47t-89 -29t-105.5 -9.5q-63 0 -118 17t-95 52.5t-63 88t-23 122.5zM195 1226q0 53 15 97t41 75.5t62.5 48.5t79.5 17q37 0 68.5 -13.5t59.5 -30t51.5 -30.5t45.5 -14q33 0 51.5 19t19.5 63h134q0 -53 -14.5 -96.5t-40.5 -75 t-62.5 -48t-79.5 -16.5q-36 0 -67.5 13.5t-59 30t-52 30.5t-46.5 14q-33 0 -51.5 -20t-18.5 -64h-136zM268 275q0 -37 12 -63t33 -42.5t49 -24.5t62 -8q86 0 148 32.5t120 92.5v195q-118 -5 -198.5 -19.5t-131 -38t-72.5 -55t-22 -69.5z" />
<glyph unicode="&#xe4;" horiz-adv-x="1029" d="M58 0zM58 264q0 60 32.5 117.5t106.5 103t195.5 75.5t299.5 34v70q0 113 -48 168t-141 55q-63 0 -106.5 -16t-75 -34.5t-56 -34.5t-52.5 -16q-23 0 -38.5 12t-26.5 29l-39 72q177 165 421 165q90 0 160.5 -29t118 -82.5t72.5 -126.5t25 -162v-664h-98q-32 0 -48.5 9.5 t-27.5 39.5l-21 85q-40 -37 -79 -64.5t-80.5 -47t-89 -29t-105.5 -9.5q-63 0 -118 17t-95 52.5t-63 88t-23 122.5zM176 1322q0 27 10 51t27.5 42t40.5 28t49 10q27 0 51 -10t41.5 -28t28 -42t10.5 -51t-10.5 -50t-28 -40t-42 -27t-50.5 -10t-49 10t-40.5 27t-27.5 40t-10 50 zM268 275q0 -37 12 -63t33 -42.5t49 -24.5t62 -8q86 0 148 32.5t120 92.5v195q-118 -5 -198.5 -19.5t-131 -38t-72.5 -55t-22 -69.5zM579 1322q0 27 10.5 51t28 42t40.5 28t49 10q27 0 50.5 -10t41.5 -28t28 -42t10 -51t-10 -50t-28 -40t-41.5 -27t-50.5 -10t-49.5 10 t-40 27t-28 40t-10.5 50z" />
<glyph unicode="&#xe5;" horiz-adv-x="1029" d="M58 0zM58 264q0 60 32.5 117.5t106.5 103t195.5 75.5t299.5 34v70q0 113 -48 168t-141 55q-63 0 -106.5 -16t-75 -34.5t-56 -34.5t-52.5 -16q-23 0 -38.5 12t-26.5 29l-39 72q177 165 421 165q90 0 160.5 -29t118 -82.5t72.5 -126.5t25 -162v-664h-98q-32 0 -48.5 9.5 t-27.5 39.5l-21 85q-40 -37 -79 -64.5t-80.5 -47t-89 -29t-105.5 -9.5q-63 0 -118 17t-95 52.5t-63 88t-23 122.5zM268 275q0 -37 12 -63t33 -42.5t49 -24.5t62 -8q86 0 148 32.5t120 92.5v195q-118 -5 -198.5 -19.5t-131 -38t-72.5 -55t-22 -69.5zM292 1353q0 45 17 82.5 t47 64t69.5 40.5t82.5 14q44 0 83.5 -14t69.5 -40.5t48 -64t18 -82.5t-18 -81.5t-48 -62.5t-69.5 -40.5t-83.5 -14.5q-43 0 -82.5 14.5t-69.5 40.5t-47 62.5t-17 81.5zM412 1353q0 -43 26 -70t72 -27q43 0 69.5 27t26.5 70q0 44 -26.5 70.5t-69.5 26.5q-46 0 -72 -26.5 t-26 -70.5z" />
<glyph unicode="&#xe6;" horiz-adv-x="1653" d="M60 278q0 60 32.5 119.5t106.5 107.5t195.5 79.5t299.5 36.5v43q0 113 -48 171.5t-141 58.5q-63 0 -106.5 -17t-75 -37t-56 -37t-52.5 -17q-23 0 -38.5 12t-25.5 29l-40 72q88 82 184 123.5t214 41.5q121 0 196 -48.5t112 -133.5q57 83 145 131t208 48q87 0 162 -34 t130.5 -97.5t86.5 -154t31 -205.5q0 -51 -10 -68.5t-40 -17.5h-628q6 -83 28 -144t59 -101.5t87 -60.5t111 -20q71 0 116 13.5t75 30.5t49.5 31.5t37.5 14.5q33 0 45 -21l60 -75q-38 -46 -86 -78t-101 -52t-108 -28.5t-109 -8.5q-116 0 -212.5 53.5t-156.5 165.5 q-30 -58 -74.5 -100.5t-99 -69t-115.5 -38.5t-122 -12q-74 0 -133.5 18t-103 55t-66.5 92.5t-23 128.5zM271 289q0 -79 45 -115.5t121 -36.5q54 0 101.5 17t81.5 52t54 88t20 126v64q-118 -5 -198.5 -22t-130.5 -43t-72 -59t-22 -71zM903 620h481q0 58 -14 109t-42.5 89.5 t-70 60.5t-95.5 22q-116 0 -180 -74t-79 -207z" />
<glyph unicode="&#xe7;" horiz-adv-x="984" d="M77 523q0 116 32.5 215t95.5 170.5t156.5 112t215.5 40.5q114 0 200 -37t154 -104l-59 -80q-10 -13 -19 -20.5t-27 -7.5q-17 0 -36 12.5t-45 27t-63 27t-92 12.5q-72 0 -125.5 -25.5t-90 -73.5t-54.5 -116t-18 -153q0 -88 19.5 -156.5t56 -115.5t88 -71.5t116.5 -24.5 q63 0 103 15t66.5 33.5t45.5 34t41 15.5q27 0 41 -21l62 -80q-65 -78 -150.5 -116.5t-181.5 -47.5l-15 -57q95 -20 135.5 -58t40.5 -92q0 -34 -17.5 -61t-48.5 -46t-74.5 -29.5t-95.5 -10.5q-42 0 -79.5 7.5t-70.5 20.5l20 69q7 21 27 21q6 0 14 -3t18.5 -6.5t24.5 -6.5 t33 -3q38 0 57 14.5t19 36.5q0 35 -39.5 48.5t-117.5 25.5l43 130q-87 10 -161 50.5t-129 108.5t-85.5 162.5t-30.5 213.5z" />
<glyph unicode="&#xe8;" horiz-adv-x="1087" d="M76 0zM76 544q0 109 34 203t98 163.5t155.5 110t207.5 40.5q96 0 178 -31.5t141.5 -91.5t93 -148t33.5 -199q0 -51 -11.5 -68.5t-40.5 -17.5h-671q4 -89 27.5 -154t63 -108t94.5 -64t122 -21q65 0 112 14.5t81.5 32.5t59.5 33t45 15q27 0 41 -21l62 -80q-39 -46 -88 -78 t-104 -52t-113.5 -28.5t-113.5 -8.5q-109 0 -201.5 36t-160.5 107t-106.5 175.5t-38.5 240.5zM273 1491h207q38 0 56.5 -12.5t32.5 -37.5l150 -248h-125q-26 0 -41.5 7t-32.5 26zM300 640h519q0 55 -16 103t-46.5 83t-76.5 55t-105 20q-120 0 -188.5 -68.5t-86.5 -192.5z " />
<glyph unicode="&#xe9;" horiz-adv-x="1087" d="M76 0zM76 544q0 109 34 203t98 163.5t155.5 110t207.5 40.5q96 0 178 -31.5t141.5 -91.5t93 -148t33.5 -199q0 -51 -11.5 -68.5t-40.5 -17.5h-671q4 -89 27.5 -154t63 -108t94.5 -64t122 -21q65 0 112 14.5t81.5 32.5t59.5 33t45 15q27 0 41 -21l62 -80q-39 -46 -88 -78 t-104 -52t-113.5 -28.5t-113.5 -8.5q-109 0 -201.5 36t-160.5 107t-106.5 175.5t-38.5 240.5zM300 640h519q0 55 -16 103t-46.5 83t-76.5 55t-105 20q-120 0 -188.5 -68.5t-86.5 -192.5zM453 1193l148 248q14 26 33 38t56 12h214l-247 -265q-16 -18 -32 -25.5t-41 -7.5h-131 z" />
<glyph unicode="&#xea;" horiz-adv-x="1087" d="M76 0zM76 544q0 109 34 203t98 163.5t155.5 110t207.5 40.5q96 0 178 -31.5t141.5 -91.5t93 -148t33.5 -199q0 -51 -11.5 -68.5t-40.5 -17.5h-671q4 -89 27.5 -154t63 -108t94.5 -64t122 -21q65 0 112 14.5t81.5 32.5t59.5 33t45 15q27 0 41 -21l62 -80q-39 -46 -88 -78 t-104 -52t-113.5 -28.5t-113.5 -8.5q-109 0 -201.5 36t-160.5 107t-106.5 175.5t-38.5 240.5zM242 1197l232 278h205l232 -278h-147q-13 0 -26 4t-26 19l-113 118q-5 5 -9.5 10.5t-9.5 11.5q-9 -12 -19 -22l-114 -118q-11 -11 -24.5 -17t-28.5 -6h-152zM300 640h519 q0 55 -16 103t-46.5 83t-76.5 55t-105 20q-120 0 -188.5 -68.5t-86.5 -192.5z" />
<glyph unicode="&#xeb;" horiz-adv-x="1087" d="M76 0zM76 544q0 109 34 203t98 163.5t155.5 110t207.5 40.5q96 0 178 -31.5t141.5 -91.5t93 -148t33.5 -199q0 -51 -11.5 -68.5t-40.5 -17.5h-671q4 -89 27.5 -154t63 -108t94.5 -64t122 -21q65 0 112 14.5t81.5 32.5t59.5 33t45 15q27 0 41 -21l62 -80q-39 -46 -88 -78 t-104 -52t-113.5 -28.5t-113.5 -8.5q-109 0 -201.5 36t-160.5 107t-106.5 175.5t-38.5 240.5zM246 1322q0 27 10 51t27.5 42t40.5 28t49 10q27 0 51 -10t41.5 -28t28 -42t10.5 -51t-10.5 -50t-28 -40t-42 -27t-50.5 -10t-49 10t-40.5 27t-27.5 40t-10 50zM300 640h519 q0 55 -16 103t-46.5 83t-76.5 55t-105 20q-120 0 -188.5 -68.5t-86.5 -192.5zM649 1322q0 27 10.5 51t28 42t40.5 28t49 10q27 0 50.5 -10t41.5 -28t28 -42t10 -51t-10 -50t-28 -40t-41.5 -27t-50.5 -10t-49.5 10t-40 27t-28 40t-10.5 50z" />
<glyph unicode="&#xec;" horiz-adv-x="506" d="M-45 1491h207q38 0 56.5 -12.5t32.5 -37.5l150 -248h-125q-26 0 -41.5 7t-32.5 26zM0 0zM143 0v1044h220v-1044h-220z" />
<glyph unicode="&#xed;" horiz-adv-x="506" d="M136 0zM136 1193l148 248q14 26 33 38t56 12h214l-247 -265q-16 -18 -32 -25.5t-41 -7.5h-131zM144 0v1044h220v-1044h-220z" />
<glyph unicode="&#xee;" horiz-adv-x="506" d="M-76 1197l232 278h205l232 -278h-147q-13 0 -26 4t-26 19l-113 118q-5 5 -9.5 10.5t-9.5 11.5q-9 -12 -19 -22l-114 -118q-11 -11 -24.5 -17t-28.5 -6h-152zM0 0zM143 0v1044h220v-1044h-220z" />
<glyph unicode="&#xef;" horiz-adv-x="506" d="M-37 1322q0 27 10 51t27.5 42t40.5 28t49 10q27 0 50 -10t41 -28t29 -42t11 -51t-11 -50t-29 -40t-41.5 -27t-49.5 -10t-49 10t-40.5 27t-27.5 40t-10 50zM0 0zM143 0v1044h220v-1044h-220zM296 1322q0 27 10.5 51t28 42t41 28t50.5 10t50 -10t40.5 -28t28 -42t10.5 -51 t-10.5 -50t-28 -40t-41 -27t-49.5 -10q-27 0 -50.5 10t-41 27t-28 40t-10.5 50z" />
<glyph unicode="&#xf0;" horiz-adv-x="1164" d="M75 481q0 95 32 180t92.5 150t146 102.5t192.5 37.5q100 0 185 -39.5t149 -115.5q-22 122 -76.5 209t-147.5 148l-194 -134l-41 70q-14 22 -9 41.5t27 32.5l89 57q-39 16 -82 30.5t-92 26.5q-14 4 -26 12.5t-19 21.5t-7.5 31t7.5 39l26 77q100 -16 194.5 -48t178.5 -81 l176 120l43 -71q12 -20 7.5 -39.5t-25.5 -31.5l-89 -57q59 -51 108.5 -115t83.5 -142.5t53 -171t19 -200.5q0 -148 -33 -266t-98 -200t-161 -125.5t-222 -43.5q-103 0 -191.5 33.5t-154.5 97.5t-103.5 156t-37.5 208zM293 480q0 -79 21.5 -139t59.5 -101.5t87.5 -62.5 t106.5 -21q66 0 119.5 24t92.5 75.5t62 131.5t26 191q-16 41 -41 77.5t-60.5 65t-81.5 44.5t-104 16q-71 0 -125 -23.5t-90 -64t-54.5 -95.5t-18.5 -118z" />
<glyph unicode="&#xf1;" horiz-adv-x="1148" d="M134 0v1044h133q45 0 58 -42l15 -97q33 35 69 63.5t77 49t88 32t101 11.5q86 0 151 -28.5t109.5 -81t67 -125.5t22.5 -161v-665h-219v665q0 105 -48.5 163.5t-148.5 58.5q-74 0 -136.5 -34t-118.5 -92v-761h-220zM134 0zM271 1226q0 53 15 97t41 75.5t62.5 48.5t79.5 17 q37 0 68.5 -13.5t59.5 -30t51.5 -30.5t45.5 -14q33 0 51.5 19t19.5 63h134q0 -53 -14.5 -96.5t-40.5 -75t-62.5 -48t-79.5 -16.5q-36 0 -67.5 13.5t-59 30t-52 30.5t-46.5 14q-33 0 -51.5 -20t-18.5 -64h-136z" />
<glyph unicode="&#xf2;" horiz-adv-x="1169" d="M77 0zM77 523q0 124 35.5 223.5t102.5 169t160.5 107.5t210.5 38q116 0 209.5 -38t159.5 -107.5t102 -169t36 -223.5t-36 -223t-102 -169.5t-160 -108t-209 -37.5q-117 0 -210.5 37.5t-160.5 108t-102.5 169.5t-35.5 223zM283 1491h207q38 0 56.5 -12.5t32.5 -37.5 l150 -248h-125q-26 0 -41.5 7t-32.5 26zM303 522q0 -176 70 -270.5t213 -94.5q141 0 210 94.5t69 270.5t-69 272t-210 96q-143 0 -213 -96t-70 -272z" />
<glyph unicode="&#xf3;" horiz-adv-x="1169" d="M77 0zM77 523q0 124 35.5 223.5t102.5 169t160.5 107.5t210.5 38q116 0 209.5 -38t159.5 -107.5t102 -169t36 -223.5t-36 -223t-102 -169.5t-160 -108t-209 -37.5q-117 0 -210.5 37.5t-160.5 108t-102.5 169.5t-35.5 223zM303 522q0 -176 70 -270.5t213 -94.5 q141 0 210 94.5t69 270.5t-69 272t-210 96q-143 0 -213 -96t-70 -272zM463 1193l148 248q14 26 33 38t56 12h214l-247 -265q-16 -18 -32 -25.5t-41 -7.5h-131z" />
<glyph unicode="&#xf4;" horiz-adv-x="1169" d="M77 0zM77 523q0 124 35.5 223.5t102.5 169t160.5 107.5t210.5 38q116 0 209.5 -38t159.5 -107.5t102 -169t36 -223.5t-36 -223t-102 -169.5t-160 -108t-209 -37.5q-117 0 -210.5 37.5t-160.5 108t-102.5 169.5t-35.5 223zM252 1197l232 278h205l232 -278h-147 q-13 0 -26 4t-26 19l-113 118q-5 5 -9.5 10.5t-9.5 11.5q-9 -12 -19 -22l-114 -118q-11 -11 -24.5 -17t-28.5 -6h-152zM303 522q0 -176 70 -270.5t213 -94.5q141 0 210 94.5t69 270.5t-69 272t-210 96q-143 0 -213 -96t-70 -272z" />
<glyph unicode="&#xf5;" horiz-adv-x="1169" d="M77 0zM77 523q0 124 35.5 223.5t102.5 169t160.5 107.5t210.5 38q116 0 209.5 -38t159.5 -107.5t102 -169t36 -223.5t-36 -223t-102 -169.5t-160 -108t-209 -37.5q-117 0 -210.5 37.5t-160.5 108t-102.5 169.5t-35.5 223zM275 1226q0 53 15 97t41 75.5t62.5 48.5t79.5 17 q37 0 68.5 -13.5t59.5 -30t51.5 -30.5t45.5 -14q33 0 51.5 19t19.5 63h134q0 -53 -14.5 -96.5t-40.5 -75t-62.5 -48t-79.5 -16.5q-36 0 -67.5 13.5t-59 30t-52 30.5t-46.5 14q-33 0 -51.5 -20t-18.5 -64h-136zM303 522q0 -176 70 -270.5t213 -94.5q141 0 210 94.5t69 270.5 t-69 272t-210 96q-143 0 -213 -96t-70 -272z" />
<glyph unicode="&#xf6;" horiz-adv-x="1169" d="M77 0zM77 523q0 124 35.5 223.5t102.5 169t160.5 107.5t210.5 38q116 0 209.5 -38t159.5 -107.5t102 -169t36 -223.5t-36 -223t-102 -169.5t-160 -108t-209 -37.5q-117 0 -210.5 37.5t-160.5 108t-102.5 169.5t-35.5 223zM256 1322q0 27 10 51t27.5 42t40.5 28t49 10 q27 0 51 -10t41.5 -28t28 -42t10.5 -51t-10.5 -50t-28 -40t-42 -27t-50.5 -10t-49 10t-40.5 27t-27.5 40t-10 50zM303 522q0 -176 70 -270.5t213 -94.5q141 0 210 94.5t69 270.5t-69 272t-210 96q-143 0 -213 -96t-70 -272zM659 1322q0 27 10.5 51t28 42t40.5 28t49 10 q27 0 50.5 -10t41.5 -28t28 -42t10 -51t-10 -50t-28 -40t-41.5 -27t-50.5 -10t-49.5 10t-40 27t-28 40t-10.5 50z" />
<glyph unicode="&#xf7;" horiz-adv-x="1187" d="M98 604v166h991v-166h-991zM451 323q0 30 10.5 55.5t30 44.5t45 30.5t56.5 11.5q30 0 56 -11.5t45 -30.5t30 -45t11 -55q0 -31 -11 -56.5t-30 -45t-45 -30.5t-56 -11q-31 0 -56.5 11t-45 30.5t-30 45t-10.5 56.5zM451 1052q0 30 10.5 56t30 44.5t45 30t56.5 11.5 q30 0 56 -11.5t45 -30t30 -45t11 -55.5q0 -31 -11 -56.5t-30 -45t-45 -30.5t-56 -11q-31 0 -56.5 11t-45 30.5t-30 45t-10.5 56.5z" />
<glyph unicode="&#xf8;" horiz-adv-x="1168" d="M62 -79l154 208q-68 71 -103.5 170t-35.5 224q0 124 35.5 223.5t102.5 169t160.5 107.5t210.5 38q77 0 144.5 -17t123.5 -50l62 84q11 17 21 29t21.5 19t25.5 10t34 3h109l-168 -229q65 -71 99.5 -168t34.5 -219q0 -124 -36 -223t-102 -169.5t-160 -108t-209 -37.5 q-152 0 -264 62l-44 -59q-25 -38 -62 -52.5t-72 -14.5h-82zM290 522q0 -143 45 -231l415 561q-68 44 -164 44q-72 0 -127.5 -25.5t-92.5 -73.5t-56.5 -117.5t-19.5 -157.5zM426 189q66 -39 160 -39q71 0 125.5 25t92 73t57 117t19.5 157q0 135 -42 224z" />
<glyph unicode="&#xf9;" horiz-adv-x="1148" d="M124 0zM124 380v664h220v-664q0 -105 48.5 -163.5t148.5 -58.5q73 0 135.5 33t118.5 92v761h220v-1044h-133q-44 0 -57 42l-16 97q-67 -70 -147 -112.5t-187 -42.5q-86 0 -151.5 28.5t-110 80.5t-67 125.5t-22.5 161.5zM272 1491h207q38 0 56.5 -12.5t32.5 -37.5 l150 -248h-125q-26 0 -41.5 7t-32.5 26z" />
<glyph unicode="&#xfa;" horiz-adv-x="1148" d="M124 0zM124 380v664h220v-664q0 -105 48.5 -163.5t148.5 -58.5q73 0 135.5 33t118.5 92v761h220v-1044h-133q-44 0 -57 42l-16 97q-67 -70 -147 -112.5t-187 -42.5q-86 0 -151.5 28.5t-110 80.5t-67 125.5t-22.5 161.5zM452 1193l148 248q14 26 33 38t56 12h214 l-247 -265q-16 -18 -32 -25.5t-41 -7.5h-131z" />
<glyph unicode="&#xfb;" horiz-adv-x="1148" d="M124 0zM124 380v664h220v-664q0 -105 48.5 -163.5t148.5 -58.5q73 0 135.5 33t118.5 92v761h220v-1044h-133q-44 0 -57 42l-16 97q-67 -70 -147 -112.5t-187 -42.5q-86 0 -151.5 28.5t-110 80.5t-67 125.5t-22.5 161.5zM241 1197l232 278h205l232 -278h-147q-13 0 -26 4 t-26 19l-113 118q-5 5 -9.5 10.5t-9.5 11.5q-9 -12 -19 -22l-114 -118q-11 -11 -24.5 -17t-28.5 -6h-152z" />
<glyph unicode="&#xfc;" horiz-adv-x="1148" d="M124 0zM124 380v664h220v-664q0 -105 48.5 -163.5t148.5 -58.5q73 0 135.5 33t118.5 92v761h220v-1044h-133q-44 0 -57 42l-16 97q-67 -70 -147 -112.5t-187 -42.5q-86 0 -151.5 28.5t-110 80.5t-67 125.5t-22.5 161.5zM245 1322q0 27 10 51t27.5 42t40.5 28t49 10 q27 0 51 -10t41.5 -28t28 -42t10.5 -51t-10.5 -50t-28 -40t-42 -27t-50.5 -10t-49 10t-40.5 27t-27.5 40t-10 50zM648 1322q0 27 10.5 51t28 42t40.5 28t49 10q27 0 50.5 -10t41.5 -28t28 -42t10 -51t-10 -50t-28 -40t-41.5 -27t-50.5 -10t-49.5 10t-40 27t-28 40t-10.5 50z " />
<glyph unicode="&#xfd;" horiz-adv-x="1069" d="M13 0zM13 1044h192q28 0 42.5 -12.5t21.5 -30.5l249 -592q18 -51 31 -103q8 27 16.5 52.5t19.5 51.5l238 591q7 18 24 30.5t38 12.5h176l-576 -1341q-11 -24 -27 -37t-48 -13h-163l192 418zM438 1193l148 248q14 26 33 38t56 12h214l-247 -265q-16 -18 -32 -25.5 t-41 -7.5h-131z" />
<glyph unicode="&#xfe;" horiz-adv-x="1156" d="M134 -347v1863h220v-610q65 71 145.5 113t186.5 42q88 0 160 -35t123 -102t79 -166.5t28 -228.5q0 -116 -31 -215.5t-89.5 -172.5t-141.5 -114.5t-187 -41.5q-93 0 -157 33.5t-116 92.5v-458h-220zM354 262q46 -59 101 -83t122 -24q129 0 201 94t72 280q0 96 -16.5 164.5 t-47 111.5t-75 62.5t-99.5 19.5q-85 0 -145 -36.5t-113 -104.5v-484z" />
<glyph unicode="&#xff;" horiz-adv-x="1069" d="M13 0zM13 1044h192q28 0 42.5 -12.5t21.5 -30.5l249 -592q18 -51 31 -103q8 27 16.5 52.5t19.5 51.5l238 591q7 18 24 30.5t38 12.5h176l-576 -1341q-11 -24 -27 -37t-48 -13h-163l192 418zM231 1322q0 27 10 51t27.5 42t40.5 28t49 10q27 0 51 -10t41.5 -28t28 -42 t10.5 -51t-10.5 -50t-28 -40t-42 -27t-50.5 -10t-49 10t-40.5 27t-27.5 40t-10 50zM634 1322q0 27 10.5 51t28 42t40.5 28t49 10q27 0 50.5 -10t41.5 -28t28 -42t10 -51t-10 -50t-28 -40t-41.5 -27t-50.5 -10t-49.5 10t-40 27t-28 40t-10.5 50z" />
<glyph unicode="&#x131;" horiz-adv-x="507" d="M144 0v1044h220v-1044h-220z" />
<glyph unicode="&#x152;" horiz-adv-x="2223" d="M88 737q0 164 48 302.5t135.5 238.5t210 156.5t271.5 56.5q157 0 281.5 -61.5t212.5 -169.5v215h891v-194h-679v-444h543v-188h-543v-455h680l-1 -194h-891v214q-88 -109 -213 -169t-281 -60q-148 0 -271 56t-210.5 156t-135.5 238t-48 302zM333 737q0 -128 31 -230.5 t88.5 -173.5t140 -109.5t184.5 -38.5q101 0 183 38.5t139.5 109.5t88.5 173.5t31 230.5q0 127 -31 230t-88.5 174.5t-139 110.5t-183.5 39t-184.5 -39t-140 -110.5t-88.5 -174.5t-31 -230z" />
<glyph unicode="&#x153;" horiz-adv-x="1790" d="M77 523q0 124 34 223.5t96.5 169t150 107.5t194.5 38q130 0 227 -57t154 -160q55 99 149 158t228 59q87 0 161 -34t128.5 -97.5t85.5 -154t31 -205.5q0 -51 -9.5 -68.5t-39.5 -17.5h-627q6 -83 29 -144t59.5 -101.5t87 -60.5t110.5 -20q59 0 102 14.5t75.5 32.5t56 33 t45.5 15q26 0 40 -21l63 -80q-38 -46 -85.5 -78t-100.5 -52t-108 -28.5t-108 -8.5q-116 0 -213.5 54t-157.5 168q-58 -106 -157 -164t-234 -58q-103 0 -189.5 37.5t-148 108t-95.5 169.5t-34 223zM303 522q0 -176 64 -270.5t197 -94.5q132 0 195.5 94t63.5 271 q0 176 -64 272t-195 96q-133 0 -197 -96t-64 -272zM1041 620h481q0 58 -14.5 109t-42 89.5t-69.5 60.5t-96 22q-116 0 -180 -74t-79 -207z" />
<glyph unicode="&#x178;" horiz-adv-x="1303" d="M-6 1475h210q32 0 50 -15.5t31 -39.5l302 -528q20 -40 37 -76t29 -71q12 36 28.5 71.5t37.5 75.5l300 528q10 20 29.5 37.5t50.5 17.5h211l-539 -897v-578h-239v578zM0 0zM310 1707q0 26 9.5 49t26.5 40.5t39.5 27.5t46.5 10q26 0 49.5 -10t41 -27.5t27.5 -40.5t10 -49 t-10 -48.5t-27.5 -39t-41 -26.5t-49.5 -10q-25 0 -47 10t-39 26.5t-26.5 39t-9.5 48.5zM749 1707q0 26 9.5 49t27 40.5t40 27.5t49.5 10q26 0 48 -10t39 -27.5t27.5 -40.5t10.5 -49t-10.5 -48.5t-27.5 -39t-39.5 -26.5t-47.5 -10q-27 0 -49.5 10t-40 26.5t-27 39t-9.5 48.5z " />
<glyph unicode="&#x237;" horiz-adv-x="507" d="M-75 -351l8 120q2 10 6.5 15t12 7.5t20 3t31.5 0.5q39 0 66 8.5t44 26t24 46.5t7 70v1098h220v-1098q0 -66 -17.5 -124t-55 -101t-97.5 -67.5t-146 -24.5q-35 0 -64 5.5t-59 14.5z" />
<glyph unicode="&#x2c6;" horiz-adv-x="819" d="M75 1197l232 278h205l232 -278h-147q-13 0 -26 4t-26 19l-113 118q-5 5 -9.5 10.5t-9.5 11.5q-9 -12 -19 -22l-114 -118q-11 -11 -24.5 -17t-28.5 -6h-152z" />
<glyph unicode="&#x2dc;" horiz-adv-x="819" d="M98 1226q0 53 15 97t41 75.5t62.5 48.5t79.5 17q37 0 68.5 -13.5t59.5 -30t51.5 -30.5t45.5 -14q33 0 51.5 19t19.5 63h134q0 -53 -14.5 -96.5t-40.5 -75t-62.5 -48t-79.5 -16.5q-36 0 -67.5 13.5t-59 30t-52 30.5t-46.5 14q-33 0 -51.5 -20t-18.5 -64h-136z" />
<glyph unicode="&#x1fed;" horiz-adv-x="819" d="M-3 1322q0 27 10 51t27.5 42t40.5 28t49 10q27 0 51 -10t41.5 -28t28 -42t10.5 -51t-10.5 -50t-28 -40t-41.5 -27t-51 -10q-26 0 -49 10t-40.5 27t-27.5 40t-10 50zM282 1426q-11 34 0 54.5t43 20.5h136l61 -345h-127zM557 1322q0 27 10.5 51t27.5 42t40 28t50 10 t50.5 -10t41.5 -28t28 -42t10 -51t-10 -50t-28 -40t-41.5 -27t-50.5 -10t-50 10t-40 27t-27.5 40t-10.5 50z" />
<glyph unicode="&#x1fee;" horiz-adv-x="819" d="M-3 1322q0 27 10 51t27.5 42t40.5 28t49 10q27 0 51 -10t41.5 -28t28 -42t10.5 -51t-10.5 -50t-28 -40t-41.5 -27t-51 -10q-26 0 -49 10t-40.5 27t-27.5 40t-10 50zM290 1156l62 345h136q32 0 43.5 -20.5t-0.5 -54.5l-114 -270h-127zM557 1322q0 27 10.5 51t27.5 42 t40 28t50 10t50.5 -10t41.5 -28t28 -42t10 -51t-10 -50t-28 -40t-41.5 -27t-50.5 -10t-50 10t-40 27t-27.5 40t-10.5 50z" />
<glyph unicode="&#x1fef;" horiz-adv-x="819" d="M232 1426q-11 34 0 54.5t43 20.5h138l62 -348h-127z" />
<glyph unicode="&#x1ffd;" horiz-adv-x="819" d="M336 1153l62 348h138q32 0 43 -20.5t0 -54.5l-116 -273h-127z" />
<glyph unicode="&#x2000;" horiz-adv-x="966" />
<glyph unicode="&#x2001;" horiz-adv-x="1933" />
<glyph unicode="&#x2002;" horiz-adv-x="966" />
<glyph unicode="&#x2003;" horiz-adv-x="1933" />
<glyph unicode="&#x2004;" horiz-adv-x="644" />
<glyph unicode="&#x2005;" horiz-adv-x="483" />
<glyph unicode="&#x2006;" horiz-adv-x="322" />
<glyph unicode="&#x2007;" horiz-adv-x="322" />
<glyph unicode="&#x2008;" horiz-adv-x="241" />
<glyph unicode="&#x2009;" horiz-adv-x="386" />
<glyph unicode="&#x200a;" horiz-adv-x="107" />
<glyph unicode="&#x2013;" horiz-adv-x="1187" d="M181 530v159h826v-159h-826z" />
<glyph unicode="&#x2014;" horiz-adv-x="1629" d="M127 530v159h1376v-159h-1376z" />
<glyph unicode="&#x2018;" horiz-adv-x="445" d="M101.5 1289.5q13.5 82.5 56 158t112.5 135.5l69 -42q18 -11 16 -28.5t-12 -28.5q-24 -29 -43 -73t-26 -97t3.5 -111.5t44.5 -115.5q16 -26 9.5 -45.5t-30.5 -27.5l-133 -53q-46 78 -63 162t-3.5 166.5z" />
<glyph unicode="&#x2019;" horiz-adv-x="444" d="M97 1021q1 18 12 29q24 29 43 72.5t25.5 96.5t-3 111.5t-44.5 115.5q-16 27 -9 46t30 28l134 53q46 -78 62.5 -162.5t3 -167t-56 -158t-113.5 -135.5l-68 42q-17 11 -16 29z" />
<glyph unicode="&#x201a;" horiz-adv-x="443" d="M80.5 -261q1.5 18 11.5 29q24 29 43.5 72.5t26 96.5t-3.5 111t-44 116q-16 27 -9 46t29 28l134 53q46 -78 62.5 -162.5t3.5 -167t-55.5 -158t-113.5 -135.5l-69 42q-17 11 -15.5 29z" />
<glyph unicode="&#x201c;" horiz-adv-x="772" d="M88 961zM101.5 1289.5q13.5 82.5 56 158t112.5 135.5l69 -42q18 -11 16 -28.5t-12 -28.5q-24 -29 -43 -73t-26 -97t3.5 -111.5t44.5 -115.5q16 -26 9.5 -45.5t-30.5 -27.5l-133 -53q-46 78 -63 162t-3.5 166.5zM428.5 1289.5q13.5 82.5 56 158t112.5 135.5l69 -42 q18 -11 16 -28.5t-12 -28.5q-24 -29 -43 -73t-26 -97t3.5 -111.5t44.5 -115.5q16 -26 9.5 -45.5t-30.5 -27.5l-133 -53q-46 78 -63 162t-3.5 166.5z" />
<glyph unicode="&#x201d;" horiz-adv-x="771" d="M95 950zM96.5 1021q1.5 18 11.5 29q24 29 43.5 72.5t26 96.5t-3.5 111t-44 116q-16 27 -9 46t29 28l134 53q46 -78 62.5 -162.5t3.5 -167t-55.5 -158t-113.5 -135.5l-69 42q-17 11 -15.5 29zM423.5 1021q1.5 18 11.5 29q24 29 43.5 72.5t26 96.5t-3.5 111t-44 116 q-16 27 -9 46t29 28l134 53q46 -78 62.5 -162.5t3.5 -167t-55.5 -158t-113.5 -135.5l-69 42q-17 11 -15.5 29z" />
<glyph unicode="&#x201e;" horiz-adv-x="770" d="M79 0zM80.5 -261q1.5 18 11.5 29q24 29 43.5 72.5t26 96.5t-3.5 111t-44 116q-16 27 -9 46t29 28l134 53q46 -78 62.5 -162.5t3.5 -167t-55.5 -158t-113.5 -135.5l-69 42q-17 11 -15.5 29zM407.5 -261q1.5 18 11.5 29q24 29 43.5 72.5t26 96.5t-3.5 111t-44 116 q-16 27 -9 46t29 28l134 53q46 -78 62.5 -162.5t3.5 -167t-55.5 -158t-113.5 -135.5l-69 42q-17 11 -15.5 29z" />
<glyph unicode="&#x2022;" horiz-adv-x="1187" d="M179 608q0 86 33 162.5t89 133.5t131.5 89.5t160.5 32.5q86 0 161.5 -32.5t132 -89.5t89.5 -133.5t33 -162.5t-33 -161t-89.5 -131.5t-132 -89t-161.5 -32.5q-85 0 -160.5 32.5t-131.5 89t-89 131.5t-33 161z" />
<glyph unicode="&#x2026;" horiz-adv-x="1559" d="M100 0zM100 127q0 30 11 56t30 45.5t45 30.5t56 11t56 -11t45 -30.5t30.5 -45.5t11.5 -56q0 -31 -11.5 -56.5t-30.5 -45t-45.5 -30t-55.5 -10.5q-30 0 -56 10.5t-45 30t-30 45t-11 56.5zM638 127q0 30 11 56t30 45.5t45 30.5t56 11t56 -11t45 -30.5t30.5 -45.5t11.5 -56 q0 -31 -11.5 -56.5t-30.5 -45t-45.5 -30t-55.5 -10.5q-30 0 -56 10.5t-45 30t-30 45t-11 56.5zM1174 127q0 30 11 56t30 45.5t45 30.5t56 11t56 -11t45 -30.5t30.5 -45.5t11.5 -56q0 -31 -11.5 -56.5t-30.5 -45t-45.5 -30t-55.5 -10.5q-30 0 -56 10.5t-45 30t-30 45 t-11 56.5z" />
<glyph unicode="&#x202f;" horiz-adv-x="386" />
<glyph unicode="&#x2039;" horiz-adv-x="585" d="M97 532v29l259 403l72 -35q28 -13 33 -37t-10 -52l-152 -252q-15 -28 -32 -41q8 -7 16 -17.5t16 -22.5l152 -253q15 -28 10 -52t-33 -37l-72 -35z" />
<glyph unicode="&#x203a;" horiz-adv-x="586" d="M126 202q-5 24 10 52l152 253l15 22.5t15 17.5q-16 14 -30 41l-152 252q-15 29 -10 52t33 37l71 35l259 -403v-29l-259 -402l-71 35q-28 13 -33 37z" />
<glyph unicode="&#x2044;" horiz-adv-x="286" d="M-385 0l847 1401q22 35 49.5 54.5t66.5 19.5h94l-852 -1410q-24 -38 -50 -51.5t-62 -13.5h-93z" />
<glyph unicode="&#x205f;" horiz-adv-x="483" />
<glyph unicode="&#x2070;" d="M56 913zM56 1298q0 99 22 171.5t60.5 120t90.5 70.5t111 23t112 -23t92 -70.5t61.5 -120t22.5 -171.5q0 -98 -22.5 -170.5t-61.5 -120t-92 -70.5t-112 -23t-111 23t-90.5 70.5t-60.5 120t-22 170.5zM216 1298q0 -78 10 -127.5t26.5 -78t39 -39t48.5 -10.5t49 10.5 t40.5 39t28 78t10.5 127.5q0 79 -9.5 129t-26.5 78t-40.5 39t-51.5 11t-51 -11t-39 -39t-25 -78t-9 -129z" />
<glyph unicode="&#x2074;" d="M30 922zM30 1196l347 479h152v-470h103v-81q0 -11 -8.5 -20.5t-22.5 -9.5h-72v-172h-133v172h-304q-22 0 -34 9.5t-15 24.5zM177 1205h219v204q0 23 1.5 49t5.5 55z" />
<glyph unicode="&#x2075;" d="M76 913zM76 1010l47 67q16 23 39 22q15 0 28.5 -8t30 -18t38.5 -18t54 -8q23 0 44.5 7t38.5 22t26.5 38t9.5 55q0 55 -29.5 83.5t-87.5 28.5q-26 0 -51.5 -5.5t-52.5 -13.5l-95 27l64 386h383v-66q0 -33 -20.5 -54.5t-69.5 -21.5h-184l-23 -132q44 8 83 8q58 0 103.5 -16 t76 -46t46.5 -71t16 -90q0 -60 -21.5 -110.5t-59.5 -86t-90.5 -55.5t-115.5 -20q-73 0 -130.5 28.5t-97.5 67.5z" />
<glyph unicode="&#x2076;" d="M75 913zM75 1184q0 112 87 226l171 229q11 15 32.5 25.5t49.5 10.5h138l-193 -231q-20 -26 -45 -48.5t-49 -49.5q27 22 61.5 34.5t73.5 12.5q38 0 76 -12.5t68.5 -39t50 -68t19.5 -99.5q0 -53 -19.5 -101t-55 -83t-86 -55.5t-111.5 -20.5q-63 0 -113 20t-84 55.5 t-52.5 85.5t-18.5 109zM230 1155q0 -52 31.5 -86t85.5 -34q26 0 48.5 9t39 25t25.5 38t9 47q0 58 -30 90t-86 32q-58 0 -90.5 -34.5t-32.5 -86.5z" />
<glyph unicode="&#x2077;" d="M84 922zM84 1565v110h527v-85q0 -15 -3.5 -28.5t-8.5 -25.5l-272 -562q-4 -9 -9 -18t-13 -17t-21 -12.5t-31 -4.5h-122l274 535q11 20 22 38.5t25 33.5h-332q-14 0 -25 11t-11 25z" />
<glyph unicode="&#x2078;" d="M75 913zM75 1138q0 61 29 107t96 69q-50 24 -75 65.5t-25 98.5q0 44 18 81.5t50.5 65t77 43t96.5 15.5q53 0 97 -15.5t76.5 -43t50.5 -65t18 -81.5q0 -116 -101 -164q68 -24 97 -69t29 -107q0 -51 -19.5 -92t-54 -70.5t-84.5 -45.5t-109 -16t-108.5 16t-84.5 45.5 t-54.5 70.5t-19.5 92zM234 1141q0 -45 26.5 -75.5t81.5 -30.5q57 0 83 30.5t26 75.5q0 59 -30 84t-79 25t-78.5 -24.5t-29.5 -84.5zM247 1476q0 -50 23 -76.5t72 -26.5q50 0 74 26.5t24 76.5q0 34 -24.5 62t-73.5 28t-72 -28t-23 -62z" />
<glyph unicode="&#x2079;" d="M78 922zM78 1443q0 45 19 88t53 77t83 54.5t108 20.5t107.5 -17t81 -48.5t50.5 -77t18 -100.5q0 -40 -6.5 -75t-20 -68.5t-32 -65t-42.5 -65.5l-146 -208q-11 -14 -32 -25t-48 -11h-141l202 254q16 20 33 38t32 37q-24 -11 -49.5 -16.5t-54.5 -5.5q-39 0 -77.5 14.5 t-69 41.5t-49.5 67t-19 91zM229 1452q0 -55 29 -83t82 -28t83.5 29.5t30.5 80.5q0 52 -31.5 82t-79.5 30q-54 0 -84 -29.5t-30 -81.5z" />
<glyph unicode="&#x207a;" d="M87 1019zM87 1224v118h192v203h124v-203h194v-118h-194v-205h-124v205h-192z" />
<glyph unicode="&#x207c;" d="M108 1129zM108 1130v116h469v-116h-469zM108 1319v116h469v-116h-469z" />
<glyph unicode="&#x207d;" horiz-adv-x="342" d="M55 788zM55 1287q0 134 33.5 256.5t109.5 239.5l69 -42q12 -8 19 -21.5t-7 -38.5q-43 -88 -66.5 -190t-23.5 -204t23.5 -204.5t66.5 -189.5q14 -26 7 -39t-19 -21l-69 -44q-76 118 -109.5 240.5t-33.5 257.5z" />
<glyph unicode="&#x207e;" horiz-adv-x="342" d="M49 788zM56.5 854.5q-7.5 13.5 6.5 38.5q43 87 67 189.5t24 204.5t-24 204t-67 190q-13 26 -6 39t20 21l68 42q76 -117 109 -239.5t33 -256.5t-33 -257t-109 -241l-68 44q-13 8 -20.5 21.5z" />
<glyph unicode="&#x207f;" horiz-adv-x="632" d="M79 938v537h82q30 0 41 -32l8 -39q34 35 73 57t96 22q44 0 77.5 -15.5t57 -42.5t35 -64.5t11.5 -81.5v-341h-153v341q0 81 -76 81q-27 0 -51.5 -11.5t-47.5 -31.5v-379h-153z" />
<glyph unicode="&#x2080;" d="M56 144q0 99 22 171.5t60.5 120t90.5 70.5t111 23t112 -23t92 -70.5t61.5 -120t22.5 -171.5q0 -98 -22.5 -170t-61.5 -120t-92 -71t-112 -23t-111 23t-90.5 71t-60.5 120t-22 170zM216 144q0 -78 10 -127.5t26.5 -77.5t39 -39t48.5 -11t49 11t40.5 39t28 77.5t10.5 127.5 q0 79 -9.5 129.5t-26.5 78.5t-40.5 38.5t-51.5 10.5t-51 -10.5t-39 -38.5t-25 -78.5t-9 -129.5z" />
<glyph unicode="&#x2081;" d="M94 326l234 197h132v-651h125v-103h-429v103h145v406l5 48l-93 -75q-11 -8 -22 -10t-20 0t-17 7t-12 10z" />
<glyph unicode="&#x2082;" d="M68 -179q0 15 6 32.5t20 31.5l220 217q25 24 46 49.5t36.5 51.5t24.5 52.5t9 50.5q0 44 -25.5 69.5t-65.5 25.5t-64.5 -20.5t-37.5 -56.5q-12 -20 -27.5 -28.5t-47.5 -3.5l-88 14q16 113 89.5 168t183.5 55q56 0 102 -16t77 -45t48 -69t17 -87q0 -42 -13 -76.5t-34.5 -67 t-49 -62t-57.5 -60.5l-146 -147q27 7 52 11t47 4h164q26 0 39.5 -14t13.5 -37v-94h-539v52z" />
<glyph unicode="&#x2083;" d="M63 -38l69 30q27 11 50 5.5t32 -25.5q5 -11 13.5 -25t21.5 -26t33 -20.5t48 -8.5t48 8.5t34.5 22.5t21.5 31.5t7 37.5q0 29 -8 48.5t-26.5 32.5t-49 18.5t-75.5 5.5v106q43 1 72 8t47 20.5t25 32.5t7 42q0 44 -24.5 68t-68.5 24q-43 0 -67.5 -20t-35.5 -53 q-11 -24 -25 -31t-46 -2l-82 14q8 56 31 98t58 70t79.5 41.5t95.5 13.5q55 0 99.5 -15.5t75 -42.5t47 -62t16.5 -74q0 -129 -116 -178q65 -19 98 -58t33 -101q0 -60 -22.5 -105t-59.5 -74t-84.5 -44t-96.5 -15q-56 0 -99.5 11.5t-77 36t-57 63t-41.5 91.5z" />
<glyph unicode="&#x2084;" d="M29 43l347 478h152v-470h103v-81q0 -11 -8.5 -20t-22.5 -9h-72v-172h-133v172h-304q-22 0 -34 9.5t-15 23.5zM176 51h219v205q0 23 1.5 49t5.5 54z" />
<glyph unicode="&#x2085;" d="M77 -143l47 66q16 23 39 23q15 0 28.5 -8.5t30 -18t38.5 -17.5t54 -8q23 0 44.5 7t38.5 22t26.5 38t9.5 54q0 55 -29.5 84t-87.5 29q-26 0 -51.5 -5.5t-52.5 -13.5l-95 26l64 386h383v-65q0 -33 -20.5 -54.5t-69.5 -21.5h-184l-23 -132q44 8 83 8q58 0 103.5 -16.5 t76 -46t46.5 -70.5t16 -90q0 -60 -21.5 -110.5t-59.5 -86.5t-90.5 -56t-115.5 -20q-73 0 -130.5 29t-97.5 68z" />
<glyph unicode="&#x2086;" d="M75 31q0 112 87 226l171 228q11 15 32.5 25.5t49.5 10.5h138l-193 -230q-20 -26 -45 -49t-49 -49q27 22 61.5 34.5t73.5 12.5q38 0 76 -12.5t69 -39t50 -68t19 -100.5q0 -53 -19 -100.5t-55 -83t-86.5 -56t-111.5 -20.5q-63 0 -113 20t-84 56t-52.5 85.5t-18.5 109.5z M230 2q0 -52 31.5 -86.5t85.5 -34.5q26 0 48.5 9.5t39 25t25.5 37.5t9 48q0 58 -30 90t-86 32q-58 0 -90.5 -34.5t-32.5 -86.5z" />
<glyph unicode="&#x2087;" d="M84 412v109h527v-85q0 -15 -3.5 -28.5t-8.5 -24.5l-272 -562q-4 -9 -9 -18.5t-13 -17t-21 -12t-31 -4.5h-122l275 534q11 20 21.5 38.5t24.5 34.5h-332q-14 0 -25 10.5t-11 25.5z" />
<glyph unicode="&#x2088;" d="M75 -15q0 61 29 106.5t96 69.5q-50 24 -75 65t-25 99q0 44 18 81t50.5 65t77 43t96.5 15q53 0 97 -15t76.5 -43t50.5 -65t18 -81q0 -116 -101 -164q68 -24 97 -69.5t29 -106.5q0 -51 -19.5 -92t-54 -71t-84.5 -46t-109 -16t-108.5 16t-84.5 46t-54.5 70.5t-19.5 92.5z M234 -12q0 -45 26.5 -76t81.5 -31q57 0 83 31t26 76q0 59 -30 83.5t-79 24.5t-78.5 -24.5t-29.5 -83.5zM247 323q0 -50 23 -77t72 -27q50 0 74 26.5t24 77.5q0 34 -24.5 62t-73.5 28t-72 -28.5t-23 -61.5z" />
<glyph unicode="&#x2089;" d="M78 290q0 45 19 88t53 76.5t83 54t108 20.5t107.5 -16.5t81 -48.5t50.5 -77t18 -100q0 -40 -6.5 -75.5t-20 -68.5t-32 -65t-42.5 -66l-146 -208q-11 -14 -32 -24.5t-48 -10.5h-141l202 254q16 20 33 38t32 36q-24 -11 -49.5 -16t-54.5 -5q-39 0 -77.5 14t-69 41.5 t-49.5 67.5t-19 91zM229 299q0 -55 29 -83.5t82 -28.5t83.5 30t30.5 81q0 52 -31.5 82t-79.5 30q-54 0 -84 -30t-30 -81z" />
<glyph unicode="&#x208a;" d="M87 71v117h192v203h124v-203h194v-117h-194v-205h-124v205h-192z" />
<glyph unicode="&#x208c;" d="M108 0zM108 -23v116h469v-116h-469zM108 166v116h469v-116h-469z" />
<glyph unicode="&#x208d;" horiz-adv-x="342" d="M55 133q0 134 33.5 257t109.5 240l69 -42q12 -8 19 -21.5t-6 -39.5q-43 -88 -67 -190t-24 -204t24 -204t67 -189q14 -26 7 -39t-20 -22l-69 -44q-76 118 -109.5 241t-33.5 257z" />
<glyph unicode="&#x208e;" horiz-adv-x="342" d="M55 566.5q7 13.5 21 21.5l68 42q76 -117 109 -240t33 -257t-33 -257t-109 -241l-68 44q-13 8 -20.5 21.5t5.5 39.5q43 87 67.5 189t24.5 204t-24.5 204t-67.5 190q-13 26 -6 39.5z" />
<glyph unicode="&#x208f;" horiz-adv-x="708" d="M124 -231v537h82q30 0 41 -32l9 -39q34 35 72.5 57t96.5 22q44 0 77.5 -15.5t56.5 -42.5t35 -64.5t12 -81.5v-341h-154v341q0 81 -76 81q-27 0 -51 -11.5t-47 -31.5v-379h-154zM125 0z" />
<glyph unicode="&#x20ac;" horiz-adv-x="1187" d="M26 558v125h127q-1 13 -1 26.5v27.5v38t2 37h-128v125h142q23 127 72.5 229t122.5 173.5t167 110.5t203 39q140 0 239.5 -53t169.5 -145l-76 -85q-9 -10 -19.5 -17.5t-27.5 -7.5q-12 0 -24.5 8.5t-27 21.5t-33.5 28t-45.5 28t-62 21.5t-84.5 8.5q-67 0 -123 -23 t-100.5 -68.5t-76 -113t-48.5 -155.5h537v-69q0 -20 -17 -38t-46 -18h-488q-2 -18 -2 -36.5v-38.5v-27.5t1 -26.5h456v-69q0 -20 -17 -38t-46 -18h-382q29 -191 118.5 -286t223.5 -95q52 0 90.5 10.5t67 25t48 32.5t35.5 33t28.5 25t26.5 10q10 0 18 -3t16 -12l94 -88 q-73 -109 -181.5 -167t-254.5 -58q-120 0 -215 40.5t-165.5 115t-115 180.5t-61.5 237h-137z" />
<glyph unicode="&#x2122;" horiz-adv-x="1543" d="M87 1348v127h505v-127h-176v-486h-154v486h-175zM677 862v613h130q20 0 29.5 -4.5t21.5 -19.5l152 -284q7 -16 13 -32t11 -32q5 16 11.5 32t14.5 32l153 284q11 15 21 19.5t30 4.5h130v-613h-134v338l10 90l-171 -324q-16 -34 -52 -34h-23q-36 0 -52 34l-171 322l10 -88 v-338h-134z" />
<glyph unicode="&#x25fc;" horiz-adv-x="1044" d="M0 0v1044h1044v-1044h-1044z" />
<glyph horiz-adv-x="2144" d="M77 523q0 116 32.5 215t95.5 170.5t156.5 112t215.5 40.5q20 0 39 -1.5t37 -3.5q-25 48 -38 99t-13 103q0 73 26 136t77 109t124 73t167 27q68 0 120 -13t92.5 -29.5t73 -30t60.5 -14.5h7v-595q65 63 141.5 101.5t178.5 38.5q86 0 151 -28.5t109.5 -81t67 -125.5 t22.5 -161v-665h-219v665q0 105 -48.5 163.5t-147.5 58.5q-74 0 -137 -34t-118 -92v-761h-221v1408q-9 19 -27.5 34.5t-43 26t-54 15.5t-60.5 5q-58 0 -102.5 -18t-74 -48.5t-44 -72t-14.5 -88.5q0 -70 29 -136t81 -122q60 -32 113 -84l-59 -80q-10 -13 -19 -20.5t-27 -7.5 q-17 0 -36 12.5t-45 27t-63 27t-92 12.5q-72 0 -125.5 -25.5t-90 -73.5t-54.5 -116t-18 -153q0 -88 19.5 -156.5t56 -115.5t88 -71.5t116.5 -24.5q63 0 103 15t66.5 33.5t45.5 34t41 15.5q27 0 41 -21l62 -80q-38 -46 -84 -78t-97 -52t-106.5 -28.5t-111.5 -8.5 q-97 0 -182 36t-147.5 105.5t-99 169t-36.5 227.5z" />
<glyph horiz-adv-x="2063" d="M77 523q0 116 32.5 215t95.5 170.5t156.5 112t215.5 40.5q20 0 39 -1.5t37 -3.5q-25 48 -38 99t-13 103q0 73 26 136t77 109t124 73t167 27q70 0 122.5 -14t94 -30t74 -29.5t62.5 -13.5v-879h47q23 0 37 6t29 26l293 335q15 20 33.5 30t47.5 10h200l-353 -397 q-31 -40 -67 -63q20 -14 35.5 -32t29.5 -41l376 -511h-196q-27 0 -46 8.5t-33 32.5l-302 410q-15 24 -30.5 30t-46.5 6h-54v-487h-221v1408q-9 19 -27.5 34.5t-43 26t-54 15.5t-60.5 5q-58 0 -102.5 -18t-74 -48.5t-44 -72t-14.5 -88.5q0 -70 29 -136t81 -122 q60 -32 113 -84l-59 -80q-10 -13 -19 -20.5t-27 -7.5q-17 0 -36 12.5t-45 27t-63 27t-92 12.5q-72 0 -125.5 -25.5t-90 -73.5t-54.5 -116t-18 -153q0 -88 19.5 -156.5t56 -115.5t88 -71.5t116.5 -24.5q63 0 103 15t66.5 33.5t45.5 34t41 15.5q27 0 41 -21l62 -80 q-38 -46 -84 -78t-97 -52t-106.5 -28.5t-111.5 -8.5q-97 0 -182 36t-147.5 105.5t-99 169t-36.5 227.5z" />
<glyph horiz-adv-x="1721" d="M77 523q0 116 32.5 215t95.5 170.5t156.5 112t215.5 40.5q42 0 80 -6q-42 89 -42 182q0 71 25.5 137t75.5 116.5t126 81.5t176 31q98 0 168.5 -29.5t116 -77t67 -108.5t21.5 -125v-233h289v-159h-289v-592q0 -56 28 -86t73 -30q26 0 44.5 6.5t32 14t23.5 14.5t19 7 q10 0 16 -4.5t13 -16.5l66 -107q-52 -45 -121 -69t-143 -24q-131 0 -201 73t-70 206v608h-115q-18 0 -31 12t-13 36v89l179 26q9 30 18.5 63t16 67.5t11 68.5t4.5 63q0 45 -11.5 84t-38 68.5t-69.5 45.5t-104 16q-73 0 -128 -22.5t-93 -60t-57 -87t-19 -102.5 q0 -59 24.5 -119.5t73.5 -114.5q61 -34 112 -84l-59 -80q-10 -13 -19 -20.5t-27 -7.5q-17 0 -36 12.5t-45 27t-63 27t-92 12.5q-72 0 -125.5 -25.5t-90 -73.5t-54.5 -116t-18 -153q0 -88 19.5 -156.5t56 -115.5t88 -71.5t116.5 -24.5q63 0 103 15t66.5 33.5t45.5 34t41 15.5 q27 0 41 -21l62 -80q-38 -46 -84 -78t-97 -52t-106.5 -28.5t-111.5 -8.5q-97 0 -182 36t-147.5 105.5t-99 169t-36.5 227.5z" />
<glyph horiz-adv-x="1722" d="M77 523q0 116 32.5 215t95.5 170.5t156.5 112t215.5 40.5q42 0 80 -6q-42 89 -42 182q0 71 25.5 137t75.5 116.5t126 81.5t176 31q98 0 168.5 -29.5t116 -77t67 -108.5t21.5 -125v-233h289v-159h-289v-592q0 -56 28 -86t73 -30q26 0 44.5 6.5t32 14t23.5 14.5t19 7 q10 0 16 -4.5t13 -16.5l66 -107q-52 -45 -121 -69t-143 -24q-131 0 -201 73t-70 206v608h-115q-18 0 -31 12t-13 36v89l179 26q9 30 18.5 63t16 67.5t11 68.5t4.5 63q0 45 -11.5 84t-38 68.5t-69.5 45.5t-104 16q-73 0 -128 -22.5t-93 -60t-57 -87t-19 -102.5 q0 -59 24.5 -119.5t73.5 -114.5q61 -34 112 -84l-59 -80q-10 -13 -19 -20.5t-27 -7.5q-17 0 -36 12.5t-45 27t-63 27t-92 12.5q-72 0 -125.5 -25.5t-90 -73.5t-54.5 -116t-18 -153q0 -88 19.5 -156.5t56 -115.5t88 -71.5t116.5 -24.5q63 0 103 15t66.5 33.5t45.5 34t41 15.5 q27 0 41 -21l62 -80q-65 -78 -151.5 -116.5t-181.5 -47.5l-15 -57q96 -20 136.5 -57.5t40.5 -92.5q0 -34 -17.5 -61t-48.5 -46t-74.5 -29.5t-95.5 -10.5q-42 0 -79.5 7.5t-71.5 20.5l20 69q6 22 27 21q7 0 15 -3t18.5 -6.5t24.5 -6.5t32 -3q39 0 58 14.5t19 36.5 q0 35 -40 48.5t-117 25.5l43 130q-87 10 -161 50.5t-129 109t-85.5 162.5t-30.5 213z" />
<glyph horiz-adv-x="1155" d="M79 536q0 112 31 208t89.5 167t142 111.5t187.5 40.5q99 0 167 -34t122 -95l13 68q12 42 57 42h133v-975q0 -95 -34.5 -175t-99 -138t-157.5 -91t-211 -33q-133 0 -227 38t-156 93l51 84q18 33 58 33q22 0 42.5 -13.5t50.5 -30t71.5 -30.5t103.5 -14q72 0 126 20.5 t90 56.5t54.5 84.5t18.5 104.5v99q-33 -37 -67 -64t-70.5 -45t-79.5 -27t-95 -9q-95 0 -171 35.5t-129.5 102.5t-82 164.5t-28.5 221.5zM306 536q0 -181 63.5 -264t179.5 -83q80 0 140.5 36t112.5 104v457q-46 58 -101.5 83t-120.5 25q-129 0 -201.5 -90.5t-72.5 -267.5z " />
<glyph horiz-adv-x="1083" d="M94 1360q0 31 11.5 57.5t31.5 46.5t46 31.5t56 11.5q31 0 57.5 -11.5t47 -31.5t32 -46.5t11.5 -57.5q0 -30 -11.5 -56.5t-32 -46.5t-47.5 -32t-57 -12t-56 12t-46 32t-31.5 46.5t-11.5 56.5zM124 380v664h220v-664q0 -105 48.5 -163t148.5 -58q34 0 60.5 5t48 17.5 t41 31.5t39.5 48v783h220v-1029q0 -85 -23 -155t-71 -121t-123.5 -79.5t-179.5 -28.5q-36 0 -72 5t-65 15l15 120q2 10 6 15t13 7.5t22.5 3t35.5 0.5q112 0 167 50.5t55 167.5v83q-51 -56 -111 -84t-146 -28q-88 0 -153 28.5t-109 80t-65.5 124.5t-21.5 161zM697 1360 q0 31 12 57.5t32 46.5t46 31.5t56 11.5t57 -11.5t47.5 -31.5t32 -46.5t11.5 -57.5q0 -30 -11.5 -56.5t-32 -46.5t-48 -32t-56.5 -12q-30 0 -56 12t-46 32t-32 46.5t-12 56.5z" />
<glyph horiz-adv-x="1651" d="M58 112l52 84q9 15 22.5 23.5t34.5 8.5q22 0 42.5 -13.5t49 -30t68.5 -30.5t99 -14q49 0 85 12t59.5 32.5t34.5 46.5t11 56q0 40 -22.5 65.5t-59.5 44t-85 32.5t-97 30.5t-96.5 38t-85 55t-60 81t-22.5 116.5q0 62 25 118.5t74 99.5t120 68t164 25q55 0 110 -11 q-39 86 -39 179q0 75 23.5 143t72 119t123.5 81.5t177 30.5q99 0 172 -30t120 -78t69.5 -109.5t22.5 -125.5v-230h290v-159h-290v-592q0 -56 27.5 -86t73.5 -30q26 0 44.5 6.5t31.5 14t23 14.5t19 7q18 0 30 -21l65 -107q-51 -45 -120.5 -69t-143.5 -24q-130 0 -200 73 t-70 206v608h-115q-18 0 -31.5 12t-13.5 36v89l179 26q9 29 18.5 62t16 67t11 67.5t4.5 62.5q0 45 -12.5 84.5t-40.5 69.5t-73 46.5t-107 16.5q-74 0 -128 -22.5t-90.5 -60.5t-54.5 -89t-18 -108q0 -71 32 -138.5t92 -125.5l36 -31l-49 -80q-8 -14 -18.5 -20.5t-25.5 -6.5 q-17 0 -38 11t-48.5 24.5t-65 24t-87.5 10.5q-41 0 -74 -9.5t-56 -27.5t-35.5 -42t-12.5 -52q0 -37 22.5 -61.5t59.5 -42.5t84 -32.5t96 -30.5t96 -37.5t84 -53t59.5 -76t22.5 -107.5q0 -74 -26.5 -136.5t-77.5 -108.5t-127.5 -71.5t-174.5 -25.5q-54 0 -105 9.5t-96.5 26.5 t-85 40.5t-70.5 51.5z" />
<glyph horiz-adv-x="831" d="M103 861l242 614h141l241 -614h-122q-17 0 -29 9t-17 23l-33 91h-221l-33 -91q-4 -12 -15.5 -22t-29.5 -10h-124zM345 1098h141l-55 154q-9 22 -15 52q-7 -32 -16 -53z" />
<glyph horiz-adv-x="575" d="M39 1078q0 29 14.5 58.5t50.5 54t96.5 41.5t152.5 19v22q0 47 -20.5 67.5t-56.5 20.5q-29 0 -47.5 -6t-33 -14t-27.5 -14t-32 -6q-15 0 -26.5 8.5t-18.5 20.5l-28 51q48 43 106.5 63.5t126.5 20.5q48 0 86.5 -16t65 -44t41 -67t14.5 -85v-335h-71q-22 0 -32.5 6t-18.5 26 l-11 29q-20 -17 -39.5 -30t-39.5 -21.5t-42.5 -13t-49.5 -4.5q-73 0 -116.5 37.5t-43.5 110.5zM186 1086q0 -27 16 -38.5t45 -11.5q33 0 57.5 11.5t48.5 36.5v72q-49 -2 -81 -8t-51 -15.5t-27 -21t-8 -25.5z" />
<glyph horiz-adv-x="634" d="M79 938v774h154v-295q30 30 68 48t90 18q42 0 78 -18.5t62 -53.5t41 -85.5t15 -115.5q0 -60 -17 -111t-47 -89t-72 -59t-94 -21q-49 0 -79.5 18.5t-56.5 47.5l-3 -28q-4 -17 -13 -23.5t-24 -6.5h-102zM233 1083q18 -19 40.5 -26t47.5 -7q46 0 75.5 36t29.5 124 q0 84 -24.5 117.5t-67.5 33.5q-31 0 -54 -12.5t-47 -38.5v-227z" />
<glyph horiz-adv-x="545" d="M46 1207q0 58 17 108.5t50.5 88t83.5 58.5t115 21q62 0 109.5 -20.5t85.5 -59.5l-41 -57q-7 -8 -14 -13.5t-19 -5.5q-11 0 -21 5.5t-21.5 13t-27.5 13t-40 5.5q-61 0 -89.5 -41.5t-28.5 -115.5q0 -77 30.5 -117t83.5 -40q29 0 46 6.5t29 15t21 15.5t23 7q18 0 28 -15 l45 -57q-25 -29 -51.5 -47t-55 -28t-57.5 -13.5t-56 -3.5q-49 0 -93.5 18.5t-78 54t-53.5 87t-20 117.5z" />
<glyph horiz-adv-x="634" d="M49 1204q0 60 16.5 112t46.5 89.5t72 58.5t95 21q42 0 70.5 -12.5t51.5 -32.5v272h155v-774h-95q-30 0 -38 27l-8 47q-33 -37 -73.5 -59.5t-97.5 -22.5q-42 0 -78 18.5t-62 53.5t-40.5 86.5t-14.5 115.5zM208 1204q0 -42 6.5 -71t19 -46.5t30 -25t41.5 -7.5q30 0 53 12 t43 37v226q-19 20 -41 28.5t-46 8.5q-47 0 -76.5 -37t-29.5 -125z" />
<glyph horiz-adv-x="596" d="M46 1218q0 53 18.5 101.5t52.5 84.5t82.5 57.5t109.5 21.5q52 0 96.5 -16.5t76 -48.5t49 -77.5t17.5 -103.5q0 -36 -6.5 -48t-28.5 -12h-312q8 -67 41.5 -96t87.5 -29q29 0 49 6.5t36 14t29.5 14.5t27.5 7q18 0 28 -15l45 -57q-25 -29 -53 -47t-58.5 -28t-60 -13.5 t-57.5 -3.5q-56 0 -105 18.5t-86 54t-58 90t-21 125.5zM203 1271h207q0 18 -5.5 36.5t-17 32.5t-30 22.5t-45.5 8.5q-47 0 -74 -25.5t-35 -74.5z" />
<glyph horiz-adv-x="415" d="M36 1410v64h77v30q0 92 55.5 147t156.5 55q19 0 36 -2t34 -7l-4 -79q-1 -17 -11.5 -23.5t-34.5 -6.5q-39 0 -61 -18.5t-22 -71.5v-24h127v-111h-123v-425h-153v425l-38 8q-17 4 -28 13t-11 26z" />
<glyph horiz-adv-x="593" d="M37 894q0 36 20.5 59.5t56.5 37.5q-19 11 -30 30t-11 49q0 24 16.5 51t53.5 44q-42 23 -65.5 59.5t-23.5 85.5q0 41 17 73t46.5 54.5t69.5 35t87 12.5q70 0 121 -27h159v-59q0 -26 -32 -33l-40 -9q3 -11 5 -23t2 -24q0 -40 -16 -72.5t-45.5 -55t-69 -34.5t-84.5 -12 q-13 0 -25.5 1t-24.5 3q-18 -11 -18 -25q0 -18 25 -23t62.5 -7t81.5 -4t81.5 -14.5t62.5 -41t25 -79.5q0 -37 -17.5 -71t-51.5 -61.5t-83.5 -43.5t-112.5 -16q-62 0 -108 11.5t-75.5 31t-44 44.5t-14.5 53zM170 918q0 -12 5 -23t18 -19.5t34.5 -13t54.5 -4.5q62 0 90.5 19 t28.5 44q0 18 -18 25.5t-47 11t-64 4t-69 4.5q-33 -22 -33 -48zM196 1305q0 -31 18 -50.5t60 -19.5q41 0 59.5 19t18.5 51q0 33 -18.5 51.5t-59.5 18.5q-42 0 -60 -19t-18 -51z" />
<glyph horiz-adv-x="633" d="M79 938v774h154v-287q30 26 64 42t83 16q44 0 78 -15.5t57 -42.5t34.5 -65t11.5 -82v-340h-154v340q0 40 -19 61.5t-56 21.5q-28 0 -52.5 -12t-46.5 -31v-380h-154z" />
<glyph horiz-adv-x="308" d="M62 1621q0 19 7.5 36.5t20 31t29.5 20.5t36 7t36.5 -7t31 -20.5t21 -31t7.5 -36.5t-7.5 -36t-21 -30t-31 -20.5t-36.5 -7.5q-18 0 -35.5 7.5t-30 20.5t-20 30t-7.5 36zM77 938v509h154v-509h-154z" />
<glyph horiz-adv-x="309" d="M-24 763l6 85q1 11 7 16t25 5q18 0 30.5 3.5t20 11t10 21t2.5 33.5v509h154v-509q0 -38 -9 -71t-30.5 -58.5t-57 -40t-87.5 -14.5q-36 0 -71 9zM62 1621q0 19 7.5 36.5t20 31t29.5 20.5t36 7t36.5 -7t30 -20.5t20.5 -31t8 -36.5t-8 -36t-20.5 -30t-30 -20.5t-36.5 -7.5 q-18 0 -35.5 7.5t-30 20.5t-20 30t-7.5 36z" />
<glyph horiz-adv-x="621" d="M79 938v774h154v-433h24q14 0 23 4t15 15l107 150q11 27 51 27h141l-143 -191q-17 -29 -47 -46q25 -11 40 -44l157 -256h-140q-17 0 -31 5.5t-19 21.5l-109 189q-5 14 -13.5 17.5t-24.5 3.5h-31v-237h-154z" />
<glyph horiz-adv-x="312" d="M79 938v774h154v-774h-154z" />
<glyph horiz-adv-x="923" d="M79 938v537h96q27 0 35 -29l4 -36q29 31 62 52t84 21q49 0 80.5 -25t48.5 -68q27 50 74 71.5t99 21.5q92 0 140 -53.5t48 -151.5v-340h-154v340q0 83 -74 83q-34 0 -56.5 -21.5t-22.5 -61.5v-340h-155v340q0 41 -17.5 62t-56.5 21q-24 0 -43.5 -10.5t-37.5 -27.5v-385 h-154z" />
<glyph horiz-adv-x="635" d="M46 1207q0 63 20 114.5t56 87.5t86 55t110 19t110.5 -19t86.5 -55t55.5 -87t19.5 -115q0 -65 -19.5 -116t-55.5 -86.5t-86 -55t-111 -19.5q-60 0 -110 19.5t-86 55t-56 87t-20 115.5zM205 1206q-1 -156 113 -156q58 0 85 38t27 118t-26.5 118.5t-85.5 38.5 q-114 0 -113 -157z" />
<glyph horiz-adv-x="634" d="M79 768v707h96q32 0 38 -27l6 -45q33 36 74 59t99 23q42 0 78 -18.5t62 -54t40.5 -86.5t14.5 -116q0 -60 -16.5 -111t-46.5 -89t-72.5 -59t-94.5 -21q-43 0 -71.5 11.5t-52.5 32.5v-206h-154zM233 1084q19 -20 41.5 -27t46.5 -7q47 0 77 36t30 124q0 84 -24.5 117.5 t-65.5 33.5q-36 0 -59.5 -13.5t-45.5 -37.5v-226z" />
<glyph horiz-adv-x="634" d="M48 1204q0 60 16.5 112t46.5 89.5t72.5 58.5t94.5 21q49 0 80.5 -16.5t58.5 -43.5l5 23q9 27 38 27h95v-707h-155v228q-31 -30 -68.5 -48t-88.5 -18q-42 0 -78 18.5t-62 53.5t-40.5 86.5t-14.5 115.5zM207 1204q0 -42 7 -71t19.5 -46.5t29.5 -25t37 -7.5q32 0 55.5 12.5 t44.5 37.5v226q-19 19 -40.5 27.5t-45.5 8.5q-51 0 -79 -38t-28 -124z" />
<glyph horiz-adv-x="429" d="M79 938v537h92q24 0 32 -9t13 -29l4 -53q26 46 59 73.5t77 27.5q36 0 60 -18l-10 -118q-4 -20 -25 -21q-8 0 -24 2.5t-29 2.5q-37 0 -58.5 -19.5t-36.5 -53.5v-322h-154z" />
<glyph horiz-adv-x="501" d="M39 995l37 61q6 11 15 16.5t24 5.5q13 0 24.5 -6t24 -13.5t30.5 -14t45 -6.5q39 0 54.5 14.5t15.5 31.5q0 22 -18.5 33t-46.5 20.5t-60.5 19t-61 28t-47 49t-18.5 79.5q0 34 13.5 65t39.5 54t65.5 37t91.5 14q57 0 105 -20t78 -50l-35 -57q-6 -9 -12.5 -13.5t-17.5 -4.5 t-22 5t-24.5 11t-30.5 10.5t-39 4.5q-32 0 -48.5 -11t-16.5 -32q0 -19 18.5 -31t46 -21t60 -19t60.5 -27.5t46.5 -44.5t18.5 -70q0 -81 -57 -132t-167 -51q-55 0 -107 19t-84 46z" />
<glyph horiz-adv-x="448" d="M33 1395v63l86 17l31 130q5 26 33 25h80v-156h135v-111h-135v-265q0 -18 10 -30t27 -12q19 0 27 5.5t18 5.5q7 0 11 -3t10 -11l46 -76q-30 -24 -68.5 -35.5t-79.5 -11.5q-76 0 -115 43t-39 113v277h-48q-12 0 -20.5 8t-8.5 24z" />
<glyph horiz-adv-x="632" d="M73 1134v341h153v-341q0 -39 19 -60.5t56 -21.5q27 0 51.5 10.5t46.5 31.5v381h155v-537h-95q-29 0 -38 27l-7 34q-33 -31 -70 -50t-90 -19q-44 0 -78 15.5t-57 42.5t-34.5 64.5t-11.5 81.5z" />
<glyph horiz-adv-x="567" d="M5 1475h128q16 0 28.5 -8t14.5 -21l84 -239q7 -31 13.5 -60t11.5 -58q6 30 12.5 59t14.5 60l86 238q3 13 14.5 21t26.5 8h123l-209 -537h-140z" />
<glyph horiz-adv-x="881" d="M24 1475h127q17 0 29.5 -9t14.5 -26l60 -231q4 -28 8.5 -52.5t9.5 -49.5q10 48 26 102l73 233q5 16 16 25t26 9h61q36 0 45 -35l71 -232q6 -27 11 -51.5t10 -48.5l20 100l64 232q3 17 15.5 25.5t26.5 8.5h121l-170 -537h-122q-20 0 -27 28l-82 265q-5 17 -9.5 33.5 t-7.5 33.5q-6 -37 -15 -69l-83 -263q-8 -28 -33 -28h-120z" />
<glyph horiz-adv-x="606" d="M20 938l179 277l-171 260h148q16 0 24 -4.5t14 -15.5l99 -165q6 23 17 44l72 119q10 22 34 22h143l-173 -252l180 -285h-150q-16 0 -26 8t-16 20l-99 170q-3 -11 -6.5 -20.5t-7.5 -17.5l-82 -132q-5 -11 -15.5 -19.5t-25.5 -8.5h-138z" />
<glyph horiz-adv-x="568" d="M2 1475h137q17 0 27 -9t15 -20l92 -228q5 -17 10 -33.5t9 -33.5q5 17 10.5 34.5t11.5 35.5l90 225q5 12 16.5 20.5t25.5 8.5h119l-282 -666q-10 -24 -21 -32.5t-33 -8.5h-115l101 217z" />
<glyph horiz-adv-x="518" d="M43 938v67q0 9 5.5 25t20.5 33l225 292h-236v120h412v-65q0 -17 -5.5 -33.5t-17.5 -29.5l-226 -289h244v-120h-422z" />
<glyph horiz-adv-x="819" d="M17 1902h233q18 0 32 -1t24.5 -5.5t20 -12t19.5 -19.5l227 -280h-158q-27 0 -42 3t-32 20z" />
<glyph horiz-adv-x="819" d="M266 1584l226 280q9 13 18 20t20.5 11.5t25 5.5t32.5 1h246l-333 -293q-18 -16 -34.5 -20.5t-41.5 -4.5h-159z" />
<glyph horiz-adv-x="819" d="M69 1584l245 281h198l246 -281h-160q-14 0 -33.5 5t-40.5 31l-101 124q-4 5 -7 9.5t-6 9.5q-3 -5 -6.5 -9.5t-7.5 -9.5l-101 -124q-20 -26 -39.5 -31t-34.5 -5h-152z" />
<glyph horiz-adv-x="819" d="M69 1583q0 47 13 91.5t38.5 79t63 55t85.5 20.5q49 0 87 -16.5t69.5 -36.5t58 -36.5t54.5 -16.5q24 0 41 9.5t28 23.5t17 31.5t6 35.5h134q0 -48 -13.5 -92t-38.5 -78t-62.5 -54.5t-85.5 -20.5q-49 0 -87 16.5t-69 36.5t-58 36t-55 16q-24 0 -40.5 -9t-28 -23.5t-17 -32 t-5.5 -35.5h-135z" />
<glyph horiz-adv-x="819" d="M65 1707q0 26 9.5 49t26.5 40.5t39.5 27.5t46.5 10q26 0 49.5 -10t41 -27.5t27.5 -40.5t10 -49t-10 -48.5t-27.5 -39t-41 -26.5t-49.5 -10q-25 0 -47 10t-39 26.5t-26.5 39t-9.5 48.5zM504 1707q0 26 9.5 49t27 40.5t40 27.5t49.5 10q26 0 48 -10t39 -27.5t27.5 -40.5 t10.5 -49t-10.5 -48.5t-27.5 -39t-39.5 -26.5t-47.5 -10q-27 0 -49.5 10t-40 26.5t-27 39t-9.5 48.5z" />
<glyph horiz-adv-x="819" d="M113 1616v129h594v-129h-594z" />
<glyph horiz-adv-x="1105" d="M14 426v100h121q-1 11 -1 23.5v24.5q0 16 0.5 32t1.5 32h-122v100h137q20 98 66 177t115 135t160.5 85.5t200.5 29.5q62 0 116 -10t100 -30t85 -48t74 -63l-55 -65q-12 -14 -29.5 -25t-37.5 -11q-18 0 -39 12t-50.5 26t-68 25.5t-93.5 11.5q-129 0 -210.5 -64.5 t-112.5 -185.5h480v-42q0 -23 -18 -40.5t-44 -17.5h-435q-1 -15 -1.5 -31t-0.5 -33v-24t1 -24h409v-42q0 -23 -18 -40.5t-45 -17.5h-333q27 -131 104 -197t202 -66q68 0 113 16t77.5 34.5t55 34.5t42.5 16q17 0 31 -8.5t28 -26.5l56 -66q-68 -85 -169.5 -131.5t-238.5 -46.5 q-111 0 -200 31t-154.5 88.5t-107.5 139.5t-60 182h-132z" />
<glyph horiz-adv-x="1105" d="M36 1150h168q17 0 32 -6t27 -15.5t21.5 -21t15.5 -24.5l197 -342q22 -46 36 -78.5t22 -65.5q8 33 21 66t34 78l196 341q12 25 43 46.5t70 21.5h151l-367 -598h259v-121h-310v-94h310v-120h-310v-217h-197v217h-311v120h311v94h-311v121h259z" />
<glyph horiz-adv-x="1105" d="M51 577q0 148 39.5 259t107.5 185t159.5 110t194.5 36q104 0 195.5 -36t160 -110t108 -185t39.5 -259t-39.5 -259t-108 -185t-160 -110t-195.5 -36q-103 0 -194.5 36t-159.5 110t-107.5 184.5t-39.5 259.5zM268 577q0 -110 21 -188t58.5 -127.5t89.5 -72.5t115 -23 q62 0 114.5 23t90.5 72.5t59 127.5t21 188q0 111 -21 189t-59 127.5t-90.5 72.5t-114.5 23t-114.5 -23t-90 -72.5t-58.5 -128t-21 -188.5z" />
<glyph horiz-adv-x="1105" d="M128 856l418 298h173v-992h279v-162h-799v162h308v615q0 30 1.5 61t3.5 64l-216 -150q-28 -20 -56.5 -18t-45.5 26z" />
<glyph horiz-adv-x="1105" d="M83 0v124l447 353q53 42 95 81.5t70.5 78.5t43.5 79.5t15 85.5q0 39 -14 72.5t-40 58t-62.5 38.5t-80.5 14q-54 0 -94 -16t-67.5 -42t-45.5 -59.5t-29 -70.5q-8 -23 -20 -33.5t-37 -10.5q-5 0 -13.5 1t-14.5 3l-124 20q13 81 48.5 152t92 123.5t135.5 82.5t178 30 q88 0 160 -26.5t123 -74t79 -113t28 -144.5q0 -62 -19 -117t-53.5 -104.5t-82.5 -96t-106 -90.5l-294 -226q49 11 98 17.5t87 6.5h344q37 0 58 -23t21 -54v-120h-926z" />
<glyph horiz-adv-x="1105" d="M79 118l101 46q41 17 66.5 8t39.5 -37q14 -39 36.5 -73t54 -60.5t72 -41t93.5 -14.5q57 0 103.5 17t79.5 47.5t51 72.5t18 92q0 58 -17 102.5t-55.5 73.5t-101 44t-152.5 15v151q65 1 119.5 15.5t95.5 42.5t64 70.5t23 100.5q0 47 -16 83t-44 61t-66.5 38t-83.5 13 q-54 0 -93 -15.5t-67 -41.5t-46 -59.5t-29 -71.5q-9 -23 -20.5 -33.5t-36.5 -10.5q-5 0 -13.5 1t-14.5 3l-124 20q13 81 47.5 152t90.5 123.5t134 82.5t177 30q91 0 165.5 -26t127 -73t81.5 -111t29 -140q0 -112 -57.5 -188.5t-167.5 -116.5q253 -72 253 -337 q0 -77 -31.5 -148.5t-90 -127t-142.5 -88.5t-188 -33q-100 0 -176 23t-131.5 67t-94 107.5t-63.5 144.5z" />
<glyph horiz-adv-x="1105" d="M6 288l663 865h197v-854h202v-114q0 -25 -15.5 -38.5t-38.5 -13.5h-148v-342h-185v342h-591q-20 0 -40.5 16.5t-25.5 40.5zM233 299h448v474q0 31 3 67t10 73z" />
<glyph horiz-adv-x="1105" d="M90 -72l62 87q16 23 43 30t54 -10q51 -35 111.5 -61t133.5 -26q67 0 119.5 21.5t88.5 60.5t55.5 93t19.5 121q0 117 -71 183t-205 66q-49 0 -101.5 -9.5t-104.5 -24.5l-130 37l110 654h674v-110q0 -36 -20.5 -60.5t-65.5 -24.5h-440l-54 -314q95 22 182 22 q104 0 184.5 -31t135 -85.5t82 -129.5t27.5 -163q0 -108 -38 -196.5t-104.5 -151.5t-157.5 -97.5t-198 -34.5q-62 0 -118.5 12.5t-106.5 34t-92 49.5t-75 58z" />
<glyph horiz-adv-x="1105" d="M84 467q0 95 39.5 198.5t124.5 217.5l330 439q24 32 54.5 50.5t72.5 18.5h187l-413 -512l-55 -70q44 25 95 38.5t112 13.5q81 0 155.5 -26.5t131.5 -79t90.5 -130t33.5 -180.5q0 -95 -35 -179t-99 -146.5t-153 -98.5t-198 -36q-110 0 -197.5 34.5t-148.5 98t-94 152 t-33 197.5zM287 439q0 -61 18.5 -113t53.5 -90t85.5 -59.5t114.5 -21.5q66 0 117.5 22t87.5 60t55 89.5t19 109.5q0 63 -19.5 113t-55 85t-85 53t-110.5 18q-66 0 -118 -23t-88 -59.5t-55.5 -85t-19.5 -98.5z" />
<glyph horiz-adv-x="1105" d="M94 1019v131h939v-106q0 -47 -20 -89l-548 -1098q-11 -26 -40.5 -46t-59.5 -20h-162l550 1056q33 63 71 108h-665q-27 0 -46 16t-19 48z" />
<glyph horiz-adv-x="1105" d="M90 386q0 126 61 211.5t185 124.5q-99 42 -149.5 121t-50.5 189q0 78 30.5 145t85 116t131.5 77.5t169 28.5q93 0 170 -28.5t132 -77.5t85.5 -116t30.5 -145q0 -111 -51 -189.5t-150 -120.5q124 -39 185.5 -124.5t61.5 -211.5q0 -92 -34 -166.5t-95 -126.5t-146.5 -80 t-188.5 -28t-188 28t-145.5 80t-94.5 126.5t-34 166.5zM302 390q0 -51 17 -94.5t49 -75.5t78.5 -49.5t105.5 -17.5t106 17.5t79 49.5t49.5 75.5t17.5 94.5q0 61 -19 107.5t-53 76t-80 44.5t-100 15t-99.5 -15t-79 -44.5t-52.5 -75.5t-19 -108zM335 1028q0 -44 11.5 -85 t38 -72.5t68 -50.5t99.5 -19q59 0 100.5 19t67.5 50.5t38.5 72.5t12.5 85q0 42 -14 80t-41.5 66t-68.5 45t-95 17q-53 0 -93.5 -17t-68.5 -45t-41.5 -66t-13.5 -80z" />
<glyph horiz-adv-x="1105" d="M85 728q0 90 34.5 170.5t95.5 140t146.5 94t189.5 34.5q102 0 185.5 -32t142 -90t90 -139.5t31.5 -179.5q0 -124 -46 -234.5t-130 -227.5l-297 -417q-18 -25 -45.5 -41t-66.5 -16h-188l418 529q22 28 41 53.5t35 51.5q-49 -43 -113 -66t-140 -23q-74 0 -142.5 25 t-122 74.5t-86 123.5t-32.5 170zM296 744q0 -120 64.5 -183t182.5 -63q61 0 108.5 20t81 54t50.5 79t17 95q0 58 -19 104t-52.5 77t-79.5 47.5t-101 16.5q-57 0 -104 -19t-79.5 -51.5t-50.5 -78t-18 -98.5z" />
<glyph horiz-adv-x="1355" d="M99 737q0 194 48 335.5t127.5 234.5t184 138.5t218.5 45.5t218.5 -45.5t184.5 -138.5t128 -234.5t48 -335.5t-48 -335t-128 -234t-184.5 -138t-218.5 -45t-218.5 45t-184 138t-127.5 234.5t-48 334.5zM326 737q0 -164 28 -273t76 -174.5t111.5 -93t135.5 -27.5 q71 0 135 27.5t112.5 93t76.5 174.5t28 273t-28 273t-76.5 174.5t-112.5 93.5t-135 28q-72 0 -135.5 -28t-111.5 -93.5t-76 -174.5t-28 -273z" />
<glyph horiz-adv-x="828" d="M25 1111l424 367h180v-1478h-220v1091q0 52 3 107l-200 -172q-12 -11 -29 -16.5t-34 -5t-33 7t-26 19.5z" />
<glyph horiz-adv-x="1167" d="M77 0v75q0 23 9 47t30 45l458 460q58 58 104 111.5t78 106.5t49 108t17 115q0 58 -18 102.5t-49 74t-74.5 44.5t-95.5 15q-50 0 -92.5 -14.5t-76 -40t-55.5 -61t-32 -77.5q-15 -42 -39.5 -56.5t-70.5 -5.5l-116 20q15 104 58 183t107.5 132t148 80t180.5 27 q98 0 180.5 -29t142.5 -83t94 -131t34 -173q0 -82 -24.5 -151.5t-65 -133t-95.5 -123.5t-115 -121l-357 -365q44 11 88.5 19t84.5 8h433q36 0 56.5 -21t20.5 -54v-133h-997z" />
<glyph horiz-adv-x="1182" d="M76 372l95 40q38 16 72.5 9t49.5 -38q16 -33 36.5 -70.5t53 -68.5t80 -52t117.5 -21q71 0 123.5 23t87.5 59.5t52.5 81.5t17.5 89q0 55 -13 101.5t-51.5 79.5t-109 52t-183.5 19v159q93 1 157 18.5t102.5 49t55.5 75.5t17 96q0 56 -17.5 99.5t-49 72.5t-74.5 43.5 t-95 14.5q-50 0 -92.5 -14.5t-76 -40t-56 -61t-32.5 -77.5q-14 -42 -38 -56.5t-71 -5.5l-115 20q15 104 57.5 183t107 132t148 80t180.5 27q98 0 178.5 -28t138.5 -78.5t89.5 -120t31.5 -152.5q0 -140 -65 -219.5t-179 -115.5q275 -81 275 -346q0 -106 -40 -189t-108 -140.5 t-158.5 -87.5t-191.5 -30q-114 0 -197 27t-143 77.5t-100 122.5t-67 161z" />
<glyph horiz-adv-x="1224" d="M34 534l707 942h207v-931h204v-127q0 -18 -12 -31.5t-35 -13.5h-157v-373h-191v373h-638q-24 0 -41 13.5t-22 34.5zM270 545h487v538q0 31 2 67t7 75z" />
<glyph horiz-adv-x="1118" d="M67 150l67 94q22 31 57 30q23 0 49.5 -16t62 -35t83.5 -35.5t115 -16.5q73 0 130 23.5t96.5 66t60 102t20.5 130.5q0 65 -19 115.5t-56.5 86.5t-93.5 55t-130 19q-54 0 -111 -9t-115 -29l-138 39l121 705h714v-96q0 -47 -29.5 -76.5t-99.5 -29.5h-432l-60 -343 q105 22 196 21q116 0 204.5 -34t148.5 -94.5t90 -142t30 -176.5q0 -118 -41 -214t-113.5 -164.5t-171.5 -105t-214 -36.5q-68 0 -128.5 13t-113.5 36t-98.5 53.5t-80.5 63.5z" />
<glyph horiz-adv-x="1093" d="M54 1325v150h1011v-98q0 -43 -9 -69.5t-19 -44.5l-582 -1186q-15 -33 -43.5 -55t-74.5 -22h-159l594 1166q16 32 32.5 57.5t37.5 49.5h-737q-20 0 -35.5 16t-15.5 36z" />
<glyph horiz-adv-x="1127" d="M65 1020q0 97 36 183t101.5 150t157 101t201.5 37t199 -35.5t151.5 -99.5t96 -152.5t33.5 -194.5q0 -67 -11.5 -126.5t-33.5 -115t-53.5 -109.5t-70.5 -109l-347 -498q-15 -23 -45 -37t-68 -14h-202l453 579q20 26 37.5 48.5t33.5 46.5q-54 -39 -119.5 -58.5 t-139.5 -19.5q-80 0 -153.5 27t-131 81t-91.5 133t-34 183zM285 1036q0 -131 70 -201t196 -70q68 0 119.5 21.5t87.5 58t54 85t18 103.5q0 65 -19.5 115.5t-56 86.5t-87 55t-109.5 19q-62 0 -112.5 -20.5t-86 -57t-55 -86t-19.5 -109.5z" />
<glyph d="M56 376q0 99 22 171.5t60.5 120t90.5 70.5t111 23t112 -23t92 -70.5t61.5 -120t22.5 -171.5q0 -98 -22.5 -170.5t-61.5 -120t-92 -70.5t-112 -23t-111 23t-90.5 70.5t-60.5 120t-22 170.5zM216 376q0 -78 10 -127.5t26.5 -78t39 -39t48.5 -10.5t49 10.5t40.5 39t28 78 t10.5 127.5q0 79 -9.5 129t-26.5 78t-40.5 39t-51.5 11t-51 -11t-39 -39t-25 -78t-9 -129z" />
<glyph d="M91 557l234 198h132v-652h125v-103h-429v103h145v406l5 48l-93 -75q-11 -8 -22 -10t-20 0t-17 7t-12 10z" />
<glyph d="M66 0v52q0 15 6 32.5t20 32.5l220 217q25 24 46 49.5t36.5 51.5t24.5 52t9 51q0 44 -25.5 69.5t-65.5 25.5t-64.5 -20.5t-38.5 -57.5q-12 -20 -27.5 -28.5t-46.5 -3.5l-88 15q16 113 89.5 168t183.5 55q56 0 102 -16.5t77 -45t48 -68.5t17 -87q0 -42 -13 -77t-34.5 -67 t-49 -62t-57.5 -60l-146 -149q27 8 52 12t47 4h164q26 0 39.5 -13.5t13.5 -37.5v-94h-539z" />
<glyph d="M62 194l69 29q27 11 50 5.5t32 -24.5q5 -11 13 -25t21.5 -26.5t33.5 -20.5t48 -8t48 8t34.5 22t21.5 32t7 37q0 29 -8 49t-26.5 32.5t-49 18.5t-75.5 6v105q43 1 72 8.5t47 20.5t25 32t7 43q0 44 -24.5 68t-68.5 24q-43 0 -67.5 -20t-35.5 -54q-11 -24 -25 -31t-46 -2 l-82 15q8 56 31 98t58 69.5t79.5 41.5t95.5 14q55 0 99 -16t75 -42.5t47.5 -62t16.5 -74.5q0 -129 -116 -178q65 -19 98 -57.5t33 -101.5q0 -60 -22.5 -104.5t-59.5 -73.5t-84.5 -44t-96.5 -15q-56 0 -99.5 11t-77 35.5t-57 63t-41.5 92.5z" />
<glyph d="M25 274l347 479h152v-470h103v-81q0 -11 -8.5 -20.5t-22.5 -9.5h-72v-172h-133v172h-304q-22 0 -34 9.5t-15 24.5zM172 283h219v204q0 23 1.5 49t5.5 55z" />
<glyph d="M77 88l47 67q16 23 39 22q15 0 28.5 -8t30 -18t38.5 -18t54 -8q23 0 44.5 7t38.5 22t26.5 38t9.5 55q0 55 -29.5 83.5t-87.5 28.5q-26 0 -51.5 -5.5t-52.5 -13.5l-95 27l64 386h383v-66q0 -33 -20.5 -54.5t-69.5 -21.5h-184l-23 -132q44 8 83 8q58 0 103.5 -16t76 -46 t46.5 -71t16 -90q0 -60 -21.5 -110.5t-59.5 -86t-90.5 -55.5t-115.5 -20q-73 0 -130.5 28.5t-97.5 67.5z" />
<glyph d="M74 262q0 112 87 226l171 229q11 15 32.5 25.5t49.5 10.5h138l-193 -231q-20 -26 -45 -48.5t-49 -49.5q27 22 61.5 34.5t73.5 12.5q38 0 76 -12.5t68.5 -39t50 -68t19.5 -99.5q0 -53 -19.5 -101t-55 -83t-86 -55.5t-111.5 -20.5q-63 0 -113 20t-84 55.5t-52.5 85.5 t-18.5 109zM229 233q0 -52 31.5 -86t85.5 -34q26 0 48.5 9t39 25t25.5 38t9 47q0 58 -30 90t-86 32q-58 0 -90.5 -34.5t-32.5 -86.5z" />
<glyph d="M81 643v110h527v-85q0 -15 -3.5 -28.5t-8.5 -25.5l-272 -562q-4 -9 -9 -18t-13 -17t-21 -12.5t-31 -4.5h-122l274 535q11 20 22 38.5t25 33.5h-332q-14 0 -25 11t-11 25z" />
<glyph d="M75 216q0 61 29 107t96 69q-50 24 -75 65.5t-25 98.5q0 44 18 81.5t50.5 65t77 43t96.5 15.5q53 0 97 -15.5t76.5 -43t50.5 -65t18 -81.5q0 -116 -101 -164q68 -24 97 -69t29 -107q0 -51 -19.5 -92t-54 -70.5t-84.5 -45.5t-109 -16t-108.5 16t-84.5 45.5t-54.5 70.5 t-19.5 92zM234 219q0 -45 26.5 -75.5t81.5 -30.5q57 0 83 30.5t26 75.5q0 59 -30 84t-79 25t-78.5 -24.5t-29.5 -84.5zM247 554q0 -50 23 -76.5t72 -26.5q50 0 74 26.5t24 76.5q0 34 -24.5 62t-73.5 28t-72 -28t-23 -62z" />
<glyph d="M79 521q0 45 19 88t53 77t83 54.5t108 20.5t107.5 -17t81 -48.5t50.5 -77t18 -100.5q0 -40 -6.5 -75t-20 -68.5t-32 -65t-42.5 -65.5l-146 -208q-11 -14 -32 -25t-48 -11h-141l202 254q16 20 33 38t32 37q-24 -11 -49.5 -16.5t-54.5 -5.5q-39 0 -77.5 14.5t-69 41.5 t-49.5 67t-19 91zM230 530q0 -55 29 -83t82 -28t83.5 29.5t30.5 80.5q0 52 -31.5 82t-79.5 30q-54 0 -84 -29.5t-30 -81.5z" />
<glyph horiz-adv-x="710" d="M52 1315q0 84 28 155t77 121.5t118 79.5t152 29q84 0 149 -28t108 -73l-56 -79q-5 -8 -13 -14t-21 -6t-25.5 9t-30.5 18.5t-44.5 18t-67.5 8.5q-45 0 -82 -15.5t-63.5 -46.5t-41.5 -75.5t-15 -101.5t16.5 -102.5t44 -76t65 -46.5t79.5 -16q50 0 82.5 10.5t63.5 37.5 q6 5 13 8.5t15 3.5q13 0 24 -11l66 -73q-92 -120 -275 -120q-85 0 -153 29t-115.5 81t-72.5 122t-25 153z" />
<glyph horiz-adv-x="611" d="M98 938v754h484v-136h-314v-189h261v-136h-261v-293h-170z" />
<glyph horiz-adv-x="886" d="M52 1315q0 82 28.5 152t79 121.5t122 81.5t159.5 30q87 0 159.5 -30t123 -81.5t78.5 -122t28 -151.5q0 -97 -38 -177t-109 -132l189 -209h-139q-30 0 -53.5 8t-43.5 31l-94 104q-24 -5 -49 -7.5t-52 -2.5q-88 0 -159.5 29.5t-122 81.5t-79 122t-28.5 152zM224 1315 q0 -113 57.5 -176.5t159.5 -63.5t159.5 63.5t57.5 176.5q0 112 -57 175.5t-160 63.5q-102 0 -159.5 -64t-57.5 -175z" />
<glyph horiz-adv-x="618" d="M41 1028l49 83q6 9 16.5 16t21.5 7q15 0 30.5 -10.5t35.5 -22t46 -22t62 -10.5q49 0 77 20.5t28 66.5q0 35 -25.5 53t-62.5 29.5t-80.5 24t-81 36.5t-62.5 65t-25 112q0 43 16.5 82.5t49.5 71.5t80.5 51t109.5 19q69 0 128.5 -21.5t99.5 -58.5l-41 -83 q-8 -12 -16.5 -18.5t-21.5 -6.5q-11 0 -24.5 8t-31 16.5t-40 16.5t-51.5 8q-50 0 -75.5 -20t-25.5 -56q0 -30 25.5 -47t62.5 -29.5t81 -26.5t81.5 -37.5t62.5 -62.5t25 -102q0 -52 -18 -98t-52 -79.5t-84.5 -53t-113.5 -19.5q-36 0 -72 7t-69.5 20t-63 31.5t-51.5 39.5z" />
<glyph horiz-adv-x="782" d="M13 1692h135q22 0 36.5 -10.5t19.5 -27.5l151 -400q9 -28 19.5 -61.5t18.5 -69.5q8 36 16.5 70t17.5 61l152 400q5 14 19 26t35 12h137l-303 -754h-153z" />
<glyph horiz-adv-x="772" d="M26 938l242 388l-233 366h168q17 0 25 -4.5t13 -15.5l153 -258q4 10 8.5 20t9.5 20l132 216q11 22 34 22h161l-237 -359l242 -395h-167q-16 0 -26.5 8t-16.5 20l-155 267l-9 -24l-146 -243q-6 -11 -16 -19.5t-25 -8.5h-157z" />
<glyph horiz-adv-x="689" d="M-12 1692h148q22 0 35 -10.5t20 -27.5l118 -217q11 -26 20 -48t16 -42q7 22 15.5 43.5t19.5 46.5l118 217q6 14 19.5 26t34.5 12h150l-273 -468v-286h-168v285z" />
<glyph horiz-adv-x="680" d="M43 938v68q0 25 14 45l357 505h-343v136h562v-64q0 -27 -17 -51l-354 -503h360v-136h-579z" />
<glyph horiz-adv-x="765" d="M124 618v187h519v-187h-519zM124 618z" />
<glyph horiz-adv-x="1187" d="M181 625v159h826v-159h-826zM181 626z" />
<glyph horiz-adv-x="1633" d="M129 625v159h1376v-159h-1376zM129 626z" />
<glyph horiz-adv-x="614" d="M107 716v29l259 403l72 -35q28 -13 33 -37t-10 -52l-152 -252q-15 -28 -32 -41q8 -7 16 -17.5t16 -22.5l152 -253q15 -28 10 -52t-33 -37l-72 -35zM108 314z" />
<glyph horiz-adv-x="614" d="M138 314zM143 386q-5 24 10 52l152 253l15 22.5t15 17.5q-16 14 -30 41l-152 252q-15 29 -10 52t33 37l71 35l259 -403v-29l-259 -402l-71 35q-28 13 -33 37z" />
<glyph horiz-adv-x="934" d="M107 716v29l259 403l72 -35q28 -13 33 -37t-10 -52l-152 -252q-15 -28 -32 -41q8 -7 16 -17.5t16 -22.5l152 -253q15 -28 10 -52t-33 -37l-72 -35zM108 314zM428 716v29l259 403l72 -35q28 -13 33 -37t-10 -52l-152 -252q-15 -28 -32 -41q8 -7 16 -17.5t16 -22.5 l152 -253q15 -28 10 -52t-33 -37l-72 -35z" />
<glyph horiz-adv-x="934" d="M138 314zM143 386q-5 24 10 52l152 253l15 22.5t15 17.5q-16 14 -30 41l-152 252q-15 29 -10 52t33 37l71 35l259 -403v-29l-259 -402l-71 35q-28 13 -33 37zM464 386q-5 24 10 52l152 253l15 22.5t15 17.5q-16 14 -30 41l-152 252q-15 29 -10 52t33 37l71 35l259 -403 v-29l-259 -402l-71 35q-28 13 -33 37z" />
<glyph horiz-adv-x="574" d="M113 703q0 37 14 69.5t37 56t54.5 37t66.5 13.5q37 0 69.5 -13.5t56 -37t37.5 -56t14 -69.5q0 -36 -14 -67t-37.5 -54.5t-56 -37.5t-69.5 -14q-36 0 -67 14t-54 37.5t-37 54.5t-14 67zM114 530z" />
<glyph horiz-adv-x="1187" d="M179 289zM179 703q0 86 33 162.5t89 133.5t131.5 89.5t160.5 32.5q86 0 161.5 -32.5t132 -89.5t89.5 -133.5t33 -162.5t-33 -161t-89.5 -131.5t-132 -89t-161.5 -32.5q-85 0 -160.5 32.5t-131.5 89t-89 131.5t-33 161z" />
<glyph horiz-adv-x="1187" d="M118 510q0 75 20 135.5t57.5 104t92.5 67t125 23.5q53 0 104 -15t97 -33t87.5 -33.5t76.5 -15.5q61 0 95.5 39.5t35.5 109.5h177q0 -75 -20 -136t-57.5 -104.5t-92.5 -67.5t-125 -24q-54 0 -104.5 15.5t-96.5 33.5t-87.5 33.5t-76.5 15.5q-61 0 -95.5 -40t-35.5 -108 h-177zM118 510z" />
<glyph horiz-adv-x="589" d="M154 1346q0 30 10.5 55.5t29.5 45t45 31t56 11.5t56 -11.5t45.5 -31t30.5 -45.5t11 -55q0 -31 -11 -56.5t-30.5 -45t-45.5 -30.5t-56 -11t-56 11t-45 30.5t-29.5 45t-10.5 56.5zM191 0v586l29 371h150l28 -371v-586h-207z" />
<glyph horiz-adv-x="929" d="M85 307q0 68 15 119.5t51 102t97 104.5t153 127l31 197h151l23 -254q-67 -51 -124.5 -93.5t-100 -85t-67 -87t-24.5 -99.5q0 -40 15.5 -73t42.5 -55.5t64 -34.5t80 -12q50 0 90.5 10t73 25.5t58 33.5t46.5 32l93 -132q-34 -30 -74 -57t-86.5 -47.5t-101.5 -32t-118 -11.5 q-85 0 -156.5 23.5t-123 66.5t-80 102.5t-28.5 130.5zM369 1346q0 30 10.5 55.5t29.5 45t45 31t56 11.5t56 -11.5t45.5 -31t30.5 -45.5t11 -55q0 -31 -11 -56.5t-30.5 -45t-45.5 -30.5t-56 -11t-56 11t-45 30.5t-29.5 45t-10.5 56.5z" />
<glyph horiz-adv-x="577" d="M90 0zM90 718q0 126 15.5 247.5t49 239.5t87 235t130.5 234l97 -60q9 -6 16.5 -13t12 -18t2 -25.5t-11.5 -32.5q-101 -182 -154.5 -387t-53.5 -420t53.5 -420.5t154.5 -386.5q9 -18 11.5 -32.5t-2 -25t-12 -18t-16.5 -13.5l-97 -60q-77 118 -130.5 234t-87 234t-49 239.5 t-15.5 248.5z" />
<glyph horiz-adv-x="577" d="M76 0zM77.5 -121.5q2.5 14.5 11.5 32.5q100 181 153.5 386.5t53.5 420.5t-53.5 420t-153.5 387q-9 18 -11.5 32.5t1.5 25.5t11.5 18t16.5 13l98 60q76 -118 129.5 -234.5t87 -234.5t49 -239.5t15.5 -247.5q0 -127 -15.5 -248.5t-49 -239.5t-87 -234.5t-129.5 -233.5 l-98 60q-9 6 -16.5 13.5t-11.5 18t-1.5 25z" />
<glyph horiz-adv-x="663" d="M192 -232v1885h400v-87q0 -24 -16.5 -40.5t-43.5 -16.5h-156v-1596h156q27 0 43.5 -17.5t16.5 -40.5v-87h-400zM193 0z" />
<glyph horiz-adv-x="663" d="M72 -145q0 24 16.5 41t43.5 17h155v1596h-155q-27 0 -43.5 16.5t-16.5 40.5v87h400v-1885h-400v87zM73 0z" />
<glyph horiz-adv-x="644" d="M71 645v130q67 0 99.5 40t32.5 105q0 49 -8 98t-16.5 98.5t-16.5 99t-8 100.5q0 75 22 137t67 106.5t112 69t158 24.5h54v-99q0 -24 -17 -34.5t-31 -10.5h-14q-76 0 -117 -48.5t-41 -131.5q0 -57 6.5 -108.5t14.5 -102t14.5 -99t6.5 -97.5q0 -77 -43 -134.5t-116 -77.5 q73 -19 116 -76.5t43 -134.5q0 -49 -6.5 -97.5t-14.5 -99t-14.5 -102.5t-6.5 -109q0 -83 41 -130.5t117 -47.5h14q14 0 31 -11t17 -35v-99h-54q-91 0 -158 24.5t-112 69t-67 106.5t-22 137q0 51 8 100.5t16.5 99t16.5 98.5t8 98q0 65 -32.5 104.5t-99.5 39.5zM72 0z" />
<glyph horiz-adv-x="644" d="M75 -133q0 24 17.5 35t31.5 11h15q75 0 116.5 47.5t41.5 130.5q0 56 -7 108.5t-15 103t-14.5 99t-6.5 97.5q0 38 11 72t31.5 62t49.5 48t65 29q-72 20 -114.5 77.5t-42.5 134.5q0 49 6.5 97.5t14.5 99t15 102t7 108.5q0 83 -41.5 131.5t-116.5 48.5h-15q-13 0 -31 10.5 t-18 34.5v99h56q90 0 157 -24.5t111.5 -69t66.5 -106.5t22 -137q0 -51 -7.5 -100.5t-16.5 -99t-16.5 -98.5t-7.5 -98q0 -65 32.5 -105t98.5 -40v-130q-67 0 -99 -39.5t-32 -104.5q0 -49 7.5 -98t16.5 -98.5t16.5 -99t7.5 -100.5q0 -75 -22 -137t-66.5 -106.5t-111.5 -69 t-157 -24.5h-56v99zM76 0z" />
<glyph horiz-adv-x="1721" d="M99 0zM99 720q0 111 28.5 213.5t80 193t124 166t162 129.5t193 83.5t215.5 29.5q95 0 187 -21t173 -62t150 -101.5t118.5 -137.5t77 -171.5t27.5 -203.5q0 -110 -31.5 -204.5t-88 -164.5t-133 -110t-165.5 -40q-75 0 -128 35t-70 112q-60 -77 -128.5 -111t-148.5 -34 q-62 0 -108.5 22.5t-77.5 60.5t-46 91t-15 114q0 58 14.5 117.5t44 115t74 104t103.5 84.5t132.5 57t161.5 21q74 0 128 -11.5t103 -32.5l-96 -376q-18 -71 -18 -116t13.5 -70t38.5 -34.5t54 -9.5q46 0 88 27.5t73.5 77.5t50 120.5t18.5 154.5q0 137 -43.5 240.5t-120.5 173 t-182.5 104.5t-229.5 35q-135 0 -252.5 -51.5t-204 -141.5t-136 -213t-49.5 -265q0 -171 53.5 -300t146 -216t218.5 -131t270 -44q158 0 274.5 32.5t196.5 79.5q24 14 42.5 8.5t26.5 -26.5l31 -81q-109 -72 -250 -115t-321 -43q-181 0 -336.5 57.5t-269.5 165t-178.5 262.5 t-64.5 351zM665 614q0 -70 31 -109.5t90 -39.5q29 0 58.5 9t57 32t50.5 62t38 98l76 294q-35 7 -77 8q-70 0 -129 -30t-102.5 -79t-68 -113t-24.5 -132z" />
<glyph horiz-adv-x="1166" d="M87 0zM87 496q0 100 43 209.5t133 230.5l363 486q16 22 47.5 37.5t70.5 15.5h194l-437 -543q-16 -20 -31 -39.5t-29 -37.5q47 28 102.5 43t121.5 15q86 0 165 -28t138.5 -84t95.5 -138t36 -190q0 -102 -37.5 -191t-105 -155.5t-162 -104.5t-209.5 -38t-207 36.5 t-157 103.5t-100 161.5t-35 210.5zM299 460q0 -66 18.5 -120t54.5 -92.5t88.5 -60t121.5 -21.5q67 0 122 22t94.5 61t61 92t21.5 116q0 68 -21 121.5t-59.5 90.5t-92 56.5t-118.5 19.5q-67 0 -120.5 -22.5t-91.5 -61t-58.5 -91t-20.5 -110.5z" />
<glyph horiz-adv-x="1204" d="M97 0zM97 410q0 135 68 226t204 133q-111 44 -166.5 128t-55.5 202q0 83 33 154.5t93 124.5t144 83t185 30t184.5 -30t143.5 -83t93.5 -124.5t33.5 -154.5q0 -118 -56 -202t-167 -128q135 -42 204 -133t69 -226q0 -97 -37 -176t-103.5 -134.5t-159 -85.5t-205.5 -30 t-205.5 30t-159 85.5t-103.5 134t-37 176.5zM323 414q0 -55 18.5 -102.5t54 -81.5t87.5 -53t119 -19t119 19t87.5 53t53.5 81t18 103q0 68 -21 117t-58 81t-88.5 48t-110.5 16t-110.5 -16t-89 -48t-58.5 -81.5t-21 -116.5zM361 1095q0 -46 13 -90t41 -78.5t74 -55t113 -20.5 t113 20.5t74 55t41 78.5t13 90t-15 87.5t-45.5 72t-75.5 49t-105 18.5t-106 -18.5t-75.5 -49t-44.5 -72t-15 -87.5z" />
<glyph horiz-adv-x="1335" d="M92 515l11 71h202l59 305h-228l17 92q6 36 28 52.5t69 16.5h136l69 346q7 36 33 56.5t62 20.5h99l-82 -423h292l82 423h97q36 0 56 -22.5t14 -56.5l-69 -344h212l-16 -93q-6 -36 -28 -52t-69 -16h-121l-59 -305h163q34 0 49.5 -20.5t7.5 -70.5l-11 -71h-232l-82 -424 h-100q-15 0 -29 7t-23.5 20t-13 30t0.5 36l66 331h-292l-65 -342q-8 -44 -36 -63t-64 -19h-97l82 424h-132q-34 0 -49.5 21t-8.5 70zM485 586h292l60 305h-292z" />
<glyph horiz-adv-x="1175" d="M79 0zM79 177l67 102q9 13 23.5 21.5t32.5 8.5q20 0 45.5 -17.5t59.5 -40.5t80 -45t109 -32l38 497q-73 22 -143 48.5t-125.5 72t-90 113t-34.5 169.5q0 77 30.5 149t88.5 129.5t142.5 94t193.5 41.5l11 137q1 23 17.5 40t42.5 17h82l-16 -200q108 -16 187 -60t137 -100 l-53 -82q-23 -36 -56 -36q-15 0 -36 11.5t-49 26t-64 30t-80 23.5l-36 -455q74 -23 146 -50t129.5 -69.5t93.5 -106t36 -158.5q0 -93 -31.5 -175.5t-92 -145.5t-148 -102.5t-198.5 -46.5l-13 -164q-1 -22 -17 -40t-42 -18h-82l17 225q-121 14 -224.5 63.5t-177.5 124.5z M348 1096q0 -43 15.5 -76t42.5 -58.5t64 -44.5t80 -34l32 416q-61 -6 -105.5 -25t-73 -46t-42 -60.5t-13.5 -71.5zM632 172q122 14 185 79.5t63 169.5q0 44 -16.5 76.5t-44.5 57.5t-67 42.5t-84 33.5z" />
<glyph horiz-adv-x="1116" d="M95 0zM95 522q0 113 34 209t99 167.5t160.5 114t219.5 46.5l13 171q2 22 18.5 39.5t42.5 17.5h81l-19 -235q83 -14 149 -47.5t122 -84.5l-57 -78q-8 -12 -17.5 -19t-27.5 -7q-13 0 -29 7.5t-37.5 18.5t-49.5 23t-66 19l-56 -730q59 5 98.5 20t67 31.5t47.5 29.5t39 13 q28 0 41 -20l60 -77q-68 -80 -163 -118t-204 -46l-12 -163q-2 -22 -18 -39.5t-42 -17.5h-81l17 223q-93 12 -172 53t-136 109t-89.5 161.5t-32.5 208.5zM312 522q0 -150 59.5 -241.5t166.5 -117.5l57 726q-142 -14 -212.5 -109.5t-70.5 -257.5z" />
<glyph horiz-adv-x="1187" d="M43 0zM43 621v71q0 31 19 53.5t56 22.5h123v253q0 96 28 181.5t85.5 149.5t143.5 101.5t201 37.5q81 0 144.5 -20.5t113 -56t85.5 -83t63 -102.5l-88 -58q-31 -15 -59 -13t-52 30q-19 25 -39 45.5t-43.5 36t-54 24.5t-70.5 9q-117 0 -175 -75.5t-58 -205.5v-254h434v-89 q0 -22 -18 -40t-45 -18h-371v-222q0 -71 -27 -125t-74 -99q69 14 135 14h644v-93q0 -17 -7 -34t-19.5 -31t-30 -22.5t-38.5 -8.5h-984v140q35 9 66.5 25.5t56 40.5t39 57.5t14.5 77.5v280h-198z" />
<glyph horiz-adv-x="1379" d="M66 1475h196q32 0 51.5 -15t29.5 -40l286 -535q22 -46 37 -85.5t25 -79.5q9 40 23.5 79.5t36.5 85.5l285 535q9 20 29 37.5t51 17.5h198l-468 -831h291v-124h-337v-104h337v-125h-337v-291h-220v291h-337v125h337v104h-337v124h291z" />
<glyph horiz-adv-x="1505" d="M86 558v125h187q-1 13 -1 26.5v27.5q0 19 0.5 38t1.5 37h-188v125h205q25 127 80 229t139.5 174t197.5 111t251 39q69 0 133.5 -13t121.5 -37.5t105 -60.5t85 -81l-56 -62q-20 -23 -34.5 -33.5t-34.5 -10.5q-17 0 -42.5 16.5t-62 36.5t-89 36t-124.5 16 q-173 0 -286.5 -91t-154.5 -269h638v-69q0 -20 -16.5 -38t-45.5 -18h-594q-1 -18 -1.5 -36.5t-0.5 -38.5v-27.5t1 -26.5h561v-69q0 -20 -17 -38t-46 -18h-485q35 -190 144 -285.5t277 -95.5q87 0 142.5 19t92 42t61 42t49.5 19q13 0 25 -5t26 -19l76 -65q-36 -54 -87 -95.5 t-113 -71t-134 -44t-149 -14.5q-137 0 -246.5 40.5t-189.5 115t-131.5 180.5t-70.5 237h-200z" />
<glyph horiz-adv-x="1105" d="M35 387l14 71h189l53 234h-209l13 92q6 36 28 52.5t70 16.5h125l54 220q7 36 33 56.5t62 20.5h99l-69 -297h209l63 297h96q35 0 55.5 -22.5t14.5 -57.5l-50 -217h190l-13 -92q-6 -36 -28 -52.5t-69 -16.5h-111l-53 -234h147q34 0 49 -20.5t8 -69.5l-12 -71h-220l-66 -297 h-99q-15 0 -29 7t-23 20t-12.5 30t0.5 36l50 204h-206l-50 -215q-8 -44 -36.5 -63t-62.5 -19h-101l72 297h-118q-34 0 -49 20.5t-8 69.5zM418 458h202l54 234h-202z" />
<glyph horiz-adv-x="1105" d="M114 144l47 75q24 38 65 38q15 0 35.5 -13t48.5 -30t67.5 -34t94.5 -25l27 342q-61 16 -122.5 38t-109.5 59t-77.5 92.5t-29.5 139.5q0 60 24 119t72.5 106t122.5 78t173 37l17 216h125l-17 -220q89 -11 161.5 -45.5t123.5 -84.5l-51 -83q-9 -14 -19.5 -24t-28.5 -10 q-14 0 -31 10.5t-40 24.5t-54 27.5t-74 20.5l-26 -330q62 -17 123.5 -39.5t111 -57.5t80 -88.5t30.5 -133.5q0 -73 -28.5 -137.5t-81 -113.5t-126 -79.5t-163.5 -37.5l-17 -218h-126l18 220q-106 12 -195 54.5t-150 106.5zM364 844q0 -29 11 -50.5t31.5 -38.5t48 -29.5 t60.5 -23.5l24 298q-49 -6 -82.5 -20t-54 -35t-29.5 -46.5t-9 -54.5zM597 152q102 10 148 54.5t46 109.5q0 31 -13 54t-35.5 40.5t-54 30t-66.5 23.5z" />
<glyph horiz-adv-x="1105" d="M117 490q0 103 31 192.5t91.5 156.5t149 108t204.5 48l16 216h130l-16 -220q82 -12 145.5 -46.5t115.5 -80.5l-52 -73q-11 -15 -24.5 -22.5t-31.5 -7.5q-15 0 -30 8t-33 19t-43 22.5t-59 17.5l-51 -681q54 4 91 17.5t63 28.5t44 26t36 11q17 0 29 -5.5t23 -18.5l50 -64 q-34 -40 -74.5 -68t-85.5 -46.5t-93 -28t-95 -12.5l-14 -205h-130l15 208q-86 12 -159.5 51t-127.5 103t-84.5 151t-30.5 195zM326 490q0 -137 53.5 -221.5t151.5 -110.5l50 672q-129 -17 -192 -106t-63 -234z" />
<glyph horiz-adv-x="1105" d="M75 482v66q0 32 19 54t54 22h77v110q0 86 23 165t73 139t127.5 95.5t188.5 35.5q136 0 225 -65t138 -182l-64 -51q-11 -8 -24 -15t-29 -7t-28.5 10t-25 25.5t-26 34t-34 34t-48.5 25.5t-68 10q-111 0 -164.5 -65t-53.5 -188v-111h409v-83q0 -23 -18 -41t-45 -18h-346 v-103q0 -134 -87 -221q37 8 74.5 13t76.5 5h538v-176h-953v136q63 13 102 58.5t39 127.5v160h-150z" />
<glyph horiz-adv-x="1105" d="M85 500v166h377v398h178v-398h379v-166h-379v-400h-178v400h-377z" />
<glyph horiz-adv-x="1105" d="M130 333v166h846v-166h-846zM130 670v166h846v-166h-846z" />
<glyph horiz-adv-x="1105" d="M146 540v90l757 395v-198l-410 -207q-41 -20 -96 -35q27 -6 50.5 -14t45.5 -19l410 -210v-199z" />
<glyph horiz-adv-x="1105" d="M203 143v198l410 210q43 22 97 34q-54 12 -97 35l-410 207v198l756 -395v-90z" />
<glyph horiz-adv-x="1105" d="M87 0v166h934v-166h-934zM87 598v166h377v344h178v-344h379v-166h-379v-335h-178v335h-377z" />
<glyph horiz-adv-x="1105" d="M129 500v166h846v-441h-187v275h-659z" />
<glyph horiz-adv-x="1105" d="M104 250l332 332l-318 318l115 118l320 -320l316 318l118 -116l-317 -318l330 -330l-116 -117l-331 330l-332 -332z" />
<glyph horiz-adv-x="1105" d="M87 500v166h933v-166h-933zM415 240q0 29 10.5 54t29 44t43.5 30t55 11q29 0 54.5 -11t44.5 -30t30 -44.5t11 -53.5q0 -30 -11 -55t-30 -43.5t-44.5 -29.5t-54.5 -11q-30 0 -55 11t-43.5 29.5t-29 43.5t-10.5 55zM415 926q0 29 10.5 54.5t29 44t43.5 29.5t55 11 q29 0 54.5 -11t44.5 -29.5t30 -44.5t11 -54q0 -30 -11 -55.5t-30 -44.5t-44.5 -30t-54.5 -11q-30 0 -55 11t-43.5 30t-29 44.5t-10.5 55.5z" />
<glyph d="M53 267l8 50h94l20 120h-103l12 66q5 25 20.5 36.5t48.5 11.5h37l29 150q5 25 23 38.5t42 13.5h70l-37 -202h91l36 202h69q24 0 38 -14.5t10 -38.5l-27 -149h101l-12 -67q-4 -24 -19.5 -35.5t-48.5 -11.5h-37l-20 -120h59q24 0 33 -14.5t4 -49.5l-8 -49h-104l-37 -204 h-72q-20 0 -34 19t-9 46l24 139h-89l-25 -148q-5 -31 -24.5 -43.5t-43.5 -12.5h-70l37 204h-47q-25 0 -34.5 13.5t-4.5 49.5zM281 317h90l21 120h-90z" />
<glyph d="M87 302v118h192v203h124v-203h194v-118h-194v-205h-124v205h-192z" />
<glyph d="M108 208v116h469v-116h-469zM108 397v116h469v-116h-469z" />
<glyph horiz-adv-x="342" d="M84 91q0 33 23 56t61 23q46 0 68 -29t22 -69q0 -27 -8 -56t-24.5 -59t-40 -58t-54.5 -52l-28 25q-11 8 -11 22q0 9 9 19t20.5 23.5t23 30t16.5 36.5q-36 3 -56.5 27.5t-20.5 60.5z" />
<glyph horiz-adv-x="342" d="M83 81q0 38 25 63.5t64 25.5q37 0 62.5 -25.5t25.5 -63.5q0 -37 -25.5 -62.5t-62.5 -25.5q-39 0 -64 25.5t-25 62.5z" />
<glyph d="M105 0v537h82q30 0 41 -32l9 -39q34 35 72.5 57t96.5 22q44 0 77.5 -15.5t56.5 -42.5t35 -64.5t12 -81.5v-341h-154v341q0 81 -76 81q-27 0 -51 -11.5t-47 -31.5v-379h-154z" />
<glyph d="M89 520l78 77l78 -78q22 11 45.5 18t50.5 7q50 0 92 -24l79 80l78 -79l-79 -78q11 -20 18 -44t7 -50q0 -50 -23 -93l80 -79l-78 -78l-79 78q-20 -11 -44 -17.5t-51 -6.5q-50 0 -93 22l-79 -79l-76 79l77 77q-11 22 -18 46t-7 51q0 49 23 91zM259 349q0 -16 6.5 -31 t17.5 -26t26 -18t32 -7q16 0 31.5 7t26.5 18t17.5 26t6.5 31t-6.5 31t-17.5 26.5t-26.5 18t-31.5 6.5q-17 0 -32 -6.5t-26 -18t-17.5 -26.5t-6.5 -31z" />
<glyph d="M63 91l48 73q14 17 34 17q10 0 21.5 -6.5t26 -15t32.5 -18.5t41 -16l20 200q-36 10 -70.5 25t-61.5 38.5t-44 59t-17 89.5q0 42 17.5 81.5t51 71.5t82 51t111.5 20l5 57q0 14 12 25.5t29 11.5h58l-10 -103q50 -11 86.5 -33.5t63.5 -47.5l-38 -59q-9 -12 -16 -16.5 t-20 -4.5q-15 0 -35 13t-54 24l-19 -191q36 -11 70.5 -25t62 -36.5t44 -54.5t16.5 -79q0 -51 -17.5 -95.5t-50.5 -78t-82 -54t-113 -22.5l-5 -63q0 -14 -12 -26.5t-29 -12.5h-57l10 110q-55 10 -106 34t-85 57zM240 552q0 -35 24.5 -54.5t63.5 -33.5l15 172q-32 -3 -52 -11 t-31.5 -19.5t-15.5 -25.5t-4 -28zM359 120q50 6 78 30t28 67q0 34 -25 52.5t-64 30.5z" />
<glyph d="M96 268q0 56 17.5 105t51 86t82.5 59t113 25l8 72q1 14 12 26t29 12h56l-11 -116q40 -8 73 -26.5t62 -45.5l-40 -54q-5 -10 -12 -15t-19 -5q-15 0 -32 10t-45 18l-29 -309q24 3 39.5 10t28 13.5t22.5 12.5t22 6q16 0 28 -13l42 -56q-41 -47 -91 -66.5t-103 -23.5l-6 -63 q-2 -15 -12.5 -27.5t-29.5 -12.5h-55l10 106q-45 8 -83.5 29.5t-66.5 56.5t-44.5 81.5t-16.5 104.5zM227 268q0 -65 26 -100.5t65 -49.5l30 305q-55 -8 -88 -46t-33 -109z" />
<glyph d="M62 304v102h75v111q0 49 16.5 93t48.5 78t80 53.5t110 19.5q45 0 81 -10.5t63.5 -29t47.5 -43.5t36 -55l-61 -40q-10 -6 -18.5 -10t-17.5 -4q-13 0 -24 9.5t-24.5 21t-32 21t-46.5 9.5q-49 0 -75 -31t-26 -82v-111h219v-102h-219v-80q0 -61 -30 -103q24 5 48 8.5t49 3.5 h268v-66q0 -11 -4.5 -23t-13.5 -22t-21 -16t-28 -6h-492v97q34 6 50 26t16 58v123h-75z" />
<glyph d="M36 753h128q22 0 35.5 -10t19.5 -27l103 -247q11 -37 21 -81q5 24 9.5 44t9.5 37l101 247q6 14 20 25.5t34 11.5h130l-215 -424h135v-73h-149v-58h149v-73h-149v-125h-154v125h-147v73h147v58h-147v73h133z" />
<glyph d="M44 278v71h67v27v16.5t1 17.5h-68v72h76q12 62 38 114t64.5 88.5t88 56.5t110.5 20q74 0 129.5 -29t88.5 -78l-55 -62q-8 -8 -14.5 -11.5t-17.5 -3.5t-20.5 7.5t-22.5 16.5t-32 17t-49 8q-119 0 -149 -144h258v-35q0 -13 -11 -25t-30 -12h-226q-1 -8 -1 -17v-17v-27h219 v-35q0 -12 -11.5 -24t-31.5 -12h-169q26 -150 144 -150q34 0 54.5 8.5t34 19.5t23.5 19.5t22 8.5q13 0 24 -9l65 -63q-35 -58 -96 -88.5t-134 -30.5q-67 0 -117.5 20.5t-87.5 58.5t-59.5 90t-31.5 116h-73z" />
<glyph horiz-adv-x="342" d="M52 365q0 134 33.5 256.5t109.5 239.5l69 -42q12 -8 19 -21.5t-7 -38.5q-43 -88 -66.5 -190t-23.5 -204t23.5 -204.5t66.5 -189.5q14 -26 7 -39t-19 -21l-69 -44q-76 118 -109.5 240.5t-33.5 257.5z" />
<glyph horiz-adv-x="342" d="M58.5 -67.5q-7.5 13.5 6.5 38.5q43 87 67 189.5t24 204.5t-24 204t-67 190q-13 26 -6 39t20 21l68 42q76 -117 109 -239.5t33 -256.5t-33 -257t-109 -241l-68 44q-13 8 -20.5 21.5z" />
<glyph d="M48 0zM53 36l8 50h94l20 120h-103l12 66q5 25 20.5 36.5t48.5 11.5h37l29 150q5 25 23 38.5t42 13.5h70l-37 -202h91l36 202h69q24 0 38 -14.5t10 -38.5l-27 -149h101l-12 -67q-4 -24 -19.5 -35.5t-48.5 -11.5h-37l-20 -120h59q24 0 33 -14.5t4 -49.5l-8 -49h-104 l-37 -204h-72q-20 0 -34 19t-9 46l24 139h-89l-25 -148q-5 -31 -24.5 -43.5t-43.5 -12.5h-70l37 204h-47q-25 0 -34.5 13.5t-4.5 49.5zM281 86h90l21 120h-90z" />
<glyph horiz-adv-x="342" d="M85 -61zM85 -140q0 33 23 56t61 23q46 0 68 -29t22 -69q0 -27 -8 -56t-24.5 -59t-40 -58t-54.5 -52l-28 25q-11 8 -11 22q0 9 9 19t20.5 23.5t23 30t16.5 36.5q-36 3 -56.5 27.5t-20.5 60.5z" />
<glyph horiz-adv-x="342" d="M83 -61zM83 -150q0 38 25 63.5t64 25.5q37 0 62.5 -25.5t25.5 -63.5q0 -37 -25.5 -62.5t-62.5 -25.5q-39 0 -64 25.5t-25 62.5z" />
<glyph d="M90 0zM90 289l78 77l78 -78q22 11 45.5 18t50.5 7q50 0 92 -24l79 80l78 -79l-79 -78q11 -20 18 -44t7 -50q0 -50 -23 -93l80 -79l-78 -78l-79 78q-20 -11 -44 -17.5t-51 -6.5q-50 0 -93 22l-79 -79l-76 79l77 77q-11 22 -18 46t-7 51q0 49 23 91zM260 118q0 -16 6.5 -31 t17.5 -26t26 -18t32 -7q16 0 31.5 7t26.5 18t17.5 26t6.5 31t-6.5 31t-17.5 26.5t-26.5 18t-31.5 6.5q-17 0 -32 -6.5t-26 -18t-17.5 -26.5t-6.5 -31z" />
<glyph d="M63 0zM63 -140l48 73q14 17 34 17q10 0 21.5 -6.5t26 -15t32.5 -18.5t41 -16l20 200q-36 10 -70.5 25t-61.5 38.5t-44 59t-17 89.5q0 42 17.5 81.5t51 71.5t82 51t111.5 20l5 57q0 14 12 25.5t29 11.5h58l-10 -103q50 -11 86.5 -33.5t63.5 -47.5l-38 -59 q-9 -12 -16 -16.5t-20 -4.5q-15 0 -35 13t-54 24l-19 -191q36 -11 70.5 -25t62 -36.5t44 -54.5t16.5 -79q0 -51 -17.5 -95.5t-50.5 -78t-82 -54t-113 -22.5l-5 -63q0 -14 -12 -26.5t-29 -12.5h-57l10 110q-55 10 -106 34t-85 57zM240 321q0 -35 24.5 -54.5t63.5 -33.5 l15 172q-32 -3 -52 -11t-31.5 -19.5t-15.5 -25.5t-4 -28zM359 -111q50 6 78 30t28 67q0 34 -25 52.5t-64 30.5z" />
<glyph d="M97 0zM97 37q0 56 17.5 105t51 86t82.5 59t113 25l8 72q1 14 12 26t29 12h56l-11 -116q40 -8 73 -26.5t62 -45.5l-40 -54q-5 -10 -12 -15t-19 -5q-15 0 -32 10t-45 18l-29 -309q24 3 39.5 10t28 13.5t22.5 12.5t22 6q16 0 28 -13l42 -56q-41 -47 -91 -66.5t-103 -23.5 l-6 -63q-2 -15 -12.5 -27.5t-29.5 -12.5h-55l10 106q-45 8 -83.5 29.5t-66.5 56.5t-44.5 81.5t-16.5 104.5zM228 37q0 -65 26 -100.5t65 -49.5l30 305q-55 -8 -88 -46t-33 -109z" />
<glyph d="M61 0zM61 73v102h75v111q0 49 16.5 93t48.5 78t80 53.5t110 19.5q45 0 81 -10.5t63.5 -29t47.5 -43.5t36 -55l-61 -40q-10 -6 -18.5 -10t-17.5 -4q-13 0 -24 9.5t-24.5 21t-32 21t-46.5 9.5q-49 0 -75 -31t-26 -82v-111h219v-102h-219v-80q0 -61 -30 -103q24 5 48 8.5 t49 3.5h268v-66q0 -11 -4.5 -23t-13.5 -22t-21 -16t-28 -6h-492v97q34 6 50 26t16 58v123h-75z" />
<glyph d="M36 0zM36 522h128q22 0 35.5 -10t19.5 -27l103 -247q11 -37 21 -81q5 24 9.5 44t9.5 37l101 247q6 14 20 25.5t34 11.5h130l-215 -424h135v-73h-149v-58h149v-73h-149v-125h-154v125h-147v73h147v58h-147v73h133z" />
<glyph d="M40 46v72h66v26v17t2 17h-68v73h76q12 62 38 114t64.5 88t88 56t110.5 20q74 0 129.5 -28.5t88.5 -77.5l-55 -63q-8 -8 -14.5 -11.5t-17.5 -3.5t-20.5 7.5t-22.5 17t-32 17t-49 7.5q-119 0 -150 -143h258v-35q0 -13 -10.5 -25.5t-29.5 -12.5h-226q-1 -8 -1 -16.5v-17.5 v-26h219v-35q0 -12 -11.5 -24.5t-31.5 -12.5h-169q26 -150 144 -149q34 0 54 8.5t34 19t24 19.5t22 9q13 0 23 -9l66 -64q-35 -58 -96 -88.5t-134 -30.5q-67 0 -117.5 20.5t-87.5 58.5t-59.5 90.5t-31.5 115.5h-73z" />
<glyph d="M50 722zM55 989l8 50h94l20 120h-103l12 66q5 25 20.5 36.5t48.5 11.5h37l29 150q5 25 23 38.5t42 13.5h70l-37 -202h91l36 202h69q24 0 38 -14.5t10 -38.5l-27 -149h101l-12 -67q-4 -24 -19.5 -35.5t-48.5 -11.5h-37l-20 -120h59q24 0 33 -14.5t4 -49.5l-8 -49h-104 l-37 -204h-72q-20 0 -34 19t-9 46l24 139h-89l-25 -148q-5 -31 -24.5 -43.5t-43.5 -12.5h-70l37 204h-47q-25 0 -34.5 13.5t-4.5 49.5zM283 1039h90l21 120h-90z" />
<glyph d="M87 819zM87 1024v118h192v203h124v-203h194v-118h-194v-205h-124v205h-192z" />
<glyph d="M108 930v116h469v-116h-469zM108 930zM108 1119v116h469v-116h-469z" />
<glyph horiz-adv-x="342" d="M84 569zM84 813q0 33 23 56t61 23q46 0 68 -29t22 -69q0 -27 -8 -56t-24.5 -59t-40 -58t-54.5 -52l-28 25q-11 8 -11 22q0 9 9 19t20.5 23.5t23 30t16.5 36.5q-36 3 -56.5 27.5t-20.5 60.5z" />
<glyph horiz-adv-x="342" d="M82 715zM82 803q0 38 25 63.5t64 25.5q37 0 62.5 -25.5t25.5 -63.5q0 -37 -25.5 -62.5t-62.5 -25.5q-39 0 -64 25.5t-25 62.5z" />
<glyph d="M106 722v537h82q30 0 41 -32l9 -39q34 35 72.5 57t96.5 22q44 0 77.5 -15.5t56.5 -42.5t35 -64.5t12 -81.5v-341h-154v341q0 81 -76 81q-27 0 -51 -11.5t-47 -31.5v-379h-154zM106 722z" />
<glyph d="M56 714zM56 1098q0 99 22 171.5t60.5 120t90.5 70.5t111 23t112 -23t92 -70.5t61.5 -120t22.5 -171.5q0 -98 -22.5 -170.5t-61.5 -120t-92 -70.5t-112 -23t-111 23t-90.5 70.5t-60.5 120t-22 170.5zM216 1098q0 -78 10 -127.5t26.5 -78t39 -39t48.5 -10.5t49 10.5 t40.5 39t28 78t10.5 127.5q0 79 -9.5 129t-26.5 78t-40.5 39t-51.5 11t-51 -11t-39 -39t-25 -78t-9 -129z" />
<glyph d="M90 722zM90 1279l234 198h132v-652h125v-103h-429v103h145v406l5 48l-93 -75q-11 -8 -22 -10t-20 0t-17 7t-12 10z" />
<glyph d="M70 722v52q0 15 6 32.5t20 32.5l220 217q25 24 46 49.5t36.5 51.5t24.5 52t9 51q0 44 -25.5 69.5t-65.5 25.5t-64.5 -20.5t-38.5 -57.5q-12 -20 -27.5 -28.5t-46.5 -3.5l-88 15q16 113 89.5 168t183.5 55q56 0 102 -16.5t77 -45t48 -68.5t17 -87q0 -42 -13 -77t-34.5 -67 t-49 -62t-57.5 -60l-146 -149q27 8 52 12t47 4h164q26 0 39.5 -13.5t13.5 -37.5v-94h-539zM70 722z" />
<glyph d="M61 714zM61 916l69 29q27 11 50 5.5t32 -24.5q5 -11 13 -25t21.5 -26.5t33.5 -20.5t48 -8t48 8t34.5 22t21.5 32t7 37q0 29 -8 49t-26.5 32.5t-49 18.5t-75.5 6v105q43 1 72 8.5t47 20.5t25 32t7 43q0 44 -24.5 68t-68.5 24q-43 0 -67.5 -20t-35.5 -54q-11 -24 -25 -31 t-46 -2l-82 15q8 56 31 98t58 69.5t79.5 41.5t95.5 14q55 0 99 -16t75 -42.5t47.5 -62t16.5 -74.5q0 -129 -116 -178q65 -19 98 -57.5t33 -101.5q0 -60 -22.5 -104.5t-59.5 -73.5t-84.5 -44t-96.5 -15q-56 0 -99.5 11t-77 35.5t-57 63t-41.5 92.5z" />
<glyph d="M15 722zM16 996l347 479h152v-470h103v-81q0 -11 -8.5 -20.5t-22.5 -9.5h-72v-172h-133v172h-304q-22 0 -34 9.5t-15 24.5zM163 1005h219v204q0 23 1.5 49t5.5 55z" />
<glyph d="M77 714zM77 810l47 67q16 23 39 22q15 0 28.5 -8t30 -18t38.5 -18t54 -8q23 0 44.5 7t38.5 22t26.5 38t9.5 55q0 55 -29.5 83.5t-87.5 28.5q-26 0 -51.5 -5.5t-52.5 -13.5l-95 27l64 386h383v-66q0 -33 -20.5 -54.5t-69.5 -21.5h-184l-23 -132q44 8 83 8q58 0 103.5 -16 t76 -46t46.5 -71t16 -90q0 -60 -21.5 -110.5t-59.5 -86t-90.5 -55.5t-115.5 -20q-73 0 -130.5 28.5t-97.5 67.5z" />
<glyph d="M74 714zM74 984q0 112 87 226l171 229q11 15 32.5 25.5t49.5 10.5h138l-193 -231q-20 -26 -45 -48.5t-49 -49.5q27 22 61.5 34.5t73.5 12.5q38 0 76 -12.5t68.5 -39t50 -68t19.5 -99.5q0 -53 -19.5 -101t-55 -83t-86 -55.5t-111.5 -20.5q-63 0 -113 20t-84 55.5 t-52.5 85.5t-18.5 109zM229 955q0 -52 31.5 -86t85.5 -34q26 0 48.5 9t39 25t25.5 38t9 47q0 58 -30 90t-86 32q-58 0 -90.5 -34.5t-32.5 -86.5z" />
<glyph d="M78 722zM78 1365v110h527v-85q0 -15 -3.5 -28.5t-8.5 -25.5l-272 -562q-4 -9 -9 -18t-13 -17t-21 -12.5t-31 -4.5h-122l274 535q11 20 22 38.5t25 33.5h-332q-14 0 -25 11t-11 25z" />
<glyph d="M75 714zM75 938q0 61 29 107t96 69q-50 24 -75 65.5t-25 98.5q0 44 18 81.5t50.5 65t77 43t96.5 15.5q53 0 97 -15.5t76.5 -43t50.5 -65t18 -81.5q0 -116 -101 -164q68 -24 97 -69t29 -107q0 -51 -19.5 -92t-54 -70.5t-84.5 -45.5t-109 -16t-108.5 16t-84.5 45.5 t-54.5 70.5t-19.5 92zM234 941q0 -45 26.5 -75.5t81.5 -30.5q57 0 83 30.5t26 75.5q0 59 -30 84t-79 25t-78.5 -24.5t-29.5 -84.5zM247 1276q0 -50 23 -76.5t72 -26.5q50 0 74 26.5t24 76.5q0 34 -24.5 62t-73.5 28t-72 -28t-23 -62z" />
<glyph d="M80 722zM80 1243q0 45 19 88t53 77t83 54.5t108 20.5t107.5 -17t81 -48.5t50.5 -77t18 -100.5q0 -40 -6.5 -75t-20 -68.5t-32 -65t-42.5 -65.5l-146 -208q-11 -14 -32 -25t-48 -11h-141l202 254q16 20 33 38t32 37q-24 -11 -49.5 -16.5t-54.5 -5.5q-39 0 -77.5 14.5 t-69 41.5t-49.5 67t-19 91zM231 1252q0 -55 29 -83t82 -28t83.5 29.5t30.5 80.5q0 52 -31.5 82t-79.5 30q-54 0 -84 -29.5t-30 -81.5z" />
<glyph d="M90 818zM90 1242l78 77l78 -78q22 11 45.5 18t50.5 7q50 0 92 -24l79 80l78 -79l-79 -78q11 -20 18 -44t7 -50q0 -50 -23 -93l80 -79l-78 -78l-79 78q-20 -11 -44 -17.5t-51 -6.5q-50 0 -93 22l-79 -79l-76 79l77 77q-11 22 -18 46t-7 51q0 49 23 91zM260 1071 q0 -16 6.5 -31t17.5 -26t26 -18t32 -7q16 0 31.5 7t26.5 18t17.5 26t6.5 31t-6.5 31t-17.5 26.5t-26.5 18t-31.5 6.5q-17 0 -32 -6.5t-26 -18t-17.5 -26.5t-6.5 -31z" />
<glyph d="M63 612zM63 813l48 73q14 17 34 17q10 0 21.5 -6.5t26 -15t32.5 -18.5t41 -16l20 200q-36 10 -70.5 25t-61.5 38.5t-44 59t-17 89.5q0 42 17.5 81.5t51 71.5t82 51t111.5 20l5 57q0 14 12 25.5t29 11.5h58l-10 -103q50 -11 86.5 -33.5t63.5 -47.5l-38 -59 q-9 -12 -16 -16.5t-20 -4.5q-15 0 -35 13t-54 24l-19 -191q36 -11 70.5 -25t62 -36.5t44 -54.5t16.5 -79q0 -51 -17.5 -95.5t-50.5 -78t-82 -54t-113 -22.5l-5 -63q0 -14 -12 -26.5t-29 -12.5h-57l10 110q-55 10 -106 34t-85 57zM240 1274q0 -35 24.5 -54.5t63.5 -33.5 l15 172q-32 -3 -52 -11t-31.5 -19.5t-15.5 -25.5t-4 -28zM359 842q50 6 78 30t28 67q0 34 -25 52.5t-64 30.5z" />
<glyph d="M95 612zM95 990q0 56 17.5 105t51 86t82.5 59t113 25l8 72q1 14 12 26t29 12h56l-11 -116q40 -8 73 -26.5t62 -45.5l-40 -54q-5 -10 -12 -15t-19 -5q-15 0 -32 10t-45 18l-29 -309q24 3 39.5 10t28 13.5t22.5 12.5t22 6q16 0 28 -13l42 -56q-41 -47 -91 -66.5t-103 -23.5 l-6 -63q-2 -15 -12.5 -27.5t-29.5 -12.5h-55l10 106q-45 8 -83.5 29.5t-66.5 56.5t-44.5 81.5t-16.5 104.5zM226 990q0 -65 26 -100.5t65 -49.5l30 305q-55 -8 -88 -46t-33 -109z" />
<glyph d="M62 722zM62 1026v102h75v111q0 49 16.5 93t48.5 78t80 53.5t110 19.5q45 0 81 -10.5t63.5 -29t47.5 -43.5t36 -55l-61 -40q-10 -6 -18.5 -10t-17.5 -4q-13 0 -24 9.5t-24.5 21t-32 21t-46.5 9.5q-49 0 -75 -31t-26 -82v-111h219v-102h-219v-80q0 -61 -30 -103 q24 5 48 8.5t49 3.5h268v-66q0 -11 -4.5 -23t-13.5 -22t-21 -16t-28 -6h-492v97q34 6 50 26t16 58v123h-75z" />
<glyph d="M36 722zM36 1475h128q22 0 35.5 -10t19.5 -27l103 -247q11 -37 21 -81q5 24 9.5 44t9.5 37l101 247q6 14 20 25.5t34 11.5h130l-215 -424h135v-73h-149v-58h149v-73h-149v-125h-154v125h-147v73h147v58h-147v73h133z" />
<glyph d="M42 999v72h67v27v16.5t1 17.5h-68v72h76q12 62 38 114t64.5 88.5t88 56.5t110.5 20q74 0 129.5 -29t88.5 -78l-55 -62q-8 -8 -14.5 -12t-17.5 -4t-20.5 8t-22.5 17t-32 17t-49 8q-119 0 -150 -144h259v-35q0 -13 -11 -25t-30 -12h-226q-1 -8 -1 -17v-17v-27h219v-35 q0 -12 -11.5 -24.5t-31.5 -12.5h-169q26 -150 144 -149q34 0 54.5 8.5t34 19.5t23.5 19.5t22 8.5q13 0 23 -9l66 -63q-35 -58 -96 -88.5t-134 -30.5q-67 0 -117.5 20.5t-87.5 58t-59.5 90t-31.5 115.5h-73z" />
<glyph horiz-adv-x="342" d="M50 589zM50 1087q0 134 33.5 256.5t109.5 239.5l69 -42q12 -8 19 -21.5t-7 -38.5q-43 -88 -66.5 -190t-23.5 -204t23.5 -204.5t66.5 -189.5q14 -26 7 -39t-19 -21l-69 -44q-76 118 -109.5 240.5t-33.5 257.5z" />
<glyph horiz-adv-x="342" d="M54 589zM61.5 654.5q-7.5 13.5 6.5 38.5q43 87 67 189.5t24 204.5t-24 204t-67 190q-13 26 -6 39t20 21l68 42q76 -117 109 -239.5t33 -256.5t-33 -257t-109 -241l-68 44q-13 8 -20.5 21.5z" />
<glyph horiz-adv-x="102" />
<glyph horiz-adv-x="880" d="M51 1315q0 82 28.5 152t79.5 121.5t122.5 81.5t158.5 30t159.5 -30t123 -81.5t78.5 -122t28 -151.5q0 -82 -28 -152t-78.5 -122t-123 -81.5t-159.5 -29.5t-158.5 29.5t-122.5 81.5t-79.5 122t-28.5 152zM223 1315q0 -113 57.5 -176.5t159.5 -63.5t159.5 63.5t57.5 176.5 q0 112 -57 175.5t-160 63.5q-102 0 -159.5 -64t-57.5 -175z" />
<glyph horiz-adv-x="785" d="M14 938l293 754h172l292 -754h-130q-23 0 -36 10.5t-20 27.5l-46 130h-293l-45 -130q-5 -14 -19.5 -26t-35.5 -12h-132zM289 1227h208l-72 204q-8 19 -16.5 45.5t-16.5 57.5q-8 -31 -15.5 -58t-16.5 -46z" />
<glyph horiz-adv-x="734" d="M98 938v754h274q78 0 132 -14.5t88.5 -41t50 -64.5t15.5 -84q0 -51 -29 -92.5t-97 -67.5q144 -37 145 -163q0 -48 -18.5 -89.5t-54.5 -72t-88 -48t-120 -17.5h-298zM266 1071h127q36 0 58.5 9t36 22.5t18 31.5t4.5 35q0 41 -25 64.5t-93 23.5h-126v-186zM266 1375h95 q60 0 94.5 18.5t34.5 72.5t-28.5 74t-89.5 20h-106v-185z" />
<glyph horiz-adv-x="830" d="M98 938v754h292q87 0 159.5 -28.5t123 -79t78.5 -119.5t28 -150q0 -82 -28 -150.5t-78.5 -119.5t-123 -79t-159.5 -28h-292zM268 1074h122q102 0 159 64t57 177q0 112 -56.5 176t-159.5 64h-122v-481z" />
<glyph horiz-adv-x="642" d="M98 938v754h484v-136h-314v-174h241v-131h-241v-177h313l1 -136h-484z" />
<glyph horiz-adv-x="791" d="M51 1315q0 84 28.5 154.5t80 121.5t124.5 80t165 29q94 0 163 -29.5t115 -72.5l-49 -77q-11 -17 -29.5 -22t-39.5 8q-20 12 -38 21.5t-37.5 15t-41.5 8t-50 2.5q-50 0 -90.5 -17t-69 -48.5t-44 -76t-15.5 -97.5q0 -59 17 -106t46.5 -78.5t71 -48t89.5 -16.5q39 0 68 6 t55 18v111h-78q-15 0 -24 9t-9 22v97h264v-319q-58 -43 -127 -61.5t-162 -18.5q-83 0 -153 29t-121 81t-80 122t-29 153z" />
<glyph horiz-adv-x="849" d="M98 938v754h170v-315h315v315h169v-754h-169v318h-315v-318h-170z" />
<glyph horiz-adv-x="365" d="M98 938v754h169v-754h-169z" />
<glyph horiz-adv-x="489" d="M28 943l9 103q2 14 10 22t26 8q8 0 22 -2.5t32 -2.5q52 0 77.5 29.5t25.5 107.5v484h169v-481q0 -63 -15.5 -115t-47 -88.5t-79.5 -57t-113 -20.5q-57 0 -116 13z" />
<glyph horiz-adv-x="777" d="M98 938v754h168v-304h30q39 0 55 24l176 245q14 19 31 27t43 8h145l-228 -304q-11 -16 -23.5 -27t-25.5 -20q37 -14 63 -53l234 -350h-151q-29 0 -42.5 8.5t-23.5 23.5l-177 261q-10 15 -24 21t-38 6h-44v-320h-168z" />
<glyph horiz-adv-x="540" d="M98 938v754h168v-613h284v-141h-452z" />
<glyph horiz-adv-x="1037" d="M98 938v754h129q22 0 33.5 -4t22.5 -23l199 -381q19 -38 37 -85q8 24 17.5 45.5t20.5 41.5l198 379q10 19 21.5 23t34.5 4h128v-754h-148v431q0 34 3 74l-204 -391q-19 -37 -60 -37h-22q-40 0 -59 37l-206 390q2 -19 3 -38t1 -35v-431h-149z" />
<glyph horiz-adv-x="849" d="M98 938v754h89q22 0 32 -5t24 -22l364 -453q-2 23 -3 44.5t-1 39.5v396h149v-754h-88q-36 0 -59 29l-361 446q3 -40 3 -75v-400h-149z" />
<glyph horiz-adv-x="700" d="M98 938v754h261q79 0 136.5 -19t94.5 -52.5t54.5 -78.5t17.5 -97q0 -56 -18.5 -103.5t-56 -81t-94.5 -52.5t-134 -19h-93v-251h-168zM266 1322h93q71 0 102.5 32t31.5 91q0 52 -32.5 83.5t-101.5 31.5h-93v-238z" />
<glyph horiz-adv-x="735" d="M98 938v754h243q81 0 138 -17t92.5 -47.5t52 -71t16.5 -89.5q0 -74 -39.5 -130.5t-113.5 -85.5q34 -17 57 -52l165 -261h-152q-42 0 -61 33l-131 218q-8 14 -19.5 20t-32.5 6h-47v-277h-168zM266 1338h74q73 0 104.5 34t31.5 83t-33 77t-102 28h-75v-222z" />
<glyph horiz-adv-x="653" d="M28 1551v141h598v-141h-215v-613h-168v613h-215z" />
<glyph horiz-adv-x="819" d="M88 1246v446h168v-446q0 -80 40 -124t114 -44q73 0 112.5 44t39.5 124v446h168v-446q0 -70 -22 -127.5t-63.5 -99.5t-101 -65.5t-133.5 -23.5q-75 0 -135 23.5t-101.5 65.5t-63.5 100t-22 127z" />
<glyph horiz-adv-x="1148" d="M29 1692h141q45 0 56 -38l108 -390q5 -19 9 -41.5t8 -45.5q5 24 11 45.5t12 41.5l126 390q5 14 20 26t36 12h49q22 0 35 -11t22 -27l124 -390q11 -36 22 -84q4 24 8 44.5t9 39.5l109 390q3 14 18.5 26t35.5 12h133l-232 -754h-154l-145 465q-4 11 -7.5 24t-7.5 27 l-14 -51l-147 -465h-153z" />
</font>
</defs>
</svg>
