<svg xmlns="http://www.w3.org/2000/svg" viewBox="0 0 142.42 142.42"><defs><style>.cls-1{fill:#f37433;fill-rule:evenodd;}.cls-2{fill:#e64122;}</style></defs><title>Asset 1</title><g id="Layer_2" data-name="Layer 2"><g id="Layer_1-2" data-name="Layer 1"><path class="cls-1" d="M71.21,33.18A19.49,19.49,0,1,1,51.72,52.67,19.49,19.49,0,0,1,71.21,33.18Z"/><path class="cls-1" d="M58.24,74.27H84.18a17.54,17.54,0,0,1,17.49,17.49h0v15.41a2.08,2.08,0,0,1-2.08,2.08H42.83a2.08,2.08,0,0,1-2.08-2.08V91.76h0A17.54,17.54,0,0,1,58.24,74.27Z"/><path class="cls-2" d="M71.21,0A71.21,71.21,0,1,1,20.86,20.86,71,71,0,0,1,71.21,0ZM24.54,110.82l86.28-86.28a61.21,61.21,0,0,0-86.28,86.28Zm93.35-79.21L31.61,117.89a61.21,61.21,0,0,0,86.28-86.28Z"/></g></g></svg>