<svg xmlns="http://www.w3.org/2000/svg" viewBox="0 0 141.11 140.86"><defs><style>.cls-1{fill:#e64122;}.cls-2{fill:#f37433;}</style></defs><title>Asset 1</title><g id="Layer_2" data-name="Layer 2"><g id="Layer_1-2" data-name="Layer 1"><path class="cls-1" d="M127.13,13.73a12.89,12.89,0,0,0-18.14,0L95.76,27,113.91,45.1l13.22-13.22a12.88,12.88,0,0,0,0-18.14ZM88.69,34,20,102.76,12.37,128.5l25.74-7.59,68.73-68.73L88.69,34ZM117.44,55.7h0L44.29,128.86h0a5,5,0,0,1-2.12,1.26L6.43,140.65A5,5,0,0,1,.2,134.47L10.66,99A5,5,0,0,1,12,96.57L101.92,6.66A22.83,22.83,0,0,1,134.2,38.95L117.44,55.7Z"/><path class="cls-2" d="M10.27,38a5,5,0,1,1,0-10H57.72a5,5,0,1,1,0,10Z"/><path class="cls-2" d="M10.27,15a5,5,0,1,1,0-10h72.4a5,5,0,1,1,0,10Z"/><path class="cls-2" d="M10.27,61a5,5,0,1,1,0-10h28a5,5,0,1,1,0,10Z"/><path class="cls-2" d="M10.27,83.94a5,5,0,1,1,0-10H17a5,5,0,0,1,0,10Z"/><path class="cls-2" d="M131,66.45a5,5,0,0,1,10-.66q.15,2.25.11,4.76t-.27,4.76a56.24,56.24,0,0,1-52.9,50.51l.65,7.06-8.2-5.51-8.2-5.51,7.06-6.91L86.3,108l.72,7.86a46.33,46.33,0,0,0,43.89-41.56q.2-2,.24-3.93T131,66.45Z"/></g></g></svg>