<svg xmlns="http://www.w3.org/2000/svg" viewBox="0 0 144.52 209.17"><defs><style>.cls-1{fill:#fff200;}.cls-1,.cls-2,.cls-3,.cls-4,.cls-5{fill-rule:evenodd;}.cls-2{fill:#d9dbdc;}.cls-3{fill:#fff;}.cls-5{fill:#ed1c24;}</style></defs><title>Asset 1</title><g id="Layer_2" data-name="Layer 2"><g id="Layer_1-2" data-name="Layer 1"><path class="cls-1" d="M75.76,73.65A66.76,66.76,0,1,1,9,140.41,66.76,66.76,0,0,1,75.76,73.65Z"/><path d="M75.76,71.65A68.76,68.76,0,1,1,27.14,91.79,68.55,68.55,0,0,1,75.76,71.65Zm45.79,23a64.76,64.76,0,1,0,19,45.79,64.56,64.56,0,0,0-19-45.79Z"/><path class="cls-2" d="M91.8,43.28l11.89,40.88L34,104.42,22,63.33A18.15,18.15,0,1,1,27,28.47,21.88,21.88,0,0,1,69.36,17.75,18.14,18.14,0,1,1,91.8,43.28Z"/><path d="M94.21,44.41,105.6,83.6a2,2,0,0,1-1.36,2.47L34.54,106.34A2,2,0,0,1,32.07,105L20.56,65.42A20.15,20.15,0,0,1,.81,50.9h0A20.13,20.13,0,0,1,14.52,25.94h0a20.05,20.05,0,0,1,10-.32,23.87,23.87,0,0,1,45.3-12.15A20.14,20.14,0,1,1,94.21,44.41Zm7,38.39L89.92,43.93a2,2,0,0,1,1.18-2.52,16.15,16.15,0,1,0-20-22.75,2,2,0,0,1-3.69-.35A19.88,19.88,0,0,0,28.91,28a2,2,0,0,1-2.69,2.33,16.06,16.06,0,0,0-10.43-.6l-.32.09A16.16,16.16,0,0,0,4.59,49.63a2,2,0,0,1,.09.32,16.16,16.16,0,0,0,17.15,11.4,2,2,0,0,1,2.12,1.43L35.34,102,101.22,82.8Z"/><path class="cls-3" d="M47.76,113.32a16.93,16.93,0,1,1-16.93,16.93,16.93,16.93,0,0,1,16.93-16.93Z"/><path class="cls-4" d="M41.43,127.8a7,7,0,1,1-7,7,7,7,0,0,1,7-7Z"/><path class="cls-3" d="M103.75,113.32a16.93,16.93,0,1,1-16.93,16.93,16.93,16.93,0,0,1,16.93-16.93Z"/><path class="cls-4" d="M97,127.8a7,7,0,1,1-7,7,7,7,0,0,1,7-7Z"/><path class="cls-5" d="M76,172.9l-11.92,0c.11,1,5.41,1.78,11.92,1.78s11.92-.81,11.92-1.81Z"/><path class="cls-5" d="M76.07,172.93H66.42c0-1.31,4.32-2.37,9.65-2.37s9.65,1.06,9.65,2.37Z"/><path class="cls-4" d="M75.28,167.58c-.65,4.59-6.55,5.63-10.32,5.66-13,.13-31-8.06-46.14-2.42,10.44-9.18,27.32-13,39.92-12.77,5.26.09,17.82.43,16.54,9.53Z"/><path class="cls-4" d="M76.24,167.58c.65,4.59,6.55,5.63,10.32,5.66,13,.13,31-8.06,46.14-2.42-10.44-9.18-27.32-13-39.92-12.77-5.26.09-17.82.43-16.54,9.53Z"/></g></g></svg>