<svg xmlns="http://www.w3.org/2000/svg" viewBox="0 0 94.23 142.47"><defs><style>.cls-1{fill:#693200;}.cls-1,.cls-2,.cls-3,.cls-4{fill-rule:evenodd;}.cls-2{fill:#e64122;stroke:#e64122;stroke-linecap:round;stroke-linejoin:round;stroke-width:1.5px;}.cls-3{fill:#f37433;}.cls-4{fill:#f37324;}</style></defs><title>Asset 1</title><g id="Layer_2" data-name="Layer 2"><g id="Layer_1-2" data-name="Layer 1"><path class="cls-1" d="M19.74,0H83.91a9.6,9.6,0,0,1,9.58,9.58V132.16a9.6,9.6,0,0,1-9.58,9.58H19.74a9.62,9.62,0,0,1-9.52-9.64c0-18.65,0-33.18-.06-51.58a8.92,8.92,0,0,1,.18-1.71c-3.75,6.32-12.49,3-9.85-6.28,1.63-5.7,9.3-10.6,9.65-17.63v-4.8c-2.2,4.43-9.63,2-10-3.59s4.6-7.93,7.53-11.25c1.36-1.54,2.38-3.66,2.53-7.61V9.51A9.5,9.5,0,0,1,19.74,0Z"/><path class="cls-2" d="M19.74,71H83.91a9.6,9.6,0,0,1,9.57,9.57v51.57a9.6,9.6,0,0,1-9.57,9.57H19.74a9.6,9.6,0,0,1-9.57-9.57V80.57A9.6,9.6,0,0,1,19.74,71Z"/><path class="cls-3" d="M49.62,13.68h6l.22,0,.22.06.21.08.2.1.19.11.17.13.16.15.15.16.13.17.11.19.1.2.08.21.06.22,0,.22V26.59l0,.22-.06.22-.08.21-.1.2-.11.19-.13.17-.15.16-.16.15-.17.13-.19.11-.2.1-.21.08-.22.06-.22,0H49.39l-.22,0L49,28.51l-.21-.08-.2-.1-.19-.11-.17-.13L48,28l-.15-.16-.13-.17-.11-.19-.1-.2L47.47,27l-.06-.22,0-.22V15.71l0-.22.06-.22.08-.21.1-.2.11-.19.13-.17.15-.16.16-.15.17-.13.19-.11.2-.1.21-.08.22-.06.22,0ZM47.94,9.3H57l.36,0,.35.05.34.09.33.12.31.15.3.18.28.21.25.23.23.25.21.28.18.3.15.31.12.33.09.34.05.35,0,.36V29.42l0,.36-.05.35-.09.34-.12.33-.15.31-.18.3-.21.28-.23.25-.25.23-.28.21-.3.18-.31.15-.33.12-.34.09L57.4,33,57,33H47.94l-.36,0-.35-.05-.34-.09-.33-.12-.31-.15-.3-.18-.28-.21-.25-.23-.23-.25L45,31.42l-.18-.3-.15-.31-.12-.33-.09-.34-.05-.35,0-.36V12.88l0-.36.05-.35.09-.34.12-.33.15-.31.18-.3.21-.28.23-.25.25-.23.28-.21.3-.18.31-.15.33-.12.34-.09.35-.05.36,0Z"/><path class="cls-3" d="M49.67,42.43h6l.22,0,.22.06.21.08.2.1.19.11.17.13.16.15.15.16.13.17.11.19.1.2.08.21.06.22,0,.22V55.33l0,.22-.06.22-.08.21-.1.2-.11.19-.13.17L57,56.7l-.16.15-.17.13-.19.11-.2.1-.21.08-.22.06-.22,0H49.44l-.22,0L49,57.26l-.21-.08-.2-.1L48.41,57l-.17-.13-.16-.15-.15-.16-.13-.17-.11-.19-.1-.2-.08-.21-.06-.22,0-.22V44.46l0-.22.06-.22.08-.21.1-.2.11-.19.13-.17.15-.16.16-.15.17-.13.19-.11.2-.1.21-.08.22-.06.22,0ZM48,38h9.09l.36,0,.35.05.34.09.33.12.31.15.3.18.28.21.25.23.23.25.21.28.18.3.15.31.12.33.09.34.05.35,0,.36V58.16l0,.36-.05.35-.09.34-.12.33-.15.31-.18.3-.21.28-.23.25-.25.23-.28.21-.3.18-.31.15-.33.12-.34.09-.35.05-.36,0H48l-.36,0-.35-.05-.34-.09-.33-.12-.31-.15-.3-.18-.28-.21-.25-.23-.23-.25L45,60.16l-.18-.3-.15-.31-.12-.33-.09-.34-.05-.35,0-.36V41.63l0-.36.05-.35.09-.34.12-.33.15-.31.18-.3.21-.28.23-.25.25-.23.28-.21.3-.18.31-.15.33-.12.34-.09.35-.05L48,38Z"/><path class="cls-4" d="M71.88,13.68h6l.22,0,.22.06.21.08.2.1.19.11.17.13.16.15.15.16.13.17.11.19.1.2.08.21.06.22,0,.22V26.59l0,.22-.06.22-.08.21-.1.2-.11.19-.13.17L79.2,28,79,28.1l-.17.13-.19.11-.2.1-.21.08-.22.06-.22,0H71.65l-.22,0-.22-.06L71,28.44l-.2-.1-.19-.11-.17-.13L70.29,28l-.15-.16L70,27.62l-.11-.19-.1-.2L69.72,27l-.06-.22,0-.22V15.71l0-.22.06-.22.08-.21.1-.2.11-.19.13-.17.15-.16.16-.15.17-.13.19-.11.2-.1.21-.08.22-.06.22,0ZM70.2,9.3h9.09l.36,0,.35.05.34.09.33.12.31.15.3.18.28.21.25.23.23.25.21.28.18.3.15.31.12.33.09.34.05.35,0,.36V29.42l0,.36-.05.35-.09.34-.12.33-.15.31-.18.3-.21.28-.23.25-.25.23-.28.21-.3.18-.31.15-.33.12-.34.09-.35.05-.36,0H70.2l-.36,0-.35-.05-.34-.09-.33-.12-.31-.15-.3-.18-.28-.21-.25-.23-.23-.25-.21-.28-.18-.3-.15-.31-.12-.33-.09-.34-.05-.35,0-.36V12.88l0-.36.05-.35.09-.34.12-.33.15-.31.18-.3.21-.28.23-.25.25-.23.28-.21.3-.18.31-.15.33-.12.34-.09.35-.05.36,0Z"/><path class="cls-4" d="M71.88,42.43h6l.22,0,.22.06.21.08.2.1.19.11.17.13.16.15.15.16.13.17.11.19.1.2.08.21.06.22,0,.22V55.33l0,.22-.06.22-.08.21-.1.2-.11.19-.13.17-.15.16-.16.15-.17.13-.19.11-.2.1-.21.08-.22.06-.22,0H71.65l-.22,0-.22-.06L71,57.18l-.2-.1L70.62,57l-.17-.13-.16-.15-.15-.16L70,56.36l-.11-.19-.1-.2-.08-.21-.06-.22,0-.22V44.46l0-.22.06-.22.08-.21.1-.2.11-.19.13-.17.15-.16.16-.15.17-.13.19-.11.2-.1.21-.08.22-.06.22,0ZM70.2,38h9.09l.36,0,.35.05.34.09.33.12.31.15.3.18.28.21.25.23.23.25.21.28.18.3.15.31.12.33.09.34.05.35,0,.36V58.16l0,.36-.05.35-.09.34-.12.33-.15.31-.18.3-.21.28-.23.25-.25.23-.28.21-.3.18-.31.15-.33.12-.34.09-.35.05-.36,0H70.2l-.36,0-.35-.05-.34-.09-.33-.12-.31-.15-.3-.18-.28-.21-.25-.23-.23-.25-.21-.28-.18-.3-.15-.31-.12-.33-.09-.34-.05-.35,0-.36V41.63l0-.36.05-.35.09-.34.12-.33.15-.31.18-.3.21-.28.23-.25.25-.23.28-.21.3-.18.31-.15.33-.12.34-.09.35-.05.36,0Z"/><path class="cls-3" d="M26,13.68h6l.22,0,.22.06.21.08.2.1.19.11.17.13.16.15.15.16.13.17.11.19.1.2.08.21.06.22,0,.22V26.59l0,.22-.06.22-.08.21-.1.2-.11.19-.13.17-.15.16-.16.15-.17.13-.19.11-.2.1-.21.08-.22.06-.22,0H25.79l-.22,0-.22-.06-.21-.08-.2-.1-.19-.11-.17-.13L24.43,28l-.15-.16-.13-.17L24,27.43l-.1-.2L23.87,27l-.06-.22,0-.22V15.71l0-.22.06-.22.08-.21.1-.2.11-.19.13-.17.15-.16.16-.15.17-.13.19-.11.2-.1.21-.08.22-.06.22,0ZM24.34,9.3h9.09l.36,0,.35.05.34.09.33.12.31.15.3.18.28.21.25.23.23.25.21.28.18.3.15.31.12.33.09.34.05.35,0,.36V29.42l0,.36-.05.35-.09.34-.12.33-.15.31-.18.3-.21.28-.23.25-.25.23-.28.21-.3.18-.31.15-.33.12-.34.09L33.8,33l-.36,0H24.34L24,33l-.35-.05-.34-.09-.33-.12-.31-.15-.3-.18-.28-.21-.25-.23-.23-.25-.21-.28-.18-.3L21,30.81l-.12-.33-.09-.34-.05-.35,0-.36V12.88l0-.36.05-.35.09-.34.12-.33.15-.31.18-.3.21-.28.23-.25.25-.23.28-.21.3-.18.31-.15.33-.12.34-.09L24,9.32l.36,0Z"/><path class="cls-3" d="M26,42.43h6l.22,0,.22.06.21.08.2.1.19.11.17.13.16.15.15.16.13.17.11.19.1.2.08.21.06.22,0,.22V55.33l0,.22-.06.22-.08.21-.1.2-.11.19-.13.17-.15.16-.16.15L33,57l-.19.11-.2.1-.21.08-.22.06-.22,0H25.79l-.22,0-.22-.06-.21-.08-.2-.1L24.76,57l-.17-.13-.16-.15-.15-.16-.13-.17L24,56.18l-.1-.2-.08-.21-.06-.22,0-.22V44.46l0-.22.06-.22.08-.21.1-.2.11-.19.13-.17.15-.16.16-.15.17-.13.19-.11.2-.1.21-.08.22-.06.22,0ZM24.34,38h9.09l.36,0,.35.05.34.09.33.12.31.15.3.18.28.21.25.23.23.25.21.28.18.3.15.31.12.33.09.34.05.35,0,.36V58.16l0,.36-.05.35-.09.34-.12.33-.15.31-.18.3-.21.28-.23.25-.25.23-.28.21-.3.18-.31.15-.33.12-.34.09-.35.05-.36,0H24.34l-.36,0-.35-.05-.34-.09-.33-.12-.31-.15-.3-.18-.28-.21-.25-.23-.23-.25-.21-.28-.18-.3L21,59.55l-.12-.33-.09-.34-.05-.35,0-.36V41.63l0-.36.05-.35.09-.34.12-.33.15-.31.18-.3.21-.28.23-.25.25-.23.28-.21.3-.18.31-.15.33-.12.34-.09.35-.05.36,0Z"/></g></g></svg>