<svg xmlns="http://www.w3.org/2000/svg" viewBox="0 0 103.48 151.73"><defs><style>.cls-1{fill:#e64122;stroke:#f37433;stroke-linecap:round;stroke-linejoin:round;stroke-width:10px;}.cls-1,.cls-2{fill-rule:evenodd;}.cls-2{fill:#f37433;}</style></defs><title>Asset 1</title><g id="Layer_2" data-name="Layer 2"><g id="Layer_1-2" data-name="Layer 1"><path class="cls-1" d="M24.74,5H88.91a9.6,9.6,0,0,1,9.58,9.58V137.16a9.6,9.6,0,0,1-9.58,9.58H24.74a9.62,9.62,0,0,1-9.52-9.64c0-18.65,0-33.18-.06-51.58a8.92,8.92,0,0,1,.18-1.71c-3.75,6.32-12.49,3-9.85-6.28,1.63-5.7,9.3-10.6,9.65-17.63v-4.8c-2.2,4.43-9.63,2-10-3.59s4.6-7.93,7.53-11.25c1.36-1.54,2.38-3.66,2.53-7.61V14.51A9.5,9.5,0,0,1,24.74,5Z"/><path class="cls-1" d="M24.74,76H88.91a9.6,9.6,0,0,1,9.57,9.57v51.57a9.6,9.6,0,0,1-9.57,9.57H24.74a9.6,9.6,0,0,1-9.57-9.57V85.57A9.6,9.6,0,0,1,24.74,76Z"/><path class="cls-2" d="M29.36,14.28h9.09A3.59,3.59,0,0,1,42,17.87V34.4A3.59,3.59,0,0,1,38.46,38H29.36a3.59,3.59,0,0,1-3.58-3.58V17.87a3.59,3.59,0,0,1,3.58-3.58Z"/><path class="cls-2" d="M52.28,14.28h9.09A3.59,3.59,0,0,1,65,17.87V34.4A3.59,3.59,0,0,1,61.37,38H52.28A3.59,3.59,0,0,1,48.7,34.4V17.87a3.59,3.59,0,0,1,3.58-3.58Z"/><path class="cls-2" d="M75.2,14.28h9.09a3.59,3.59,0,0,1,3.58,3.58V34.4A3.59,3.59,0,0,1,84.29,38H75.2a3.59,3.59,0,0,1-3.58-3.58V17.87a3.59,3.59,0,0,1,3.58-3.58Z"/><path class="cls-2" d="M29.36,43.41h9.09A3.59,3.59,0,0,1,42,47V63.52a3.59,3.59,0,0,1-3.58,3.58H29.36a3.59,3.59,0,0,1-3.58-3.58V47a3.59,3.59,0,0,1,3.58-3.58Z"/><path class="cls-2" d="M52,43.41h9.09A3.59,3.59,0,0,1,64.67,47V63.52a3.59,3.59,0,0,1-3.58,3.58H52a3.59,3.59,0,0,1-3.58-3.58V47A3.59,3.59,0,0,1,52,43.41Z"/><path class="cls-2" d="M75.2,43.41h9.09A3.59,3.59,0,0,1,87.87,47V63.52a3.59,3.59,0,0,1-3.58,3.58H75.2a3.59,3.59,0,0,1-3.58-3.58V47a3.59,3.59,0,0,1,3.58-3.58Z"/></g></g></svg>