<svg xmlns="http://www.w3.org/2000/svg" viewBox="0 0 165.93 150.03"><defs><style>.cls-1,.cls-3{fill:#fff200;}.cls-1,.cls-2,.cls-5{fill-rule:evenodd;}.cls-4{fill:#407fe5;}.cls-5{fill:#fff;}</style></defs><title>Asset 1</title><g id="Layer_2" data-name="Layer 2"><g id="Layer_1-2" data-name="Layer 1"><path class="cls-1" d="M97.17,2A66.76,66.76,0,1,1,30.41,68.76,66.76,66.76,0,0,1,97.17,2Z"/><path d="M97.17,0A68.76,68.76,0,1,1,48.55,20.14,68.55,68.55,0,0,1,97.17,0ZM143,23a64.76,64.76,0,1,0,19,45.79A64.56,64.56,0,0,0,143,23Z"/><path class="cls-2" d="M97.17,78.86H68.07a29.1,29.1,0,1,0,58.2,0Z"/><path class="cls-3" d="M71.25,97.29h0L58.07,84.11a5.07,5.07,0,0,0-8.05,6l-.27,0L38.5,78.88A5.07,5.07,0,0,0,31.31,86l-4.51-4.51a5.07,5.07,0,0,0-7.17,7.17l1.49,1.49a5.07,5.07,0,0,0-5.56,8.26L28.49,111.4h0L20,102.9a5.07,5.07,0,0,0-7.17,7.17L35.6,132.85A25.18,25.18,0,0,0,71.25,97.29Z"/><path d="M31,115.57a1.69,1.69,0,0,1-1.17-.48l-11-11a3.4,3.4,0,0,0-1.1-.72,3.48,3.48,0,0,0-2.61,0A3.43,3.43,0,0,0,14,108.9l22.78,22.78a23.45,23.45,0,0,0,16.63,6.88h0A23.53,23.53,0,0,0,70.08,98.45C69,97.31,56.9,85.3,56.9,85.28a3.45,3.45,0,0,0-3.73-.74,3.44,3.44,0,0,0-1.11.74h0a3.46,3.46,0,0,0-.59,4,1.65,1.65,0,0,1,0,1.53,1.63,1.63,0,0,1-.51.6,1.66,1.66,0,0,1-.74.29l-.24,0a1.61,1.61,0,0,1-.76-.06,1.66,1.66,0,0,1-.65-.4L37.33,80.05a3.43,3.43,0,0,0-4.84,0h0a3.43,3.43,0,0,0,0,4.84h0a1.64,1.64,0,0,1,0,2.33h0a1.65,1.65,0,0,1-2.33,0L25.64,82.7a3.43,3.43,0,0,0-4.84,0h0a3.43,3.43,0,0,0,0,4.84l1.28,1.28a6.7,6.7,0,0,1,.88.51,6.8,6.8,0,0,1,.94.78l15.46,15.46a1.65,1.65,0,0,1,0,2.34h0a1.64,1.64,0,0,1-2.33,0L21.56,92.45a3.28,3.28,0,0,0-.49-.41,3.37,3.37,0,0,0-.53-.3l-.06,0-.34-.12-.34-.08-.11,0-.27,0h-.28a3.5,3.5,0,0,0-.71.07,3.39,3.39,0,0,0-.67.22l-.37.19h0l-.14.09h0l0,0a2.67,2.67,0,0,1-.36.28h0l-.14.13a3.43,3.43,0,0,0,0,4.84l15.46,15.46a1.65,1.65,0,0,1-.54,2.69,1.63,1.63,0,0,1-.63.13ZM14.73,100l-.35-.35a6.72,6.72,0,0,1,0-9.5s.46-.42.5-.46h0a6.22,6.22,0,0,1,1-.65h0l.44-.22a6.46,6.46,0,0,1,1.05-.39,6.72,6.72,0,0,1,10.63-8l.43.43q.08-.3.18-.6a6.7,6.7,0,0,1,1.57-2.48h0a6.72,6.72,0,0,1,9.5,0L48,86q.08-.31.18-.61a6.68,6.68,0,0,1,1.57-2.48h0a6.71,6.71,0,0,1,2.18-1.46h0a6.7,6.7,0,0,1,7.32,1.46c4.33,4.33,9.08,8.78,13.23,13.23A26.88,26.88,0,0,1,72.38,134h0a26.84,26.84,0,0,1-37.94,0L11.65,111.24a6.73,6.73,0,0,1,0-9.51h0a6.69,6.69,0,0,1,2.48-1.57q.3-.11.6-.18Z"/><path class="cls-3" d="M79.34,95.47h0L66.16,82.29a5.07,5.07,0,0,0-8.05,6l-.27,0L46.59,77.07a5.07,5.07,0,0,0-7.18,7.16L34.9,79.72a5.07,5.07,0,1,0-7.17,7.17l1.49,1.49a5.07,5.07,0,0,0-5.56,8.26l4.44,4.44a5.07,5.07,0,1,0-7.17,7.17L43.69,131A25.18,25.18,0,0,0,79.34,95.47Z"/><path d="M24.5,101.25a3.41,3.41,0,0,0-2.42,5.84l22.78,22.78a23.48,23.48,0,0,0,33.27,0h0a23.56,23.56,0,0,0,0-33.23L65,83.46a3.4,3.4,0,0,0-4.84,0h0a3.46,3.46,0,0,0-.59,4,1.75,1.75,0,0,1,.13.34L70.46,98.6a1.65,1.65,0,0,1-.54,2.69,1.63,1.63,0,0,1-.63.13,1.65,1.65,0,0,1-1.17-.49L45.42,78.23a3.43,3.43,0,0,0-4.84,0h0a3.41,3.41,0,0,0,0,4.84L54.36,96.84a1.65,1.65,0,0,1-.54,2.69h0a1.61,1.61,0,0,1-1.26,0h0a1.66,1.66,0,0,1-.54-.36L33.73,80.89a3.42,3.42,0,0,0-4.84,4.84L30.17,87A6.79,6.79,0,0,1,32,88.3l15.46,15.46a1.65,1.65,0,0,1-2.34,2.33L29.65,90.64A3.42,3.42,0,0,0,25,90.45c-.14.13-.25.24-.38.38a3.44,3.44,0,0,0,0,4.45c4.89,5.26,10.57,10.58,15.64,15.65a1.65,1.65,0,0,1,0,2.33h0a1.65,1.65,0,0,1-.54.36h0a1.66,1.66,0,0,1-1.8-.36L26.88,102.21a3.36,3.36,0,0,0-1.09-.71,3.42,3.42,0,0,0-1.29-.25Zm-1.68-3.09-.35-.35a6.72,6.72,0,0,1,0-9.5l.39-.36a6.72,6.72,0,0,1,2-1.2l.53-.17a6.64,6.64,0,0,1-.34-.71,6.72,6.72,0,0,1,0-5.12h0a6.75,6.75,0,0,1,3.64-3.64h0a6.72,6.72,0,0,1,5.14,0h0a6.71,6.71,0,0,1,2.18,1.46l.42.43a6.78,6.78,0,0,1,.3-.9h0a6.71,6.71,0,0,1,1.46-2.18h0a6.73,6.73,0,0,1,9.51,0l8.31,8.32q.08-.31.18-.6a6.68,6.68,0,0,1,1.57-2.48h0a6.73,6.73,0,0,1,9.51,0c4.4,4.4,8.86,8.77,13.21,13.21a26.83,26.83,0,0,1-38,37.87L19.74,109.42a6.77,6.77,0,0,1-1.46-2.18,6.72,6.72,0,0,1,3.94-8.9q.3-.11.6-.18Z"/><path class="cls-4" d="M52,69a.65.65,0,0,1-.65-.65V53.72a.65.65,0,0,1,1.31,0V68.35A.65.65,0,0,1,52,69Z"/><path class="cls-4" d="M59,72.64a.65.65,0,0,1-.59-.93l6.71-14.63a.65.65,0,0,1,1.19.54L59.6,72.26a.65.65,0,0,1-.59.38Z"/><path class="cls-4" d="M65.72,76a.65.65,0,0,1-.42-1.16l11.53-9.52a.65.65,0,0,1,.83,1L66.14,75.8a.65.65,0,0,1-.42.15Z"/><path class="cls-4" d="M16.9,150a.65.65,0,0,1-.32-.08.65.65,0,0,1-.26-.89l7.08-12.8a.65.65,0,0,1,1.14.63l-7.08,12.8a.65.65,0,0,1-.57.34Z"/><path class="cls-4" d="M6.67,140.22A.65.65,0,0,1,6.28,139l13-9.56a.65.65,0,1,1,.78,1.05l-13,9.56a.65.65,0,0,1-.39.13Z"/><path class="cls-4" d="M.65,127.27A.65.65,0,0,1,.53,126l14.7-2.75a.65.65,0,1,1,.24,1.28L.77,127.26Z"/><path class="cls-5" d="M69.18,26.3A16.93,16.93,0,1,1,52.25,43.23,16.93,16.93,0,0,1,69.18,26.3Z"/><path class="cls-2" d="M68.67,36.24a7,7,0,1,1-7,7,7,7,0,0,1,7-7Z"/><path class="cls-5" d="M125.17,26.3a16.93,16.93,0,1,1-16.93,16.93A16.93,16.93,0,0,1,125.17,26.3Z"/><path class="cls-2" d="M124.81,36.61a7,7,0,1,1-7,7,7,7,0,0,1,7-7Z"/></g></g></svg>