<svg xmlns="http://www.w3.org/2000/svg" viewBox="0 0 139.88 151.73"><defs><style>.cls-1{fill:none;stroke:#000;stroke-linecap:round;stroke-linejoin:round;stroke-width:10px;}</style></defs><title>Asset 1</title><g id="Layer_2" data-name="Layer 2"><g id="Layer_1-2" data-name="Layer 1"><path class="cls-1" d="M63.13,124.29H34.93a31.15,31.15,0,0,1-21-8A26.53,26.53,0,0,1,5,96.65v-64C5,16.55,19.48,5,34.93,5h70a31.16,31.16,0,0,1,21,8,26.53,26.53,0,0,1,8.9,19.6v64a26.53,26.53,0,0,1-8.9,19.6,31.15,31.15,0,0,1-21,8h-.26l-13,21a3.09,3.09,0,0,1-4.72.69l-23.8-21.64Z"/></g></g></svg>