<svg xmlns="http://www.w3.org/2000/svg" viewBox="0 0 141.71 141.79"><defs><style>.cls-1{fill:#e64122;}.cls-2,.cls-3{fill:#f37433;}.cls-2{stroke:#f37433;stroke-linecap:round;stroke-linejoin:round;stroke-width:0.57px;}</style></defs><title>Asset 1</title><g id="Layer_2" data-name="Layer 2"><g id="Layer_1-2" data-name="Layer 1"><path class="cls-1" d="M116.1,90a15.27,15.27,0,1,1-10.79,4.47A15.22,15.22,0,0,1,116.1,90Zm3.72,11.54a5.27,5.27,0,1,0,1.54,3.72,5.25,5.25,0,0,0-1.54-3.72Z"/><path class="cls-1" d="M116.1,141.78l-20.63,0a5,5,0,0,1-5-5,25.61,25.61,0,0,1,51.22,0,5,5,0,0,1-5,5l-20.63,0Zm-14.83-10,14.83,0,14.83,0a15.66,15.66,0,0,0-29.67,0Z"/><path class="cls-1" d="M25.61,90a15.27,15.27,0,1,1-10.79,4.47A15.22,15.22,0,0,1,25.61,90Zm3.72,11.54a5.27,5.27,0,1,0,1.54,3.72,5.25,5.25,0,0,0-1.54-3.72Z"/><path class="cls-1" d="M25.61,141.78,5,141.75a5,5,0,0,1-5-5,25.61,25.61,0,0,1,51.22,0,5,5,0,0,1-5,5l-20.63,0Zm-14.83-10,14.83,0,14.83,0a15.66,15.66,0,0,0-29.67,0Z"/><path class="cls-1" d="M29,0h86.54A18.48,18.48,0,0,1,134,18.44V45.21A18.51,18.51,0,0,1,121.1,62.79v11a5,5,0,0,1-10,0V63.65H75.94v1.16a5,5,0,1,1-10,0V63.65H30.61V73.83a5,5,0,0,1-10,0V62.74A18.51,18.51,0,0,1,7.89,45.21V21.12A21.17,21.17,0,0,1,29,0Zm86.54,10H29A11.16,11.16,0,0,0,17.89,21.12V45.21a8.48,8.48,0,0,0,8.44,8.44h89.22A8.48,8.48,0,0,0,124,45.21V18.44A8.48,8.48,0,0,0,115.55,10Z"/><path class="cls-2" d="M33.23,29.11a5,5,0,1,1,0-10h75.41a5,5,0,1,1,0,10Z"/><path class="cls-3" d="M33.23,44.54a5,5,0,1,1,0-10h75.41a5,5,0,1,1,0,10Z"/><path class="cls-1" d="M70.94,75.66a18.79,18.79,0,1,1-13.28,5.5,18.72,18.72,0,0,1,13.28-5.5Zm6.21,12.57a8.79,8.79,0,1,0,2.57,6.21,8.76,8.76,0,0,0-2.57-6.21Z"/><path class="cls-1" d="M70.94,141.79l-27.7,0a5,5,0,0,1-5-5,32.68,32.68,0,0,1,65.36,0,5,5,0,0,1-5,5l-27.7,0Zm-22.16-10,22.16,0,22.16,0a22.73,22.73,0,0,0-44.33,0Z"/></g></g></svg>