<svg xmlns="http://www.w3.org/2000/svg" viewBox="0 0 92.05 144.19"><defs><style>.cls-1{fill:#f37433;}.cls-2{fill:#e64122;}</style></defs><title>Asset 1</title><g id="Layer_2" data-name="Layer 2"><g id="Layer_1-2" data-name="Layer 1"><path class="cls-1" d="M86.34,56.15a5,5,0,1,1-3.16,9.45l-3.91-1.32a5,5,0,1,1,3.16-9.45l3.91,1.32Z"/><path class="cls-1" d="M67.05,12A5,5,0,1,1,75,18l-2.5,3.29a5,5,0,1,1-7.93-6L67.05,12Z"/><path class="cls-1" d="M18.06,17.58A5,5,0,1,1,26.3,12l2.32,3.42A5,5,0,0,1,20.38,21l-2.32-3.42Z"/><path class="cls-1" d="M8,64.76a5,5,0,1,1-2.66-9.61l4-1.1A5,5,0,0,1,12,63.66l-4,1.1Z"/><path class="cls-2" d="M85,128.08v16.11H7.08V128.08q0-.42-.08-.81c0-.48-.05-.9-.05-1.25v-6.13a18.21,18.21,0,0,1,18.17-18.17h5.46l1.13-19.51-9.37,4.92a5,5,0,0,1-7.19-5.37h0L20.2,56.1,1.51,37.85A5,5,0,0,1,4.4,29.33h0l26-3.11L41.93,2.78a5,5,0,0,1,9,.12l11,23.71,25.85,3.77a5,5,0,0,1,2.59,8.7L71.28,56.75l4.4,25.77a5,5,0,0,1-7.62,5l-9-5,1.34,19.17h6.49a18.21,18.21,0,0,1,18.17,18.17V126c0,.34,0,.76-.05,1.25q0,.4-.08.81ZM34.64,69.43l.25-.14,8.34-4.39a5,5,0,0,1,3.06-.52h.05a5,5,0,0,1,1.55.51h0l7.9,4.19A5,5,0,0,1,57,70l7.11,4L61,55.78h0a5,5,0,0,1,1.52-4.49L76,38.76,57.81,36.1A5,5,0,0,1,54,33.25L46.25,16.55l-8,16.25a5,5,0,0,1-4,3L15.93,38l13,12.64a5,5,0,0,1,1.64,4.74L27,73.46l7.68-4Zm14,7.31L45.5,75,42,76.81l-1.45,24.92h9.84l-1.75-25ZM75,134.19v-6.6l.06-.42c0-.17,0-.36.06-.56s0-.31,0-.58v-6.13a8.2,8.2,0,0,0-8.17-8.17H25.12A8.2,8.2,0,0,0,17,119.89V126c0,.27,0,.46,0,.58s0,.4.06.56l.06.42v6.6Z"/></g></g></svg>