<svg xmlns="http://www.w3.org/2000/svg" viewBox="0 0 141.18 131.33"><defs><style>.cls-1{fill:#e64122;}.cls-2,.cls-3{fill:#f37433;}.cls-2{fill-rule:evenodd;}</style></defs><g id="Layer_2" data-name="Layer 2"><g id="Layer_1-2" data-name="Layer 1"><path class="cls-1" d="M19.75,3.55H26v10H19.75A9.8,9.8,0,0,0,10,23.3v88.29a9.78,9.78,0,0,0,9.75,9.74H121.43a9.78,9.78,0,0,0,9.75-9.74V23.3a9.8,9.8,0,0,0-9.75-9.75h-3.21v-10h3.21A19.8,19.8,0,0,1,141.18,23.3v88.29a19.79,19.79,0,0,1-19.75,19.74H19.75A19.79,19.79,0,0,1,0,111.59V23.3A19.8,19.8,0,0,1,19.75,3.55Zm88.47,10h-3.79v-10h3.79v10Zm-13.79,0h-12v-10h12v10Zm-22,0H68.69v-10h3.79v10Zm-13.79,0H49.83v-10h8.86v10ZM36,3.55h3.79v10H36v-10Z"/><path class="cls-1" d="M5,44.35a5,5,0,0,1,0-10H136.18a5,5,0,0,1,0,10Z"/><path class="cls-2" d="M38.78,0H37.09a1.08,1.08,0,0,0-.74.31,1.08,1.08,0,0,0-.31.74V15a1.06,1.06,0,0,0,.31.74,1.08,1.08,0,0,0,.74.31h1.69a1.06,1.06,0,0,0,1-1.05v-14a1.08,1.08,0,0,0-.31-.74A1.06,1.06,0,0,0,38.78,0Z"/><path class="cls-2" d="M107.17,0h-1.69a1.06,1.06,0,0,0-.74.31,1.08,1.08,0,0,0-.31.74V15a1.06,1.06,0,0,0,1,1.05h1.69a1.08,1.08,0,0,0,.74-.31,1.06,1.06,0,0,0,.31-.74v-14a1.08,1.08,0,0,0-.31-.74,1.08,1.08,0,0,0-.74-.31Z"/><path class="cls-2" d="M71.43,0H69.74A1.08,1.08,0,0,0,69,.31a1.08,1.08,0,0,0-.31.74V15a1.06,1.06,0,0,0,.31.74,1.08,1.08,0,0,0,.74.31h1.69a1,1,0,0,0,.74-.31,1.06,1.06,0,0,0,.31-.74v-14a1.08,1.08,0,0,0-.31-.74A1,1,0,0,0,71.43,0Z"/><polygon class="cls-2" points="55.51 103.68 58.75 87.25 46.77 75.56 63.39 73.56 70.81 58.55 77.84 73.75 94.41 76.17 82.13 87.55 84.95 104.05 70.33 95.9 55.51 103.68 55.51 103.68"/><path class="cls-3" d="M50.61,102.72l2.72-13.79-10-9.8a5,5,0,0,1,2.89-8.52h0l13.94-1.67,6.22-12.58a5,5,0,0,1,9,.12L81.23,69.2l13.88,2a5,5,0,0,1,2.59,8.69L87.51,89.37l2.36,13.84a5,5,0,0,1-7.61,5.05l-12-6.7-12.45,6.53a5,5,0,0,1-7.19-5.37Zm13-14.51-1.23,6.21,5.41-2.84a5,5,0,0,1,4.92,0l5.53,3.08-1.07-6.23h0a5,5,0,0,1,1.52-4.49l4.64-4.3-6.23-.91a5,5,0,0,1-3.83-2.85l-2.65-5.73L68,75.52a5,5,0,0,1-4,3l-6.27.76L62,83.47a5,5,0,0,1,1.64,4.74Z"/></g></g></svg>