<svg xmlns="http://www.w3.org/2000/svg" viewBox="0 0 136.18 136.62"><defs><style>.cls-1{fill:#e64122;}.cls-2{fill:#f37433;fill-rule:evenodd;}</style></defs><title>Asset 1</title><g id="Layer_2" data-name="Layer 2"><g id="Layer_1-2" data-name="Layer 1"><path class="cls-1" d="M26.71,2.46H94.36A11.34,11.34,0,0,0,89.77,4.2a9.76,9.76,0,0,0-4,5,13.31,13.31,0,0,0-.72,3.29H26.71A16.78,16.78,0,0,0,10,29.17V109.9a16.78,16.78,0,0,0,16.71,16.71H107a16.78,16.78,0,0,0,16.71-16.71V55.26h0c.71-.42,1.39-.84,2-1.27a32.85,32.85,0,0,0,8-7.47V109.9A26.78,26.78,0,0,1,107,136.62H26.71A26.78,26.78,0,0,1,0,109.9V29.17A26.78,26.78,0,0,1,26.71,2.46ZM96.09,12.3l-.46.1-.23.08-.19.08a2.69,2.69,0,0,1,.88-.26ZM98,36.84l.12.25L98,36.86v0Zm22.48,8.7a23.51,23.51,0,0,0,2.3-1.79l.21-.17a23.45,23.45,0,0,1-2.51,2Zm3.46-2.87q.53-.54,1-1.12l.15-.17q-.56.66-1.18,1.29Zm-34.65-1-.15-.27h0l.14.28Z"/><path class="cls-1" d="M105.45,78.33a36.92,36.92,0,0,1,.21,3.79,38.3,38.3,0,0,1-11.92,27.35,46.17,46.17,0,0,1-27.37,12.84,44.7,44.7,0,0,1-4.6.25,43.72,43.72,0,0,1,0-87.44c4.44,0,4.71,1.81,5,5.13a50.29,50.29,0,0,0,3.3,14c2.66,6.4,5.69,6.25,8.15,6.12,6.7-.34,11.93-.6,12.69,13.41,0,.36,2.39.27,4.29.17l2-.16c4.49-.38,7.63-.65,8.17,4.58Zm-18.7,24A28.7,28.7,0,0,0,95.6,83.88c-6.28.32-14.12-.49-14.62-9.63-.22-4.06-1.11-4-2.26-4-5.6.28-12.48.63-17.84-12.26A56.55,56.55,0,0,1,57.42,45.4a33.72,33.72,0,0,0,4.35,67.17,34.91,34.91,0,0,0,3.59-.17,36.08,36.08,0,0,0,21.39-10Z"/><path class="cls-2" d="M43,61.68a7.09,7.09,0,1,1-7.09,7.09A7.09,7.09,0,0,1,43,61.68Z"/><path class="cls-2" d="M79.32,83a7.09,7.09,0,1,1-7.09,7.09A7.09,7.09,0,0,1,79.32,83Z"/><path class="cls-2" d="M27.52,23.46a7.09,7.09,0,1,1-7.09,7.09,7.09,7.09,0,0,1,7.09-7.09Z"/><path class="cls-2" d="M52.4,87.86a7.09,7.09,0,1,1-7.09,7.09,7.09,7.09,0,0,1,7.09-7.09Z"/><path class="cls-2" d="M89.94,15.37c0,6.9-.15,11.36,1.53,18.09A27.64,27.64,0,0,0,96.69,44a29.36,29.36,0,0,0,8.62,7.18c.77.4,1.47.79,2.3,1.2a15.24,15.24,0,0,0,5.87,1.87,29.29,29.29,0,0,0,5.09-1.91A38.66,38.66,0,0,0,123,49.83a28.44,28.44,0,0,0,12.27-19.22c1-5.73.88-9.43.88-15.24,0-.38,0-.79,0-1.17a12.22,12.22,0,0,0-.46-3.14A5.71,5.71,0,0,0,132,7.62c-1.3-.44-4.73-.37-8.06-1.48l-3.37-1.4a25.12,25.12,0,0,1-4.24-3C115,.62,114.81,0,112.73,0c-1.68,0-3.35,2.41-5.72,3.82-.48.28-.94.59-1.46.88L102.2,6.11c-4.42,1.47-7.23.65-9.71,2.27-2.09,1.36-2.42,3.41-2.55,5.72,0,.4,0,.87,0,1.27Zm12.21,13a3,3,0,0,1,1-2.41,4.09,4.09,0,0,1,2.63-.79A4,4,0,0,1,108,26.31a17.61,17.61,0,0,1,1.66,1.62c1.1-1.05,3.24-3.22,4.57-4.57l1-1c.21-.21.44-.47.69-.75a17.21,17.21,0,0,1,2.38-2.31c1.62-1.2,3.38-1.65,4.9.4,1.9,2.56-.18,4.51-2.73,6.9-.43.41-.88.83-1.39,1.34l-5,5c-4.53,4.53-4.56,4.51-9.12-.07l-.64-.64-.4-.38a4.48,4.48,0,0,1-1.9-3.36Z"/></g></g></svg>