<svg xmlns="http://www.w3.org/2000/svg" viewBox="0 0 137.52 146.72"><defs><style>.cls-1{fill:#fff;}.cls-2{fill:#fff200;}.cls-2,.cls-3,.cls-4{fill-rule:evenodd;}.cls-3{fill:#00aeef;}</style></defs><title>Asset 1</title><g id="Layer_2" data-name="Layer 2"><g id="Layer_1-2" data-name="Layer 1"><path class="cls-1" d="M65.24,84.28c.87,0,1.4,0,2,0,7.18-.19,18.78-.5,19.08,12.26.25,10.59-7.43,12.07-14.43,12.23-1,0-2.09,0-3.07,0h-1v.92a8.3,8.3,0,0,1-14.18,5.87h0a8.29,8.29,0,0,1-2.44-5.86V96a8.48,8.48,0,0,1,.84-3.63,12.5,12.5,0,0,1,5.11-6,15.31,15.31,0,0,1,8.08-2.09Zm2.07,4-2.07,0a11.39,11.39,0,0,0-6,1.49,8.56,8.56,0,0,0-3.5,4.17l-.07.15A4.06,4.06,0,0,0,55.21,96v13.64a4.3,4.3,0,0,0,1.26,3h0a4.32,4.32,0,0,0,7.36-3.05v-2.89h0a2,2,0,0,1,1.92-2c.9,0,1.94,0,3.05,0,.94,0,1.94,0,3,0,5.11-.12,10.71-1.11,10.54-8.15-.21-8.76-9.34-8.52-15-8.37Z"/><path class="cls-2" d="M68.76,2A66.76,66.76,0,1,1,2,68.76,66.76,66.76,0,0,1,68.76,2Z"/><path d="M68.76,0A68.76,68.76,0,1,1,20.14,20.14,68.55,68.55,0,0,1,68.76,0Zm45.79,23a64.76,64.76,0,1,0,19,45.79,64.56,64.56,0,0,0-19-45.79Z"/><path class="cls-3" d="M64.33,131.25a53.64,53.64,0,0,1-4.8-8.2,53.65,53.65,0,0,1-4.8,8.2c-1.85,2.75-3.37,5-3.37,6.87a9.25,9.25,0,0,0,2.15,6.46c1.24,1.3,3.18,2.13,6,2.13s4.77-.84,6-2.13a9.25,9.25,0,0,0,2.15-6.46c0-1.87-1.52-4.13-3.37-6.87Z"/><path class="cls-4" d="M68.76,67.11l-30.94.09a30.94,30.94,0,0,0,61.89-.09Z"/><path class="cls-3" d="M67.31,81.16l-2.07,0a11.39,11.39,0,0,0-6,1.49,8.56,8.56,0,0,0-3.5,4.17l-.07.15A4.06,4.06,0,0,0,55.21,89v13.64a4.3,4.3,0,0,0,1.26,3h0a4.32,4.32,0,0,0,7.36-3.05V99.7h0a1.82,1.82,0,0,1,1.92-1.79c.9.07,1.94.14,3.05.14.94,0,1.94-.12,3-.14,5.11-.12,10.71-1.35,10.54-8.38-.21-8.76-9.34-8.52-15-8.37Z"/><path d="M29.26,45.76a3,3,0,0,1-5.09-3.14,22.57,22.57,0,0,1,38.38,0,3,3,0,1,1-5.09,3.14,16.6,16.6,0,0,0-28.21,0Z"/><path d="M80.05,45.76A3,3,0,1,1,75,42.62a22.57,22.57,0,0,1,38.38,0,3,3,0,1,1-5.09,3.14,16.6,16.6,0,0,0-28.21,0Z"/></g></g></svg>