<svg xmlns="http://www.w3.org/2000/svg" viewBox="0 0 136.2 148.73"><defs><style>.cls-1,.cls-3{fill:#e64122;}.cls-1,.cls-2,.cls-3{stroke:#f37433;}.cls-1,.cls-2,.cls-3,.cls-4{stroke-linecap:round;stroke-linejoin:round;}.cls-1,.cls-2{stroke-width:10px;}.cls-1,.cls-4{fill-rule:evenodd;}.cls-2{fill:none;}.cls-3,.cls-4{stroke-width:4px;}.cls-4{fill:#f37433;stroke:#e64122;}</style></defs><title>Asset 1</title><g id="Layer_2" data-name="Layer 2"><g id="Layer_1-2" data-name="Layer 1"><path class="cls-1" d="M100.24,5H36A31,31,0,0,0,5,36v64.29a31,31,0,0,0,31,31H47.2c2.36-3.51,5.31-7.74,6.71-13.59,1.4,5.85,4.35,10.08,6.71,13.59h39.61a31,31,0,0,0,31-31V36a31,31,0,0,0-31-31Z"/><path class="cls-2" d="M25.32,41.78a20.12,20.12,0,0,1,34.21,0m18,0a20.12,20.12,0,0,1,34.21,0"/><path class="cls-1" d="M68.3,66.09l-30.94.09a30.94,30.94,0,0,0,61.89-.09Z"/><path class="cls-3" d="M53.91,115c2.54,10.59,10.16,15.89,10.16,21.19s-2.54,10.59-10.16,10.59-10.16-5.3-10.16-10.59S51.37,125.54,53.91,115Z"/><path class="cls-4" d="M60.33,77.6c5.94,0,18.79-1.71,19.07,10.28s-12.11,10-18.47,10.22V101a6.31,6.31,0,0,1-12.63,0V87.35A6.26,6.26,0,0,1,49,84.52c1.63-4,5.41-6.91,11.35-6.91Z"/></g></g></svg>