<svg xmlns="http://www.w3.org/2000/svg" viewBox="0 0 128.52 137.4"><defs><style>.cls-1,.cls-5{fill:#e64122;}.cls-2{fill:#fff200;}.cls-2,.cls-3,.cls-5{fill-rule:evenodd;}.cls-3{fill:#8ed8f8;}.cls-4{fill:#f37433;}</style></defs><title>Asset 1</title><g id="Layer_2" data-name="Layer 2"><g id="Layer_1-2" data-name="Layer 1"><path class="cls-1" d="M56.39,79.2c.84,0,1.35,0,1.91,0C65.21,79,76.37,78.69,76.66,91c.24,10.19-7.15,11.61-13.89,11.77-1,0-2,0-3,0H58.9v.89a8,8,0,0,1-13.65,5.65h0a8,8,0,0,1-2.35-5.64V90.51A8.16,8.16,0,0,1,43.7,87a12,12,0,0,1,4.91-5.81,14.73,14.73,0,0,1,7.78-2Zm2,3.81-2,0a11,11,0,0,0-5.78,1.44,8.24,8.24,0,0,0-3.37,4l-.07.14a3.91,3.91,0,0,0-.44,1.87v13.13A4.14,4.14,0,0,0,48,106.57h0A4.16,4.16,0,0,0,55,103.64v-2.78h0a1.92,1.92,0,0,1,1.84-1.92c.87,0,1.87,0,2.94,0,.91,0,1.87,0,2.85,0C67.6,98.8,73,97.84,72.83,91.07c-.2-8.44-9-8.2-14.44-8.06Z"/><path class="cls-2" d="M64.26,0A64.26,64.26,0,1,1,0,64.26,64.26,64.26,0,0,1,64.26,0Z"/><path class="cls-3" d="M55.71,119.07A63.57,63.57,0,0,1,50,109.36a63.57,63.57,0,0,1-5.68,9.71c-2.19,3.25-4,5.92-4,8.14,0,2.9.72,5.75,2.55,7.66,1.47,1.54,3.76,2.53,7.12,2.53s5.65-1,7.13-2.53c1.83-1.91,2.55-4.76,2.55-7.66,0-2.22-1.8-4.89-4-8.14Z"/><path class="cls-4" d="M23.45,42.54A3.34,3.34,0,0,0,25.53,41a15.92,15.92,0,0,1,9.58-7,16.05,16.05,0,0,1,8.06,0,15.83,15.83,0,0,1,3.76,1.5A15.93,15.93,0,0,1,52.75,41a3.36,3.36,0,0,0,5.71-3.53,22.73,22.73,0,0,0-38.64,0,3.35,3.35,0,0,0,3.63,5Z"/><path class="cls-4" d="M73.69,42.54A3.34,3.34,0,0,0,75.77,41a15.92,15.92,0,0,1,9.58-7,16.05,16.05,0,0,1,8.06,0,15.83,15.83,0,0,1,3.76,1.5A15.93,15.93,0,0,1,103,41a3.36,3.36,0,0,0,5.71-3.53,22.73,22.73,0,0,0-38.64,0,3.35,3.35,0,0,0,3.63,5Z"/><path class="cls-5" d="M64.05,62.67l-29.78.08a29.78,29.78,0,0,0,59.57-.08Z"/><path class="cls-3" d="M58.38,75.64l-2,0a11,11,0,0,0-5.78,1.44,8.24,8.24,0,0,0-3.37,4l-.07.14a3.9,3.9,0,0,0-.44,1.87V96.28a4.14,4.14,0,0,0,1.21,2.93h0A4.16,4.16,0,0,0,55,96.28V93.5h0a1.92,1.92,0,0,1,1.84-1.92c.87,0,1.87,0,2.94,0,.91,0,1.87,0,2.85,0,4.92-.12,10.31-1.07,10.15-7.85-.2-8.44-9-8.2-14.44-8.06Z"/></g></g></svg>