<svg xmlns="http://www.w3.org/2000/svg" viewBox="0 0 141.58 154.57"><defs><style>.cls-1,.cls-2{fill:none;stroke-width:10px;}.cls-1{stroke:#000;}.cls-1,.cls-2,.cls-3{stroke-linecap:round;stroke-linejoin:round;}.cls-2,.cls-3{stroke:#231f20;}.cls-3{fill:#fff;stroke-width:8px;fill-rule:evenodd;}</style></defs><title>Asset 1</title><g id="Layer_2" data-name="Layer 2"><g id="Layer_1-2" data-name="Layer 1"><path class="cls-1" d="M60.16,5a35.3,35.3,0,1,1-35.3,35.3A35.3,35.3,0,0,1,60.16,5Z"/><path class="cls-2" d="M36.67,86.23h47a31.76,31.76,0,0,1,31.67,31.67h0v27.91a3.77,3.77,0,0,1-3.76,3.76H8.76A3.77,3.77,0,0,1,5,145.81V117.9H5A31.76,31.76,0,0,1,36.67,86.23Z"/><path class="cls-3" d="M130.16,55.05a14.72,14.72,0,0,1,5.52,20l-25.54,45a14.76,14.76,0,0,1-1,1.51l0,0-12.53,7.35-12.53,7.35L84,121.72l-.1-14.52,0,0a14.73,14.73,0,0,1,.79-1.62l25.54-45a14.72,14.72,0,0,1,20-5.52Z"/></g></g></svg>