<svg xmlns="http://www.w3.org/2000/svg" viewBox="0 0 141.81 142.95"><defs><style>.cls-1{font-size:39.24px;fill:#f37433;font-family:FuturaBT-Bold-Bold, FuturaBT Bold-Bold;font-weight:700;}.cls-2{fill:#e64122;}</style></defs><title>Asset 1</title><g id="Layer_2" data-name="Layer 2"><g id="Layer_1-2" data-name="Layer 1"><text class="cls-1" transform="translate(52.41 58.7)">@</text><path class="cls-2" d="M119,40.88l8.92,5.52L119,54.77V40.88Zm22.83,5.44v70.55a26.15,26.15,0,0,1-26.09,26.09H26.09A26.15,26.15,0,0,1,0,116.86V46.31a5,5,0,0,1,2-4l.15-.17a5,5,0,0,1,1.25-1L25.14,27.74V5a5,5,0,0,1,5-5H114a5,5,0,0,1,5,5V29.16l19.69,12.18a5,5,0,0,1,1.14,1,5,5,0,0,1,2,4ZM10,56.4v60.46A15.91,15.91,0,0,0,11.23,123l41-26.95L10,56.4Zm49.66,46.66L17.77,130.61a15.94,15.94,0,0,0,8.31,2.34h89.63a15.92,15.92,0,0,0,7.48-1.86L82,103.22l-7.66,7.19a5,5,0,0,1-6.84,0l-7.83-7.35Zm29.78-6.85,40.79,27.57a15.91,15.91,0,0,0,1.58-6.92V56.4L117.87,69.5a5,5,0,0,1-.76.76l-1.16,1L89.44,96.21ZM25.14,56.94,13.91,46.39l11.22-6.94V56.94ZM109,10H35.14V65.32l35.81,33,38-34.18V10Z"/></g></g></svg>