<svg xmlns="http://www.w3.org/2000/svg" viewBox="0 0 660.17 812.36"><defs><style>.cls-1{fill:#231f20;}.cls-1,.cls-2,.cls-3,.cls-4{fill-rule:evenodd;}.cls-2{fill:#e03c23;}.cls-3{fill:#8dc63f;}.cls-4{fill:#009444;}</style></defs><g id="Layer_2" data-name="Layer 2"><g id="Layer_1-2" data-name="Layer 1"><path class="cls-1" d="M574.35,287.65c41.38,23.74,52.92,71.56,51.89,116.34-1.69,58.33-8.82,119.38-26.12,175-1,3-1.69,6.1-2.71,9.17-32.22,98.36-73.26,170.94-161.11,219.44a66.82,66.82,0,0,0,14.92-5.43C612,734,655.75,564.07,660.17,405c0-7.81,0-15.6-.35-22.72l-.34-.34c-5.09-76.32-67.83-127.88-128.89-107.19a105.45,105.45,0,0,1,43.76,12.9Z"/><path class="cls-1" d="M69.31,606.14C44.88,543.05,35.72,471.82,34,404c-1.35-44.78,10.18-92.6,51.89-116.34,38.33-21.71,87.51-14.93,125.84,3.05,34.27,15.6,59.7,26.79,92.6,30.18-65.46-7.45-121.43-85.13-178.75-80C54.38,247.61-2.94,301.22.12,405c4.4,159.07,47.82,329,208.6,397.18a86.21,86.21,0,0,0,9.49,3.73c-68.86-45.1-113.29-102.43-148.9-199.77Z"/><path class="cls-2" d="M141.55,344c71.91-22.39,187.23,158.4,95,231l71.22,225.89c7.8-.34,15.27-.34,22.73,0L393.9,591.21c-18.65-31.88-41.38-55-22.39-118.71l32.57-108.87a15.85,15.85,0,0,1,19.68-10.86c8.47,2.71,13.56,11.54,10.85,20L398.32,494.21c-2,7.79,2.36,15.93,9.83,18a14.69,14.69,0,0,0,18.32-9.84l35.95-121.09a16.37,16.37,0,0,1,20-10.86,15.9,15.9,0,0,1,10.52,20L456,511.51c-2.05,7.46,2,15.94,9.83,18a14.72,14.72,0,0,0,18.31-9.5l37-121.09a16,16,0,0,1,19.67-10.84,16.35,16.35,0,0,1,10.86,20L518.39,516.94c-19.35,63.42-50.88,70.2-84.12,86.49L372.54,808.29l12.2,4.07C523.12,755,583.17,624.79,602.5,486.42a708.13,708.13,0,0,0,6.78-82.77c1-38-7.79-81.06-43.41-101.08-33.24-19-77-12.21-110.23,3.39-44.09,20.35-76.32,33.24-125.5,33.24-49.52,0-81.75-12.89-125.5-33.24-33.24-15.6-77-22.38-110.57-3.39C58.79,322.59,50,365.66,51,403.65A705.94,705.94,0,0,0,59.81,501c20,122.43,83.43,245.22,191.3,311.36,4.75-1.7,9.5-3.4,14.59-4.75L196.16,587.82C78.12,581.72,69.64,366,141.55,344Z"/><path class="cls-3" d="M141.55,0c-46.47,82.08-6.11,169.93,77.68,203.85,42.73,17.3,86.14,28.83,104.46,99.72-6.1-130.58-109.22-126.18-148.9-211C232.45,146.53,316.57,164.51,330.14,229,326.4,66.49,182.93,98.37,141.55,0Z"/><path class="cls-4" d="M376.5,305.53A475.56,475.56,0,0,1,591.88,86.76L551.5,18.24A396.75,396.75,0,0,0,347,309.26Z"/></g></g></svg>