<svg xmlns="http://www.w3.org/2000/svg" viewBox="0 0 142.97 130.13"><defs><style>.cls-1{fill:#e64122;}.cls-2{fill:#f37433;}</style></defs><title>Asset 1</title><g id="Layer_2" data-name="Layer 2"><g id="Layer_1-2" data-name="Layer 1"><path class="cls-1" d="M27.79,57.17a5,5,0,0,1,5.86,8L19.72,75.39a5,5,0,0,1-6.21-.28h0L1.7,64.79a5,5,0,0,1,6.56-7.5l4.68,4.09a65.11,65.11,0,1,1,11.36,40.54,5,5,0,1,1,8.2-5.66A55.1,55.1,0,1,0,23,60.66l4.78-3.48Z"/><path class="cls-2" d="M69.75,39a5,5,0,0,1,10,0V69.19l27.47,17.23a5,5,0,0,1-5.31,8.44L72.43,76.37a5,5,0,0,1-2.68-4.43V39Z"/></g></g></svg>