<svg xmlns="http://www.w3.org/2000/svg" viewBox="0 0 141.39 142.17"><defs><style>.cls-1{fill:#9e9d9e;}</style></defs><title>Asset 1</title><g id="Layer_2" data-name="Layer 2"><g id="Layer_1-2" data-name="Layer 1"><path class="cls-1" d="M141.39,53.41v75.21a13.57,13.57,0,0,1-13.55,13.55H88.27V90.63a17.58,17.58,0,0,0-35.16,0v51.54H13.55A13.57,13.57,0,0,1,0,128.62V53.41A17.81,17.81,0,0,1,1.42,46.6a12.62,12.62,0,0,1,4.24-5.43L60.74,2.83A17.34,17.34,0,0,1,70.93,0,18.81,18.81,0,0,1,81.12,3.16l54.13,37.69a14.4,14.4,0,0,1,4.38,5.61,17.52,17.52,0,0,1,1.76,7ZM70.7,63.05A27.65,27.65,0,0,1,98.27,90.63v41.54h29.57a3.57,3.57,0,0,0,3.55-3.55V53.41a7.24,7.24,0,0,0-.78-2.7A5.12,5.12,0,0,0,129.55,49L75.42,11.36A8.65,8.65,0,0,0,70.74,10,7.38,7.38,0,0,0,66.44,11L11.37,49.37a2.9,2.9,0,0,0-.77,1.17,7.5,7.5,0,0,0-.6,2.87v75.21a3.57,3.57,0,0,0,3.55,3.55H43.12V90.63A27.65,27.65,0,0,1,70.7,63.05Z"/></g></g></svg>