<svg xmlns="http://www.w3.org/2000/svg" viewBox="0 0 134.48 131.74"><defs><style>.cls-1{fill:#e64122;}.cls-1,.cls-2,.cls-3{fill-rule:evenodd;}.cls-2{fill:#3c8476;}.cls-3{fill:#f37433;}</style></defs><title>Asset 1</title><g id="Layer_2" data-name="Layer 2"><g id="Layer_1-2" data-name="Layer 1"><path class="cls-1" d="M29.79,89.11c5.61-10.05,16.14-19,47.18-1.28,8.93,5.11,17.29,10.46,25.7,12.51,14.53,3.54,22.35-2.1,26.72-13.31.81-2.07,2-3.23,2.81-3,1.62.42,2.5,3.45,2.25,6.41-4.59,54.19-136.9,56.44-104.65-1.31Z"/><path class="cls-2" d="M35.19,77.9c-9.81,9.57-12.68,17-12,23.18-3,.55-5.56-3.85-6.19-6.92-2.07-10.21-5.73-9.4-11.18-16.11C.8,71.95-1.07,63.27.59,61.84c1-.86,2.65-3,3.58.94C6,70.7,16,81.07,23.31,79.5c3.32-.71,6.67-2.22,11.89-1.6Z"/><path class="cls-1" d="M36.87,72.78c-3.53,3-9.9-4.24-9-13.18A150.72,150.72,0,0,1,31.51,41c4.09,2.25,3.66,5.1,2.58,7.69-3.7,8.84,8.23,14.11,9.27,5,.93-6.24-3.86-9-1.79-14.78,1.66-4.65,5.33-5.49,4.92-10.94-.23-3.09-1.72-5.86-1.73-9.66,0-4.19.28-12.84,9-18.13,2-1.05-2,5.11-1.56,11.84,0,8.3,13,7,6.34,22-5.45,13.21,5.11,19.55,3.49,15.63-4.21-10.21,15.2-9.35,5-31.24-2.37-3.15,3-1.07,6.59,2.61,10.78,11.13-5.1,24,3.08,31.71,1.31,1.23,4.83,2.77,6,1.52,2.13-2.37-3.12-6.5.3-11.87,2-3.2,4.82-4.73,1.75-14-.1-2.61,6.59,7.26,6.59,14.47,0,4.32-1,6.84-1.39,9.43-1.25,9.34,7.46,15.54,14.55,16.08,5.86.45,7.53-2.49,10.27-7.06,1.63-2.73,2.31-3.49,1.68,5.43-1,13.49,5.94-2.5,11.36,1.11,1.14.76-3.14,2.67-4.41,7.61-1.22,4.74,0,5.33-1.54,10.31-4.12,18.29-31.94,1.66-40.85-3.22-15.28-8.37-34.57-17.71-44.15-9.65Z"/><path class="cls-3" d="M105.23,25.19c2.18,2.38,4.27,6.11,4.21,9.89-.08,4.58-3,7.29-4.79,9.8-2,2.74-.9,6.26,2,6.14,2.21-.09,4.38-2.79,3.2-8.58,9.41,9.82,0,25.77-10.38,19.89-5.59-3.17-9.41-11.44-.35-20.73,2.8-2.88,5.08-5.24,6-7.05,1.49-3,1.48-5.68.15-9.36Z"/></g></g></svg>