<svg xmlns="http://www.w3.org/2000/svg" viewBox="0 0 162.21 149.99"><defs><style>.cls-1,.cls-2{fill:#e64122;stroke:#f37433;stroke-width:8px;}.cls-1{stroke-miterlimit:22.93;}.cls-1,.cls-2,.cls-3{fill-rule:evenodd;}.cls-2{stroke-linejoin:round;}.cls-3{fill:#f37433;}</style></defs><title>Asset 1</title><g id="Layer_2" data-name="Layer 2"><g id="Layer_1-2" data-name="Layer 1"><path class="cls-1" d="M65.61,106.77c-20.4,14.94-38.19,18.33-46.91,23.51-16.1,9.56,6.39,15.79,16.85,15.71a88.2,88.2,0,0,0,25.74-4.33c20.4-6.42,57.95-23.59,80.26-51.83C149.4,79.9,160.78,64.64,153,52a28.2,28.2,0,0,0-19.24-12.43c-12.56-1.85-22.24,13.78-27.07,21.84a155.21,155.21,0,0,1-41.07,45.4Z"/><path class="cls-2" d="M28.7,70.4C22.92,75.6,10.84,62,7.91,72.21,15,74.88,20.51,85.55,9,94c-15.37,14.22,9.16,19.81,16.19,18.27,7.08-2,22.24-10.31,28.11-14.62,9.4-6.89,15.36-11.07,23.43-19.88A149.31,149.31,0,0,0,94.39,55.18c6.32-10.06,15.27-26.39,29.5-28.81,3.88-.66,5.09.12,7.92,0a22,22,0,0,0,1.13-3.67c-5.83-2.12-28.42-15.24-28.57-15.25-8.46-.64-1.61,13.4-8.25,17.64S79.71,12.32,69.47,17.15c8.71,11.68,7.63,24.7,2.18,33.5-5.24,8.46-14.53,13-23,8.68C39,54.42,41.2,48.55,30.91,50.94,33,57.86,35.63,63.39,28.7,70.4Z"/><path class="cls-1" d="M140.82,39.77,151.25,48c6.94-8.09,11.27-29.91.2-42.44-3.6-4.08-10.29.79-10.36,3.62s12.46,11.91-.27,30.59Z"/><path class="cls-3" d="M65.59,31C62.19,18.61,41.85,9.67,29.1,14.54c.09.07,16.27,5.86,16.27,17.35,0,1.74-6.17-1.38-5.62.22,1.46,4.24,2.69,8.26,4.52,11.18C50.94,53.9,69.4,45,65.59,31Z"/></g></g></svg>