<svg xmlns="http://www.w3.org/2000/svg" viewBox="0 0 182.36 151.73"><defs><style>.cls-1{fill:none;stroke:#000;stroke-linecap:round;stroke-linejoin:round;stroke-width:10px;}.cls-2{fill-rule:evenodd;}</style></defs><title>Asset 1</title><g id="Layer_2" data-name="Layer 2"><g id="Layer_1-2" data-name="Layer 1"><path class="cls-1" d="M5,5H177.36L177,81.76a72.06,72.06,0,0,1-71.49,65H76.79a72.06,72.06,0,0,1-71.49-65L5,5Z"/><path class="cls-2" d="M114.29,37.84c12.94,0,23.45,9.77,23.45,21.82,0,30.61-31,27-46.55,54.24h0C75.67,86.61,44.63,90.27,44.63,59.65c0-12,10.5-21.82,23.45-21.82,11.72,0,17.25,4.71,23.11,15.62C97,42.54,102.57,37.84,114.29,37.84Z"/></g></g></svg>