<svg xmlns="http://www.w3.org/2000/svg" viewBox="0 0 159.09 141.73"><defs><style>.cls-1{fill-rule:evenodd;}</style></defs><title>Asset 1</title><g id="Layer_2" data-name="Layer 2"><g id="Layer_1-2" data-name="Layer 1"><path class="cls-1" d="M0,70.86A69.39,69.39,0,0,0,3,90.79a73.19,73.19,0,0,0,8.62,18.65,71.62,71.62,0,0,0,13.35,15.37,64.79,64.79,0,0,0,16.62,10.46A81.83,81.83,0,0,0,55.5,139.9a70.28,70.28,0,0,0,13.81,1.81,66.58,66.58,0,0,0,13.59-1,70.12,70.12,0,0,0,13.34-3.78,6.47,6.47,0,0,1,.81-.29l.07,0c.07,0-.15,0,.18-.09,1-.39,2-.79,3.19-1.29a23.34,23.34,0,0,0,2.68-1.33l1.09-.63.87-.48.07,0c.61-.33,1.21-.66,1.44-.8,1.48-.89,2.84-1.76,4.17-2.67s2.41-1.68,3.44-2.5,2.1-1.71,3.16-2.67,2.18-2,3.47-3.3a6.12,6.12,0,0,0,1.32-1.85,4.78,4.78,0,0,0,.42-2,4.88,4.88,0,0,0-.09-1V116a4.8,4.8,0,0,0-.26-.85,5.2,5.2,0,0,0-.47-.87,5.1,5.1,0,0,0-.62-.76,5,5,0,0,0-1.7-1.12,5.83,5.83,0,0,0-2.18-.4,4.26,4.26,0,0,0-2.35.81,23.78,23.78,0,0,0-3,2.52c-.82.78-1.68,1.58-2.67,2.42a34.67,34.67,0,0,1-3.34,2.54l-.35.24c-.83.55-1.6,1.07-2.37,1.56s-1.62,1-2.53,1.57a54.34,54.34,0,0,1-12.91,5.48,62.3,62.3,0,0,1-14.46,2.27,63,63,0,0,1-14.62-1.12,56,56,0,0,1-13.44-4.43c-.88-.42-1.72-.85-2.55-1.3s-1.61-.88-2.28-1.28-1.24-.76-2-1.26l-2.23-1.45a53,53,0,0,1-10.41-9.12A63.45,63.45,0,0,1,12.12,85.95a53.81,53.81,0,0,1-1.85-13.72,69.84,69.84,0,0,1,1.26-13.46,60.14,60.14,0,0,1,3.59-11.83,57.71,57.71,0,0,1,5.6-10.26A61.4,61.4,0,0,1,28,28a60.24,60.24,0,0,1,18-12.4A61.07,61.07,0,0,1,89.1,13a59.31,59.31,0,0,1,19.22,10.21l1.74,1.46.12.11.33.27a32.35,32.35,0,0,1,2.8,2.5l0,0h0l.1.1a9.74,9.74,0,0,0,1.81,1.5,4.64,4.64,0,0,0,2.39.55,5,5,0,0,0,1.89-.36,4.76,4.76,0,0,0,1.57-1.05,5.16,5.16,0,0,0,.63-.79,5.49,5.49,0,0,0,.49-.92,5.2,5.2,0,0,0,.3-1h0a5.17,5.17,0,0,0,.1-1,4.71,4.71,0,0,0-.38-1.88A5.46,5.46,0,0,0,121,21l-1.33-1.3-1.33-1.27-1.31-1.2-1.37-1.2a60.37,60.37,0,0,0-9.47-6.59A72.34,72.34,0,0,0,95,4.36,75.69,75.69,0,0,0,82.92,1.1,68.25,68.25,0,0,0,70.86,0,69.89,69.89,0,0,0,50.16,3.13,71.77,71.77,0,0,0,15.6,26.62a69.8,69.8,0,0,0-10.52,18L1.87,55c-.22,1.09-.46,2.29-.7,3.68S.72,61.32.56,62.53s-.31,2.59-.41,4S0,69.34,0,70.86Z"/><path class="cls-1" d="M127.53,65.89l-2.66,0-6.63,0c-8,0-19.44-.1-29.25-.11s-17.84,0-19.2.17a4,4,0,0,0-1.93.71,4.07,4.07,0,0,0-1.29,1.63l-.07.14a6,6,0,0,0-.34,1.1,7.21,7.21,0,0,0,0,2.79,5.88,5.88,0,0,0,.4,1.24h0a4,4,0,0,0,1.29,1.63,4,4,0,0,0,1.93.71c2.74.29,32.47.14,48.39.05h.05l6.64,0,2.66,0h7.09a2.17,2.17,0,0,1,1.7,3.52l-3.85,5.75a18.16,18.16,0,0,1-2,2.43h0a13.33,13.33,0,0,0-2.09,2.64,4,4,0,0,0-.45,2.91,6.76,6.76,0,0,0,.74,1.93,4.55,4.55,0,0,0,1.09,1.27,4.61,4.61,0,0,0,1.51.77,7.18,7.18,0,0,0,2.11.29,4.61,4.61,0,0,0,2.56-1,23.49,23.49,0,0,0,2.85-2.59l.12-.11.22-.22.18-.21,16-16c3-3,4-5.18,3.71-7.05S157,66,154.48,63.56l-.18-.2L153,62.11l-1.62-1.56c-1.53-1.47-3.15-3-3.94-3.82l-8-8-.18-.21-.51-.51h0l-.12-.13c-2.2-2.21-3.51-3.48-6.67-3.48a2.07,2.07,0,0,0-.56.08,3.55,3.55,0,0,0-.73.31,5.43,5.43,0,0,0-1.14.84,6.11,6.11,0,0,0-.94,1.16,5.52,5.52,0,0,0-.62,1.36,4.79,4.79,0,0,0-.2,1.37,4.55,4.55,0,0,0,.15,1.17,5.25,5.25,0,0,0,.48,1.18,8.63,8.63,0,0,0,1.5,1.8h0l.12.12a18,18,0,0,1,2.43,2.86l4,5.9a2.16,2.16,0,0,1-1.8,3.36h-7.09Z"/></g></g></svg>