<svg xmlns="http://www.w3.org/2000/svg" viewBox="0 0 137.52 153.04"><title>Asset 1</title><g id="Layer_2" data-name="Layer 2"><g id="Layer_1-2" data-name="Layer 1"><path d="M68.76,0a68.8,68.8,0,0,1,65.48,89.77,2,2,0,0,1-.65.94,2,2,0,0,1-.06,1.15h0l-.4,1.08L132.72,94a2,2,0,0,1-3.11.82,1.64,1.64,0,0,0-.29-.14,1.49,1.49,0,0,0-.4-.09,2,2,0,0,1,0-4,1.52,1.52,0,0,0,.61-.18A1.58,1.58,0,0,0,130,90a2,2,0,0,1,.36-.38,2,2,0,0,1-.06-.54h0a1.54,1.54,0,0,0-.45-1.09h0a1.54,1.54,0,0,0-1.09-.45h-6.22a2,2,0,0,1-.24-4h6.46a1.54,1.54,0,0,0,1.09-.45h0a1.55,1.55,0,0,0,0-2.18h0a1.54,1.54,0,0,0-1.09-.45h-8.18a2,2,0,0,1-1.87-1.28,23.93,23.93,0,0,0-9.22-10.33,26.5,26.5,0,0,0-14-3.91c-6.36,0-11,1.25-14.79,3.93s-7,7.05-10.25,13.11a2,2,0,0,1-3.52,0c-3.25-6.06-6.38-10.37-10.24-13.11S48.33,64.88,42,64.88a26.5,26.5,0,0,0-14,3.91,23.92,23.92,0,0,0-9.27,10.43A2,2,0,0,1,16.9,80.4H8.73a1.55,1.55,0,1,0,0,3.09h6.21a2,2,0,0,1,0,4.05H8.73A1.54,1.54,0,0,0,7.19,89.1v.18a2,2,0,0,1,0,.35,2,2,0,0,1,.39.44,1.59,1.59,0,0,0,.45.39H8a1.52,1.52,0,0,0,.63.19,2,2,0,0,1,0,4,1.51,1.51,0,0,0-.4.09,1.54,1.54,0,0,0-.37.2,2,2,0,0,1-3-.88q-.13-.33-.42-1.09L4,91.83a2,2,0,0,1-.06-1.11,2,2,0,0,1-.62-.92A68.24,68.24,0,0,1,.83,79.43,68.76,68.76,0,0,1,68.76,0Zm45.79,23A64.76,64.76,0,0,0,4,68.76a65.41,65.41,0,0,0,.67,9.43L4.82,78A5.52,5.52,0,0,1,8.73,76.4h6.91a28.07,28.07,0,0,1,10.25-11A30.48,30.48,0,0,1,42,60.88c7.23,0,12.59,1.48,17.1,4.68,3.7,2.63,6.73,6.36,9.69,11.35,3-5,6-8.73,9.69-11.35,4.51-3.2,9.87-4.68,17.1-4.68a30.48,30.48,0,0,1,16.07,4.52,28.07,28.07,0,0,1,10.25,11h6.92A5.53,5.53,0,0,1,132.7,78l.14.15a65.4,65.4,0,0,0,.67-9.42,64.56,64.56,0,0,0-19-45.79Zm10.63,85.09a69.15,69.15,0,0,1-18,17.73,68.39,68.39,0,0,1-23.25,10,2,2,0,0,1-1.65-3.53,141.71,141.71,0,0,1,14.35-9.9c8-5,15.3-9.62,19.68-16.73a2,2,0,0,1,2.05-.91l.14,0h5.13a2,2,0,0,1,1.54,3.27ZM105,122.47a65.16,65.16,0,0,0,14.72-13.68h-.62c-4.89,7.31-12.29,12-20.29,17L96,127.54a64.74,64.74,0,0,0,9-5.07ZM21.21,105.69c4.38,7.1,11.71,11.72,19.67,16.71a141.46,141.46,0,0,1,14.4,9.93,2,2,0,0,1-1.7,3.49,68.39,68.39,0,0,1-23.25-10,69.15,69.15,0,0,1-18.09-17.86,2,2,0,0,1,1.64-3.13h5.27a2,2,0,0,1,2.05.93Zm17.54,20.09c-8-5-15.4-9.68-20.29-17h-.62a65.05,65.05,0,0,0,23.69,18.75l-2.78-1.75Z"/><path d="M29.26,45.76a3,3,0,1,1-5.09-3.14,22.57,22.57,0,0,1,38.38,0,3,3,0,0,1-5.09,3.14,16.6,16.6,0,0,0-28.21,0Z"/><path d="M80.05,45.76A3,3,0,1,1,75,42.62a22.57,22.57,0,0,1,38.38,0,3,3,0,0,1-5.09,3.14,16.6,16.6,0,0,0-28.21,0Z"/><path d="M95.55,60.88a30.48,30.48,0,0,1,16.07,4.52,27.92,27.92,0,0,1,10.82,12.18,2,2,0,0,1-1.82,2.82h-2a1.55,1.55,0,1,0,0,3.09h3.93a2,2,0,0,1,.24,4h-4.17a1.55,1.55,0,0,0-.12,3.09,2,2,0,0,1,0,4,1.55,1.55,0,0,0,0,3.09,2,2,0,0,1,0,4,1.55,1.55,0,0,0-1.05,2.53,1.56,1.56,0,0,0,.91.54,2,2,0,0,1,1.29,3.08c-4.87,7.86-12.56,12.69-20.89,17.93-9.87,6.21-20.69,13-28.19,26.1a2,2,0,0,1-3.62,0c-7.5-13.11-18.32-19.92-28.2-26.12-8.36-5.26-16.07-10.1-20.94-18a2,2,0,0,1,1.37-3,1.56,1.56,0,0,0,.88-.54A1.55,1.55,0,0,0,19,101.7a2,2,0,0,1,0-4,1.55,1.55,0,0,0,0-3.08,2,2,0,0,1,0-4A1.55,1.55,0,0,0,20,88h0a1.54,1.54,0,0,0-1.09-.45H14.94a2,2,0,0,1,0-4.05h3.94A1.54,1.54,0,0,0,20,83h0a1.55,1.55,0,0,0,0-2.18h0a1.54,1.54,0,0,0-1.09-.45h-2a2,2,0,0,1-1.77-2.94A27.93,27.93,0,0,1,25.9,65.4,30.48,30.48,0,0,1,42,60.88c7.23,0,12.59,1.48,17.1,4.68,3.7,2.63,6.73,6.36,9.69,11.35,3-5,6-8.73,9.69-11.35,4.51-3.2,9.87-4.68,17.1-4.68Zm14,7.91a26.5,26.5,0,0,0-14-3.91c-6.36,0-11,1.25-14.79,3.93s-7,7.05-10.25,13.11a2,2,0,0,1-3.52,0c-3.25-6.06-6.38-10.37-10.24-13.11S48.33,64.88,42,64.88a26.5,26.5,0,0,0-14,3.91,24.29,24.29,0,0,0-7.84,7.76A5.57,5.57,0,0,1,22.79,78h0a5.51,5.51,0,0,1,.31,7.48,5.5,5.5,0,0,1,0,7.11,5.5,5.5,0,0,1,0,7.07,5.53,5.53,0,0,1-.72,7.79c4.45,6.11,11.19,10.35,18.45,14.91,9.59,6,20,12.6,27.88,24.79C76.61,135,87.05,128.43,96.64,122.4c7.26-4.56,14-8.81,18.46-14.92a5.6,5.6,0,0,1-.71-.71,5.5,5.5,0,0,1,0-7.07,5.5,5.5,0,0,1,0-7.07,5.5,5.5,0,0,1,0-7.11,5.51,5.51,0,0,1,.31-7.48h0a5.56,5.56,0,0,1,2.64-1.48,24.29,24.29,0,0,0-7.84-7.76Z"/><path d="M8.73,77.9H18.88a4,4,0,0,1,2.86,1.19h0a4,4,0,0,1,0,5.71h0A4,4,0,0,1,18.88,86H8.73a4,4,0,0,1,0-8.09Zm10.15,1H8.73a3,3,0,0,0,0,6.09H18.88a3,3,0,0,0,0-6.09Z"/><path d="M8.73,85.05H18.88a4,4,0,0,1,2.86,1.19h0a4,4,0,0,1-2.86,6.9H8.73a4,4,0,0,1,0-8.09Zm10.15,1H8.73a3,3,0,0,0,0,6.09H18.88a3,3,0,0,0,0-6.09Z"/><path d="M8.73,92.12H18.88a4,4,0,0,1,2.86,1.19h0a4,4,0,0,1,0,5.71h0a4,4,0,0,1-2.85,1.19H8.73a4,4,0,0,1,0-8.09Zm10.15,1H8.73a3,3,0,0,0,0,6.09H18.88a3,3,0,0,0,0-6.09Z"/><path d="M8.73,99.19H18.88a4,4,0,0,1,2.86,1.19h0a4,4,0,0,1,0,5.71h0a4,4,0,0,1-2.85,1.19H8.73a4,4,0,0,1,0-8.09Zm10.15,1H8.73a3,3,0,0,0,0,6.09H18.88a3,3,0,0,0,0-6.09Z"/><path d="M118.65,77.9H128.8a4,4,0,0,1,2.86,1.19h0a4,4,0,0,1,0,5.71h0A4,4,0,0,1,128.8,86H118.65a4,4,0,0,1,0-8.09Zm10.15,1H118.65a3,3,0,0,0,0,6.09H128.8a3,3,0,0,0,0-6.09Z"/><path d="M118.65,85.05H128.8a4,4,0,0,1,2.86,1.19h0a4,4,0,0,1-2.86,6.9H118.65a4,4,0,0,1,0-8.09Zm10.15,1H118.65a3,3,0,0,0,0,6.09H128.8a3,3,0,0,0,0-6.09Z"/><path d="M118.65,92.12H128.8a4,4,0,0,1,2.86,1.19h0a4,4,0,0,1,0,5.71h0a4,4,0,0,1-2.85,1.19H118.65a4,4,0,0,1,0-8.09Zm10.15,1H118.65a3,3,0,0,0,0,6.09H128.8a3,3,0,0,0,0-6.09Z"/><path d="M118.65,99.19H128.8a4,4,0,0,1,2.86,1.19h0a4,4,0,0,1,0,5.71h0a4,4,0,0,1-2.85,1.19H118.65a4,4,0,0,1,0-8.09Zm10.15,1H118.65a3,3,0,0,0,0,6.09H128.8a3,3,0,0,0,0-6.09Z"/><path d="M8.73,77.9H18.88a4,4,0,0,1,2.86,1.19h0a4,4,0,0,1,0,5.71h0A4,4,0,0,1,18.88,86H8.73a4,4,0,0,1,0-8.09Zm10.15,1H8.73a3,3,0,0,0,0,6.09H18.88a3,3,0,0,0,0-6.09Z"/><path d="M8.73,85.05H18.88a4,4,0,0,1,2.86,1.19h0a4,4,0,0,1-2.86,6.9H8.73a4,4,0,0,1,0-8.09Zm10.15,1H8.73a3,3,0,0,0,0,6.09H18.88a3,3,0,0,0,0-6.09Z"/><path d="M8.73,92.12H18.88a4,4,0,0,1,2.86,1.19h0a4,4,0,0,1,0,5.71h0a4,4,0,0,1-2.85,1.19H8.73a4,4,0,0,1,0-8.09Zm10.15,1H8.73a3,3,0,0,0,0,6.09H18.88a3,3,0,0,0,0-6.09Z"/><path d="M8.73,99.19H18.88a4,4,0,0,1,2.86,1.19h0a4,4,0,0,1,0,5.71h0a4,4,0,0,1-2.85,1.19H8.73a4,4,0,0,1,0-8.09Zm10.15,1H8.73a3,3,0,0,0,0,6.09H18.88a3,3,0,0,0,0-6.09Z"/><path d="M8.73,77.9H18.88a4,4,0,0,1,2.86,1.19h0a4,4,0,0,1,0,5.71h0A4,4,0,0,1,18.88,86H8.73a4,4,0,0,1,0-8.09Zm10.15,1H8.73a3,3,0,0,0,0,6.09H18.88a3,3,0,0,0,0-6.09Z"/><path d="M8.73,85.05H18.88a4,4,0,0,1,2.86,1.19h0a4,4,0,0,1-2.86,6.9H8.73a4,4,0,0,1,0-8.09Zm10.15,1H8.73a3,3,0,0,0,0,6.09H18.88a3,3,0,0,0,0-6.09Z"/><path d="M8.73,92.12H18.88a4,4,0,0,1,2.86,1.19h0a4,4,0,0,1,0,5.71h0a4,4,0,0,1-2.85,1.19H8.73a4,4,0,0,1,0-8.09Zm10.15,1H8.73a3,3,0,0,0,0,6.09H18.88a3,3,0,0,0,0-6.09Z"/><path d="M8.73,99.19H18.88a4,4,0,0,1,2.86,1.19h0a4,4,0,0,1,0,5.71h0a4,4,0,0,1-2.85,1.19H8.73a4,4,0,0,1,0-8.09Zm10.15,1H8.73a3,3,0,0,0,0,6.09H18.88a3,3,0,0,0,0-6.09Z"/><path d="M8.73,76.4H18.88A5.53,5.53,0,0,1,22.79,78h0a5.51,5.51,0,0,1,0,7.82h0a5.53,5.53,0,0,1-3.91,1.62H8.73a5.52,5.52,0,0,1-3.91-1.63h0a5.51,5.51,0,0,1,0-7.82h0A5.52,5.52,0,0,1,8.73,76.4Zm10.15,4H8.73a1.55,1.55,0,1,0,0,3.09H18.88A1.54,1.54,0,0,0,20,83h0a1.55,1.55,0,0,0,0-2.18h0a1.54,1.54,0,0,0-1.09-.45Z"/><path d="M8.73,83.55H18.88a5.53,5.53,0,0,1,3.91,1.63h0a5.51,5.51,0,0,1,0,7.82h0a5.52,5.52,0,0,1-3.91,1.63H8.73A5.52,5.52,0,0,1,4.82,93h0a5.52,5.52,0,0,1,0-7.83h0a5.52,5.52,0,0,1,3.91-1.63Zm10.15,4H8.73a1.54,1.54,0,0,0-1.09,2.64h0a1.55,1.55,0,0,0,1.09.45H18.88A1.55,1.55,0,0,0,20,88h0a1.54,1.54,0,0,0-1.09-.45Z"/><path d="M8.73,90.62H18.88a5.53,5.53,0,0,1,3.91,1.63h0a5.51,5.51,0,0,1,0,7.82h0a5.53,5.53,0,0,1-3.91,1.62H8.73a5.52,5.52,0,0,1-3.91-1.63h0a5.51,5.51,0,0,1,0-7.82h0a5.52,5.52,0,0,1,3.91-1.63Zm10.15,4H8.73a1.55,1.55,0,1,0,0,3.09H18.88A1.54,1.54,0,0,0,20,97.27h0a1.55,1.55,0,0,0,0-2.18h0a1.54,1.54,0,0,0-1.09-.45Z"/><path d="M8.73,97.69H18.88a5.53,5.53,0,0,1,3.91,1.63h0a5.51,5.51,0,0,1,0,7.82h0a5.53,5.53,0,0,1-3.91,1.62H8.73a5.52,5.52,0,0,1-3.91-1.63h0a5.51,5.51,0,0,1,0-7.82h0a5.52,5.52,0,0,1,3.91-1.63Zm10.15,4H8.73a1.55,1.55,0,1,0,0,3.09H18.88a1.54,1.54,0,0,0,1.09-.45h0a1.55,1.55,0,0,0,0-2.18h0a1.54,1.54,0,0,0-1.09-.45Z"/><path d="M118.65,76.4H128.8A5.53,5.53,0,0,1,132.71,78h0a5.51,5.51,0,0,1,0,7.82h0a5.53,5.53,0,0,1-3.91,1.62H118.65a5.52,5.52,0,0,1-3.91-1.63h0a5.51,5.51,0,0,1,0-7.82h0a5.52,5.52,0,0,1,3.91-1.63Zm10.15,4H118.65a1.55,1.55,0,1,0,0,3.09H128.8a1.54,1.54,0,0,0,1.09-.45h0a1.55,1.55,0,0,0,0-2.18h0a1.54,1.54,0,0,0-1.09-.45Z"/><path d="M118.65,83.55H128.8a5.53,5.53,0,0,1,3.91,1.63h0a5.51,5.51,0,0,1,0,7.82h0a5.52,5.52,0,0,1-3.91,1.63H118.65A5.52,5.52,0,0,1,114.74,93h0a5.52,5.52,0,0,1,0-7.83h0a5.52,5.52,0,0,1,3.91-1.63Zm10.15,4H118.65a1.54,1.54,0,0,0-1.09,2.64h0a1.55,1.55,0,0,0,1.09.45H128.8a1.55,1.55,0,0,0,1.1-2.64h0a1.54,1.54,0,0,0-1.09-.45Z"/><path d="M118.65,90.62H128.8a5.53,5.53,0,0,1,3.91,1.63h0a5.51,5.51,0,0,1,0,7.82h0a5.53,5.53,0,0,1-3.91,1.62H118.65a5.52,5.52,0,0,1-3.91-1.63h0a5.51,5.51,0,0,1,0-7.82h0a5.52,5.52,0,0,1,3.91-1.63Zm10.15,4H118.65a1.55,1.55,0,1,0,0,3.09H128.8a1.54,1.54,0,0,0,1.09-.45h0a1.55,1.55,0,0,0,0-2.18h0a1.54,1.54,0,0,0-1.09-.45Z"/><path d="M118.65,97.69H128.8a5.53,5.53,0,0,1,3.91,1.63h0a5.51,5.51,0,0,1,0,7.82h0a5.53,5.53,0,0,1-3.91,1.62H118.65a5.52,5.52,0,0,1-3.91-1.63h0a5.51,5.51,0,0,1,0-7.82h0a5.52,5.52,0,0,1,3.91-1.63Zm10.15,4H118.65a1.55,1.55,0,1,0,0,3.09H128.8a1.54,1.54,0,0,0,1.09-.45h0a1.55,1.55,0,0,0,0-2.18h0a1.54,1.54,0,0,0-1.09-.45Z"/></g></g></svg>