<svg xmlns="http://www.w3.org/2000/svg" viewBox="0 0 137.52 151.04"><defs><style>.cls-1{fill:#fff200;}.cls-1,.cls-2{fill-rule:evenodd;}.cls-2{fill:#ed1c24;}</style></defs><title>Asset 1</title><g id="Layer_2" data-name="Layer 2"><g id="Layer_1-2" data-name="Layer 1"><path class="cls-1" d="M68.76,2A66.76,66.76,0,1,1,2,68.76,66.76,66.76,0,0,1,68.76,2Z"/><path d="M68.76,0A68.76,68.76,0,1,1,20.14,20.14,68.55,68.55,0,0,1,68.76,0Zm45.79,23a64.76,64.76,0,1,0,19,45.79,64.56,64.56,0,0,0-19-45.79Z"/><path d="M29.26,45.76a3,3,0,1,1-5.09-3.14,22.57,22.57,0,0,1,38.38,0,3,3,0,1,1-5.09,3.14,16.6,16.6,0,0,0-28.21,0Z"/><path d="M80.05,45.76A3,3,0,1,1,75,42.62a22.57,22.57,0,0,1,38.38,0,3,3,0,0,1-5.09,3.14,16.6,16.6,0,0,0-28.21,0Z"/><path class="cls-2" d="M95.55,62.88c15,0,27.18,11.33,27.18,25.29,0,35.48-36,31.24-54,62.87h0c-18-31.63-54-27.39-54-62.87,0-14,12.18-25.29,27.18-25.29,13.59,0,20,5.46,26.79,18.1,6.79-12.65,13.2-18.1,26.79-18.1Z"/><path class="cls-1" d="M8.73,78.4H18.88A3.56,3.56,0,0,1,22.43,82h0a3.56,3.56,0,0,1-3.55,3.55H8.73A3.56,3.56,0,0,1,5.19,82h0A3.56,3.56,0,0,1,8.73,78.4Z"/><path d="M8.73,76.4H18.88A5.53,5.53,0,0,1,22.79,78h0a5.51,5.51,0,0,1,0,7.82h0a5.53,5.53,0,0,1-3.91,1.62H8.73a5.52,5.52,0,0,1-3.91-1.63h0a5.51,5.51,0,0,1,0-7.82h0A5.52,5.52,0,0,1,8.73,76.4Zm10.15,4H8.73a1.55,1.55,0,1,0,0,3.09H18.88A1.54,1.54,0,0,0,20,83h0a1.55,1.55,0,0,0,0-2.18h0a1.54,1.54,0,0,0-1.09-.45Z"/><path class="cls-1" d="M8.73,85.55H18.88a3.56,3.56,0,0,1,3.55,3.55h0a3.56,3.56,0,0,1-3.55,3.55H8.73A3.56,3.56,0,0,1,5.19,89.1h0a3.56,3.56,0,0,1,3.55-3.55Z"/><path d="M8.73,83.55H18.88a5.53,5.53,0,0,1,3.91,1.63h0a5.51,5.51,0,0,1,0,7.82h0a5.52,5.52,0,0,1-3.91,1.63H8.73A5.52,5.52,0,0,1,4.82,93h0a5.52,5.52,0,0,1,0-7.83h0a5.52,5.52,0,0,1,3.91-1.63Zm10.15,4H8.73a1.54,1.54,0,0,0-1.09,2.64h0a1.55,1.55,0,0,0,1.09.45H18.88A1.55,1.55,0,0,0,20,88h0a1.54,1.54,0,0,0-1.09-.45Z"/><path class="cls-1" d="M8.73,92.62H18.88a3.56,3.56,0,0,1,3.55,3.55h0a3.56,3.56,0,0,1-3.55,3.55H8.73a3.56,3.56,0,0,1-3.55-3.55h0a3.56,3.56,0,0,1,3.55-3.55Z"/><path d="M8.73,90.62H18.88a5.53,5.53,0,0,1,3.91,1.63h0a5.51,5.51,0,0,1,0,7.82h0a5.53,5.53,0,0,1-3.91,1.62H8.73a5.52,5.52,0,0,1-3.91-1.63h0a5.51,5.51,0,0,1,0-7.82h0a5.52,5.52,0,0,1,3.91-1.63Zm10.15,4H8.73a1.55,1.55,0,1,0,0,3.09H18.88A1.54,1.54,0,0,0,20,97.27h0a1.55,1.55,0,0,0,0-2.18h0a1.54,1.54,0,0,0-1.09-.45Z"/><path class="cls-1" d="M8.73,99.69H18.88a3.56,3.56,0,0,1,3.55,3.55h0a3.56,3.56,0,0,1-3.55,3.55H8.73a3.56,3.56,0,0,1-3.55-3.55h0a3.56,3.56,0,0,1,3.55-3.55Z"/><path d="M8.73,97.69H18.88a5.53,5.53,0,0,1,3.91,1.63h0a5.51,5.51,0,0,1,0,7.82h0a5.53,5.53,0,0,1-3.91,1.62H8.73a5.52,5.52,0,0,1-3.91-1.63h0a5.51,5.51,0,0,1,0-7.82h0a5.52,5.52,0,0,1,3.91-1.63Zm10.15,4H8.73a1.55,1.55,0,1,0,0,3.09H18.88a1.54,1.54,0,0,0,1.09-.45h0a1.55,1.55,0,0,0,0-2.18h0a1.54,1.54,0,0,0-1.09-.45Z"/><path class="cls-1" d="M118.65,78.4H128.8A3.56,3.56,0,0,1,132.34,82h0a3.56,3.56,0,0,1-3.55,3.55H118.65A3.56,3.56,0,0,1,115.1,82h0a3.56,3.56,0,0,1,3.55-3.55Z"/><path d="M118.65,76.4H128.8A5.53,5.53,0,0,1,132.71,78h0a5.51,5.51,0,0,1,0,7.82h0a5.53,5.53,0,0,1-3.91,1.62H118.65a5.52,5.52,0,0,1-3.91-1.63h0a5.51,5.51,0,0,1,0-7.82h0a5.52,5.52,0,0,1,3.91-1.63Zm10.15,4H118.65a1.55,1.55,0,1,0,0,3.09H128.8a1.54,1.54,0,0,0,1.09-.45h0a1.55,1.55,0,0,0,0-2.18h0a1.54,1.54,0,0,0-1.09-.45Z"/><path class="cls-1" d="M118.65,85.55H128.8a3.56,3.56,0,0,1,3.55,3.55h0a3.56,3.56,0,0,1-3.55,3.55H118.65a3.56,3.56,0,0,1-3.55-3.55h0a3.56,3.56,0,0,1,3.55-3.55Z"/><path d="M118.65,83.55H128.8a5.53,5.53,0,0,1,3.91,1.63h0a5.51,5.51,0,0,1,0,7.82h0a5.52,5.52,0,0,1-3.91,1.63H118.65A5.52,5.52,0,0,1,114.74,93h0a5.52,5.52,0,0,1,0-7.83h0a5.52,5.52,0,0,1,3.91-1.63Zm10.15,4H118.65a1.54,1.54,0,0,0-1.09,2.64h0a1.55,1.55,0,0,0,1.09.45H128.8a1.55,1.55,0,0,0,1.1-2.64h0a1.54,1.54,0,0,0-1.09-.45Z"/><path class="cls-1" d="M118.65,92.62H128.8a3.56,3.56,0,0,1,3.55,3.55h0a3.56,3.56,0,0,1-3.55,3.55H118.65a3.56,3.56,0,0,1-3.55-3.55h0a3.56,3.56,0,0,1,3.55-3.55Z"/><path d="M118.65,90.62H128.8a5.53,5.53,0,0,1,3.91,1.63h0a5.51,5.51,0,0,1,0,7.82h0a5.53,5.53,0,0,1-3.91,1.62H118.65a5.52,5.52,0,0,1-3.91-1.63h0a5.51,5.51,0,0,1,0-7.82h0a5.52,5.52,0,0,1,3.91-1.63Zm10.15,4H118.65a1.55,1.55,0,1,0,0,3.09H128.8a1.54,1.54,0,0,0,1.09-.45h0a1.55,1.55,0,0,0,0-2.18h0a1.54,1.54,0,0,0-1.09-.45Z"/><path class="cls-1" d="M118.65,99.69H128.8a3.56,3.56,0,0,1,3.55,3.55h0a3.56,3.56,0,0,1-3.55,3.55H118.65a3.56,3.56,0,0,1-3.55-3.55h0a3.56,3.56,0,0,1,3.55-3.55Z"/><path d="M118.65,97.69H128.8a5.53,5.53,0,0,1,3.91,1.63h0a5.51,5.51,0,0,1,0,7.82h0a5.53,5.53,0,0,1-3.91,1.62H118.65a5.52,5.52,0,0,1-3.91-1.63h0a5.51,5.51,0,0,1,0-7.82h0a5.52,5.52,0,0,1,3.91-1.63Zm10.15,4H118.65a1.55,1.55,0,1,0,0,3.09H128.8a1.54,1.54,0,0,0,1.09-.45h0a1.55,1.55,0,0,0,0-2.18h0a1.54,1.54,0,0,0-1.09-.45Z"/></g></g></svg>