<svg xmlns="http://www.w3.org/2000/svg" viewBox="0 0 141.45 142.02"><defs><style>.cls-1{fill:#9d9c9e;}</style></defs><title>Asset 1</title><g id="Layer_2" data-name="Layer 2"><g id="Layer_1-2" data-name="Layer 1"><path class="cls-1" d="M37.61,36a5.05,5.05,0,0,1-.11.88h0v.08l-.07.52-.07.52-.07.52-.07.52-.07.52L37.1,40l-.07.52-.07.52-.07.52-.07.52-.07.52-.07.52a7.17,7.17,0,0,0,.22,3,6,6,0,0,0,1.28,2.33A6.56,6.56,0,0,0,40.53,50a8.26,8.26,0,0,0,3.18.64A9.42,9.42,0,0,0,47.15,50a9.26,9.26,0,0,0,3-1.82l0,0h0l0,0h0l0,0h0l0,0h0l0,0h0l.14-.14h0a8.9,8.9,0,0,0,1.65-2.39,8.33,8.33,0,0,0,.5-1.34v0h0a8.12,8.12,0,0,0,.25-1.49v-.11c.17-4.16.32-7.65.47-11.12l0-.62v-.34c.1-2.44.2-4.78.29-6.84l.1-2.34L54,16.07,54.22,10H40.92q-1.65,13-3.31,26Zm25.2,7h0c0,.11,0,.22,0,.32a7.63,7.63,0,0,0,.5,2.68,7.38,7.38,0,0,0,1.27,2.15h0l0,0,.06.07h0l0,0h0l0,0h0l0,0h0l0,0h0l0,0h0l0,0h0l0,0h0l0,0a7.94,7.94,0,0,0,2.64,1.76l0,0h0l0,0H68l0,0h5.67l0,0h0l0,0h.31l0,0h0l0,0a7.67,7.67,0,0,0,2.59-1.71,7.4,7.4,0,0,0,1.66-2.54,7.56,7.56,0,0,0,.48-3L78.63,36v-.09l-.06-1.38v-.6c-.13-3-.26-6-.42-9.69l-.4-9.5-.2-4.7H64.21c-.18,4.37-.36,8.67-.54,12.72l-.06,1.36-.33,7.75,0,.37v.24l-.08,2-.35,8.37V43Zm25.76-7.83a5.06,5.06,0,0,1,0,.61v.17l.3,6.87a8.15,8.15,0,0,0,.77,3.11,8.81,8.81,0,0,0,2,2.7,9.35,9.35,0,0,0,3,1.85,9.52,9.52,0,0,0,3.47.66,8.09,8.09,0,0,0,3.15-.63,6.58,6.58,0,0,0,2.33-1.62l0,0h0l0,0h0l0,0h0l0,0h0l0,0h0l0,0h0l0,0h0l0,0h0l0,0h0l0,0h0l0,0h0l0,0h0l0,0h0l0,0h0v0h0v0h0v0h0v-.17h0v0h0v0h0v0h0v0h0v0h0l0,0h0l0,0h0l0,0,0-.07h0l0,0h0l0,0h0l0,0h0l0-.07h0l0,0h0a6.55,6.55,0,0,0,.41-1,6.83,6.83,0,0,0,.17-.69h0v0h0v0h0a7.41,7.41,0,0,0,.06-2v-.09q-.69-5.33-1.36-10.66v-.26q-.52-4.06-1-8.12L102,19.18l-.31-2.45L100.81,10H87.5l.09,2.23.82,19.19v.52l.1,2.27,0,.95ZM115,42.42l0,.12a9.12,9.12,0,0,0,1.1,3.18,10.53,10.53,0,0,0,2.1,2.63h0l0,0h0l0,0h0l0,0h0l.07.06a11,11,0,0,0,3.3,2l0,0h0l0,0h.34l0,0h0l0,0h3.07v0h2.51l0,0,0,0,0,0,0,0,0,0,0,0h0l0,0,0,0,0,0h0l0,0,0,0,0,0a5.29,5.29,0,0,0,2-1.46v0h0v0h0v0h0v0h0a5,5,0,0,0,.92-2,7,7,0,0,0,0-2.92l-5-23.63L124.05,10h-13.2l.49,3.87.42,3.32,1.78,14,0,.27v.26l.16,1.24q.6,4.67,1.2,9.34v.1Zm26.41,4.64v80.59A14.4,14.4,0,0,1,127,142H14.38A14.4,14.4,0,0,1,0,127.64V45.14a14.38,14.38,0,0,1,.15-2A14.18,14.18,0,0,1,.51,41.4l0-.19q4-18.62,8-37.24a5,5,0,0,1,4.88-4H128.09A5,5,0,0,1,133,4.25q4,18.87,8,37.74a17.37,17.37,0,0,1,.34,5.06ZM10.28,43.47v.17a6.84,6.84,0,0,0,0,2.56,4.94,4.94,0,0,0,.83,1.9h0l0,0h0l0,0h0l0,0h0l0,0h0l0,0h0l0,0h0l0,0a5.3,5.3,0,0,0,2,1.45,7.53,7.53,0,0,0,3,.61,10.14,10.14,0,0,0,3.59-.65,11,11,0,0,0,3.27-1.93,10.64,10.64,0,0,0,2.38-2.88,8.79,8.79,0,0,0,1.08-3.16l.84-6.59v0q.77-6,1.54-12.06L30.62,10H17.44q-3.57,16.64-7.13,33.28l0,.2Zm115,17.66-.49,0h-3.18l-.08,0h0l-.09,0h0l-.1,0h0l-.1,0h0l-.1,0h0l-.1,0h0l-.11,0-.08,0h0l-.07,0h0l-.07,0h0l-.11,0h-.15l-.07,0h0l-.07,0h0l-.08,0h0l-.09,0h0l-.09,0h0l-.1,0-.1,0h0l-.09,0h0l-.09,0h0l-.08,0h0l-.07,0h0l-.06,0h0l-.06,0,0,0,0,0-.06,0h0l-.06,0h0l-.07,0h0l-.08,0h0l-.08,0h0l-.09,0h0l-.1,0a20.94,20.94,0,0,1-6.26-3.71h-.39l-.13-.12h0l0,0h0l-.28-.26-.16.18a16.49,16.49,0,0,1-5.81,4.12,18.14,18.14,0,0,1-7.05,1.41,19.37,19.37,0,0,1-13.23-5.17h-.66l-.29.3h0a17.75,17.75,0,0,1-6,4l-.09,0h0l-.09,0h0l-.08,0h0l-.08,0h0l-.07,0h0l-.06,0h0l-.1,0,0,0-.05,0h0l-.06,0h0l-.07,0h0l-.08,0h0l-.08,0h0l-.09,0h0l-.1,0h0l-.1,0h0l-.09,0h0l-.09,0h0l-.08,0h0l-.07,0h0l-.07,0h0l-.11,0h-.15l-.06,0h0l-.07,0h0l-.08,0h0l-.09,0h0l-.09,0h0l-.1,0h0l-.09,0-.1,0h0l-.09,0h0l-.08,0H71.36l-.5,0h0a5,5,0,0,1-.55,0H68.06l-.1,0h0l-.1,0h0l-.09,0h0l-.09,0H67l-.07,0h0l-.08,0h0l-.09,0h0l-.09,0h0l-.1,0h0l-.1,0h0l-.09,0h0l-.08,0h0l-.08,0h0l-.07,0h0l-.06,0h-.1l-.05,0h0l-.06,0h0l-.07,0h0l-.08,0h0l-.08,0h0l-.09,0h0l-.1,0h0L65,60h0l-.09,0h0l-.08,0h0l-.07,0h0l-.07,0h0l-.06,0,0,0-.05,0-.05,0,0,0-.06,0h0l-.07,0h0l-.07,0h0l-.08,0h0l-.09,0h0l-.09,0a18,18,0,0,1-6-4h-.35v0h-.11l0,0h0l0,0h0l0,0h0l0,0h-.36a19.26,19.26,0,0,1-13.19,5.12,18.3,18.3,0,0,1-7-1.42,16.46,16.46,0,0,1-5.8-4.11l-.42-.49q-.4.38-.83.75A21,21,0,0,1,23.29,59a20.06,20.06,0,0,1-7.1,1.28h-3l-.09,0h0L13,60h0l-.09,0h-.19l-.19,0-.08,0h0l-.26-.06h0l-.07,0h-.19l-.06,0h0l-.08,0h0l-.09,0h0l-.09,0h0l-.08,0h0l-.07,0h0l-.06,0h-.09l-.06,0h0l-.07,0h0l-.09,0h0l-.09,0h0l-.08,0h0l-.07,0h0l-.05,0,0,0h0l-.06,0h0l-.07,0h0l-.09,0h0l-.09,0v68.43A4.4,4.4,0,0,0,14.38,132H44.54V101.64a26.15,26.15,0,0,1,52.31,0V132H127a4.4,4.4,0,0,0,4.38-4.38V60.07l-.06,0h0l-.08,0h0l-.09,0h0l-.08,0h0l-.07,0h0l-.05,0h0l-.08,0-.07,0h0l-.08,0h0l-.09,0h0l-.08,0h0l-.07,0h-.09l-.05,0h0l-.07,0h0l-.09,0h0l-.09,0h0l-.08,0h0l-.06,0h-.18l-.08,0h0l-.09,0h0l-.09,0h0l-.08,0h-.28l-.08,0h0l-.09,0h0l-.09,0h-3.26v0ZM82.1,90.24a16.15,16.15,0,0,0-27.56,11.41V132H86.85V101.64A16.1,16.1,0,0,0,82.1,90.24Z"/></g></g></svg>