<svg xmlns="http://www.w3.org/2000/svg" viewBox="0 0 113.75 141.33"><defs><style>.cls-1{fill:#e64122;}.cls-2{fill:#f37433;fill-rule:evenodd;}</style></defs><title>Asset 1</title><g id="Layer_2" data-name="Layer 2"><g id="Layer_1-2" data-name="Layer 1"><path class="cls-1" d="M38.29,104.5a49.56,49.56,0,0,1,17.15,4.25C62.33,112,66.58,117,66.58,122.82s-4.26,10.78-11.14,14.07c-5.75,2.75-13.59,4.45-22.15,4.45s-16.4-1.7-22.15-4.45C4.26,133.6,0,128.65,0,122.82S4.26,112,11.14,108.75a49.56,49.56,0,0,1,17.15-4.25V5a5,5,0,1,1,10,0v9.49h30.1a5,5,0,0,1,5,5V33.9h35.36a5,5,0,0,1,3.66,8.41L98.5,59.52,112.64,77a5,5,0,0,1-3.89,8.11H68.52a5,5,0,0,1-5-5V65.73H38.29V104.5Zm60-60.6H73.52V75.14H98.3l-10-12.42a5,5,0,0,1-.06-6.32L98.3,43.9ZM63.39,24.49H41.53V55.73H63.39V24.49Zm-25.1,90v8.73a5,5,0,1,1-10,0v-8.73a38.67,38.67,0,0,0-12.86,3.24c-3.36,1.6-5.43,3.41-5.43,5s2.08,3.44,5.43,5c4.49,2.14,10.8,3.47,17.86,3.47s13.37-1.33,17.86-3.47c3.36-1.6,5.43-3.41,5.43-5s-2.08-3.44-5.43-5a38.67,38.67,0,0,0-12.86-3.24Z"/><path class="cls-2" d="M87.72,95.27c5.4,0,9.78,3.74,9.78,8.36S93.13,112,87.72,112s-9.78-3.74-9.78-8.36,4.38-8.36,9.78-8.36Z"/><path class="cls-2" d="M5.82,40.74A5.3,5.3,0,1,1,.53,46a5.3,5.3,0,0,1,5.3-5.3Z"/><path class="cls-2" d="M102,13a3.31,3.31,0,1,1-3.31,3.31A3.31,3.31,0,0,1,102,13Z"/></g></g></svg>