<svg xmlns="http://www.w3.org/2000/svg" viewBox="0 0 86.6 141.36"><defs><style>.cls-1{fill:#e64122;}.cls-2,.cls-3{fill:#f37433;}.cls-2{fill-rule:evenodd;}</style></defs><title>Asset 1</title><g id="Layer_2" data-name="Layer 2"><g id="Layer_1-2" data-name="Layer 1"><path class="cls-1" d="M19.51,0H67.1A19.55,19.55,0,0,1,86.6,19.51V121.86A19.55,19.55,0,0,1,67.1,141.36H19.51A19.55,19.55,0,0,1,0,121.86V19.51A19.55,19.55,0,0,1,19.51,0ZM67.1,10H19.51A9.55,9.55,0,0,0,10,19.51V121.86a9.55,9.55,0,0,0,9.51,9.51H67.1a9.55,9.55,0,0,0,9.51-9.51V19.51A9.55,9.55,0,0,0,67.1,10Z"/><path class="cls-2" d="M43.3,117.46a5.85,5.85,0,1,1-5.85,5.85,5.85,5.85,0,0,1,5.85-5.85Z"/><path class="cls-3" d="M21.44,17.19a1,1,0,0,1,0-2H65.16a1,1,0,0,1,0,2Z"/></g></g></svg>