<svg xmlns="http://www.w3.org/2000/svg" viewBox="0 0 142.14 142.22"><defs><style>.cls-1{fill:#212121;}</style></defs><title>Asset 1</title><g id="Layer_2" data-name="Layer 2"><g id="Layer_1-2" data-name="Layer 1"><path class="cls-1" d="M71.07,123.45H58.23a13.78,13.78,0,0,0,25.67,0ZM81,16.89a42.6,42.6,0,0,1,34.71,40.6,5,5,0,0,1,0,.62V83.3c0,7,3.23,8,5.71,8a25.65,25.65,0,0,0,2.65-.15c.82-.08,1.5-.15,1.94-.15a16.12,16.12,0,0,1,0,32.24H94.34a23.78,23.78,0,0,1-46.55,0H16.12a16.12,16.12,0,0,1,0-32.24c.5,0,1.31.07,2.24.16h.13c.68.06,1.48.13,2.54.13v0c2.44,0,5.4-1,5.4-8.06V58.11a5,5,0,0,1,0-.62,42.6,42.6,0,0,1,34.7-40.6,11.36,11.36,0,1,1,19.8,0ZM72,10.39a1.34,1.34,0,1,0,0,1.93l0,0a1.38,1.38,0,0,0,0-1.91Zm1.26,15.79H68.86A32.54,32.54,0,0,0,36.42,57.77c0,.11,0,.22,0,.34V83.3c0,15.7-8.44,18-15.4,18v0c-1.08,0-2.34-.11-3.43-.21h-.13c-.46,0-.87-.08-1.34-.08a6.12,6.12,0,0,0,0,12.24H126a6.12,6.12,0,0,0,0-12.24c-.31,0-.63,0-1,.07-1.06.1-2.35.23-3.58.23-6.84,0-15.71-2.33-15.71-18V58.11h0A32.54,32.54,0,0,0,73.28,26.19Z"/></g></g></svg>