<svg xmlns="http://www.w3.org/2000/svg" viewBox="0 0 186.18 155.91"><defs><style>.cls-1{fill:#231f20;}</style></defs><title>Asset 1</title><g id="Layer_2" data-name="Layer 2"><g id="Layer_1-2" data-name="Layer 1"><path class="cls-1" d="M29,26.66a3.54,3.54,0,1,1-5-5A73.47,73.47,0,0,1,75.31,0a3.54,3.54,0,1,1,.06,7.08A66.34,66.34,0,0,0,29,26.66Z"/><path class="cls-1" d="M77.12,78.78,29.44,31a1.18,1.18,0,0,1,0-1.67A68.67,68.67,0,0,1,78,9.3h0a1.18,1.18,0,0,1,1.18,1.18s0,.07,0,.1l0,67.36a1.18,1.18,0,0,1-2,.83ZM32,30.22,76.77,75.1l0-63.42A66.25,66.25,0,0,0,32,30.22Z"/><path class="cls-1" d="M43.77,24.44a6.23,6.23,0,1,1-4.41,1.83,6.21,6.21,0,0,1,4.41-1.83Zm2.73,3.5a3.86,3.86,0,1,0,1.13,2.73,3.85,3.85,0,0,0-1.13-2.73Z"/><path class="cls-1" d="M63.83,33.43a9.57,9.57,0,1,1-6.77,2.8,9.54,9.54,0,0,1,6.77-2.8Zm5.09,4.48A7.2,7.2,0,1,0,71,43a7.18,7.18,0,0,0-2.11-5.09Z"/><path class="cls-1" d="M70.32,54a5.28,5.28,0,1,1-3.73,1.55A5.26,5.26,0,0,1,70.32,54Zm2.06,3.22a2.91,2.91,0,1,0,.85,2.06,2.9,2.9,0,0,0-.85-2.06Z"/><path class="cls-1" d="M58.44,25.16a3.63,3.63,0,1,1-2.56,1.06,3.62,3.62,0,0,1,2.56-1.06Zm.89,2.74a1.26,1.26,0,1,0,.37.89,1.26,1.26,0,0,0-.37-.89Z"/><path class="cls-1" d="M68.57,25.88a5.42,5.42,0,1,1,3.83-1.59,5.4,5.4,0,0,1-3.83,1.59Zm-2.16-3.26a3,3,0,1,0-.89-2.16,3,3,0,0,0,.89,2.16Z"/><path class="cls-1" d="M7.08,76.3A3.54,3.54,0,0,1,0,76.3,73.35,73.35,0,0,1,21,24.72a3.54,3.54,0,1,1,5,5,66.46,66.46,0,0,0-19,46.61Z"/><path class="cls-1" d="M77.9,79.13l-67.42,0a1.18,1.18,0,0,1-1.18-1.18,68.64,68.64,0,0,1,20.1-48.5l.1-.09a1.18,1.18,0,0,1,1.58.07l47.7,47.74a1.18,1.18,0,0,1-.89,2Zm-66.22-2.4,63.43,0L30.28,31.91a66.28,66.28,0,0,0-18.6,44.82Z"/><path class="cls-1" d="M15.95,64.28a6.23,6.23,0,1,1-1.83,4.41,6.21,6.21,0,0,1,1.83-4.41ZM17.62,66a3.86,3.86,0,1,0,2.73-1.13A3.85,3.85,0,0,0,17.62,66Z"/><path class="cls-1" d="M36.48,56.46a9.57,9.57,0,1,1-2.8,6.77,9.54,9.54,0,0,1,2.8-6.77Zm1.67,1.67h0A7.2,7.2,0,1,0,43.25,56a7.18,7.18,0,0,0-5.09,2.11Z"/><path class="cls-1" d="M55.62,66.41a5.28,5.28,0,1,1-1.55,3.73,5.26,5.26,0,0,1,1.55-3.73Zm3.73.82a2.91,2.91,0,1,0,2.06.85,2.9,2.9,0,0,0-2.06-.85Z"/><path class="cls-1" d="M26.82,54.42A3.63,3.63,0,1,1,25.76,57a3.62,3.62,0,0,1,1.06-2.56Zm2.56,1.31a1.26,1.26,0,1,0,.89.37,1.26,1.26,0,0,0-.89-.37Z"/><path class="cls-1" d="M34.49,47.76a5.42,5.42,0,1,1,1.59-3.83,5.4,5.4,0,0,1-1.59,3.83h0Zm-1.67-1.67h0a3.05,3.05,0,1,0-2.16.89,3,3,0,0,0,2.16-.89Z"/><path class="cls-1" d="M26.66,126.89a3.54,3.54,0,1,1-5,5A73.47,73.47,0,0,1,0,80.6a3.54,3.54,0,0,1,7.08-.06,66.34,66.34,0,0,0,19.56,46.35Z"/><path class="cls-1" d="M78.78,78.79,31,126.46a1.18,1.18,0,0,1-1.67,0A68.67,68.67,0,0,1,9.3,78v0a1.18,1.18,0,0,1,1.18-1.18h.1l67.36,0a1.18,1.18,0,0,1,.83,2ZM30.22,123.95,75.1,79.13l-63.42,0a66.25,66.25,0,0,0,18.54,44.85Z"/><path class="cls-1" d="M24.44,112.13a6.23,6.23,0,1,1,1.83,4.41,6.21,6.21,0,0,1-1.83-4.41Zm3.5-2.73a3.86,3.86,0,1,0,2.73-1.13,3.85,3.85,0,0,0-2.73,1.13Z"/><path class="cls-1" d="M33.43,92.08a9.57,9.57,0,1,1,2.8,6.77,9.54,9.54,0,0,1-2.8-6.77ZM37.91,87A7.2,7.2,0,1,0,43,84.88,7.18,7.18,0,0,0,37.91,87Z"/><path class="cls-1" d="M54,85.59a5.28,5.28,0,1,1,1.55,3.73A5.26,5.26,0,0,1,54,85.59Zm3.22-2.06a2.91,2.91,0,1,0,2.06-.85,2.9,2.9,0,0,0-2.06.85Z"/><path class="cls-1" d="M25.16,97.46a3.63,3.63,0,0,1,6.19-2.57l.07.08a3.63,3.63,0,1,1-6.26,2.49Zm2.74-.89a1.26,1.26,0,1,0,1.83,0l0,0a1.26,1.26,0,0,0-1.78,0Z"/><path class="cls-1" d="M25.88,87.34a5.42,5.42,0,1,1-1.59-3.83,5.4,5.4,0,0,1,1.59,3.83Zm-3.26,2.16a3,3,0,1,0-2.16.89,3,3,0,0,0,2.16-.89Z"/><path class="cls-1" d="M76.3,148.83a3.54,3.54,0,0,1,0,7.08,73.34,73.34,0,0,1-51.58-21,3.54,3.54,0,1,1,5-5,66.46,66.46,0,0,0,46.61,19Z"/><path class="cls-1" d="M79.13,78l0,67.42a1.18,1.18,0,0,1-1.18,1.18,68.65,68.65,0,0,1-48.5-20.1l-.09-.1a1.18,1.18,0,0,1,.07-1.58l47.74-47.7a1.18,1.18,0,0,1,2,.89Zm-2.4,66.22,0-63.43L31.91,125.63a66.29,66.29,0,0,0,44.82,18.6Z"/><path class="cls-1" d="M64.28,140a6.23,6.23,0,1,1,4.41,1.83A6.21,6.21,0,0,1,64.28,140ZM66,138.28a3.86,3.86,0,1,0-1.13-2.73A3.85,3.85,0,0,0,66,138.28Z"/><path class="cls-1" d="M56.46,119.42a9.57,9.57,0,1,1,6.77,2.8,9.54,9.54,0,0,1-6.77-2.8ZM56,112.65a7.2,7.2,0,1,0,2.11-5.09A7.18,7.18,0,0,0,56,112.65Z"/><path class="cls-1" d="M66.41,100.29a5.28,5.28,0,1,1,7.46-7.46l.07.07a5.27,5.27,0,0,1-.07,7.38h0a5.28,5.28,0,0,1-7.46,0Zm.82-3.73a2.91,2.91,0,0,0,5,2.06h0a2.92,2.92,0,0,0,.05-4.07l-.05,0a2.91,2.91,0,0,0-5,2.06Z"/><path class="cls-1" d="M54.42,129.08a3.63,3.63,0,1,1,5.13,0l-.08.07a3.62,3.62,0,0,1-5-.07h0Zm1.31-2.57a1.25,1.25,0,0,0,.37.89h0a1.27,1.27,0,0,0,1.74,0l0,0a1.26,1.26,0,1,0-2.15-.89Z"/><path class="cls-1" d="M47.76,121.41a5.42,5.42,0,1,1-3.83-1.59,5.4,5.4,0,0,1,3.83,1.59ZM47,125.24a3,3,0,1,0-.89,2.16,3,3,0,0,0,.89-2.16Z"/><path class="cls-1" d="M126.89,129.24a3.54,3.54,0,0,1,5,5A73.47,73.47,0,0,1,80.6,155.88a3.54,3.54,0,1,1-.06-7.08,66.34,66.34,0,0,0,46.35-19.56Z"/><path class="cls-1" d="M78.79,77.12l47.67,47.74a1.18,1.18,0,0,1,0,1.67A68.67,68.67,0,0,1,78,146.6h0a1.18,1.18,0,0,1-1.18-1.18s0-.07,0-.1l0-67.36a1.18,1.18,0,0,1,2-.83Zm45.16,48.56L79.13,80.8l0,63.42a66.25,66.25,0,0,0,44.85-18.54Z"/><path class="cls-1" d="M112.13,131.46a6.23,6.23,0,1,1,4.41-1.83,6.21,6.21,0,0,1-4.41,1.83ZM109.4,128a3.86,3.86,0,1,0-1.13-2.73A3.85,3.85,0,0,0,109.4,128Z"/><path class="cls-1" d="M92.08,122.47a9.57,9.57,0,1,1,6.77-2.8,9.54,9.54,0,0,1-6.77,2.8ZM87,118a7.2,7.2,0,1,0-2.11-5.09A7.18,7.18,0,0,0,87,118Z"/><path class="cls-1" d="M85.59,101.91a5.28,5.28,0,1,1,3.73-1.55,5.26,5.26,0,0,1-3.73,1.55Zm-2.06-3.22a2.91,2.91,0,1,0-.85-2.06,2.9,2.9,0,0,0,.85,2.06Z"/><path class="cls-1" d="M97.46,130.75a3.61,3.61,0,0,1-2.56-1.06h0a3.63,3.63,0,1,1,2.57,1.06ZM96.57,128a1.27,1.27,0,1,0-.37-.89,1.26,1.26,0,0,0,.37.89Z"/><path class="cls-1" d="M87.34,130a5.42,5.42,0,1,1-3.83,1.59A5.4,5.4,0,0,1,87.34,130Zm2.16,3.26a3,3,0,1,0,.89,2.16,3,3,0,0,0-.89-2.16Z"/><path class="cls-1" d="M148.83,79.61a3.54,3.54,0,0,1,7.08,0,73.35,73.35,0,0,1-21,51.58,3.54,3.54,0,1,1-5-5,66.46,66.46,0,0,0,19-46.61Z"/><path class="cls-1" d="M78,76.77l67.42,0A1.18,1.18,0,0,1,146.6,78a68.65,68.65,0,0,1-20.1,48.5l0,0a1.18,1.18,0,0,1-1.67,0l-.06-.06L77.12,78.78a1.18,1.18,0,0,1,.89-2Zm66.22,2.4-63.43,0L125.63,124a66.29,66.29,0,0,0,18.6-44.82Z"/><path class="cls-1" d="M140,91.62a6.23,6.23,0,1,1,1.83-4.41A6.21,6.21,0,0,1,140,91.62Zm-4.41-.54a3.86,3.86,0,1,0-2.73-1.13,3.85,3.85,0,0,0,2.73,1.13Z"/><path class="cls-1" d="M119.42,99.45h0a9.57,9.57,0,0,1-13.53,0h0a9.57,9.57,0,1,1,13.53,0Zm-1.67-1.67h0a7.2,7.2,0,1,0-10.18,0h0a7.2,7.2,0,0,0,10.18,0Z"/><path class="cls-1" d="M100.29,89.49a5.28,5.28,0,1,1,1.55-3.73,5.26,5.26,0,0,1-1.55,3.73Zm-3.73-.82a2.91,2.91,0,1,0-2.06-.85,2.9,2.9,0,0,0,2.06.85Z"/><path class="cls-1" d="M129.08,101.49a3.62,3.62,0,0,1-5.12,0h0a3.63,3.63,0,0,1,0-5.13h0l.08-.07a3.63,3.63,0,0,1,5.05,5.2Zm-1.67-1.67A1.26,1.26,0,0,0,125.67,98l0,0a1.26,1.26,0,0,0,0,1.78h0a1.27,1.27,0,0,0,1.78,0Z"/><path class="cls-1" d="M121.41,108.14a5.42,5.42,0,1,1-1.59,3.83,5.4,5.4,0,0,1,1.59-3.83Zm1.67,1.67a3,3,0,1,0,2.16-.89,3,3,0,0,0-2.16.89Z"/><path class="cls-1" d="M79.61,7.08a3.54,3.54,0,0,1,0-7.08,73.34,73.34,0,0,1,51.58,21,3.54,3.54,0,1,1-5,5,66.46,66.46,0,0,0-46.61-19Z"/><path class="cls-1" d="M76.77,77.9l0-67.42A1.18,1.18,0,0,1,78,9.31a68.65,68.65,0,0,1,48.5,20.1l.09.1a1.18,1.18,0,0,1-.07,1.58L78.78,78.79a1.18,1.18,0,0,1-2-.89Zm2.4-66.22,0,63.43L124,30.28a66.29,66.29,0,0,0-44.82-18.6Z"/><path class="cls-1" d="M91.62,15.95a6.23,6.23,0,1,1-4.41-1.83,6.21,6.21,0,0,1,4.41,1.83Zm-.54,4.41a3.86,3.86,0,1,0-1.13,2.73,3.85,3.85,0,0,0,1.13-2.73Z"/><path class="cls-1" d="M99.44,36.48a9.57,9.57,0,1,1-6.77-2.8,9.54,9.54,0,0,1,6.77,2.8Zm-1.67,1.67h0a7.2,7.2,0,1,0,2.11,5.09,7.18,7.18,0,0,0-2.11-5.09Z"/><path class="cls-1" d="M89.49,55.62a5.28,5.28,0,0,1,0,7.46h0a5.28,5.28,0,0,1-7.46,0h0a5.28,5.28,0,0,1,7.46-7.46Zm-1.67,1.67a2.91,2.91,0,1,0-4.12,4.11h0a2.91,2.91,0,0,0,4.11,0h0a2.91,2.91,0,0,0,0-4.11Z"/><path class="cls-1" d="M101.49,26.82a3.63,3.63,0,0,1,0,5.13l-.08.07a3.63,3.63,0,1,1,.07-5.2h0Zm-1.31,2.57a1.26,1.26,0,0,0-.37-.89h0a1.26,1.26,0,1,0,0,1.83l0,0a1.26,1.26,0,0,0,.37-.89Z"/><path class="cls-1" d="M108.14,34.49A5.42,5.42,0,1,1,112,36.08a5.4,5.4,0,0,1-3.83-1.59Zm.78-3.83a3,3,0,1,0,.89-2.16,3,3,0,0,0-.89,2.16Z"/><path class="cls-1" d="M159.55,11.13a3.54,3.54,0,0,1,5-5,73.47,73.47,0,0,1,21.64,51.31,3.54,3.54,0,0,1-7.08.06,66.34,66.34,0,0,0-19.56-46.35Z"/><path class="cls-1" d="M161.77,25.89a6.23,6.23,0,1,1-1.83-4.41,6.21,6.21,0,0,1,1.83,4.41Zm-3.5,2.73a3.86,3.86,0,1,0-2.73,1.13,3.85,3.85,0,0,0,2.73-1.13Z"/><path class="cls-1" d="M152.78,45.95a9.57,9.57,0,1,1-2.8-6.77,9.54,9.54,0,0,1,2.8,6.77ZM148.3,51a7.2,7.2,0,1,0-5.09,2.11A7.18,7.18,0,0,0,148.3,51Z"/><path class="cls-1" d="M132.21,52.44a5.28,5.28,0,1,1-1.55-3.73,5.26,5.26,0,0,1,1.55,3.73ZM129,54.49a2.91,2.91,0,1,0-2.06.85,2.9,2.9,0,0,0,2.06-.85Z"/><path class="cls-1" d="M161.05,40.56a3.63,3.63,0,0,1-6.19,2.57l-.07-.08a3.63,3.63,0,1,1,6.26-2.49Zm-2.74.89a1.26,1.26,0,1,0-1.83,0l0,0a1.26,1.26,0,0,0,1.78,0Z"/><path class="cls-1" d="M160.33,50.69a5.42,5.42,0,1,1,1.59,3.83,5.4,5.4,0,0,1-1.59-3.83Zm3.26-2.16a3,3,0,1,0,2.16-.89,3,3,0,0,0-2.16.89Z"/><path class="cls-1" d="M156.83,11.56a68.68,68.68,0,0,1,20.07,48.51v0a1.18,1.18,0,0,1-1.18,1.18H162v.94a3.29,3.29,0,0,1-6.58,0v-.95H148v4.17a2.62,2.62,0,0,1-.77,1.86h0a2.62,2.62,0,0,1-3.72,0h0a2.62,2.62,0,0,1-.77-1.86V61.26H137v.88a3.13,3.13,0,0,1-6.26,0v-.88h-5.21v.4h0v1.51a3.45,3.45,0,0,1-6.91,0V61.65a1.16,1.16,0,0,1,0-.12v-.26l-2.42,0v2.33a3,3,0,0,1-6,0V61.25h-1.93a1.18,1.18,0,0,1-.83-2h0l47.74-47.68a1.18,1.18,0,0,1,1.67,0Zm12.67,23.16A66.27,66.27,0,0,0,156,14.07L111.11,58.9h.27a1.18,1.18,0,0,1,1.18,1.18v.7h0v2.82a.63.63,0,0,0,1.26,0V60.77h0v-.71A1.18,1.18,0,0,1,115,58.89l4.8,0A1.18,1.18,0,0,1,121,60.11l0,1.45s0,.06,0,.09v1.51a1.09,1.09,0,0,0,2.17,0V61.65h0V60.08a1.18,1.18,0,0,1,1.18-1.18h7.58a1.18,1.18,0,0,1,1.18,1.18v1.19h0v.88a.76.76,0,0,0,1.52,0v-.88h0V60.08a1.18,1.18,0,0,1,1.18-1.18h8.15a1.18,1.18,0,0,1,1.17,1.19V61s0,.06,0,.09v4.37a.26.26,0,0,0,.08.19h0a.26.26,0,0,0,.19.07.26.26,0,0,0,.19-.08h0a.27.27,0,0,0,.08-.19V61.07h0v-1a1.18,1.18,0,0,1,1.18-1.17h9.94a1.18,1.18,0,0,1,1.11,1.25c0,.74-.07,1.32-.07,2.06a.92.92,0,0,0,1.85,0v-1h0V60.09a1.18,1.18,0,0,1,1.18-1.18h13.7a66.27,66.27,0,0,0-5-24.2Z"/></g></g></svg>