<svg xmlns="http://www.w3.org/2000/svg" viewBox="0 0 169.02 141.73"><defs><style>.cls-1{fill:#f37433;}.cls-2{fill:#ffcb05;}.cls-2,.cls-3{fill-rule:evenodd;}.cls-3{fill:#e64122;}</style></defs><title>Asset 1</title><g id="Layer_2" data-name="Layer 2"><g id="Layer_1-2" data-name="Layer 1"><path class="cls-1" d="M27.19,25.07a3.8,3.8,0,0,1-5.39-5.36A66.83,66.83,0,0,1,68.48,0a3.8,3.8,0,1,1,.06,7.59A59.18,59.18,0,0,0,27.19,25.07Z"/><path class="cls-2" d="M70.87,70.87l-43-43a60.81,60.81,0,0,1,43-17.78h0l0,60.81Z"/><path class="cls-3" d="M40.06,23.7a4.55,4.55,0,1,1-4.55,4.55,4.55,4.55,0,0,1,4.55-4.55Z"/><path class="cls-3" d="M58.14,31.81a7.56,7.56,0,1,1-7.56,7.56,7.56,7.56,0,0,1,7.56-7.56Z"/><path class="cls-3" d="M64,50.34A3.69,3.69,0,1,1,60.3,54,3.69,3.69,0,0,1,64,50.34Z"/><path class="cls-3" d="M53.28,24.35a2.2,2.2,0,1,1-2.2,2.2,2.2,2.2,0,0,1,2.2-2.2Z"/><path class="cls-3" d="M62.41,22.86A3.81,3.81,0,1,1,66.22,19a3.81,3.81,0,0,1-3.81,3.81Z"/><path class="cls-1" d="M7.59,69.38a3.8,3.8,0,1,1-7.59,0A66.7,66.7,0,0,1,19.08,22.46a3.8,3.8,0,0,1,5.42,5.33A59.31,59.31,0,0,0,7.59,69.38Z"/><path class="cls-2" d="M70.87,70.87l-60.81,0a60.81,60.81,0,0,1,17.81-43l0,0,43,43Z"/><path class="cls-3" d="M15.73,59.3a4.55,4.55,0,1,1,0,6.43,4.55,4.55,0,0,1,0-6.43Z"/><path class="cls-3" d="M34.25,52.25a7.56,7.56,0,1,1,0,10.69,7.56,7.56,0,0,1,0-10.69Z"/><path class="cls-3" d="M51.49,61.22a3.69,3.69,0,1,1,0,5.22,3.69,3.69,0,0,1,0-5.22Z"/><path class="cls-3" d="M25.54,50.41a2.2,2.2,0,1,1,0,3.11,2.2,2.2,0,0,1,0-3.11Z"/><path class="cls-3" d="M30.94,42.9a3.81,3.81,0,1,1,0-5.39,3.81,3.81,0,0,1,0,5.39Z"/><path class="cls-1" d="M25.07,114.54a3.8,3.8,0,1,1-5.36,5.39A66.83,66.83,0,0,1,0,73.26a3.8,3.8,0,1,1,7.59-.06,59.18,59.18,0,0,0,17.45,41.35Z"/><path class="cls-2" d="M70.87,70.87l-43,43a60.81,60.81,0,0,1-17.78-43v0l60.81,0Z"/><path class="cls-3" d="M23.7,101.67a4.55,4.55,0,1,1,4.55,4.55,4.55,4.55,0,0,1-4.55-4.55Z"/><path class="cls-3" d="M31.81,83.6a7.56,7.56,0,1,1,7.56,7.56,7.56,7.56,0,0,1-7.56-7.56Z"/><path class="cls-3" d="M50.34,77.75A3.69,3.69,0,1,1,54,81.44a3.69,3.69,0,0,1-3.69-3.69Z"/><path class="cls-3" d="M24.35,88.45a2.2,2.2,0,1,1,2.2,2.2,2.2,2.2,0,0,1-2.2-2.2Z"/><path class="cls-3" d="M22.86,79.32A3.81,3.81,0,1,1,19,75.51a3.81,3.81,0,0,1,3.81,3.81Z"/><path class="cls-1" d="M69.38,134.14a3.8,3.8,0,0,1,0,7.59,66.7,66.7,0,0,1-46.91-19.08,3.8,3.8,0,1,1,5.33-5.42,59.31,59.31,0,0,0,41.59,16.91Z"/><path class="cls-2" d="M70.87,70.87l0,60.81a60.81,60.81,0,0,1-43-17.81l0,0,43-43Z"/><path class="cls-3" d="M59.3,126a4.55,4.55,0,1,1,6.43,0,4.55,4.55,0,0,1-6.43,0Z"/><path class="cls-3" d="M52.25,107.49a7.56,7.56,0,1,1,10.69,0,7.56,7.56,0,0,1-10.69,0Z"/><path class="cls-3" d="M61.22,90.24a3.69,3.69,0,1,1,5.22,0,3.69,3.69,0,0,1-5.22,0Z"/><path class="cls-3" d="M50.41,116.19a2.2,2.2,0,1,1,3.11,0,2.2,2.2,0,0,1-3.11,0Z"/><path class="cls-3" d="M42.9,110.79a3.81,3.81,0,1,1-5.39,0,3.82,3.82,0,0,1,5.39,0Z"/><path class="cls-1" d="M114.54,116.67a3.8,3.8,0,0,1,5.39,5.36,66.83,66.83,0,0,1-46.68,19.68,3.8,3.8,0,0,1-.06-7.59,59.18,59.18,0,0,0,41.35-17.45Z"/><path class="cls-2" d="M70.87,70.87l43,43a60.81,60.81,0,0,1-43,17.78h0l0-60.81Z"/><path class="cls-3" d="M101.67,118a4.55,4.55,0,1,1,4.55-4.55,4.55,4.55,0,0,1-4.55,4.55Z"/><path class="cls-3" d="M83.6,109.93a7.56,7.56,0,1,1,7.56-7.56,7.56,7.56,0,0,1-7.56,7.56Z"/><path class="cls-3" d="M77.75,91.39a3.69,3.69,0,1,1,3.69-3.69,3.69,3.69,0,0,1-3.69,3.69Z"/><path class="cls-3" d="M88.45,117.38a2.2,2.2,0,1,1,2.2-2.2,2.2,2.2,0,0,1-2.2,2.2Z"/><path class="cls-3" d="M79.32,118.87a3.81,3.81,0,1,1-3.81,3.81,3.81,3.81,0,0,1,3.81-3.81Z"/><path class="cls-1" d="M134.14,72.36a3.8,3.8,0,1,1,7.59,0,66.7,66.7,0,0,1-19.08,46.91,3.8,3.8,0,0,1-5.42-5.33,59.31,59.31,0,0,0,16.91-41.58Z"/><path class="cls-2" d="M70.87,70.87l60.81,0a60.81,60.81,0,0,1-17.81,43l0,0-43-43Z"/><path class="cls-3" d="M126,82.43A4.55,4.55,0,1,1,126,76a4.55,4.55,0,0,1,0,6.43Z"/><path class="cls-3" d="M107.49,89.48a7.56,7.56,0,1,1,0-10.69,7.56,7.56,0,0,1,0,10.69Z"/><path class="cls-3" d="M90.24,80.51a3.69,3.69,0,1,1,0-5.22,3.69,3.69,0,0,1,0,5.22Z"/><path class="cls-3" d="M116.19,91.32a2.2,2.2,0,1,1,0-3.11,2.2,2.2,0,0,1,0,3.11Z"/><path class="cls-3" d="M110.79,98.83a3.81,3.81,0,1,1,0,5.39,3.81,3.81,0,0,1,0-5.39Z"/><path class="cls-1" d="M72.36,7.59a3.8,3.8,0,1,1,0-7.59,66.7,66.7,0,0,1,46.91,19.08,3.8,3.8,0,1,1-5.33,5.42A59.31,59.31,0,0,0,72.36,7.59Z"/><path class="cls-2" d="M70.87,70.87l0-60.81a60.81,60.81,0,0,1,43,17.81l0,0-43,43Z"/><path class="cls-3" d="M82.43,15.73a4.55,4.55,0,1,1-6.43,0,4.55,4.55,0,0,1,6.43,0Z"/><path class="cls-3" d="M89.48,34.25a7.56,7.56,0,1,1-10.69,0,7.56,7.56,0,0,1,10.69,0Z"/><path class="cls-3" d="M80.51,51.49a3.69,3.69,0,1,1-5.22,0,3.69,3.69,0,0,1,5.22,0Z"/><path class="cls-3" d="M91.32,25.54a2.2,2.2,0,1,1-3.11,0,2.2,2.2,0,0,1,3.11,0Z"/><path class="cls-3" d="M98.83,30.94a3.81,3.81,0,1,1,5.39,0,3.82,3.82,0,0,1-5.39,0Z"/><path class="cls-2" d="M141.21,11.78a60.81,60.81,0,0,1,17.78,43v0H145.56v1.91a1.9,1.9,0,0,1-3.8,0v-.86l.06-1.06h-8.9v4.82a1.31,1.31,0,1,1-2.61,0V54.76H123v1.87a1.75,1.75,0,0,1-3.51,0V54.76h-6.84v2.78a2,2,0,1,1-4.09,0V56.17l0-1.39-4.32,0v3.17a1.64,1.64,0,0,1-3.27,0V54.75H98.18l43-43Z"/><path class="cls-1" d="M144,11.07a3.8,3.8,0,0,1,5.36-5.39A66.83,66.83,0,0,1,169,52.36a3.8,3.8,0,0,1-7.59.06A59.18,59.18,0,0,0,144,11.07Z"/><path class="cls-3" d="M145.34,23.94a4.55,4.55,0,1,1-4.55-4.55,4.55,4.55,0,0,1,4.55,4.55Z"/><path class="cls-3" d="M137.24,42a7.56,7.56,0,1,1-7.56-7.56A7.56,7.56,0,0,1,137.24,42Z"/><path class="cls-3" d="M118.7,47.87A3.69,3.69,0,1,1,115,44.18a3.69,3.69,0,0,1,3.69,3.69Z"/><path class="cls-3" d="M144.7,37.16a2.2,2.2,0,1,1-2.2-2.2,2.2,2.2,0,0,1,2.2,2.2Z"/><path class="cls-3" d="M146.18,46.29A3.81,3.81,0,1,1,150,50.11a3.81,3.81,0,0,1-3.81-3.81Z"/></g></g></svg>