<svg xmlns="http://www.w3.org/2000/svg" viewBox="0 0 130.74 151.73"><defs><style>.cls-1,.cls-2{fill:none;stroke:#000;stroke-width:10px;}.cls-1{stroke-miterlimit:22.93;}.cls-2{stroke-linecap:round;stroke-linejoin:round;}.cls-3{fill-rule:evenodd;}</style></defs><title>Asset 1</title><g id="Layer_2" data-name="Layer 2"><g id="Layer_1-2" data-name="Layer 1"><path class="cls-1" d="M5,45.14c0,18-.38,29.66,4,47.23,2.83,11.38,7.17,18.8,13.65,27.59,4.84,6.56,15,14.9,22.5,18.75,2,1,3.84,2.05,6,3.14,4.15,2.09,10.52,4.89,15.32,4.89,1.94,0,11.48-4.09,13.29-5a101.1,101.1,0,0,0,11.62-6.65c17.59-11.72,28.47-29.55,32-50.18,2.59-15,2.29-24.63,2.29-39.79,0-1,0-2.07,0-3.05a31.86,31.86,0,0,0-1.21-8.2,14.91,14.91,0,0,0-9.55-9c-3.41-1.15-12.35-1-21-3.87l-8.8-3.65A65.44,65.44,0,0,1,74,9.62C70.46,6.63,69.95,5,64.54,5c-4.38,0-8.75,6.29-14.93,10-1.24.74-2.46,1.53-3.8,2.29L37,21c-11.54,3.85-18.86,1.7-25.36,5.93C6.21,30.43,5.35,35.79,5,41.82c-.06,1,0,2.26,0,3.32Z"/><path class="cls-2" d="M65.37,48.79A27.07,27.07,0,1,1,38.3,75.87,27.07,27.07,0,0,1,65.37,48.79Z"/><path class="cls-3" d="M50,77.69a3.84,3.84,0,0,1,1.35-3.14,5.49,5.49,0,0,1,3.52-1A5.37,5.37,0,0,1,57.83,75a25.71,25.71,0,0,1,2.67,2.64c1.51-1.4,4.89-4.84,7-6.94l1.49-1.51c.31-.31.65-.68,1-1.1a24.53,24.53,0,0,1,3.38-3.29c2.15-1.6,4.48-2.2,6.47.49,2.51,3.38-.36,6.08-3.9,9.4-.64.6-1.3,1.22-2,1.94l-7.18,7.18c-6.25,6.25-6.28,6.21-12.57-.1l-.92-.93-.6-.56c-1.2-1.11-2.6-2.39-2.6-4.53Z"/></g></g></svg>