<svg xmlns="http://www.w3.org/2000/svg" viewBox="0 0 138.45 168.26"><defs><style>.cls-1{fill:#e45d5a;}</style></defs><g id="Layer_2" data-name="Layer 2"><g id="Layer_1-2" data-name="Layer 1"><path class="cls-1" d="M109.81,39.36A39.37,39.37,0,1,1,70.45,0a39.35,39.35,0,0,1,39.36,39.36Z"/><path class="cls-1" d="M93.26,79.59a51.39,51.39,0,0,1-48.08,0C21.47,83.33,0,101.9,0,124.73c0,0,1.21,26.37,6.43,34.12,5.82,8.64,30.39,9.15,62.12,9.4H69.9c31.73-.25,56.3-.76,62.12-9.4,5.21-7.75,6.43-34.12,6.43-34.12C138.45,101.9,117,83.33,93.26,79.59Z"/></g></g></svg>