<svg xmlns="http://www.w3.org/2000/svg" viewBox="0 0 121.7 141.28"><defs><style>.cls-1{fill:#e64122;}.cls-2{fill:#f37433;fill-rule:evenodd;}</style></defs><title>Asset 1</title><g id="Layer_2" data-name="Layer 2"><g id="Layer_1-2" data-name="Layer 1"><path class="cls-1" d="M9.32,42c0,12.18,0-3.05,0,3.72,0,14.38,0,24.55,3.59,39.14a57.71,57.71,0,0,0,4.69,12.74h0A82.93,82.93,0,0,0,24.83,109a54.22,54.22,0,0,0,8.59,8.7A63.24,63.24,0,0,0,44.16,125l2.37,1.23c1.22.65,2.46,1.3,3.18,1.67a56.29,56.29,0,0,0,6.36,2.77A18.79,18.79,0,0,0,61.89,132c.1,0,1.29-.43,2.8-1,3-1.12,6.53-2.66,7.52-3.15,1.88-.92,3.64-1.85,5.33-2.82s3.31-2,5-3.08a62.92,62.92,0,0,0,18.27-18.57,67.86,67.86,0,0,0,9.54-25.07C112.45,66,112.44,57.65,112.41,46c0-5.89,0,5.25,0-3.94,0-.87,0-.05,0-1.07,0-.55,0-1.11,0-1.64a34.21,34.21,0,0,0-.35-3.8,14.07,14.07,0,0,0-.53-2.42,8.28,8.28,0,0,0-2.15-3.26,10.45,10.45,0,0,0-3.84-2.26,33.59,33.59,0,0,0-4.71-.7A71,71,0,0,1,86,24l-.31-.11-8.4-3.48L77,20.26a54.73,54.73,0,0,1-5.84-3.65c-1.85-1.31-3.57-2.68-5.26-4.09-.71-.59-1.28-1.12-1.79-1.58a4.77,4.77,0,0,0-4.06-1.63c-.74,0-2.57,1.59-4.68,3.41a48.12,48.12,0,0,1-6.84,5.21l-1.19.72c-.9.55-1.81,1.11-2.46,1.48l-.27.15L36.27,23.8l-.33.11a61.72,61.72,0,0,1-13.62,2.74c-3.61.41-6.6.75-8.93,2.27a7.48,7.48,0,0,0-3.05,3.8,22.63,22.63,0,0,0-1,6.45c0,.57,0,1.18,0,1.77,0,.88,0,.48,0,1.09ZM0,45.75c0-4.36,0,11,0-3.72,0-1.27,0-.76,0-.95,0-.82,0-1.66,0-2.38A30.94,30.94,0,0,1,1.6,29.52a16.48,16.48,0,0,1,6.73-8.38c4.19-2.73,8.17-3.18,13-3.72a54.68,54.68,0,0,0,11.38-2.2l7.94-3.33c.8-.45,1.34-.79,1.87-1.11L43.8,10A41.07,41.07,0,0,0,49.33,5.7C52.85,2.65,55.91,0,60.08,0,65.95,0,67.5,1.42,70.4,4.07c.45.41.94.86,1.5,1.33C73.48,6.72,75,7.95,76.58,9A45.65,45.65,0,0,0,81.23,12l7.91,3.28a64.5,64.5,0,0,0,12.73,2.39,34.5,34.5,0,0,1,6.63,1.14,19.79,19.79,0,0,1,7.26,4.29A17.56,17.56,0,0,1,120.31,30a22.88,22.88,0,0,1,1,4.16,44,44,0,0,1,.42,4.89c0,.65,0,1.33,0,2a5.81,5.81,0,0,1,0,1c0,11.9,0,.59,0,3.94,0,12.22,0,21-2.19,33.89a77.13,77.13,0,0,1-10.89,28.49,72.24,72.24,0,0,1-21,21.33c-1.79,1.19-3.62,2.32-5.53,3.41s-3.8,2.09-5.8,3.07c-1.09.54-5.05,2.26-8.39,3.51a21.79,21.79,0,0,1-6,1.62,27.72,27.72,0,0,1-8.9-1.82,65.86,65.86,0,0,1-7.45-3.24c-1.59-.8-2.49-1.28-3.36-1.74l-2.26-1.2a72.83,72.83,0,0,1-12.41-8.5,63.85,63.85,0,0,1-10.16-10.34,91.27,91.27,0,0,1-8-12.56v0A66.74,66.74,0,0,1,3.86,87.11C0,71.49,0,60.82,0,45.75Z"/><path class="cls-2" d="M60.74,39.65a16.06,16.06,0,0,1,2.46,31.92v16.6l.29,0h3.18a2.31,2.31,0,1,1,0,4.61H63.49l-.29,0v1.86h1.59a2.31,2.31,0,1,1,0,4.61H63.19v4.58a2.46,2.46,0,0,1-4.91,0V71.57a16.06,16.06,0,0,1,2.46-31.92Z"/></g></g></svg>