<svg xmlns="http://www.w3.org/2000/svg" viewBox="0 0 141.49 141.97"><defs><style>.cls-1{fill:#9e9d9e;}</style></defs><title>Asset 1</title><g id="Layer_2" data-name="Layer 2"><g id="Layer_1-2" data-name="Layer 1"><path class="cls-1" d="M70.75,0A38.81,38.81,0,1,1,43.3,11.37,38.69,38.69,0,0,1,70.75,0ZM91.12,18.44a28.81,28.81,0,1,0,8.44,20.37,28.72,28.72,0,0,0-8.44-20.37Z"/><path class="cls-1" d="M42.75,71.3h56a47.7,47.7,0,0,1,29.79,10c8,6.43,13,15.38,13,25.31v26.74a8.2,8.2,0,0,1-3.19,6.43A10.1,10.1,0,0,1,132,142H9.48a10.1,10.1,0,0,1-6.29-2.17A8.2,8.2,0,0,1,0,133.37V106.63C0,96.7,5,87.75,13,81.32a47.71,47.71,0,0,1,29.79-10Zm56,10h-56a37.66,37.66,0,0,0-23.54,7.8C13.53,93.66,10,99.88,10,106.63V132H131.49V106.63c0-6.76-3.53-13-9.21-17.54a37.66,37.66,0,0,0-23.54-7.8Z"/></g></g></svg>