<svg xmlns="http://www.w3.org/2000/svg" viewBox="0 0 141.73 141.83"><defs><style>.cls-1{fill:#e64122;fill-rule:evenodd;}.cls-2{fill:#f37433;}</style></defs><title>Asset 1</title><g id="Layer_2" data-name="Layer 2"><g id="Layer_1-2" data-name="Layer 1"><path class="cls-1" d="M62.25,32.93a4.52,4.52,0,0,1,4.51-4.51h8.69a4.51,4.51,0,0,1,0,9,4.46,4.46,0,0,1,.13,1.06v2.35c16.21.71,30.86,5.21,41.78,12.13C130,61,137.76,72.2,137.76,84.82a5,5,0,0,1-4.92,5v12.49h4.39a4.51,4.51,0,1,1,0,9h-4.39c-.17,8.56-4.62,16.25-11.71,21.79a43.37,43.37,0,0,1-26.59,8.72H47.67a43.37,43.37,0,0,1-26.59-8.72C14,127.57,9.55,119.88,9.37,111.32H4.51a4.51,4.51,0,0,1,0-9H9.37V89.9a5,5,0,0,1-4.9-5v-.1h0C4.45,72.2,12.24,61,24.83,53,35.75,46.06,50.4,41.56,66.61,40.85V38.5a4.46,4.46,0,0,1,.13-1.06,4.52,4.52,0,0,1-4.49-4.51ZM71.1,89.8l-51.73.09v20.92c0,5.55,3,10.67,7.85,14.45a33.34,33.34,0,0,0,20.45,6.57H94.54A33.34,33.34,0,0,0,115,125.26c4.84-3.78,7.85-8.91,7.85-14.45v-21H71.1v0Zm56-10c-1.79-7-7.23-13.38-15.09-18.37-10.4-6.59-24.86-10.66-40.92-10.66S40.58,54.83,30.18,61.41c-7.87,5-13.31,11.37-15.09,18.37Z"/><path class="cls-2" d="M23.25,12.53a5,5,0,1,1,9.45,3.2c-1.18,3.45-.42,4.9.38,6.43,1.75,3.36,3.59,6.9,1.37,14.89a5,5,0,1,1-9.61-2.66c1.16-4.19.25-5.95-.63-7.62-1.8-3.46-3.52-6.76-1-14.24Z"/><path class="cls-2" d="M40,3.39a5,5,0,1,1,9.45,3.2C48.26,10,49,11.5,49.81,13c1.75,3.36,3.59,6.9,1.37,14.89a5,5,0,1,1-9.61-2.66c1.16-4.19.25-5.95-.63-7.62-1.8-3.46-3.52-6.76-1-14.24Z"/><path class="cls-2" d="M6.52,27.45A5,5,0,0,1,16,30.65c-1.18,3.45-.42,4.9.38,6.43C18.1,40.45,19.94,44,17.72,52a5,5,0,0,1-9.61-2.66c1.16-4.19.25-5.95-.63-7.62-1.8-3.46-3.52-6.76-1-14.24Z"/></g></g></svg>