<svg xmlns="http://www.w3.org/2000/svg" viewBox="0 0 142.39 143.89"><defs><style>.cls-1{fill:#e64122;}.cls-2{fill:#f37433;fill-rule:evenodd;}</style></defs><title>Asset 1</title><g id="Layer_2" data-name="Layer 2"><g id="Layer_1-2" data-name="Layer 1"><path class="cls-1" d="M35.24,0A20.06,20.06,0,1,1,21.06,5.88,20,20,0,0,1,35.24,0Zm7.11,12.95a10.06,10.06,0,1,0,2.95,7.11,10,10,0,0,0-2.95-7.11Z"/><path class="cls-1" d="M101.48,61.07a22.88,22.88,0,1,1-16.17,6.7,22.8,22.8,0,0,1,16.17-6.7Zm9.1,13.77a12.87,12.87,0,1,0,3.77,9.1,12.83,12.83,0,0,0-3.77-9.1Z"/><path class="cls-1" d="M34.77,71.33,5,71.15a5,5,0,0,1-5-5,35.25,35.25,0,0,1,70.51.2,5,5,0,0,1-5,5H35.24l-.47,0ZM10.48,61.23l24.35.14.41,0H60a25.28,25.28,0,0,0-49.53-.13Z"/><path class="cls-1" d="M101,143.86l-35.47-.21a5,5,0,0,1-5-5,40.91,40.91,0,0,1,81.81.23,5,5,0,0,1-5,5H101.48l-.47,0ZM71,133.73l30.1.18.41,0H132a30.93,30.93,0,0,0-61-.16Z"/><path class="cls-2" d="M.17,106.73H7.61v17.76a4.92,4.92,0,0,0,4.56,4.8H53.69a4.91,4.91,0,0,0,3.06-1.74,5.69,5.69,0,0,0,1.17-3.69,5.28,5.28,0,0,0-5.43-4.65H17.69V106.73h7.44a11.81,11.81,0,0,0-1.44-2.88L12.41,83.93c-.21.9-5.08,9.7-6.1,11.42-.6,1-1,1.84-1.53,2.79l-3.84,7a4.28,4.28,0,0,0-.77,1.64Z"/><path class="cls-2" d="M57.77,16.49c0,3.12,1.92,5.28,4.56,5.28H97.85V34.49H90.41c1,2,2.1,3.8,3.12,5.76l6.32,11.44c.45.88,2.55,5.06,3.28,5.6a67.76,67.76,0,0,1,3.74-7.06l8.5-15.74h-7.44V16a5,5,0,0,0-1.73-3.07,4.85,4.85,0,0,0-3.55-1.25H63.05a5,5,0,0,0-5.28,4.8Z"/></g></g></svg>