<svg xmlns="http://www.w3.org/2000/svg" viewBox="0 0 142.13 143.63"><defs><style>.cls-1,.cls-2{fill-rule:evenodd;}.cls-2{fill:#fff;}</style></defs><title>Asset 1</title><g id="Layer_2" data-name="Layer 2"><g id="Layer_1-2" data-name="Layer 1"><path d="M35.11,0A19.93,19.93,0,1,1,21,5.84,19.87,19.87,0,0,1,35.11,0Zm7.21,12.72a10.19,10.19,0,1,0,3,7.21,10.16,10.16,0,0,0-3-7.21Z"/><path d="M101.35,61.07a22.75,22.75,0,1,1-16.08,6.66,22.67,22.67,0,0,1,16.08-6.66Zm9.19,13.55a13,13,0,1,0,3.81,9.2,13,13,0,0,0-3.81-9.2Z"/><path d="M34.66,71.07,19.16,71a18.46,18.46,0,0,1,32,.11h-16l-.46,0ZM11,70.93l-6.15,0A4.85,4.85,0,0,1,0,66a35.12,35.12,0,0,1,70.25.2,4.87,4.87,0,0,1-4.87,4.87H59.3A25.89,25.89,0,0,0,53.4,62l-.64-.62H60a25.41,25.41,0,0,0-49.85-.13l7.36,0-.73.7a25.88,25.88,0,0,0-5.84,9Z"/><path d="M100.89,143.6l-35.48-.21a4.85,4.85,0,0,1-4.83-4.87,40.78,40.78,0,0,1,81.56.23,4.87,4.87,0,0,1-4.87,4.87H101.35l-.46,0Zm-30.2-9.88,30.26.18.4,0H132a31.06,31.06,0,0,0-61.33-.16Z"/><path d="M115,34.94,102.83,57.07,90.65,34.94H98V21.52H62.65a4.87,4.87,0,1,1,0-9.74h40.17a4.86,4.86,0,0,1,4,2.07,5.86,5.86,0,0,1,.37.63l.14.3h0c0,.1.08.21.12.31,1.65,4.65.25,15.51.25,19.84Z"/><path class="cls-1" d="M48.16,67.2a18.45,18.45,0,1,0,5.4,13,18.39,18.39,0,0,0-5.4-13Z"/><path class="cls-2" d="M26.35,70.54c0,1.41.36,1.87,2.23,1.87,2.76,0,7.35-.72,8.21,3H31c-2.58,0-4.66-.46-4.66,1.49s2.49,1.49,4.47,1.49h6c-1.24,5.33-10.44,1.25-10.44,4.1,0,1.62.48,1.49,2,3.57L33.75,93c.57.73.61,1.06,1.74,1.06a1.47,1.47,0,0,0,.91-2.39,12.55,12.55,0,0,0-.91-1.15l-4.66-6.15c2.78,0,4.34-.25,6-1.41,1.15-.78,2.86-2.78,2.9-4.55,2.74,0,4.1.37,4.1-1.86,0-1.46-2.91-1.12-4.1-1.12,0-1.54-.84-2-1.12-3,3.42,0,5.22.55,5.22-1.86,0-.6-.81-1.12-1.49-1.12H27.85c-.68,0-1.49.51-1.49,1.12Z"/></g></g></svg>