<svg xmlns="http://www.w3.org/2000/svg" viewBox="0 0 141.7 142.56"><defs><style>.cls-1{fill-rule:evenodd;}</style></defs><title>Asset 1</title><g id="Layer_2" data-name="Layer 2"><g id="Layer_1-2" data-name="Layer 1"><path d="M60.41,10.64,53.2,14.81l1,7.07,9.92-5.73.18-.1a3.38,3.38,0,0,0,1.14-4.23,5.06,5.06,0,0,1-.26-.45,3.4,3.4,0,0,0-4.12-1.1,5,5,0,0,1-.66.37Zm-1.1,45h63.47a13.41,13.41,0,0,1,13.39,13.39v60.11a13.41,13.41,0,0,1-13.39,13.39H31.41A13.41,13.41,0,0,1,18,129.17V78.78A11.47,11.47,0,0,1,6,73.24H6L1.54,65.61A11.48,11.48,0,0,1,5.73,49.93L6,49.78,18.62,42.5a13.35,13.35,0,0,1-2.06-2.7h0a13.3,13.3,0,0,1,4.85-18.15l.28-.15L32,15.57a5,5,0,0,1,5.55.39L44,21l-1.16-8.18h0a5,5,0,0,1,2.45-5L55.85,1.78A13.26,13.26,0,0,1,73.76,6.29l.21.34a13.29,13.29,0,0,1,1.31,3.14L88.16,2.35h0a11.48,11.48,0,0,1,15.68,4.19l4.41,7.64A11.47,11.47,0,0,1,104,29.84h0L59.32,55.68Zm-39.09,11a5,5,0,0,1,.61-.35l17.34-10,0,0L99.05,21.22h0a1.55,1.55,0,0,0,.54-2l-4.24-7.34a5,5,0,0,1-.27-.44,1.55,1.55,0,0,0-1.81-.49,5,5,0,0,1-.57.3L11,58.4l-.26.16a1.53,1.53,0,0,0-.56,2l4.41,7.64h0a1.55,1.55,0,0,0,2,.54l3.6-2.08Zm102.56-1H42L28,73.75v55.43a3.41,3.41,0,0,0,3.39,3.39h91.37a3.41,3.41,0,0,0,3.39-3.39V69.07a3.41,3.41,0,0,0-3.39-3.39ZM34,25.88l-7.36,4.25-.26.16a3.35,3.35,0,0,0-1.22,4.52h0a3.28,3.28,0,0,0,2,1.51A3.32,3.32,0,0,0,29.73,36l9.93-5.73L34,25.88Z"/><path d="M125.32,28.38a5,5,0,1,1,10,0v1.38h1.38a5,5,0,0,1,0,10h-1.38v1.38a5,5,0,0,1-10,0V39.76h-1.38a5,5,0,0,1,0-10h1.38V28.38Z"/><path class="cls-1" d="M106.81,42.7a3.44,3.44,0,1,1-3.44,3.44,3.44,3.44,0,0,1,3.44-3.44Z"/><path class="cls-1" d="M123.62,8.13a3.44,3.44,0,1,1-3.44,3.44,3.44,3.44,0,0,1,3.44-3.44Z"/><path d="M81.82,114.69l-4.48-2.43-5.43,2.67a5,5,0,0,1-7.08-5.37h0l1-5.31L61.6,99.92a5,5,0,0,1,3.09-8.44l5.18-.68,2.82-5.34a5,5,0,0,1,8.92.18h0l2.32,4.86,5.93,1a5,5,0,0,1,2.42,8.7l-3.73,3.54.86,6a5,5,0,0,1-7.58,4.94Zm-5.72-12.83a5,5,0,0,1,2.15-.13,5,5,0,0,1,.54-2.07A5,5,0,0,1,77,98.5a5,5,0,0,1-1.66,1.35,5,5,0,0,1,.78,2Z"/></g></g></svg>