<svg xmlns="http://www.w3.org/2000/svg" viewBox="0 0 137.45 141.73"><defs><style>.cls-1{fill-rule:evenodd;}</style></defs><title>Asset 1</title><g id="Layer_2" data-name="Layer 2"><g id="Layer_1-2" data-name="Layer 1"><path class="cls-1" d="M22.8,31l6.26,2.32c8.62,3,16.88,1.74,22.77-5.68,3.3-4.16,3.7-6.72,4.54-11.79a42.76,42.76,0,0,0,.75-4.78H80.38a38.49,38.49,0,0,0,.71,4.55c.87,5.18,1.15,7.71,4.58,12,5.84,7.35,14,8.67,22.56,5.75L114.71,31c3.21,6.06,8.4,14.11,11.63,20.21-1.59.43-7.37,6-8.64,7.41-5.81,6.61-5.78,17.72-.13,24.34,3.2,3.76,4,3.6,7.45,6.67.73.65.32.62,1.33.89-.88,1.67-1.82,3.27-2.82,4.93l-5.88,10.18c-1,1.69-2,3.44-2.92,5.1a28.48,28.48,0,0,1-3-1.11c-4-1.56-6.79-2.77-11.35-2.77-8.81,0-16.09,6.37-18.31,14.36l-1.62,9.45H57.13a38.49,38.49,0,0,0-.71-4.55c-.86-5.17-1.17-7.63-4.54-12.07a19.55,19.55,0,0,0-15.51-7.19c-5.44,0-10.37,3.13-13.56,3.88-3.32-6.27-8.32-14-11.63-20.21.83-.22,7-5.43,7.76-6.36,2.72-3.55,5.25-6.53,5.25-13.29,0-9.39-4.85-13.26-10.61-17.91-.48-.38-.63-.47-1.08-.86-.73-.65-.32-.62-1.33-.89.88-1.67,1.82-3.27,2.82-4.93s1.89-3.35,2.94-5.09L22.8,31ZM37.2,23.53c-5.41,0-9.71-3.88-14.39-3.88-8.06,0-10.43,7.23-13.79,12.78L4.16,40.87c-2.54,4.65-6.72,9.81-2.07,16.66,2.73,4,10.75,7,10.75,12.51,0,4.54-1,5.66-4.49,8.52C2.9,83,.11,84.36.11,91.63c0,3.27,4.67,10.38,6.48,13.45l7.35,12.58a11.83,11.83,0,0,0,8.86,4.42c4.86,0,8.46-3.88,14.95-3.88,2.66,0,5.33,2.37,6.28,4.23,2.24,4.36.34,11.71,5.66,16.49a10.17,10.17,0,0,0,6.61,2.81H81.21a10.06,10.06,0,0,0,6.46-2.68c5.51-4.84,3.39-11.91,5.8-16.62,1.86-3.62,4.81-4.23,8.22-4.23,4.13,0,14.77,8.87,21.83-.59,1.5-2,5.68-9.72,7.39-12.54,1.81-3,6.49-10.23,6.49-13.44,0-6-1.64-7.79-6-11.19-.78-.62-1.34-1.12-2.12-1.76a23.45,23.45,0,0,1-2.09-1.79A8.25,8.25,0,0,1,127.09,65l4.19-3.56c.8-.65,1.29-1.08,2.14-1.74,4.4-3.4,5.21-10,2.39-14.61-2.52-4.13-10.45-18.49-12.23-21a11.83,11.83,0,0,0-8.86-4.42c-6,0-15.65,8.8-21,0-2.86-4.68,0-14.11-8.12-18.46A9.37,9.37,0,0,0,81.21,0H56.3a9.29,9.29,0,0,0-4.16,1.1L49.26,3.21c-4.73,4.73-3,12.21-5.32,16.27a7.94,7.94,0,0,1-6.74,4.05Z"/><path class="cls-1" d="M52.7,72.25c0-5.07.78-9,4.63-12.81A16.13,16.13,0,0,1,83.25,77.88c-2.52,5-7.89,9-13.11,9-3.53,0-5.08.1-8.4-1.57a14.49,14.49,0,0,1-4.41-3.07,14.24,14.24,0,0,1-3-4.22,14.19,14.19,0,0,1-1.66-5.82ZM41.35,70.31c0,29,38.55,39.32,52.23,12.09,8.16-16.25-3.36-38.94-25.38-38.94-10.75,0-19.71,6.79-24.27,15.87a27.41,27.41,0,0,0-2.58,11Z"/></g></g></svg>