<svg xmlns="http://www.w3.org/2000/svg" viewBox="0 0 303.46 299.26"><defs><style>.cls-1{fill:#9a9a9b;}.cls-2{fill:#fff;}</style></defs><title>Asset 3</title><g id="Layer_2" data-name="Layer 2"><g id="Layer_1-2" data-name="Layer 1"><path class="cls-1" d="M.17,68.45S2.87-2.25,80.57.05s208.6-.8,221.7,76.6-84.3,222.8-162.9,222.6C71.57,299.05-4,173.45.17,68.45Z"/><path class="cls-2" d="M205.24,167.91a29.11,29.11,0,0,0-24,12.61l-64.63-34.21a29,29,0,0,0,1.13-7.55,27.66,27.66,0,0,0-1.13-7.55L181.25,97a29.17,29.17,0,1,0-5.16-16.58c0,.27.07.55.07.82l-68,36a29.17,29.17,0,1,0,0,43l68,36c0,.31-.07.55-.07.82a29.16,29.16,0,1,0,29.19-29.19Zm0-102.06a14.59,14.59,0,1,1-14.59,14.59A14.61,14.61,0,0,1,205.24,65.85ZM88.55,153.35a14.59,14.59,0,1,1,14.59-14.59A14.61,14.61,0,0,1,88.55,153.35Zm116.69,58.31a14.59,14.59,0,1,1,14.59-14.59A14.61,14.61,0,0,1,205.24,211.66Z"/></g></g></svg>