<svg xmlns="http://www.w3.org/2000/svg" viewBox="0 0 124.57 141.73"><defs><style>.cls-1{fill-rule:evenodd;}</style></defs><title>Asset 1</title><g id="Layer_2" data-name="Layer 2"><g id="Layer_1-2" data-name="Layer 1"><path class="cls-1" d="M58.13,129.55a8.17,8.17,0,0,1,.32-1.62,2.42,2.42,0,0,1,.84-1.38,4.06,4.06,0,0,1,7.08,2.49c.34,5.06-7.38,6.07-8.24.5ZM60,0h4.74a61.81,61.81,0,0,1,18.6,3.56c1.88.68,3.58,1.53,5.26,2.21a69.62,69.62,0,0,1,9.61,5.62c7.51,5.54,9.69,7.92,15.07,15.11a67.93,67.93,0,0,1,5.5,9.45c3.32,8.19,5.77,14.47,5.77,24.4V96.89c0,5.79-5.84,11.63-11.63,11.63h-5v5c0,10.68-9.48,20-20.76,19.93-4.43,0-8.86,0-13.29,0-.18,2.14-2.58,4.57-4,5.74-2.4,2-5.25,2.57-8.5,2.57-5.79,0-11.63-5.84-11.63-11.63v-1.66c0-5.79,5.84-11.63,11.63-11.63,3.32,0,6.28.57,8.65,2.7,1.34,1.2,3.63,3.46,3.81,5.61,4.63,0,12.92.38,16.4-.48,3.81-.94,7.63-4.34,8.51-8.1l-4.15.28C88.88,116.82,83,111,83,105.19V69.76C83,64,88.88,58.13,94.67,58.13h1.66c4.89,0,10.51,4.83,10.8,8.3h5c2.21,0,2.54.43,4.15.56,0-8.06-.3-12-2.1-19.21-1.58-6.34-6.78-16.24-11.11-20.72-.59-.61-1.11-1-1.65-1.67a7.25,7.25,0,0,0-1.74-1.86c-1.35-1-2.62-2.44-5.74-4.78A51.92,51.92,0,0,0,74.58,9.85c-14.82-3.78-29.7-.36-42.18,7.6-3.19,2-5.41,4.4-7.81,6.31l-3.34,3.58c-.57.64-1,1.36-1.55,2a43,43,0,0,0-2.86,4.06c-1,1.67-1.7,2.73-2.62,4.57a38,38,0,0,0-2.13,4.79,52.48,52.48,0,0,0-1.78,5.42c-1.72,7-2,10.93-2,18.77a17.14,17.14,0,0,0,2-.45l7.09-.11c.18-2.14,2.58-4.57,4-5.74,2.4-2,5.25-2.57,8.5-2.57,5.79,0,11.63,5.84,11.63,11.63v35.43c0,5.79-5.84,11.63-11.63,11.63H28.24c-4.89,0-10.51-4.83-10.8-8.3-5.78,0-8.87.31-12.35-2.32C2.74,104.41,0,100.85,0,96.89V60.35a57.19,57.19,0,0,1,1.82-13.4c.52-2,1.11-4,1.74-5.73a63.84,63.84,0,0,1,7.83-14.87A56.38,56.38,0,0,1,18.2,18.2a57.27,57.27,0,0,1,8.3-6.93,68,68,0,0,1,9.45-5.5c1.76-.71,3.44-1.58,5.47-2.28A63.79,63.79,0,0,1,60,0ZM91.35,103.53V71.42c0-6.58,8.3-6.58,8.3,0v32.11c0,6.58-8.3,6.58-8.3,0Zm-66.44,0V71.42c0-6.58,8.3-6.58,8.3,0v32.11c0,6.58-8.3,6.58-8.3,0Zm86.37-3.32H108V74.74c10.11,0,8.3.74,8.3,20.48,0,3.26-1.72,5-5,5Zm-103-5V79.72c0-5.61,4.49-5,8.3-5v25.47c-3.81,0-8.3.62-8.3-5Z"/></g></g></svg>