<svg xmlns="http://www.w3.org/2000/svg" viewBox="0 0 141.27 142"><defs><style>.cls-1,.cls-3{fill:#e64122;}.cls-2{fill:#f37433;}.cls-3{fill-rule:evenodd;}</style></defs><title>Asset 1</title><g id="Layer_2" data-name="Layer 2"><g id="Layer_1-2" data-name="Layer 1"><path class="cls-1" d="M20.58,0h97a22.7,22.7,0,0,1,16.76,6.94,23.62,23.62,0,0,1,6.94,16.75,5,5,0,0,1-5,5h-35v92.73A20.62,20.62,0,0,1,80.66,142H20.58A20.62,20.62,0,0,1,0,121.42V20.58A20.62,20.62,0,0,1,20.58,0Zm84.24,18.7h25.51a13.7,13.7,0,0,0-25.51,0ZM80.66,10H20.58A10.62,10.62,0,0,0,10,20.58V121.42A10.62,10.62,0,0,0,20.58,132H80.66a10.62,10.62,0,0,0,10.58-10.58V23.67c0-11.8,13.22-13.83,6.31-13.84L80.66,10Z"/><path class="cls-2" d="M120.48,34.13a14.11,14.11,0,0,1,14.08,14.08V113a5,5,0,0,1-.83,2.76l-8.88,16.31a5,5,0,0,1-8.76,0L107,115.37a5,5,0,0,1-.61-2.38h0V48.22a14.11,14.11,0,0,1,14.08-14.08Zm2.88,11.2a4.08,4.08,0,0,0-7,2.88v63.54l4.08,7.5,4.08-7.5V48.22a4.07,4.07,0,0,0-1.2-2.88Z"/><path class="cls-3" d="M61.56,54.47l10-10V58.88A14.71,14.71,0,0,1,56.89,73.56H34.82A14.71,14.71,0,0,1,20.14,58.88V36.82A14.71,14.71,0,0,1,34.82,22.14H56.89a14.64,14.64,0,0,1,10.37,4.31l.1.1-7.16,7h0a4.66,4.66,0,0,0-3.3-1.38H34.82a4.7,4.7,0,0,0-4.68,4.68V58.88a4.7,4.7,0,0,0,4.68,4.68H56.89a4.7,4.7,0,0,0,4.68-4.68V54.47Z"/><path class="cls-2" d="M37.08,49a5,5,0,1,1,7.07-7.07l6.29,6.29L72.56,26.1a5,5,0,0,1,7.07,7.07L54,58.82a5,5,0,0,1-7.07,0L37.08,49Z"/><path class="cls-1" d="M26.18,99a5,5,0,0,1,0-10H75.06a5,5,0,1,1,0,10Z"/><path class="cls-1" d="M26.18,118a5,5,0,0,1,0-10H75.06a5,5,0,1,1,0,10Z"/></g></g></svg>