<svg xmlns="http://www.w3.org/2000/svg" viewBox="0 0 137.52 137.52"><defs><style>.cls-1{fill:#fff200;}.cls-1,.cls-2{fill-rule:evenodd;}.cls-2{fill:#ed1c24;}</style></defs><title>Asset 1</title><g id="Layer_2" data-name="Layer 2"><g id="Layer_1-2" data-name="Layer 1"><path class="cls-1" d="M68.76,2A66.76,66.76,0,1,1,2,68.76,66.76,66.76,0,0,1,68.76,2Z"/><path d="M68.76,0A68.76,68.76,0,1,1,20.14,20.14,68.55,68.55,0,0,1,68.76,0Zm45.79,23a64.76,64.76,0,1,0,19,45.79,64.56,64.56,0,0,0-19-45.79Z"/><path d="M29.26,45.76a3,3,0,1,1-5.09-3.14,22.57,22.57,0,0,1,38.38,0,3,3,0,1,1-5.09,3.14,16.6,16.6,0,0,0-28.21,0Z"/><path d="M80.05,45.76A3,3,0,1,1,75,42.62a22.57,22.57,0,0,1,38.38,0,3,3,0,1,1-5.09,3.14,16.6,16.6,0,0,0-28.21,0Z"/><path d="M109.7,75.15a3,3,0,1,1,5.23,2.91c-3.57,6.41-10.09,11.72-18.36,15.4a70,70,0,0,1-28.1,5.64A70.39,70.39,0,0,1,41.1,93.79C33,90.32,26.47,85.3,22.66,79.19A3,3,0,1,1,27.75,76c3.14,5,8.69,9.26,15.69,12.25a64.38,64.38,0,0,0,25,4.82A64,64,0,0,0,94.15,88c7.09-3.15,12.62-7.59,15.55-12.84Z"/><path class="cls-2" d="M100.56,84.57C89.78,91.45,75.69,94,63.37,92.93c12.36-3.74,19.13-5.64,20-16.44,0-9.44,8.09-12.36,13.39-10.47,5.86,2.1,9.11,10.52,3.76,18.54Z"/></g></g></svg>