<svg xmlns="http://www.w3.org/2000/svg" viewBox="0 0 155.86 141.02"><defs><style>.cls-1{fill:#fff200;}.cls-1,.cls-2,.cls-3{fill-rule:evenodd;}.cls-3{fill:#fff;}</style></defs><title>Asset 1</title><g id="Layer_2" data-name="Layer 2"><g id="Layer_1-2" data-name="Layer 1"><path class="cls-1" d="M68.76,2A66.76,66.76,0,1,1,2,68.76,66.76,66.76,0,0,1,68.76,2Z"/><path d="M68.76,0A68.76,68.76,0,1,1,20.14,20.14,68.55,68.55,0,0,1,68.76,0Zm45.79,23a64.76,64.76,0,1,0,19,45.79,64.56,64.56,0,0,0-19-45.79Z"/><path class="cls-2" d="M68.76,78.86H39.66a29.1,29.1,0,1,0,58.2,0Z"/><path class="cls-3" d="M38.77,27.85A16.93,16.93,0,1,1,21.84,44.78,16.93,16.93,0,0,1,38.77,27.85Z"/><path class="cls-2" d="M38.26,37.79a7,7,0,1,1-7,7,7,7,0,0,1,7-7Z"/><path class="cls-3" d="M94.76,27.85A16.93,16.93,0,1,1,77.83,44.78,16.93,16.93,0,0,1,94.76,27.85Z"/><path class="cls-2" d="M94.4,38.16a7,7,0,1,1-7,7,7,7,0,0,1,7-7Z"/><path class="cls-1" d="M107.06,75.13a9.66,9.66,0,0,1,19.33,0V91.22c6.67.44,13.88,2.34,22,1.76v42.87c-16.61,2.48-29.93,7.42-42.24-4.53-6.17-6-6.68-17.86-3-26.42,6.41-14.94,3.9-12.94,3.9-29.77Z"/><path d="M105.06,75.13a11.66,11.66,0,0,1,23.33,0V89.38c1.77.18,3.57.42,5.41.68a68.68,68.68,0,0,0,14.46.93,2,2,0,0,1,2.13,1.85V93h0v42.87a2,2,0,0,1-1.8,2c-2.47.37-4.93.81-7.32,1.23-13.77,2.45-25.36,4.5-36.51-6.32-3.31-3.22-5.16-7.87-5.73-12.86a31.92,31.92,0,0,1,2.28-15.76c4.53-10.55,4.43-12.29,4.06-18.79-.14-2.54-.32-5.76-.32-10.19Zm6.25-5.41a7.64,7.64,0,0,0-2.25,5.41c0,4.49.17,7.55.31,10,.41,7.24.52,9.18-4.38,20.58a27.87,27.87,0,0,0-2,13.76c.47,4.13,1.94,7.91,4.54,10.44,9.67,9.39,20.35,7.5,33,5.24,1.88-.33,3.81-.68,5.81-1V95.07A80.59,80.59,0,0,1,133.27,94c-2.37-.33-4.67-.64-6.89-.8a2,2,0,0,1-2-2V75.13a7.65,7.65,0,0,0-13.07-5.41Z"/><path class="cls-1" d="M133,92.79h15.48a5.43,5.43,0,0,1,5.41,5.41h0a5.43,5.43,0,0,1-5.41,5.41H133a5.43,5.43,0,0,1-5.41-5.41h0A5.43,5.43,0,0,1,133,92.79Z"/><path d="M133,90.79h15.48A7.39,7.39,0,0,1,153.68,93h0a7.37,7.37,0,0,1,0,10.45h0a7.39,7.39,0,0,1-5.22,2.17H133a7.39,7.39,0,0,1-5.23-2.18h0a7.37,7.37,0,0,1,0-10.45h0A7.39,7.39,0,0,1,133,90.79Zm15.48,4H133a3.4,3.4,0,0,0-2.41,1h0a3.41,3.41,0,0,0,0,4.81h0a3.4,3.4,0,0,0,2.41,1h15.48a3.39,3.39,0,0,0,2.41-1h0a3.41,3.41,0,0,0,0-4.81h0a3.39,3.39,0,0,0-2.41-1Z"/><path class="cls-1" d="M133,103.69h15.48a5.43,5.43,0,0,1,5.41,5.41h0a5.43,5.43,0,0,1-5.41,5.41H133a5.43,5.43,0,0,1-5.41-5.41h0a5.43,5.43,0,0,1,5.41-5.41Z"/><path d="M133,101.69h15.48a7.39,7.39,0,0,1,5.23,2.18h0a7.37,7.37,0,0,1,0,10.45h0a7.38,7.38,0,0,1-5.23,2.18H133a7.4,7.4,0,0,1-5.23-12.64h0a7.39,7.39,0,0,1,5.22-2.17Zm15.48,4H133a3.4,3.4,0,0,0-2.41,1h0a3.41,3.41,0,0,0,2.41,5.82h15.48a3.41,3.41,0,0,0,2.41-5.82h0a3.39,3.39,0,0,0-2.41-1Z"/><path class="cls-1" d="M133,114.48h15.48a5.43,5.43,0,0,1,5.41,5.41h0a5.43,5.43,0,0,1-5.41,5.41H133a5.43,5.43,0,0,1-5.41-5.41h0a5.43,5.43,0,0,1,5.41-5.41Z"/><path d="M133,112.48h15.48a7.39,7.39,0,0,1,5.23,2.18h0a7.41,7.41,0,0,1-5.24,12.63H133a7.39,7.39,0,0,1-5.23-2.18h0a7.37,7.37,0,0,1,0-10.45h0a7.39,7.39,0,0,1,5.22-2.17Zm15.48,4H133a3.4,3.4,0,0,0-2.41,1h0a3.41,3.41,0,0,0,0,4.81h0a3.4,3.4,0,0,0,2.41,1h15.48a3.41,3.41,0,0,0,2.41-5.82h0a3.39,3.39,0,0,0-2.41-1Z"/><path class="cls-1" d="M133,125.27h15.48a5.43,5.43,0,0,1,5.41,5.41h0a5.43,5.43,0,0,1-5.41,5.41H133a5.43,5.43,0,0,1-5.41-5.41h0a5.43,5.43,0,0,1,5.41-5.41Z"/><path d="M133,123.27h15.48a7.39,7.39,0,0,1,5.23,2.18h0a7.37,7.37,0,0,1,0,10.45h0a7.39,7.39,0,0,1-5.22,2.17H133a7.39,7.39,0,0,1-5.23-2.18h0a7.37,7.37,0,0,1,0-10.45h0a7.39,7.39,0,0,1,5.22-2.17Zm15.48,4H133a3.4,3.4,0,0,0-2.41,1h0a3.41,3.41,0,0,0,0,4.81h0a3.4,3.4,0,0,0,2.41,1h15.48a3.39,3.39,0,0,0,2.41-1h0a3.41,3.41,0,0,0,0-4.81h0a3.39,3.39,0,0,0-2.41-1Z"/></g></g></svg>