<svg xmlns="http://www.w3.org/2000/svg" viewBox="0 0 141.73 135.83"><defs><style>.cls-1{fill:#e64122;}.cls-1,.cls-2,.cls-3{fill-rule:evenodd;}.cls-2{fill:#f37433;}.cls-3{fill:#fffae2;}</style></defs><title>Asset 1</title><g id="Layer_2" data-name="Layer 2"><g id="Layer_1-2" data-name="Layer 1"><path class="cls-1" d="M11.81,31c0,10.35,2.28,15.77-2.42,21.94C5.28,58.36,0,61.69,0,68.65c0,4.68,6.91,11,9.39,14.23,8.52,11.2-5.65,25.78,10.85,30.85,4.25,1.31,10.21,1.85,13.65,4.06,6.16,4,8.85,18,17.4,18,6.07,0,13.84-5.87,19.56-5.87,9.88,0,18.63,12.63,27.48.87l3.41-5.45c.61-1.09,1.05-1.63,1.71-2.72,6.08-10.12,17.49-5.92,23.61-11.82,7.17-6.91-2-18.35,5.26-28,4.12-5.41,9.39-8.74,9.39-15.7,0-4.68-6.91-11-9.39-14.23-7.22-9.49,1.72-21.08-5.08-27.77-4.58-4.51-13.14-3.54-19.34-7.24C101.49,14.1,99.09,0,90.43,0,84.35,0,76.59,5.87,70.87,5.87c-3,0-7.39-1.93-9.61-2.91-2.42-1.07-6.67-3-10-3C42.86,0,40.07,13.83,34.12,17.88c-5,3.4-15.07,2.84-19.47,7.11a8.44,8.44,0,0,0-2.84,6Z"/><path class="cls-2" d="M65.86,21.51c-23.94,2.68-44.32,24.07-41.4,51.42C27,97,48.63,117.24,76,114.29c33.13-3.58,51.48-38.95,35.67-69.06-8-15.16-26.57-25.86-45.77-23.71Z"/><path class="cls-3" d="M66.81,71l-7.15-7c-1.65-1.6-3-3.09-4-3.46a5.12,5.12,0,0,0-6.8,3c-1.24,3.83,1.79,6.07,3.28,7.56C69.33,88.32,63.68,89,86.87,65.83a63.57,63.57,0,0,0,5.29-5.41c3.42-4.62-2.5-12.48-8.93-5.61L66.81,71Z"/></g></g></svg>