<svg xmlns="http://www.w3.org/2000/svg" viewBox="0 0 142.25 137.04"><defs><style>.cls-1{fill:#e64122;}.cls-2{fill:#f37433;fill-rule:evenodd;}</style></defs><title>Asset 1</title><g id="Layer_2" data-name="Layer 2"><g id="Layer_1-2" data-name="Layer 1"><path class="cls-1" d="M21,33.93c0,2.57.15,4.71.28,6.62.45,6.59.77,11.18-3.57,16.88-1.15,1.52-2.3,2.78-3.41,4C12.06,63.92,10,66.18,10,69.06c0,1.42,3,4.79,5.25,7.32.93,1,1.77,2,2.48,2.92,4.59,6,4,12.11,3.47,17.74-.4,4.12-.75,7.8,4.16,9.31,1,.32,2.51.64,4,1,3.46.75,7.06,1.53,10,3.39,3.28,2.1,5.36,5.59,7.48,9.16,2,3.38,4.09,6.87,6.06,6.87s4.66-1.2,7.42-2.39c3.62-1.56,7.19-3.09,10.84-3.09,4.33,0,7.94,1.68,11.45,3.32s7.14,3.33,10-.27l3.1-5h0c.43-.77.69-1.16,1-1.56s.44-.67.59-.91c4.44-7.39,10.52-8.59,16.27-9.73,2.67-.53,5.24-1,6.58-2.33,1.56-1.5,1.25-4.55.92-7.84-.56-5.59-1.16-11.57,3.48-17.68,1.15-1.52,2.3-2.78,3.41-4,2.26-2.49,4.32-4.75,4.32-7.62,0-1.42-3-4.79-5.25-7.32-.93-1-1.77-2-2.48-2.93-4.63-6.09-4-12.14-3.48-17.76.32-3.24.61-6.24-.79-7.62s-4.13-1.93-7-2.57c-3.34-.74-6.79-1.5-10.08-3.46-3.51-2.1-5.67-5.71-7.85-9.38-2-3.28-3.95-6.63-5.91-6.63S84.72,11.2,82,12.39c-3.62,1.56-7.19,3.09-10.84,3.09a20.61,20.61,0,0,1-6.37-1.31c-2-.69-3.56-1.38-4.6-1.84l-.05,0C58.19,11.47,54.87,10,52.87,10s-4.06,3.52-6.09,6.91-4.06,6.8-7.13,8.9-6.5,2.78-10.11,3.57c-3.07.67-6.19,1.35-7.39,2.52A4.69,4.69,0,0,0,21.27,33a1.92,1.92,0,0,0-.24.9Zm-9.68,7.29C11.19,39,11,36.6,11,33.93a11.77,11.77,0,0,1,1.42-5.59,14.65,14.65,0,0,1,2.76-3.6c3.27-3.18,7.78-4.16,12.23-5.13,2.67-.58,5.3-1.16,6.6-2s2.72-3.29,4.2-5.78C41.68,6,45.26,0,52.87,0c4.08,0,8.63,2,11.25,3.17l.05,0c1,.45,2.55,1.12,3.82,1.56a11.06,11.06,0,0,0,3.13.72c1.61,0,4.23-1.13,6.89-2.27C81.72,1.62,85.48,0,89.38,0,97,0,100.44,5.84,103.85,11.56c1.52,2.56,3,5.07,4.41,5.9a25,25,0,0,0,7.11,2.29c4.33,1,8.5,1.88,11.87,5.19,4.8,4.72,4.28,10,3.72,15.71-.37,3.74-.76,7.76,1.49,10.73.4.53,1.17,1.39,2,2.34,3.35,3.77,7.79,8.75,7.79,14,0,6.71-3.3,10.35-6.93,14.34-1,1.08-2,2.21-2.87,3.34-2.26,3-1.86,6.94-1.49,10.65.58,5.77,1.12,11.14-3.93,16-3.46,3.34-7.44,4.12-11.58,4.95-3.65.72-7.49,1.49-9.63,5-.38.63-.61,1-.82,1.3s-.56.85-.69,1.08l-.12.23L101,129.71l-.25.35c-7.81,10.37-14.92,7.06-22.39,3.58-2.52-1.17-5.11-2.38-7.23-2.38-1.61,0-4.23,1.13-6.89,2.27-3.71,1.59-7.47,3.21-11.36,3.21-7.61,0-11.17-6-14.61-11.75-1.51-2.54-3-5-4.32-5.88s-4.06-1.46-6.67-2c-1.61-.35-3.18-.69-4.84-1.2-12.68-3.9-12-11.4-11.15-19.78.36-3.76.75-7.82-1.48-10.75-.4-.53-1.16-1.39-2-2.34C4.44,79.26,0,74.27,0,69.06c0-6.71,3.3-10.35,6.93-14.34,1-1.08,2-2.2,2.87-3.34,2.05-2.7,1.84-5.76,1.54-10.16Z"/><path class="cls-1" d="M67,30A39.32,39.32,0,0,0,40.91,44.42a37.84,37.84,0,0,0-8.12,28.1v0A38.92,38.92,0,0,0,46.41,98a38,38,0,0,0,28.89,8.7h0a38.88,38.88,0,0,0,14-4.19A37.61,37.61,0,0,0,105.1,86.63a38.93,38.93,0,0,0,4.22-22.31,41.41,41.41,0,0,0-4.56-14.82A37,37,0,0,0,88.94,34.24,38.55,38.55,0,0,0,67,30ZM33.14,38.17A49.39,49.39,0,0,1,65.91,20.11a48.48,48.48,0,0,1,27.61,5.26,47.1,47.1,0,0,1,20.07,19.52,51.33,51.33,0,0,1,5.66,18.37,48.89,48.89,0,0,1-5.31,28,47.58,47.58,0,0,1-20,20,48.8,48.8,0,0,1-17.51,5.28h0a47.91,47.91,0,0,1-36.39-11,48.93,48.93,0,0,1-17.09-32v0A47.69,47.69,0,0,1,33.14,38.17Z"/><path class="cls-2" d="M67.33,71.29l-6.67-6.48c-1.54-1.5-2.83-2.88-3.77-3.24a4.77,4.77,0,0,0-6.34,2.78c-1.15,3.58,1.67,5.66,3.06,7.05,16.07,16,10.8,16.65,32.43-5a59.41,59.41,0,0,0,4.94-5c3.19-4.31-2.33-11.65-8.33-5.23L67.33,71.29Z"/></g></g></svg>