<svg xmlns="http://www.w3.org/2000/svg" viewBox="0 0 142.14 142.14"><defs><style>.cls-1{fill:#e64122;}.cls-2,.cls-3{fill:#f37433;}.cls-2{fill-rule:evenodd;}</style></defs><title>Asset 1</title><g id="Layer_2" data-name="Layer 2"><g id="Layer_1-2" data-name="Layer 1"><path class="cls-1" d="M142.14,92.47v26.46a23.25,23.25,0,0,1-23.2,23.2H23.2A23.25,23.25,0,0,1,0,118.94V92.47a5,5,0,0,1,5-5H137.14a5,5,0,0,1,5,5Zm-10,26.46V97.47H10v21.46a13.25,13.25,0,0,0,13.2,13.2h95.74a13.25,13.25,0,0,0,13.2-13.2Z"/><path class="cls-1" d="M142.14,32.34V97.47H0V23.2A23.25,23.25,0,0,1,23.2,0h95.74a23.25,23.25,0,0,1,23.2,23.2v9.14Zm-10,41.93V23.2A13.25,13.25,0,0,0,118.94,10H23.2A13.25,13.25,0,0,0,10,23.2V87.47H132.14V74.28Z"/><path class="cls-1" d="M71.07,26.78a20.38,20.38,0,1,1-14.41,6,20.32,20.32,0,0,1,14.41-6Zm7.34,13a10.38,10.38,0,1,0,3,7.34,10.35,10.35,0,0,0-3-7.34Z"/><path class="cls-1" d="M60.83,59.21H81.3A18.84,18.84,0,0,1,100.1,78V90.17a6.63,6.63,0,0,1-2,4.68h0a6.62,6.62,0,0,1-4.69,1.95H48.67A6.63,6.63,0,0,1,44,94.86l0,0A6.63,6.63,0,0,1,42,90.17V78a18.84,18.84,0,0,1,18.8-18.8Zm20.47,10H60.83A8.84,8.84,0,0,0,52,78v8.8H90.1V78a8.84,8.84,0,0,0-8.8-8.8Z"/><path class="cls-2" d="M26.15,110.48,30,112.69a2.37,2.37,0,0,1,.13,4.17l-7.78,4.49a2.37,2.37,0,0,1-3.7-2v-9.15h0a2.37,2.37,0,0,1,3.55-2l4,2.29Z"/><path class="cls-3" d="M37.51,116.83a1.5,1.5,0,1,1,0-3H121.8a1.5,1.5,0,0,1,0,3Z"/><path class="cls-1" d="M58.24,112.43a1,1,0,1,1,2,0v5.81a1,1,0,1,1-2,0v-5.81Z"/></g></g></svg>