<svg xmlns="http://www.w3.org/2000/svg" viewBox="0 0 151.73 151.73"><defs><style>.cls-1{fill:#e64122;}.cls-1,.cls-2,.cls-3,.cls-4{stroke:#f37433;}.cls-1,.cls-2{stroke-linecap:round;stroke-linejoin:round;stroke-width:10px;}.cls-1,.cls-4{fill-rule:evenodd;}.cls-2{fill:none;}.cls-3,.cls-4{fill:#f37433;stroke-miterlimit:10;stroke-width:1px;}</style></defs><title>Asset 1</title><g id="Layer_2" data-name="Layer 2"><g id="Layer_1-2" data-name="Layer 1"><path class="cls-1" d="M112,5H39.76A34.87,34.87,0,0,0,5,39.76V112a34.87,34.87,0,0,0,34.76,34.76H112A34.87,34.87,0,0,0,146.73,112V39.76A34.87,34.87,0,0,0,112,5Z"/><path class="cls-2" d="M27.82,49.58a22.6,22.6,0,0,1,38.42,0m20.19,0a22.6,22.6,0,0,1,38.42,0"/><path class="cls-3" d="M88.23,105.23c3.21-.87,7.52-3.1,9.27-7.46A61.86,61.86,0,0,0,100,89.72l0-.1A2,2,0,0,1,102.66,88h0a2.46,2.46,0,0,1,1.6,2.95l0,.1c-.55,2-1.14,3.92-1.87,5.88-.4,1.07-.85,2.14-1.33,3.22l.53-.29c4.53-2.62,9.33-7.94,6.73-13.52a8.84,8.84,0,0,0-4.71-4.11,8.67,8.67,0,0,0-3.12-.54,5.59,5.59,0,0,0-2.29.5,3.7,3.7,0,0,0-2,2.76v.08l-.1.46c-2,9.39-3.92,12.34-7.8,19.71ZM30.74,81.69a55.38,55.38,0,0,0,45.12,25.24c4.23-.1,5.18.16,8.34-4.3,3.84-5.41,5.71-10,7.39-18h0a8.33,8.33,0,0,1,4.61-6.44,10,10,0,0,1,4.17-1,13.17,13.17,0,0,1,4.78.82h0a13.41,13.41,0,0,1,7.19,6.35,11.72,11.72,0,0,1,1.15,4.44,11.34,11.34,0,0,1-.12,2.21A56,56,0,0,0,121,81.69a2.39,2.39,0,0,1,4,2.61,60.22,60.22,0,0,1-49,27.42h-.23a60.22,60.22,0,0,1-49-27.42,2.39,2.39,0,0,1,4-2.61Z"/><path class="cls-3" d="M23.18,82.28a6.6,6.6,0,0,0,4.09-1.18,6.47,6.47,0,0,0,2.5-3.43c1.35-3.4,5.78-1.19,4.58,1.4a11.37,11.37,0,0,1-11.4,8c-3.52-.09-3-4.83.23-4.77Z"/><path class="cls-3" d="M128.56,82.28a6.57,6.57,0,0,1-6.6-4.61c-1.34-3.4-5.78-1.19-4.57,1.4a11.37,11.37,0,0,0,11.39,8c3.52-.09,3-4.83-.22-4.77Z"/><path class="cls-4" d="M113.56,73.05a9,9,0,0,0-5.5,1.88,9.92,9.92,0,0,1,3.42-5.78c5.41-4.43,7.47,3,2.08,3.9Z"/><path class="cls-4" d="M112.18,77.59A6,6,0,0,0,108.67,76a6.53,6.53,0,0,1,4.31-1.2c4.66.36,2.21,4.9-.79,2.84Z"/></g></g></svg>